
<!-- Generator: visioncortex VTracer 0.6.4 -->
<svg version="1.1" xmlns="http://www.w3.org/2000/svg" viewBox="0 0 1364 539" preserveAspectRatio="xMidYMid meet">
<path d="M0 0 C4.844 0.002 9.687 -0.001 14.531 -0.004 C24.001 -0.008 33.471 -0.007 42.941 -0.005 C50.658 -0.002 58.374 -0.002 66.091 -0.003 C67.194 -0.003 68.297 -0.003 69.434 -0.004 C71.677 -0.004 73.919 -0.004 76.162 -0.005 C97.158 -0.007 118.153 -0.004 139.149 0.001 C157.07 0.006 174.991 0.005 192.913 0 C213.804 -0.005 234.695 -0.007 255.586 -0.004 C257.826 -0.004 260.067 -0.003 262.308 -0.003 C263.961 -0.003 263.961 -0.003 265.647 -0.003 C273.321 -0.002 280.995 -0.003 288.669 -0.006 C298.071 -0.008 307.473 -0.008 316.874 -0.002 C321.649 0 326.424 0.001 331.199 -0.002 C343.213 -0.01 355.225 0.021 367.238 0.131 C368.201 0.139 369.163 0.148 370.154 0.157 C376.201 0.216 382.247 0.297 388.293 0.403 C390.226 0.435 392.159 0.462 394.092 0.484 C396.761 0.516 399.429 0.567 402.098 0.624 C402.896 0.63 403.694 0.636 404.516 0.642 C406.723 0.7 406.723 0.7 410.238 1.131 C412.614 4.694 412.537 7.221 412.54 11.336 C412.549 12.081 412.557 12.826 412.566 13.593 C412.591 16.119 412.603 18.645 412.615 21.17 C412.631 23.003 412.647 24.836 412.665 26.668 C412.711 31.76 412.744 36.852 412.775 41.945 C412.812 47.489 412.859 53.033 412.906 58.577 C412.986 68.419 413.058 78.26 413.126 88.102 C413.201 99.001 413.281 109.901 413.366 120.8 C413.371 121.502 413.377 122.204 413.383 122.927 C413.405 125.793 413.427 128.66 413.45 131.526 C413.683 161.431 413.898 191.337 414.102 221.242 C414.119 223.634 414.135 226.027 414.152 228.42 C414.163 230.017 414.174 231.615 414.185 233.213 C414.267 245.189 414.352 257.166 414.439 269.142 C414.576 288.032 414.709 306.921 414.836 325.81 C414.841 326.574 414.846 327.338 414.851 328.124 C415.251 387.794 415.356 447.46 415.238 507.131 C343.153 507.243 271.072 507.219 198.988 506.693 C197.849 506.685 197.849 506.685 196.686 506.676 C144.56 506.295 92.434 505.835 40.31 505.224 C33.868 505.149 27.426 505.077 20.983 505.006 C11.939 504.906 2.895 504.8 -6.15 504.691 C-9.466 504.651 -12.781 504.613 -16.097 504.576 C-19.891 504.534 -23.684 504.488 -27.477 504.438 C-29.49 504.413 -31.504 504.392 -33.517 504.371 C-52.788 504.104 -52.788 504.104 -54.762 502.131 C-54.87 499.812 -54.912 497.523 -54.913 495.203 C-54.918 494.469 -54.922 493.735 -54.926 492.979 C-54.939 490.496 -54.945 488.014 -54.951 485.531 C-54.959 483.757 -54.968 481.982 -54.976 480.207 C-54.995 476.361 -55.01 472.516 -55.022 468.67 C-55.042 462.515 -55.07 456.359 -55.099 450.204 C-55.154 438.143 -55.202 426.082 -55.249 414.021 C-55.316 396.848 -55.388 379.674 -55.466 362.501 C-55.476 360.372 -55.485 358.244 -55.495 356.115 C-55.603 331.724 -55.766 307.34 -56.216 282.953 C-57.099 235.219 -56.913 187.475 -56.89 139.734 C-56.886 129.209 -56.889 118.685 -56.894 108.16 C-56.899 97.87 -56.899 87.581 -56.897 77.291 C-56.895 71.204 -56.895 65.117 -56.898 59.03 C-56.901 53.351 -56.899 47.672 -56.893 41.993 C-56.892 39.926 -56.892 37.858 -56.894 35.791 C-56.906 24.193 -56.667 12.698 -55.762 1.131 C-37.194 -0.187 -18.602 -0.013 0 0 Z M-19.762 9.131 C-20.092 8.801 -20.422 8.471 -20.762 8.131 C-24.555 7.69 -26.517 8.006 -29.949 9.756 C-33.9 13.092 -35.455 16.029 -36.199 21.131 C-35.455 26.238 -32.842 29.198 -29.012 32.506 C-28.269 33.042 -27.527 33.578 -26.762 34.131 C-26.432 32.151 -26.102 30.171 -25.762 28.131 C-25.254 28.844 -24.746 29.556 -24.223 30.291 C-17.602 40.01 -17.602 40.01 -9.137 48.006 C-5.604 51.167 -4.39 54.74 -2.762 59.131 C-2.325 60.286 -1.888 61.441 -1.438 62.631 C3.559 76.337 3.342 88.801 2.238 103.131 C10.396 100.11 17.429 94.403 22.238 87.131 C24.171 82.879 25.772 78.563 27.238 74.131 C30.319 74.433 31.166 75.045 33.203 77.459 C33.854 78.423 34.505 79.387 35.176 80.381 C37.954 84.354 40.614 87.878 44.238 91.131 C44.967 91.848 44.967 91.848 45.711 92.58 C50.459 97.037 55.975 100.274 62.238 102.131 C64.936 102.034 64.936 102.034 67.238 101.131 C68.955 98.686 68.955 98.686 70.238 96.131 C70.898 95.801 71.558 95.471 72.238 95.131 C72.183 83.416 67.372 70.651 59.238 62.131 C55.897 58.828 52.47 56.165 48.363 53.881 C45.238 52.131 45.238 52.131 44.238 50.131 C44.817 50.116 45.395 50.102 45.991 50.087 C66.133 50.282 66.133 50.282 83.238 41.131 C87.884 35.119 91.591 29.883 91.238 22.131 C87.236 24.239 85.043 26.404 82.426 30.068 C78.219 35.454 74.715 38.349 67.934 39.533 C60.598 40.013 54.711 37.308 48.238 34.131 C47.307 33.685 46.377 33.239 45.418 32.779 C40.404 30.222 36.192 27.367 31.926 23.693 C19.215 12.953 -3.088 2.461 -19.762 9.131 Z M266.238 19.131 C265.729 19.6 265.22 20.069 264.695 20.553 C260.018 24.833 254.815 27.884 249.304 30.972 C245.258 33.148 245.258 33.148 243.238 37.131 C250.448 39.075 256.347 35.728 262.633 32.256 C265.892 30.289 269.077 28.25 272.238 26.131 C272.938 25.674 273.638 25.218 274.359 24.748 C277.521 22.458 278.224 21.191 279.113 17.318 C279.154 16.266 279.196 15.214 279.238 14.131 C273.592 11.661 270.342 15.592 266.238 19.131 Z M335.238 13.131 C334.578 14.1 333.918 15.069 333.238 16.068 C326.149 24.356 313.732 29.936 303.238 32.131 C303.238 33.121 303.238 34.111 303.238 35.131 C309.975 34.974 316.14 33.791 322.551 31.818 C323.22 31.618 323.889 31.417 324.578 31.21 C330.211 29.4 334.877 27.264 338.113 22.193 C339.201 19.232 339.513 17.246 339.238 14.131 C337.918 13.801 336.598 13.471 335.238 13.131 Z M129.238 15.131 C129.857 16.203 130.476 17.276 131.113 18.381 C131.831 19.625 132.539 20.876 133.238 22.131 C133.613 22.777 133.988 23.422 134.375 24.088 C135.938 27.787 135.261 31.333 134.238 35.131 C128.069 43.888 115.281 46.661 105.514 49.725 C103.409 50.386 101.309 51.058 99.209 51.732 C90.912 54.376 83.8 56.289 75.051 56.131 C69.996 55.823 69.996 55.823 65.238 57.131 C65.881 60.176 65.881 60.176 67.918 61.08 C82.877 66.111 97.456 61.014 111.738 55.818 C118.82 53.395 125.711 52.664 132.676 55.818 C136.799 58.255 139.497 60.665 140.918 65.392 C142.104 70.699 142.439 75.709 142.238 81.131 C147.209 79.29 150.101 75.242 152.551 70.693 C154.12 64.843 153.232 60.339 150.894 54.928 C150.238 53.131 150.238 53.131 150.238 50.131 C163.033 51.461 175.808 52.88 188.488 55.068 C189.833 55.286 189.833 55.286 191.205 55.509 C198.916 56.906 203.529 59.934 208.551 66.006 C213.739 71.937 219.622 76.736 227.238 79.131 C229.481 78.843 229.481 78.843 231.238 78.131 C229.077 71.191 226.345 64.7 223.238 58.131 C224.324 57.949 225.409 57.767 226.527 57.58 C227.973 57.327 229.418 57.073 230.863 56.818 C231.576 56.7 232.289 56.582 233.023 56.461 C237.546 55.652 241.187 54.412 245.238 52.131 C243.602 48.347 242.462 47.237 238.676 45.443 C233.963 43.899 229.117 42.981 224.238 42.131 C226.013 38.686 228.067 36.255 230.863 33.631 C233.121 31.44 234.172 30.307 235.301 27.318 C235.483 24.917 235.483 24.917 233.238 23.131 C224.618 23.131 216.452 27.382 209.738 32.631 C205.696 36.673 202.917 40.361 202.238 46.131 C193.483 46.497 184.955 45.353 176.301 44.193 C173.521 43.827 170.741 43.464 167.961 43.103 C167.297 43.017 166.633 42.93 165.949 42.841 C160.39 42.126 154.825 41.574 149.238 41.131 C149.08 40.141 148.921 39.151 148.758 38.131 C147.274 29.502 145.832 21.999 138.863 16.131 C135.543 14.866 132.76 14.924 129.238 15.131 Z M278.387 27.889 C277.244 28.452 277.244 28.452 276.079 29.027 C274.859 29.635 274.859 29.635 273.613 30.256 C264.696 34.604 255.661 38.054 246.238 41.131 C246.69 42.737 247.15 44.34 247.613 45.943 C247.868 46.837 248.124 47.73 248.387 48.65 C249.191 51.335 249.191 51.335 251.238 54.131 C257.951 52.742 264.413 50.952 270.926 48.818 C271.836 48.535 272.747 48.252 273.685 47.961 C279.174 46.163 283.335 44.474 287.238 40.131 C288.031 37.093 288.031 37.093 287.738 33.943 C287.707 32.898 287.676 31.852 287.644 30.775 C287.482 27.98 287.482 27.98 285.238 26.131 C282.143 26.131 281.072 26.534 278.387 27.889 Z M331.238 34.131 C336.984 34.982 342.621 35.279 348.426 35.421 C379.584 36.205 379.584 36.205 389.238 44.131 C391.871 47.692 392.263 49.396 392.113 53.818 C391.229 57.167 390.888 58.1 388.238 60.131 C383.998 60.997 380.343 60.831 376.676 58.506 C374.876 55.532 374.928 53.548 375.238 50.131 C373.324 50.253 373.324 50.253 371.238 51.131 C369.467 53.61 369.467 53.61 368.238 56.131 C369.882 57.82 371.552 59.483 373.238 61.131 C373.816 61.708 374.393 62.286 374.988 62.881 C378.604 64.889 382.125 65.366 386.238 65.131 C390.763 63.689 393.587 62.107 396.238 58.131 C397.212 52.861 396.89 48.316 393.863 43.818 C386.037 34.749 372.994 32.42 361.613 31.443 C345.387 29.631 345.387 29.631 331.238 34.131 Z M314.238 37.131 C314.568 37.791 314.898 38.451 315.238 39.131 C318.848 38.475 318.848 38.475 322.238 37.131 C322.238 36.471 322.238 35.811 322.238 35.131 C319.034 35.131 317.144 35.874 314.238 37.131 Z M-31.762 40.131 C-30.282 45.263 -27.12 48.154 -23.387 51.756 C-22.809 52.328 -22.232 52.9 -21.637 53.49 C-18.816 56.26 -16.019 58.869 -12.762 61.131 C-12.102 60.801 -11.442 60.471 -10.762 60.131 C-11.22 59.703 -11.679 59.274 -12.151 58.833 C-14.251 56.871 -16.35 54.907 -18.449 52.943 C-19.171 52.27 -19.892 51.596 -20.635 50.902 C-24.408 47.371 -28.136 43.813 -31.762 40.131 Z M300.238 43.131 C300.238 43.791 300.238 44.451 300.238 45.131 C302.855 46.439 305.274 46.319 308.154 46.421 C322.674 46.936 338.099 48.695 348.566 59.885 C352.072 64.594 354.642 69.882 357.238 75.131 C358.558 74.471 359.878 73.811 361.238 73.131 C361.357 67.661 359.749 65.149 356.113 61.068 C354.508 59.403 352.884 57.755 351.238 56.131 C350.644 55.526 350.05 54.922 349.437 54.299 C338.374 43.869 319.796 42.05 305.219 41.998 C303.026 42.061 303.026 42.061 300.238 43.131 Z M251.676 57.443 C250.887 57.55 250.097 57.656 249.284 57.766 C247.015 58.077 244.75 58.407 242.484 58.744 C241.798 58.838 241.111 58.932 240.403 59.029 C236.781 59.597 234.476 60.11 232.238 63.131 C232.651 64.368 233.063 65.606 233.488 66.881 C233.72 67.577 233.952 68.273 234.191 68.99 C235.545 71.758 236.774 73.252 239.238 75.131 C242.714 75.867 242.714 75.867 246.613 76.068 C259.47 77.296 274.692 81.75 283.738 91.506 C286.51 95.087 287.882 98.835 289.238 103.131 C292.966 102.627 294.857 102.073 297.238 99.131 C298.729 94.603 298.712 90.352 296.738 86.006 C291.59 77.257 284.873 73.038 275.238 70.131 C268.622 68.547 261.938 67.303 255.238 66.131 C263.113 65.894 270.566 66.577 278.344 67.693 C285.461 68.688 285.461 68.688 292.238 67.131 C293.944 63.72 293.598 60.914 293.238 57.131 C283.085 50.362 263.237 55.83 251.676 57.443 Z M323.301 92.443 C321.818 96.194 322.07 98.282 323.238 102.131 C325.179 103.865 327.181 105.535 329.238 107.131 C332.245 112.051 331.837 117.926 330.809 123.432 C328.823 130.529 324.737 136.024 318.41 139.834 C301.236 146.856 277.981 135.73 261.938 129.158 C247.995 123.457 233.907 118.994 219.176 115.818 C218.439 115.659 217.702 115.499 216.943 115.335 C204.221 112.75 191.351 112.89 178.426 112.881 C176.985 112.879 176.985 112.879 175.515 112.878 C161.553 112.888 147.95 113.256 134.238 116.131 C133.54 116.265 132.841 116.399 132.121 116.536 C92.232 124.298 50.03 151.161 26.957 184.534 C1.702 219.477 1.702 219.477 -7.762 259.131 C-4.974 262.814 -2.192 263.897 2.176 265.131 C7.464 266.78 11.157 268.355 14.551 272.881 C16.629 279.683 15.038 286.764 12.238 293.131 C6.97 299.151 -0.774 299.204 -8.262 299.756 C-10.428 299.888 -12.595 300.015 -14.762 300.131 C-16.259 329.075 2.541 360.028 18.238 383.131 C18.728 383.862 19.218 384.594 19.722 385.348 C47.837 427.209 87.631 451.928 136.926 461.881 C141.024 462.668 145.127 463.413 149.238 464.131 C150.369 464.332 150.369 464.332 151.522 464.537 C169.486 467.624 188.525 467.529 206.238 463.131 C207.022 462.937 207.805 462.744 208.612 462.545 C243.264 453.75 290.139 437.408 310.406 405.279 C310.743 404.694 311.079 404.109 311.426 403.506 C313.552 400.001 316.006 396.989 318.676 393.881 C324.544 386.826 330.037 378.578 330.238 369.131 C329.908 368.141 329.578 367.151 329.238 366.131 C328.372 365.78 327.506 365.429 326.613 365.068 C321.609 362.195 319.22 357.974 316.238 353.131 C315.775 352.386 315.313 351.641 314.836 350.873 C313.189 347.956 312.1 345.938 312.676 342.568 C313.449 341.362 313.449 341.362 314.238 340.131 C314.585 339.552 314.932 338.973 315.289 338.377 C317.997 334.151 320.397 331.874 325.238 330.131 C327.564 329.749 329.897 329.406 332.238 329.131 C333.552 328.034 333.552 328.034 333.457 325.322 C333.206 309.943 327.527 294.814 319.238 282.131 C318.378 280.394 317.543 278.644 316.738 276.881 C311.741 266.75 303.233 258.701 295.35 250.762 C293.688 249.081 292.048 247.379 290.408 245.676 C271.829 226.729 243.617 214.59 217.238 212.131 C216.119 211.99 215 211.85 213.848 211.705 C194.074 210.296 177.437 224.261 163.297 236.517 C152.221 246.366 142.015 257.278 136.238 271.131 C134.717 270.987 133.196 270.841 131.676 270.693 C130.307 270.564 130.307 270.564 128.91 270.432 C126.238 270.131 126.238 270.131 122.426 269.381 C118.546 269.076 117.204 269.659 114.238 272.131 C112.102 274.857 111.308 276.712 110.738 280.131 C111.408 284.148 113.269 285.444 116.238 288.131 C116.948 289.441 117.625 290.772 118.238 292.131 C110.261 300.061 100.77 304.485 90.238 308.131 C90.238 309.451 90.238 310.771 90.238 312.131 C96.059 315.517 100.485 317.258 107.238 316.131 C112.823 314.399 118.073 311.849 123.238 309.131 C120.415 324.779 111.777 333.967 99.238 343.131 C98.578 343.461 97.918 343.791 97.238 344.131 C97.238 344.791 97.238 345.451 97.238 346.131 C102.872 348.948 110.861 347.038 116.816 345.959 C123.153 343.792 127.562 339.066 132.113 334.381 C132.706 333.779 133.299 333.177 133.91 332.557 C135.357 331.086 136.798 329.609 138.238 328.131 C142.359 329.504 144.03 332.407 146.551 335.756 C147.539 337.049 148.528 338.34 149.519 339.631 C149.991 340.246 150.463 340.86 150.949 341.494 C152.398 343.334 153.947 345.05 155.551 346.756 C158.787 350.428 160.644 354.754 162.73 359.146 C164.107 361.871 165.607 364.267 167.363 366.756 C170.49 371.278 172.485 375.935 174.238 381.131 C174.589 382.121 174.939 383.111 175.301 384.131 C175.198 389.068 172.607 392.896 170.238 397.131 C169.89 397.867 169.542 398.603 169.184 399.361 C167.579 402.365 165.082 402.849 161.988 403.881 C156.031 404.422 150.287 402.184 145.238 399.131 C141.619 395.227 141.751 392.006 141.867 386.881 C142.407 382.88 144.105 380.53 146.238 377.131 C146.575 373.837 146.575 373.837 146.238 371.131 C143.94 370.347 143.94 370.347 141.238 370.131 C139.048 371.303 139.048 371.303 137.176 373.193 C136.199 374.077 136.199 374.077 135.203 374.978 C130.214 380.443 128.529 384.321 128.676 391.568 C128.687 392.326 128.698 393.084 128.709 393.864 C128.893 398.588 129.258 402.226 132.629 405.787 C133.16 406.23 133.691 406.674 134.238 407.131 C134.831 407.657 135.424 408.183 136.035 408.724 C144.056 415.269 151.384 417.927 161.805 417.568 C170.214 416.497 175.905 412.371 181.219 405.932 C188.691 395.568 195.603 385.375 194.238 372.131 C192.955 364.827 191.272 357.562 189.133 350.463 C187.752 345.319 187.507 340.408 188.238 335.131 C190.426 331.818 190.426 331.818 193.238 330.131 C195.863 330.068 195.863 330.068 198.238 331.131 C204.872 338.537 204.687 349.754 204.238 359.131 C208.103 357.485 209.508 355.599 211.285 351.748 C213.909 344.544 216.241 336.707 214.238 329.131 C212.288 327.905 212.288 327.905 210.238 327.131 C209.908 326.141 209.578 325.151 209.238 324.131 C228.613 323.592 228.613 323.592 235.988 329.693 C243.548 337.029 246.125 344.976 248.238 355.131 C249.558 355.131 250.878 355.131 252.238 355.131 C257.042 345.689 261.297 332.842 259.238 322.131 C256.252 313.214 250.597 307.452 242.551 302.818 C231.928 297.988 222.234 298.898 211.676 302.756 C210.541 303.209 209.407 303.663 208.238 304.131 C208.568 303.45 208.898 302.769 209.238 302.068 C211.456 295.553 210.047 290.035 207.648 283.795 C204.936 278.67 200.733 274.962 195.238 273.131 C192.905 273.091 190.571 273.087 188.238 273.131 C189.043 273.719 189.043 273.719 189.863 274.318 C199.181 281.429 199.181 281.429 200.238 285.131 C200.689 290.717 200.532 294.395 197.238 299.131 C192.855 302.958 188.932 306.251 182.988 306.443 C181.867 306.499 181.867 306.499 180.723 306.557 C177.094 305.935 175.081 304.449 172.238 302.131 C167.836 295.536 163.739 288.174 165.238 280.131 C168.196 270.932 173.509 263.484 181.746 258.381 C194.251 252.109 212.036 250.99 225.516 254.185 C248.754 262.254 262.589 278.376 273.879 299.623 C277.69 309.458 278.768 319.213 278.676 329.693 C278.664 331.518 278.664 331.518 278.653 333.38 C278.186 359.231 270.165 382.465 253.238 402.131 C252.735 402.779 252.233 403.428 251.715 404.096 C240.863 417.926 218.465 428.515 201.238 431.131 C166.932 434.411 132.538 429.195 105.246 406.947 C101.48 403.778 97.844 400.48 94.238 397.131 C93.3 396.275 92.361 395.419 91.394 394.537 C69.316 373.549 58.133 342.197 57.238 312.131 C57.178 310.249 57.178 310.249 57.117 308.33 C56.232 266.054 71.584 221.384 99.238 189.131 C99.75 188.498 100.262 187.865 100.789 187.213 C104.521 182.655 108.735 178.911 113.238 175.131 C114.125 174.356 115.012 173.581 115.926 172.783 C142.231 150.151 171.935 140.117 206.494 142.271 C232.676 144.239 255.232 153.886 274.238 172.131 C275.125 172.976 276.012 173.822 276.926 174.693 C277.689 175.498 278.452 176.302 279.238 177.131 C279.745 177.642 280.251 178.154 280.773 178.682 C285.295 183.492 288.521 188.759 291.833 194.422 C295.961 201.449 300.565 208.021 305.855 214.228 C306.526 215.017 306.526 215.017 307.211 215.821 C308.476 217.294 309.757 218.752 311.039 220.209 C314.536 224.855 316.874 229.24 316.051 235.131 C315.935 235.987 315.819 236.843 315.699 237.724 C315.238 240.131 315.238 240.131 314.176 243.631 C312.267 250.755 312.27 256.123 315.988 262.631 C318.041 265.907 319.578 267.775 323.238 269.131 C329.304 269.817 332.406 268.569 337.238 265.131 C340.701 261.09 341.527 256.345 341.238 251.131 C339.978 246.437 338.093 242.052 336.121 237.619 C335.178 234.961 334.939 232.881 334.926 230.068 C334.909 229.232 334.892 228.395 334.875 227.533 C335.308 224.666 336.35 223.287 338.238 221.131 C340.085 221.31 340.085 221.31 342.238 222.131 C343.543 224.323 343.543 224.323 344.684 227.264 C345.116 228.365 345.548 229.467 345.994 230.602 C346.446 231.808 346.898 233.013 347.363 234.256 C347.843 235.506 348.323 236.757 348.803 238.007 C354.545 253.12 359.781 268.591 364.078 284.177 C364.327 285.077 364.576 285.977 364.832 286.904 C365.035 287.679 365.238 288.455 365.447 289.253 C366.189 291.496 366.189 291.496 369.238 293.131 C369.898 292.141 370.558 291.151 371.238 290.131 C373.363 289.443 373.363 289.443 375.238 289.131 C375.756 267.224 366.167 250.424 354.851 232.385 C353.979 230.968 353.108 229.55 352.238 228.131 C351.75 227.352 351.262 226.573 350.759 225.771 C350.292 224.991 349.825 224.211 349.344 223.408 C348.702 222.358 348.702 222.358 348.048 221.287 C346.996 218.486 347.333 216.953 348.238 214.131 C348.981 213.203 349.723 212.274 350.488 211.318 C352.677 208.154 352.677 208.154 351.426 204.318 C349.185 199.369 345.723 195.255 342.238 191.131 C339.849 191.252 339.849 191.252 337.238 192.131 C335.34 194.346 335.34 194.346 333.801 197.068 C331.638 200.343 330.553 201.948 327.113 203.943 C324.238 204.131 324.238 204.131 321.613 203.256 C316.625 198.793 314.679 193.022 314.199 186.443 C314.265 182.57 314.749 178.726 316.238 175.131 C321.028 171.937 325.658 171.615 331.285 172.74 C333.313 173.275 335.334 173.839 337.344 174.439 C341.986 175.548 344.908 175.905 349.125 173.451 C350.511 172.364 350.511 172.364 351.926 171.256 C352.858 170.536 353.79 169.817 354.75 169.076 C355.571 168.434 356.392 167.792 357.238 167.131 C358.723 166.141 358.723 166.141 360.238 165.131 C359.729 162.722 359.729 162.722 358.238 160.131 C356.557 159.24 354.874 158.353 353.18 157.486 C346.967 153.148 342.034 144.037 340.551 136.756 C340.448 135.889 340.344 135.023 340.238 134.131 C340.845 133.912 341.452 133.692 342.078 133.467 C347.733 129.969 349.399 120.041 351.113 113.943 C352.262 108.819 353.079 104.164 351.238 99.131 C347.698 93.642 342.849 89.395 337.238 86.131 C331.094 85.002 327.176 87.818 323.301 92.443 Z M34.238 118.131 C25.881 124.496 17.897 131.068 10.277 138.303 C8.381 140.097 6.482 141.745 4.449 143.396 C-3.363 149.769 -9.228 157.829 -10.328 168.119 C-10.543 175.136 -10.353 180.646 -5.762 186.131 C-2.283 188.988 1.946 188.274 6.238 188.131 C5.063 186.955 5.063 186.955 3.863 185.756 C-1.306 180.587 -1.306 180.587 -1.781 176.236 C-1.643 161.308 10.375 149.025 20.238 139.131 C21.485 137.919 22.735 136.71 23.988 135.506 C28.302 131.256 32.226 126.385 35.238 121.131 C34.743 119.646 34.743 119.646 34.238 118.131 Z M370.238 119.131 C370.576 119.664 370.914 120.198 371.262 120.748 C376.72 129.866 378.485 139.544 377.238 150.131 C375.663 156.11 373.252 161.593 369.995 166.829 C363.207 177.945 362.028 186.786 362.551 199.631 C362.579 201.288 362.603 202.946 362.623 204.603 C362.762 212.586 363.262 220.509 364.156 228.443 C364.232 229.124 364.308 229.806 364.386 230.507 C365.108 236.301 366.514 241.937 369.238 247.131 C369.898 247.461 370.558 247.791 371.238 248.131 C371.095 245.964 370.949 243.797 370.801 241.631 C370.719 240.424 370.638 239.218 370.555 237.974 C370.341 235.381 370.061 232.792 369.719 230.213 C366.941 208.683 372.935 192.793 384.723 174.913 C390.701 165.685 393.491 156.251 391.219 145.334 C388.314 135.846 383.919 126.434 376.098 120.099 C373.996 118.823 373.996 118.823 370.238 119.131 Z M-28.762 179.131 C-40.021 192.057 -40.031 216.108 -40.762 232.131 C-40.804 233.052 -40.847 233.974 -40.891 234.924 C-41.104 244.307 -39.898 253.876 -38.223 263.099 C-36.303 275.722 -37.787 287.609 -40.762 299.943 C-45.951 321.594 -42.94 337.385 -33.292 357.279 C-28.803 366.647 -27.552 374.836 -27.106 385.189 C-27.056 388.25 -27.056 388.25 -24.762 390.131 C-24.122 389.306 -23.483 388.481 -22.824 387.631 C-22.465 387.167 -22.105 386.703 -21.734 386.224 C-20.22 382.964 -20.112 379.698 -19.762 376.131 C-18.725 376.648 -17.689 377.165 -16.621 377.697 C-15.252 378.363 -13.882 379.028 -12.512 379.693 C-11.83 380.035 -11.148 380.378 -10.445 380.73 C-6.74 382.511 -4.683 383.437 -0.762 382.131 C-1.379 381.716 -1.997 381.301 -2.633 380.873 C-14.581 372.18 -20.13 359.995 -26.09 346.897 C-26.7 345.563 -27.319 344.234 -27.947 342.909 C-33.606 330.887 -33.606 330.887 -31.844 324.783 C-31.189 323.215 -30.495 321.663 -29.762 320.131 C-29.169 318.578 -28.584 317.022 -28.008 315.463 C-27.409 313.955 -26.806 312.448 -26.199 310.943 C-22.408 301.518 -20.417 293.11 -19.762 282.943 C-19.271 275.47 -18.553 268.185 -17.176 260.818 C-16.569 256.88 -16.629 253.108 -16.762 249.131 C-18.082 249.131 -19.402 249.131 -20.762 249.131 C-21.422 251.111 -22.082 253.091 -22.762 255.131 C-25.829 252.064 -25.085 248.974 -25.141 244.776 C-25.139 243.033 -25.139 243.033 -25.137 241.256 C-25.137 239.462 -25.137 239.462 -25.136 237.632 C-24.957 223.154 -22.637 209.048 -20.191 194.81 C-20.011 193.751 -19.831 192.691 -19.645 191.599 C-19.481 190.657 -19.318 189.714 -19.149 188.742 C-18.396 183.666 -17.814 179.552 -20.762 175.131 C-24.838 175.131 -25.822 176.331 -28.762 179.131 Z M388.238 192.131 C376.348 204.446 376.753 227.107 376.957 243.162 C376.988 245.63 376.998 248.097 377.004 250.564 C377.047 259.397 377.321 268.194 377.89 277.009 C378.318 283.721 378.336 290.405 378.238 297.131 C377.578 295.811 376.918 294.491 376.238 293.131 C372.764 293.447 370.704 293.766 367.926 295.943 C366.262 298.1 365.619 299.464 365.238 302.131 C360.868 300.765 357.741 298.37 354.203 295.568 C352.232 294.126 350.528 292.988 348.238 292.131 C346.041 292.429 346.041 292.429 344.238 293.131 C344.83 293.953 345.422 294.776 346.031 295.623 C360.959 316.612 360.959 316.612 360.621 329.084 C359.135 337.031 351.766 343.454 345.484 347.861 C340.688 350.572 335.419 352.3 330.238 354.131 C332.977 356.409 332.977 356.409 335.664 355.916 C347.012 353.075 361.337 348.125 367.801 337.631 C370.328 333.318 372.001 328.771 373.719 324.088 C375.202 320.122 376.898 316.259 378.596 312.381 C387.915 291.097 390.546 272.742 390.301 249.631 C390.011 217.152 390.011 217.152 392.363 209.443 C393.574 204.858 393.382 200.73 392.238 196.131 C390.385 193.516 390.385 193.516 388.238 192.131 Z M381.363 336.506 C378.059 340.587 377.806 342.86 378.238 348.131 C379.535 351.478 381.23 354.267 383.988 356.631 C387.619 357.438 390.762 357.369 394.238 356.131 C397.522 353.734 399.696 351.036 400.816 347.099 C401.083 343.945 400.81 341.953 398.984 339.326 C395.522 335.699 392.969 334.323 387.863 333.756 C384.088 333.808 384.088 333.808 381.363 336.506 Z M347.238 357.131 C348.492 360.892 349.406 361.012 352.863 362.756 C357.654 365.251 362.262 367.935 366.863 370.756 C374.4 375.323 381.31 379.371 390.238 380.131 C391.547 378.434 391.547 378.434 392.238 376.131 C388.462 366.817 378.691 361.505 370.238 357.131 C367.508 356.221 365.887 356.002 363.078 355.998 C362.285 355.997 361.491 355.995 360.674 355.994 C359.849 355.998 359.025 356.002 358.176 356.006 C357.347 356.002 356.519 355.998 355.666 355.994 C354.874 355.995 354.082 355.997 353.266 355.998 C352.541 355.999 351.816 356 351.07 356.001 C349.14 356.02 349.14 356.02 347.238 357.131 Z M-19.762 398.131 C-19.666 399.326 -19.571 400.521 -19.473 401.752 C-18.141 419.98 -21.67 429.205 -33.516 443.408 C-44.031 456.154 -47.071 466.775 -45.762 483.131 C-44.857 486.585 -43.839 487.084 -40.715 488.982 C-39.487 489.586 -38.252 490.177 -37.012 490.756 C-36.403 491.055 -35.795 491.354 -35.168 491.662 C-21.674 498.178 -9.737 496.696 4.305 492.135 C10.744 489.657 16.299 486.297 22.021 482.515 C34.974 473.979 46.196 471.13 61.489 470.471 C64.627 470.332 67.24 470.13 70.238 469.131 C67.788 463.039 61.679 459.875 56.035 457.014 C47.246 453.596 37.071 454.186 28.238 457.131 C27.248 457.791 26.258 458.451 25.238 459.131 C23.583 459.516 21.916 459.859 20.238 460.131 C22.424 456.768 24.674 453.578 27.176 450.443 C33.359 442.299 36.886 433.331 36.238 423.131 C35.359 420.918 35.359 420.918 33.238 420.131 C24.092 419.742 15.141 426.84 8.625 432.709 C7.018 434.298 7.018 434.298 5.051 437.006 C4.453 437.707 3.854 438.408 3.238 439.131 C1.918 439.131 0.598 439.131 -0.762 439.131 C-0.833 434.852 -0.828 431.263 0.238 427.131 C1.198 418.11 -2.539 408.957 -6.762 401.131 C-8.3 399.102 -8.3 399.102 -10.762 398.131 C-12.31 398.053 -13.861 398.035 -15.41 398.06 C-16.631 398.076 -16.631 398.076 -17.877 398.091 C-18.499 398.104 -19.121 398.117 -19.762 398.131 Z M403.238 398.131 C402.578 398.791 401.918 399.451 401.238 400.131 C401.557 402.239 401.557 402.239 402.238 404.131 C403.228 403.801 404.218 403.471 405.238 403.131 C404.908 401.481 404.578 399.831 404.238 398.131 C403.908 398.131 403.578 398.131 403.238 398.131 Z M372.238 402.131 C365.812 408.025 365.308 417.453 364.051 425.631 C363.873 426.739 363.696 427.848 363.514 428.99 C363.081 431.703 362.656 434.416 362.238 437.131 C358.938 436.031 358.573 435.517 356.551 432.881 C352.814 428.47 348.565 424.853 344.113 421.193 C343.42 420.613 342.727 420.034 342.013 419.436 C337.209 415.514 337.209 415.514 331.238 414.131 C328.543 423.197 333.821 432.976 337.152 441.283 C338.025 443.572 338.72 445.743 339.238 448.131 C338.372 447.656 337.506 447.182 336.613 446.693 C327.942 442.679 317.218 443.153 308.238 446.131 C300.889 449.244 295.172 452.779 290.051 458.943 C281.567 468.801 270.012 474.913 257.137 476.232 C256.356 476.315 255.575 476.398 254.771 476.484 C245.484 477.4 236.188 477.552 226.863 477.693 C216.344 477.875 205.834 478.094 195.324 478.596 C194.5 478.633 193.676 478.671 192.827 478.709 C188.562 478.927 184.443 479.324 180.238 480.131 C182.9 482.792 184.47 482.539 188.195 482.842 C189.439 482.95 190.683 483.059 191.964 483.17 C192.63 483.225 193.295 483.279 193.981 483.335 C205.585 484.29 217.09 485.577 228.613 487.256 C257.952 491.531 257.952 491.531 284.273 479.869 C284.922 479.378 285.57 478.887 286.238 478.381 C286.918 477.874 287.597 477.368 288.297 476.846 C289.948 475.613 291.594 474.373 293.238 473.131 C296.187 474.461 298.239 475.947 300.551 478.193 C304.091 481.343 306.553 481.94 311.238 482.131 C312.064 479.894 312.064 479.894 312.238 477.131 C310.833 474.391 310.833 474.391 308.801 471.756 C304.676 465.602 304.676 465.602 304.426 462.193 C305.238 459.131 305.238 459.131 307.801 456.818 C318.231 451.698 328.883 451.987 340.238 452.131 C339.442 452.699 338.645 453.268 337.824 453.853 C328.486 460.658 321.154 466.141 319.238 478.131 C318.969 484.806 321.256 490.263 324.238 496.131 C324.568 496.131 324.898 496.131 325.238 496.131 C325.368 495.187 325.368 495.187 325.5 494.224 C326.705 486.883 329.052 481.647 334.051 476.131 C337.526 474.542 340.563 474.347 344.238 475.131 C349.65 477.705 353.823 481.649 358.113 485.756 C366.112 492.998 373.587 494.447 384.113 494.568 C385.345 494.584 385.345 494.584 386.601 494.6 C391.275 494.53 394.483 494.194 398.238 491.131 C399.792 489.343 399.792 489.343 400.926 487.318 C401.321 486.672 401.717 486.027 402.125 485.361 C405.571 478.458 406.27 471.738 405.238 464.131 C403.754 460.618 401.761 457.971 399.238 455.131 C398.409 454.176 398.409 454.176 397.562 453.201 C392.964 448.275 387.707 444.413 381.363 442.068 C379.238 441.131 379.238 441.131 378.145 439.561 C376.887 436.189 376.77 432.861 376.605 429.303 C376.543 428.179 376.543 428.179 376.479 427.033 C376.349 424.649 376.231 422.265 376.113 419.881 C376.027 418.261 375.94 416.641 375.851 415.021 C375.638 411.058 375.435 407.095 375.238 403.131 C374.248 402.801 373.258 402.471 372.238 402.131 Z M41.238 449.131 C41.832 449.059 42.427 448.986 43.039 448.912 C55.257 447.544 63.893 447.003 73.863 454.818 C78.938 459.394 83.288 465.547 85.238 472.131 C85.162 476.079 84.782 477.592 81.953 480.396 C81.037 481.051 80.12 481.706 79.176 482.381 C77.501 483.592 75.847 484.834 74.238 486.131 C74.238 486.791 74.238 487.451 74.238 488.131 C80.503 487.765 85.657 487.099 91.238 484.131 C92.523 481.562 92.568 479.365 92.801 476.506 C92.884 475.503 92.968 474.5 93.055 473.467 C93.145 472.31 93.145 472.31 93.238 471.131 C93.59 471.639 93.942 472.147 94.305 472.67 C101.95 483.33 110.783 488.836 123.801 491.443 C136.039 493.13 150.251 493.467 162.238 490.131 C162.733 489.141 162.733 489.141 163.238 488.131 C155.803 484.305 148.175 482.554 140.051 480.756 C123.664 476.978 111.291 472.078 98.105 461.404 C95.707 459.769 94.079 459.894 91.238 460.131 C91.733 463.101 91.733 463.101 92.238 466.131 C88.833 462.838 85.866 459.451 82.988 455.693 C76.86 448.127 69.969 442.938 60.113 441.756 C53.595 442.387 45.622 443.891 41.238 449.131 Z " fill="#FBFBFB" transform="translate(73.76179826259613,15.869275331497192)"/>
<path d="M0 0 C-0.262 1.879 -0.262 1.879 -1 4 C-2.707 5.09 -2.707 5.09 -4.812 5.938 C-8.675 7.754 -10.991 9.065 -13 13 C-13.751 18.115 -13.649 22.466 -11.625 27.25 C-4.209 35.019 3.949 38.232 13.908 41.67 C36.487 49.607 56.377 61.128 75 76 C75.677 76.509 76.354 77.018 77.051 77.543 C93.604 90.52 101.119 112.487 104 132.625 C105.209 156.469 93.808 183.83 79 202 C78.325 202.839 77.649 203.678 76.953 204.543 C66.296 217.087 52.745 224.822 38.49 232.62 C36.801 233.556 35.125 234.518 33.463 235.501 C32.666 235.969 31.868 236.436 31.047 236.918 C29.985 237.554 29.985 237.554 28.901 238.204 C27 239 27 239 24 238 C22.746 236.031 22.746 236.031 21.438 233.5 C12.149 217.597 -5.223 211.214 -21.851 205.701 C-22.764 205.391 -23.677 205.081 -24.617 204.762 C-25.438 204.493 -26.259 204.225 -27.105 203.948 C-29 203 -29 203 -30 200 C-29.186 199.364 -29.186 199.364 -28.355 198.715 C-27.64 198.128 -26.925 197.542 -26.188 196.938 C-25.126 196.085 -25.126 196.085 -24.043 195.215 C-19.32 190.095 -18.557 184.559 -18.599 177.817 C-18.592 177.031 -18.585 176.245 -18.578 175.435 C-18.558 172.857 -18.559 170.281 -18.559 167.703 C-18.547 165.904 -18.533 164.105 -18.519 162.307 C-18.482 157.586 -18.462 152.866 -18.447 148.146 C-18.422 140.577 -18.383 133.008 -18.325 125.439 C-18.309 122.796 -18.305 120.153 -18.302 117.51 C-18.292 115.895 -18.282 114.28 -18.271 112.665 C-18.274 111.929 -18.276 111.194 -18.279 110.436 C-18.242 106.738 -18.108 105.162 -16 102 C-12.98 101.664 -12.98 101.664 -9.188 101.625 C1.599 101.234 10.501 97.61 19 91 C19.66 91 20.32 91 21 91 C20.897 89.065 20.897 89.065 20 87 C17.717 85.521 17.717 85.521 14.82 84.414 C13.208 83.73 13.208 83.73 11.562 83.031 C10.428 82.567 9.294 82.103 8.125 81.625 C-10.736 73.77 -25.692 66.187 -33.938 46.5 C-37.614 36.092 -36.349 28.057 -32 18 C-27.577 9.099 -20.328 3.339 -11 0 C-6.968 -0.924 -4.005 -1.06 0 0 Z M23.375 94.375 C22.599 95.001 21.823 95.628 21.023 96.273 C18.955 97.993 18.955 97.993 17 100 C16.791 102.719 16.706 105.337 16.709 108.058 C16.703 108.891 16.696 109.723 16.689 110.581 C16.67 113.343 16.666 116.105 16.664 118.867 C16.658 120.783 16.651 122.699 16.644 124.614 C16.632 128.634 16.628 132.654 16.629 136.674 C16.63 141.828 16.602 146.982 16.568 152.136 C16.546 156.094 16.542 160.052 16.543 164.011 C16.54 165.911 16.531 167.811 16.516 169.711 C16.496 172.369 16.502 175.025 16.514 177.683 C16.503 178.47 16.492 179.256 16.48 180.067 C16.521 183.586 16.678 185.583 18.861 188.41 C21.418 190.311 24.022 191.926 26.797 193.496 C27.921 194.137 29.045 194.779 30.203 195.439 C31.385 196.106 32.568 196.772 33.75 197.438 C36.059 198.746 38.365 200.059 40.672 201.371 C41.764 201.99 42.856 202.61 43.981 203.248 C46.57 204.75 49.093 206.312 51.605 207.938 C54.86 210.209 54.86 210.209 58.562 210.562 C65.167 207.56 67.546 200.437 70.258 194.027 C78.588 171.104 76.434 145.025 66.656 122.969 C63.138 116.01 58.489 110.498 53 105 C52.374 104.362 51.747 103.724 51.102 103.066 C43.928 96.271 32.325 87.041 23.375 94.375 Z " fill="#FAFAFA" transform="translate(812,192)"/>
<path d="M0 0 C3.659 0.568 5.21 1.911 7.688 4.605 C8.38 5.339 9.072 6.073 9.786 6.829 C10.517 7.608 11.247 8.386 12 9.188 C22.534 20.023 32.503 24.354 47 28 C47.33 29.32 47.66 30.64 48 32 C47.374 32.447 46.747 32.895 46.102 33.355 C44.876 34.262 44.876 34.262 43.625 35.188 C42.813 35.779 42.001 36.371 41.164 36.98 C37.631 40.277 37.058 43.124 36.739 47.919 C36.724 49.478 36.721 51.036 36.725 52.595 C36.72 53.449 36.715 54.303 36.71 55.184 C36.696 58.003 36.697 60.822 36.699 63.641 C36.695 65.607 36.691 67.574 36.686 69.541 C36.679 73.663 36.679 77.785 36.684 81.908 C36.69 87.174 36.673 92.441 36.65 97.707 C36.635 101.77 36.634 105.833 36.637 109.897 C36.637 111.837 36.632 113.778 36.622 115.719 C36.609 118.442 36.616 121.165 36.628 123.888 C36.62 124.68 36.612 125.472 36.605 126.288 C36.657 131.976 37.937 136.712 40 142 C43.047 142.609 45.881 143.147 49 143 C51.834 140.667 51.834 140.667 54 138 C55.32 138 56.64 138 58 138 C58.672 139.669 58.672 139.669 59 142 C57.924 144.499 57.924 144.499 56.246 147.289 C55.334 148.826 55.334 148.826 54.404 150.395 C53.755 151.461 53.106 152.527 52.438 153.625 C51.816 154.668 51.194 155.711 50.553 156.785 C49.313 158.86 48.066 160.931 46.812 162.997 C45.624 164.965 44.453 166.944 43.301 168.933 C42.52 170.277 42.52 170.277 41.723 171.648 C41.268 172.442 40.813 173.235 40.344 174.052 C39 176 39 176 36 178 C26.28 177.112 17.367 168.807 11 162 C4.188 153.008 1.52 143.331 1.663 132.163 C1.662 130.773 1.662 130.773 1.661 129.356 C1.661 127.363 1.668 125.37 1.681 123.378 C1.7 120.22 1.697 117.063 1.688 113.906 C1.666 104.935 1.677 95.965 1.715 86.994 C1.737 81.491 1.73 75.988 1.705 70.484 C1.701 68.394 1.709 66.304 1.728 64.213 C1.754 61.291 1.744 58.371 1.725 55.448 C1.751 54.163 1.751 54.163 1.777 52.852 C1.691 47.29 0.424 44.44 -3.459 40.44 C-3.968 39.965 -4.476 39.49 -5 39 C-5.857 38.185 -6.714 37.371 -7.598 36.531 C-8.818 35.526 -8.818 35.526 -10.062 34.5 C-10.878 33.809 -11.694 33.118 -12.535 32.406 C-14.879 30.804 -14.879 30.804 -17.43 30.977 C-20.845 32.337 -23.348 34.464 -26.062 36.875 C-31.935 41.963 -31.935 41.963 -34.147 43.22 C-36.307 44.938 -36.307 44.938 -36.494 48.083 C-36.492 49.351 -36.489 50.62 -36.486 51.927 C-36.49 52.629 -36.493 53.33 -36.497 54.052 C-36.505 56.377 -36.483 58.699 -36.461 61.023 C-36.459 62.647 -36.458 64.271 -36.458 65.894 C-36.455 69.306 -36.438 72.717 -36.412 76.128 C-36.378 80.467 -36.37 84.804 -36.372 89.143 C-36.371 92.502 -36.36 95.862 -36.346 99.222 C-36.339 100.819 -36.335 102.416 -36.334 104.013 C-36.529 122.787 -36.529 122.787 -30 140 C-28.684 141.023 -27.356 142.031 -26 143 C-26 147 -26 147 -27.434 148.57 C-28.095 149.083 -28.756 149.596 -29.438 150.125 C-37.856 157.133 -43.889 164.911 -49.176 174.41 C-51 177 -51 177 -53.23 177.871 C-54.106 177.935 -54.106 177.935 -55 178 C-55.493 177.234 -55.493 177.234 -55.996 176.453 C-63.338 165.231 -70.692 154.538 -82 147 C-81.812 144.75 -81.812 144.75 -81 142 C-79.855 141.196 -79.855 141.196 -78.688 140.375 C-72.474 134.884 -71.577 125.899 -71 118 C-70.848 113.012 -70.835 108.025 -70.832 103.035 C-70.829 101.592 -70.825 100.149 -70.822 98.706 C-70.816 95.695 -70.814 92.684 -70.815 89.672 C-70.815 85.838 -70.801 82.005 -70.784 78.171 C-70.773 75.195 -70.771 72.219 -70.771 69.242 C-70.77 67.83 -70.766 66.418 -70.758 65.005 C-70.347 50.234 -70.347 50.234 -76 37 C-78.889 35.556 -80.796 35.623 -84 36 C-85.707 37.626 -87.377 39.291 -89 41 C-90.32 41 -91.64 41 -93 41 C-94 38 -94 38 -92.924 35.523 C-92.37 34.555 -91.816 33.587 -91.246 32.59 C-90.638 31.517 -90.031 30.444 -89.404 29.338 C-88.755 28.216 -88.106 27.094 -87.438 25.938 C-86.816 24.842 -86.194 23.747 -85.553 22.619 C-74.861 3.861 -74.861 3.861 -72 1 C-62.208 1.638 -52.538 8.998 -46 16 C-41.287 21.692 -38.22 26.679 -37 34 C-32.139 32.483 -28.982 29.69 -25.25 26.375 C-24.632 25.832 -24.013 25.29 -23.376 24.73 C-22.142 23.647 -20.91 22.56 -19.68 21.472 C-18.275 20.241 -16.842 19.042 -15.402 17.852 C-9.167 12.639 -4.663 6.614 0 0 Z " fill="#FBFBFB" transform="translate(1024,255)"/>
<path d="M0 0 C3.969 0.394 5.849 1.378 8.531 4.281 C9.17 4.954 9.809 5.627 10.467 6.321 C11.138 7.04 11.809 7.759 12.5 8.5 C24.732 21.135 39.364 31.667 56.891 35.297 C59 36 59 36 61 39 C60.257 39.722 59.515 40.444 58.75 41.188 C52.478 47.602 49.755 52.693 49.792 61.903 C49.813 62.978 49.813 62.978 49.833 64.075 C49.839 64.85 49.846 65.625 49.852 66.423 C49.875 68.963 49.914 71.503 49.953 74.043 C49.974 75.817 49.995 77.591 50.015 79.365 C50.058 83.073 50.11 86.78 50.167 90.488 C50.239 95.239 50.293 99.991 50.341 104.742 C50.38 108.401 50.429 112.06 50.48 115.719 C50.504 117.471 50.524 119.223 50.542 120.975 C50.568 123.422 50.607 125.867 50.649 128.313 C50.655 129.036 50.66 129.759 50.665 130.503 C50.742 134.139 50.927 136.947 53 140 C55.45 141.837 56.797 142.004 59.875 141.938 C62.897 141.031 63.884 140.406 66.125 138.375 C69 136 69 136 71.375 136.188 C71.911 136.456 72.447 136.724 73 137 C72.623 142.992 69.87 146.587 66.5 151.312 C61.704 158.213 57.559 165.191 53.943 172.781 C51.458 177.812 51.458 177.812 49.043 178.804 C46.244 179.072 45.006 177.781 42.828 176.164 C40.674 174.792 38.532 174.037 36.125 173.188 C27.591 169.864 22.667 164.663 18.898 156.379 C17.85 153.603 17.234 150.96 17 148 C11.012 150.213 6.624 153.372 1.688 157.375 C0.107 158.627 -1.475 159.877 -3.059 161.125 C-4.273 162.082 -4.273 162.082 -5.511 163.059 C-9.582 166.234 -13.713 169.321 -17.875 172.375 C-18.63 172.94 -19.384 173.505 -20.161 174.087 C-20.869 174.603 -21.576 175.118 -22.305 175.648 C-22.923 176.104 -23.542 176.559 -24.179 177.029 C-26 178 -26 178 -30 178 C-30.309 177.051 -30.619 176.102 -30.938 175.125 C-33.354 169.486 -37.832 165.392 -42 161 C-60.062 141.914 -67.028 121.035 -67 95 C-65.983 73.141 -55.217 55.889 -39.51 41.355 C-36.323 38.495 -33 35.812 -29.656 33.141 C-18.847 24.43 -9.531 15.066 -2.312 3.152 C-1 1 -1 1 0 0 Z M-19.555 32.406 C-34.057 55.404 -36.976 79.525 -31 106 C-27.066 121.422 -21.127 134.261 -8 144 C-3.711 146.356 -0.927 147.788 4 147 C9.122 144.588 12.774 141.692 16 137 C16.61 134.071 16.61 134.071 16.546 130.891 C16.566 129.677 16.585 128.464 16.606 127.214 C16.607 125.906 16.608 124.598 16.609 123.25 C16.624 121.873 16.641 120.495 16.659 119.118 C16.703 115.483 16.723 111.848 16.738 108.213 C16.757 104.592 16.8 100.972 16.84 97.352 C16.998 82.235 17.039 67.117 17 52 C16.095 51.535 15.189 51.069 14.256 50.59 C6.38 46.515 -0.627 42.055 -7.152 36.004 C-7.845 35.363 -8.537 34.723 -9.25 34.062 C-9.853 33.476 -10.457 32.889 -11.078 32.285 C-14.086 30.274 -16.77 29.887 -19.555 32.406 Z " fill="#FBFBFB" transform="translate(1167,255)"/>
<path d="M0 0 C2.842 2.001 3.153 5.173 3.953 8.387 C7.139 19.68 12.846 28.772 19.766 38.137 C32.379 55.354 39.17 76.809 36.703 98.199 C32.437 120.281 13.269 139.14 -4.59 151.402 C-6.556 152.707 -8.54 153.985 -10.535 155.246 C-20.008 161.343 -25.574 168.557 -31.297 178.199 C-36.296 177.829 -38.49 175.294 -41.672 171.762 C-55.253 157.537 -73.179 149.145 -91.734 143.305 C-92.58 142.94 -93.426 142.575 -94.297 142.199 C-94.627 141.209 -94.957 140.219 -95.297 139.199 C-93.499 137.118 -92.38 136.228 -89.734 135.324 C-87.16 134.421 -87.16 134.421 -86.109 132.137 C-84.087 124.826 -83.01 118.179 -83.117 110.58 C-83.122 109.665 -83.126 108.75 -83.131 107.808 C-83.142 105.839 -83.157 103.869 -83.177 101.9 C-83.207 98.786 -83.224 95.673 -83.237 92.559 C-83.277 83.711 -83.342 74.864 -83.413 66.017 C-83.456 60.592 -83.484 55.168 -83.504 49.744 C-83.514 47.677 -83.531 45.61 -83.553 43.544 C-83.584 40.667 -83.597 37.79 -83.606 34.912 C-83.62 34.055 -83.634 33.197 -83.648 32.313 C-83.644 29.948 -83.644 29.948 -83.297 26.199 C-80.118 24.08 -78.652 23.809 -74.941 23.375 C-73.313 23.169 -73.313 23.169 -71.653 22.958 C-70.483 22.811 -69.314 22.664 -68.109 22.512 C-46.302 19.489 -24.381 13.552 -5.488 1.867 C-2.297 0.199 -2.297 0.199 0 0 Z M-43.984 25.219 C-45.197 25.771 -45.197 25.771 -46.434 26.335 C-47.048 26.62 -47.663 26.905 -48.297 27.199 C-48.413 39.76 -48.502 52.321 -48.556 64.882 C-48.582 70.714 -48.617 76.547 -48.674 82.379 C-48.728 88.007 -48.758 93.635 -48.771 99.263 C-48.781 101.411 -48.799 103.559 -48.826 105.707 C-48.862 108.714 -48.867 111.72 -48.865 114.727 C-48.882 115.616 -48.9 116.505 -48.919 117.421 C-48.882 121.843 -48.763 123.615 -45.918 127.178 C-43.389 129.128 -40.878 130.949 -38.172 132.645 C-37.218 133.247 -36.264 133.849 -35.281 134.469 C-34.296 135.081 -33.312 135.693 -32.297 136.324 C-31.312 136.944 -30.327 137.564 -29.312 138.203 C-26.647 139.878 -23.977 141.547 -21.297 143.199 C-20.434 143.752 -19.572 144.305 -18.684 144.875 C-16.263 146.418 -16.263 146.418 -12.984 146.574 C-5.516 143.789 -1.821 135.63 1.578 128.762 C8.45 112.543 6.474 93.81 0.301 77.703 C-4.101 68.049 -10.295 60.023 -17.264 52.102 C-23.957 44.335 -28.708 35.228 -32.605 25.773 C-33.189 24.186 -33.189 24.186 -34.297 23.199 C-38.072 22.609 -40.613 23.67 -43.984 25.219 Z " fill="#FBFBFB" transform="translate(722.296875,252.80078125)"/>
<path d="M0 0 C9.97 0.212 17.758 7.117 24.738 13.637 C29.907 19.038 33.341 25.057 36 32 C39.968 30.437 42.416 27.679 45.188 24.562 C45.667 24.033 46.146 23.503 46.639 22.957 C50.557 18.587 54.282 14.071 57.93 9.473 C62.331 4.216 62.331 4.216 65 2 C67.395 1.919 67.395 1.919 70 3 C71.673 5.403 72.954 7.577 74.242 10.176 C74.801 11.258 74.801 11.258 75.371 12.362 C76.155 13.889 76.929 15.42 77.695 16.955 C78.871 19.304 80.077 21.636 81.289 23.967 C82.046 25.452 82.801 26.938 83.555 28.426 C83.916 29.124 84.277 29.822 84.65 30.541 C87.074 35.455 87.074 35.455 86.722 38.039 C85.547 41.231 83.224 43.55 81 46.062 C80.003 47.213 79.007 48.364 78.012 49.516 C77.509 50.094 77.007 50.672 76.49 51.268 C72.904 55.437 69.465 59.73 66 64 C63.462 63.638 62.312 63.394 60.691 61.345 C60.319 60.641 59.946 59.937 59.562 59.211 C59.142 58.434 58.722 57.656 58.289 56.855 C57.864 56.037 57.438 55.218 57 54.375 C56.146 52.778 55.292 51.182 54.438 49.586 C54.03 48.815 53.623 48.044 53.203 47.249 C51.533 44.127 49.774 41.064 48 38 C45.147 38 43.482 38.529 41.431 40.532 C37.277 45.748 36.14 49.386 36.319 55.986 C36.318 56.846 36.317 57.705 36.316 58.591 C36.32 61.405 36.367 64.217 36.414 67.031 C36.425 68.993 36.434 70.954 36.44 72.916 C36.463 78.059 36.521 83.2 36.588 88.343 C36.65 93.598 36.677 98.854 36.707 104.109 C36.771 114.407 36.874 124.703 37 135 C38.155 135.455 38.155 135.455 39.333 135.919 C42.071 137.029 44.677 138.29 47.312 139.625 C48.637 140.294 48.637 140.294 49.988 140.977 C50.652 141.314 51.316 141.652 52 142 C56.179 139.436 59.125 136.981 62 133 C63.65 133.33 65.3 133.66 67 134 C65.577 138.283 63.478 141.011 60.5 144.375 C52.637 153.499 46.142 163.652 40.254 174.145 C39 176 39 176 36 178 C31.874 174.489 27.907 170.943 24.188 167 C16.278 159.105 7.63 155.129 -2.982 152.128 C-8.69 150.442 -8.69 150.442 -10.527 147.824 C-10.683 147.222 -10.839 146.62 -11 146 C-10.278 145.587 -9.556 145.175 -8.812 144.75 C-3.127 141.401 -3.127 141.401 0.127 135.888 C1.077 131.655 1.289 127.86 1.275 123.545 C1.28 122.73 1.285 121.914 1.29 121.074 C1.304 118.396 1.303 115.717 1.301 113.039 C1.305 111.165 1.309 109.291 1.314 107.417 C1.321 103.494 1.321 99.572 1.316 95.65 C1.31 90.642 1.327 85.633 1.35 80.624 C1.365 76.755 1.366 72.886 1.363 69.017 C1.363 67.171 1.368 65.325 1.378 63.479 C1.391 60.89 1.384 58.302 1.372 55.713 C1.38 54.962 1.388 54.21 1.395 53.436 C1.337 47.505 0.509 40.953 -3.452 36.292 C-5.598 34.501 -7.231 34.203 -10 34 C-13.868 35.172 -15.66 37.824 -18 41 C-18.99 40.67 -19.98 40.34 -21 40 C-20.56 33.972 -18.676 30.082 -15.5 25 C-14.836 23.907 -14.836 23.907 -14.158 22.791 C-13.239 21.278 -12.315 19.769 -11.387 18.262 C-10.03 16.049 -8.697 13.825 -7.371 11.594 C-1.183 1.183 -1.183 1.183 0 0 Z " fill="#FAFAFA" transform="translate(534,254)"/>
<path d="M0 0 C9.97 0.212 17.758 7.117 24.738 13.637 C29.907 19.038 33.341 25.057 36 32 C39.968 30.437 42.416 27.679 45.188 24.562 C45.667 24.033 46.146 23.503 46.639 22.957 C50.557 18.587 54.282 14.071 57.93 9.473 C62.331 4.216 62.331 4.216 65 2 C67.395 1.919 67.395 1.919 70 3 C71.673 5.403 72.954 7.577 74.242 10.176 C74.801 11.258 74.801 11.258 75.371 12.362 C76.155 13.889 76.929 15.42 77.695 16.955 C78.871 19.304 80.077 21.636 81.289 23.967 C82.046 25.452 82.801 26.938 83.555 28.426 C83.916 29.124 84.277 29.822 84.65 30.541 C87.074 35.455 87.074 35.455 86.722 38.039 C85.547 41.231 83.224 43.55 81 46.062 C80.003 47.213 79.007 48.364 78.012 49.516 C77.509 50.094 77.007 50.672 76.49 51.268 C72.904 55.437 69.465 59.73 66 64 C64.136 63.705 64.136 63.705 62 63 C60.345 60.513 58.939 58.134 57.562 55.5 C57.171 54.776 56.779 54.052 56.375 53.307 C55.597 51.867 54.824 50.425 54.056 48.98 C52.716 46.468 51.33 43.983 49.938 41.5 C49.291 40.334 48.645 39.167 48 38 C44.332 38.108 42.361 39.244 39.871 41.794 C35.761 46.798 36.145 52.008 36.195 58.238 C36.182 59.432 36.168 60.625 36.154 61.855 C36.117 65.675 36.12 69.493 36.125 73.312 C36.107 75.807 36.086 78.301 36.062 80.795 C36.011 86.971 36 93.146 36.003 99.321 C36 103.029 35.982 106.736 35.96 110.443 C35.95 112.789 35.94 115.135 35.93 117.48 C35.918 119.093 35.918 119.093 35.906 120.738 C35.816 127.935 35.816 127.935 37 135 C39.245 136.324 39.245 136.324 42 137 C43.779 137.857 45.551 138.732 47.312 139.625 C48.637 140.294 48.637 140.294 49.988 140.977 C50.652 141.314 51.316 141.652 52 142 C56.179 139.436 59.125 136.981 62 133 C63.65 133.33 65.3 133.66 67 134 C65.57 138.427 63.134 141.367 60.062 144.75 C52.924 152.881 47.148 161.94 41.675 171.255 C41.243 171.979 40.812 172.703 40.367 173.449 C39.984 174.106 39.601 174.763 39.207 175.44 C38 177 38 177 35 178 C34.603 177.582 34.206 177.165 33.798 176.734 C22.54 164.963 12.916 156.63 -2.984 152.127 C-8.688 150.444 -8.688 150.444 -10.527 147.824 C-10.683 147.222 -10.839 146.62 -11 146 C-10.278 145.608 -9.556 145.216 -8.812 144.812 C-3.43 141.344 -0.618 138.204 1 132 C1.189 129.221 1.284 126.544 1.275 123.767 C1.28 122.962 1.285 122.158 1.29 121.33 C1.304 118.683 1.303 116.037 1.301 113.391 C1.305 111.54 1.309 109.689 1.314 107.838 C1.321 103.962 1.321 100.085 1.316 96.208 C1.31 91.261 1.327 86.314 1.35 81.367 C1.365 77.544 1.366 73.721 1.363 69.898 C1.363 68.076 1.368 66.253 1.378 64.43 C1.916 50.784 1.916 50.784 -2 38 C-4.552 35.814 -6.605 34.318 -10 34 C-13.858 35.206 -15.659 37.823 -18 41 C-18.99 40.67 -19.98 40.34 -21 40 C-20.56 33.972 -18.676 30.082 -15.5 25 C-14.836 23.907 -14.836 23.907 -14.158 22.791 C-13.239 21.278 -12.315 19.769 -11.387 18.262 C-10.03 16.049 -8.697 13.825 -7.371 11.594 C-1.183 1.183 -1.183 1.183 0 0 Z " fill="#FAFAFA" transform="translate(1277,254)"/>
<path d="M0 0 C1.955 -0.004 1.955 -0.004 3.949 -0.008 C5.399 -0.006 6.849 -0.003 8.3 -0.001 C9.838 -0.002 11.376 -0.004 12.915 -0.006 C17.151 -0.01 21.387 -0.008 25.623 -0.005 C30.192 -0.003 34.761 -0.006 39.33 -0.009 C48.301 -0.013 57.272 -0.012 66.243 -0.009 C73.567 -0.007 80.89 -0.007 88.214 -0.008 C89.781 -0.008 89.781 -0.008 91.379 -0.008 C93.501 -0.009 95.623 -0.009 97.746 -0.009 C117.695 -0.012 137.644 -0.009 157.593 -0.004 C174.573 0.001 191.554 0 208.534 -0.005 C228.322 -0.01 248.11 -0.012 267.898 -0.009 C270.03 -0.009 272.163 -0.008 274.295 -0.008 C275.344 -0.008 276.392 -0.008 277.473 -0.008 C284.726 -0.007 291.98 -0.008 299.234 -0.01 C336.929 -0.022 374.622 -0.027 412.314 0.572 C413.569 0.591 414.824 0.61 416.117 0.63 C428.512 0.829 440.901 1.121 453.289 1.598 C454.824 1.654 454.824 1.654 456.389 1.71 C457.323 1.75 458.257 1.789 459.22 1.829 C460.041 1.862 460.861 1.895 461.707 1.929 C463.702 2.126 463.702 2.126 465.702 3.126 C465.702 3.786 465.702 4.446 465.702 5.126 C443.821 12.42 413.798 8.405 390.99 8.358 C385.625 8.349 380.26 8.352 374.895 8.354 C365.638 8.355 356.381 8.349 347.124 8.337 C333.74 8.321 320.356 8.316 306.972 8.313 C285.249 8.309 263.526 8.296 241.803 8.277 C220.722 8.258 199.641 8.244 178.56 8.236 C177.257 8.235 175.954 8.235 174.612 8.234 C168.073 8.232 161.534 8.229 154.996 8.226 C100.898 8.206 46.8 8.171 -7.298 8.126 C-8.149 15.976 -8.447 23.725 -8.449 31.618 C-8.453 32.829 -8.458 34.041 -8.462 35.289 C-8.473 38.623 -8.479 41.956 -8.484 45.29 C-8.49 48.898 -8.501 52.507 -8.512 56.116 C-8.531 62.368 -8.545 68.621 -8.558 74.873 C-8.576 83.961 -8.601 93.049 -8.627 102.137 C-8.67 116.947 -8.709 131.757 -8.745 146.567 C-8.749 147.895 -8.749 147.895 -8.752 149.25 C-8.763 153.731 -8.774 158.211 -8.785 162.691 C-8.806 171.588 -8.828 180.485 -8.85 189.382 C-8.852 190.257 -8.854 191.131 -8.856 192.032 C-8.893 206.75 -8.933 221.468 -8.975 236.185 C-8.999 244.417 -9.02 252.649 -9.037 260.881 C-9.109 295.639 -9.262 330.38 -10.298 365.126 C-10.958 365.456 -11.618 365.786 -12.298 366.126 C-13.808 363.105 -13.468 359.972 -13.487 356.656 C-13.495 355.871 -13.504 355.086 -13.512 354.277 C-13.539 351.608 -13.559 348.939 -13.579 346.27 C-13.597 344.336 -13.615 342.402 -13.634 340.468 C-13.684 335.098 -13.728 329.729 -13.77 324.36 C-13.807 319.753 -13.847 315.147 -13.888 310.54 C-14.018 295.566 -14.134 280.591 -14.248 265.616 C-14.287 260.473 -14.327 255.33 -14.367 250.187 C-14.666 211.954 -14.934 173.72 -15.143 135.486 C-15.16 132.38 -15.177 129.273 -15.194 126.166 C-15.198 125.406 -15.202 124.645 -15.206 123.862 C-15.27 112.322 -15.349 100.783 -15.437 89.243 C-15.518 78.548 -15.581 67.853 -15.624 57.158 C-15.648 51.491 -15.679 45.825 -15.732 40.159 C-15.78 35 -15.805 29.841 -15.812 24.682 C-15.818 22.824 -15.833 20.966 -15.857 19.109 C-15.888 16.611 -15.889 14.115 -15.881 11.617 C-15.898 10.892 -15.914 10.167 -15.931 9.421 C-15.906 7.419 -15.906 7.419 -15.298 4.126 C-10.654 0.255 -5.853 0.001 0 0 Z " fill="#F0F0F0" transform="translate(18.2976655960083,0.8741588592529297)"/>
<path d="M0 0 C2.599 3.898 2.453 7.327 2.61 11.866 C2.647 12.788 2.685 13.711 2.723 14.661 C3.145 26.155 3.185 37.656 3.23 49.156 C3.246 53.243 3.27 57.329 3.295 61.416 C3.365 73.017 3.426 84.618 3.477 96.22 C3.505 102.669 3.541 109.117 3.583 115.566 C3.606 118.962 3.624 122.357 3.634 125.752 C3.646 129.523 3.67 133.293 3.697 137.064 C3.698 138.175 3.698 139.285 3.699 140.43 C3.751 145.964 3.917 150.831 6 156 C8.58 157.48 8.58 157.48 11.625 157.938 C13.129 158.26 13.129 158.26 14.664 158.59 C15.82 158.793 15.82 158.793 17 159 C17 159.99 17 160.98 17 162 C15.313 162.082 13.625 162.14 11.938 162.188 C10.998 162.222 10.058 162.257 9.09 162.293 C5.307 161.934 2.45 160.546 -1 159 C-1.023 139.598 -1.041 120.196 -1.052 100.794 C-1.057 91.784 -1.064 82.775 -1.075 73.766 C-1.085 65.911 -1.092 58.056 -1.094 50.202 C-1.095 46.045 -1.098 41.888 -1.106 37.731 C-1.113 33.813 -1.115 29.896 -1.113 25.978 C-1.113 24.545 -1.115 23.112 -1.119 21.679 C-1.138 14.368 -0.999 7.248 0 0 Z " fill="#EDEDED" transform="translate(7,370)"/>
<path d="M0 0 C5.623 0.006 11.246 0.002 16.87 -0.003 C37.133 -0.021 57.393 -0.014 77.649 0.576 C78.342 0.595 79.035 0.615 79.749 0.635 C86.541 0.832 93.227 1.123 99.95 2.13 C99.95 2.46 99.95 2.79 99.95 3.13 C90.981 4.17 82.064 4.273 73.049 4.26 C71.474 4.261 69.899 4.263 68.324 4.265 C64.079 4.27 59.833 4.268 55.587 4.265 C51.13 4.262 46.672 4.265 42.214 4.266 C34.734 4.268 27.253 4.266 19.773 4.261 C11.138 4.255 2.503 4.257 -6.131 4.263 C-13.564 4.267 -20.997 4.268 -28.43 4.265 C-32.862 4.264 -37.293 4.263 -41.724 4.267 C-45.888 4.27 -50.052 4.268 -54.216 4.262 C-55.74 4.26 -57.263 4.261 -58.787 4.263 C-65.938 4.272 -72.973 4.279 -80.05 3.13 C-80.05 2.8 -80.05 2.47 -80.05 2.13 C-74.196 0.826 -68.392 0.762 -62.413 0.576 C-61.757 0.555 -61.1 0.534 -60.424 0.512 C-40.289 -0.11 -20.142 -0.021 0 0 Z " fill="#EBEBEB" transform="translate(108.050048828125,527.86962890625)"/>
<path d="M0 0 C34.144 -0.296 68.254 0.137 102.39 0.87 C105.564 0.938 108.738 1.004 111.912 1.07 C116.97 1.175 122.028 1.286 127.086 1.401 C128.971 1.443 130.857 1.484 132.742 1.524 C135.347 1.579 137.952 1.64 140.557 1.703 C141.313 1.718 142.07 1.733 142.85 1.749 C147.31 1.863 151.594 2.286 156 3 C156.33 3.99 156.66 4.98 157 6 C154.273 7.363 152.276 7.029 149.223 6.914 C147.956 6.871 146.688 6.828 145.383 6.783 C144.686 6.758 143.989 6.732 143.271 6.706 C130.963 6.256 118.654 5.956 106.34 5.777 C105.142 5.76 103.944 5.743 102.709 5.725 C100.232 5.689 97.755 5.653 95.277 5.618 C74.341 5.312 53.423 4.831 32.5 4 C31.429 3.958 30.357 3.916 29.253 3.873 C26.221 3.753 23.188 3.628 20.156 3.5 C18.849 3.447 18.849 3.447 17.516 3.393 C11.323 3.119 5.168 2.606 -1 2 C-0.67 1.34 -0.34 0.68 0 0 Z " fill="#DDDDDD" transform="translate(345,531)"/>
<path d="M0 0 C0.33 0 0.66 0 1 0 C2.094 8.43 2.142 16.805 2.129 25.293 C2.131 26.816 2.133 28.338 2.135 29.86 C2.139 33.97 2.138 38.08 2.134 42.19 C2.132 46.513 2.134 50.837 2.136 55.16 C2.138 62.424 2.135 69.689 2.13 76.953 C2.125 85.313 2.127 93.674 2.132 102.034 C2.137 109.244 2.137 116.453 2.135 123.663 C2.133 127.955 2.133 132.247 2.136 136.538 C2.139 140.582 2.137 144.625 2.131 148.668 C2.13 150.139 2.13 151.609 2.133 153.079 C2.146 163.09 1.728 173.02 1 183 C0.67 183 0.34 183 0 183 C-1.06 166.813 -1.315 150.617 -1.533 134.401 C-1.563 132.161 -1.594 129.922 -1.626 127.682 C-2.116 92.504 -2.58 57.297 -1.562 22.125 C-1.543 21.435 -1.523 20.746 -1.503 20.036 C-1.303 13.299 -0.994 6.669 0 0 Z " fill="#D0D0D0" transform="translate(499,61)"/>
<path d="M0 0 C3.506 1.964 5.939 3.648 7.812 7.312 C8.099 12.559 7.147 17.173 3.812 21.312 C-0.019 25.008 -3.063 27.152 -8.5 27.562 C-13.825 27.201 -16.879 25.727 -20.5 21.812 C-23.326 17.626 -23.53 14.285 -23.188 9.312 C-21.224 4.732 -18.094 2.242 -14.188 -0.688 C-9.084 -2.389 -4.869 -2.253 0 0 Z M-13.188 4.312 C-16.245 7.302 -17.986 9.192 -18.75 13.438 C-18.064 16.945 -16.953 18.117 -14.188 20.312 C-11.078 21.867 -8.625 21.599 -5.188 21.312 C-0.947 19.054 -0.947 19.054 1.812 15.312 C2.223 11.62 2.096 9.793 0.188 6.562 C-4.056 2.542 -8.039 1.144 -13.188 4.312 Z " fill="#EBEBEB" transform="translate(64.1875,470.6875)"/>
<path d="M0 0 C3.751 3.204 4.863 5.044 5.562 9.938 C5.249 14.488 3.667 17.324 1 21 C-2.352 23.886 -5.431 24.581 -9.867 24.43 C-13.767 23.644 -16.957 21.504 -20 19 C-21.62 15.76 -21.562 12.503 -21 9 C-16.222 1.236 -8.925 -2.634 0 0 Z M-14.375 5.688 C-16.361 9.711 -16.361 9.711 -16 14 C-13.659 16.341 -11.333 17.798 -8 18 C-4.501 16.584 -3.256 15.49 -1.5 12.125 C-0.705 8.975 -0.705 8.975 -2.25 6.188 C-4.462 3.422 -5.379 3.095 -8.875 2.562 C-12.244 2.689 -12.244 2.689 -14.375 5.688 Z " fill="#ECECEC" transform="translate(91,39)"/>
<path d="M0 0 C0.33 0 0.66 0 1 0 C1.047 16.003 1.082 32.005 1.104 48.008 C1.114 55.438 1.128 62.868 1.151 70.298 C1.171 76.772 1.184 83.246 1.188 89.721 C1.191 93.15 1.197 96.58 1.211 100.009 C1.228 103.834 1.228 107.658 1.227 111.482 C1.234 112.625 1.241 113.768 1.249 114.945 C1.246 115.983 1.243 117.021 1.241 118.09 C1.242 118.995 1.244 119.9 1.246 120.833 C1 123 1 123 -1 125 C-2.293 103.07 -1.963 81.186 -1.663 59.233 C-1.612 55.32 -1.568 51.407 -1.525 47.494 C-1.482 43.676 -1.435 39.859 -1.386 36.042 C-1.363 34.243 -1.342 32.443 -1.321 30.643 C-1.202 20.389 -0.885 10.222 0 0 Z " fill="#DFDFDF" transform="translate(501,397)"/>
<path d="M0 0 C6.327 -0.025 12.655 -0.043 18.982 -0.055 C21.125 -0.06 23.268 -0.067 25.411 -0.075 C36.321 -0.119 47.21 -0.094 58.109 0.441 C59.309 0.5 59.309 0.5 60.533 0.56 C65.073 0.811 69.508 1.29 74 2 C74 2.66 74 3.32 74 4 C60.327 4.149 46.668 3.9 33 3.562 C31.74 3.533 31.74 3.533 30.454 3.503 C6.377 2.933 6.377 2.933 1 2 C0.67 1.34 0.34 0.68 0 0 Z " fill="#EAEAEA" transform="translate(264,530)"/>
<path d="M0 0 C0.33 0 0.66 0 1 0 C1 29.04 1 58.08 1 88 C-1.12 83.761 -1.278 80.844 -1.243 76.266 C-1.245 75.491 -1.247 74.717 -1.249 73.919 C-1.252 71.362 -1.242 68.806 -1.23 66.25 C-1.229 64.472 -1.229 62.693 -1.229 60.915 C-1.228 57.189 -1.219 53.464 -1.206 49.738 C-1.189 44.963 -1.185 40.188 -1.186 35.413 C-1.185 31.742 -1.18 28.07 -1.173 24.398 C-1.17 22.638 -1.168 20.877 -1.167 19.116 C-1.165 16.656 -1.156 14.195 -1.145 11.734 C-1.146 10.643 -1.146 10.643 -1.147 9.53 C-1.126 6.212 -1.027 3.173 0 0 Z " fill="#D3D3D3" transform="translate(501,304)"/>
<path d="M0 0 C0.66 0.33 1.32 0.66 2 1 C3.404 6.934 3.136 13.346 3.098 19.41 C3.096 20.263 3.095 21.116 3.093 21.995 C3.088 24.684 3.075 27.373 3.062 30.062 C3.057 31.9 3.053 33.738 3.049 35.576 C3.038 40.051 3.021 44.525 3 49 C2.34 49 1.68 49 1 49 C-1.701 39.24 -1.102 28.597 -1.125 18.562 C-1.132 16.856 -1.132 16.856 -1.139 15.115 C-1.136 13.482 -1.136 13.482 -1.133 11.816 C-1.132 10.841 -1.131 9.866 -1.129 8.862 C-0.993 5.841 -0.554 2.97 0 0 Z " fill="#DADADA" transform="translate(499,247)"/>
<path d="M0 0 C-3.833 3.833 -10.442 3.068 -15.625 3.125 C-19.514 3.093 -23.185 2.825 -27 2 C-26.67 1.01 -26.34 0.02 -26 -1 C-17.3 -2.582 -8.397 -3.053 0 0 Z " fill="#D8D8D8" transform="translate(245,530)"/>
<path d="M0 0 C0.66 0 1.32 0 2 0 C1.585 4.838 -0.42 6.856 -4 10 C-7.189 11.595 -10.529 11.385 -14 11 C-17 9.625 -17 9.625 -19 8 C-19 7.34 -19 6.68 -19 6 C-17.822 6.104 -17.822 6.104 -16.621 6.211 C-10.422 6.665 -10.422 6.665 -4.715 4.664 C-2.872 3.045 -2.872 3.045 -1.305 1.312 C-0.874 0.879 -0.444 0.446 0 0 Z " fill="#E0E0E0" transform="translate(456,487)"/>
<path d="M0 0 C2.667 -0.027 5.333 -0.047 8 -0.062 C8.744 -0.071 9.488 -0.079 10.254 -0.088 C15.261 -0.11 20.043 0.285 25 1 C25 1.33 25 1.66 25 2 C16.257 3.011 7.607 3.12 -1.188 3.062 C-2.535 3.057 -3.882 3.053 -5.229 3.049 C-8.486 3.037 -11.743 3.021 -15 3 C-15 2.67 -15 2.34 -15 2 C-10.05 1.67 -5.1 1.34 0 1 C0 0.67 0 0.34 0 0 Z " fill="#C5C5C5" transform="translate(183,529)"/>
<path d="M0 0 C1.161 0.009 2.323 0.018 3.52 0.027 C4.4 0.039 5.28 0.051 6.188 0.062 C6.188 0.722 6.188 1.383 6.188 2.062 C9.157 2.062 12.127 2.062 15.188 2.062 C15.188 2.393 15.188 2.722 15.188 3.062 C12.187 3.09 9.188 3.109 6.188 3.125 C4.929 3.138 4.929 3.138 3.645 3.15 C-1.606 3.171 -6.617 2.826 -11.812 2.062 C-11.812 1.732 -11.812 1.403 -11.812 1.062 C-7.815 0.106 -4.104 -0.041 0 0 Z " fill="#BFBFBF" transform="translate(39.8125,528.9375)"/>
<path d="M0 0 C2.463 1.827 3.834 3.23 4.488 6.27 C4.725 8.515 4.904 10.745 5 13 C4.01 13.33 3.02 13.66 2 14 C0.029 9.073 -0.18 5.22 0 0 Z " fill="#EAEAEA" transform="translate(52,32)"/>
<path d="M0 0 C8.203 0.344 8.203 0.344 11.125 2.75 C12.219 5.563 11.87 7.152 11 10 C9.331 8.331 7.679 6.658 6.062 4.938 C4.104 3.098 2.452 2.051 0 1 C0 0.67 0 0.34 0 0 Z " fill="#D8D8D8" transform="translate(446,474)"/>
<path d="M0 0 C0.99 0.33 1.98 0.66 3 1 C3 6.28 3 11.56 3 17 C2.34 17 1.68 17 1 17 C0.67 11.39 0.34 5.78 0 0 Z " fill="#C1C1C1" transform="translate(497,15)"/>
<path d="M0 0 C2.625 0.375 2.625 0.375 5 1 C4.382 2.316 3.756 3.628 3.125 4.938 C2.777 5.668 2.429 6.399 2.07 7.152 C1 9 1 9 -1 10 C-1.977 3.945 -1.977 3.945 -2 2 C-1.34 1.34 -0.68 0.68 0 0 Z " fill="#DFDFDF" transform="translate(497,3)"/>
<path d="M0 0 C3.63 0.33 7.26 0.66 11 1 C11 1.66 11 2.32 11 3 C4.07 3 -2.86 3 -10 3 C-10 2.67 -10 2.34 -10 2 C-6.7 1.67 -3.4 1.34 0 1 C0 0.67 0 0.34 0 0 Z " fill="#BEBEBE" transform="translate(327,531)"/>
<path d="M0 0 C2.136 3.204 2.231 4.019 2.125 7.688 C2.107 8.496 2.089 9.304 2.07 10.137 C2.047 10.752 2.024 11.366 2 12 C1.34 12 0.68 12 0 12 C0 14.64 0 17.28 0 20 C-0.33 20 -0.66 20 -1 20 C-1.114 13.234 -0.88 6.712 0 0 Z " fill="#BBBBBB" transform="translate(7,370)"/>
<path d="M0 0 C-1 3 -1 3 -4 5 C-4.99 5 -5.98 5 -7 5 C-6.688 3.062 -6.688 3.062 -6 1 C-3 0 -3 0 0 0 Z " fill="#C7C7C7" transform="translate(443,474)"/>
</svg>