
<!-- Generator: visioncortex VTracer 0.6.4 -->
<svg version="1.1" xmlns="http://www.w3.org/2000/svg" viewBox="0 0 1121 521" preserveAspectRatio="xMidYMid meet">
<path d="M0 0 C10.939 -0.034 21.877 -0.062 32.816 -0.075 C35.646 -0.078 38.477 -0.084 41.307 -0.092 C45.05 -0.101 48.794 -0.103 52.538 -0.104 C54.154 -0.11 54.154 -0.11 55.804 -0.115 C56.764 -0.114 57.724 -0.113 58.713 -0.111 C59.541 -0.112 60.369 -0.113 61.222 -0.114 C63.085 0.009 63.085 0.009 64.085 1.009 C64.33 3.454 64.508 5.872 64.639 8.324 C64.703 9.466 64.703 9.466 64.767 10.63 C65.229 19.74 65.224 28.846 65.212 37.966 C65.213 39.926 65.214 41.887 65.216 43.848 C65.221 49.189 65.219 54.531 65.215 59.872 C65.213 65.649 65.217 71.427 65.219 77.204 C65.224 88.5 65.223 99.795 65.22 111.09 C65.218 120.264 65.217 129.439 65.219 138.613 C65.219 139.92 65.219 141.228 65.219 142.575 C65.219 145.231 65.22 147.887 65.22 150.543 C65.223 174.702 65.22 198.861 65.215 223.02 C65.21 245.082 65.21 267.145 65.215 289.207 C65.22 314.012 65.223 338.818 65.22 363.623 C65.219 366.264 65.219 368.905 65.219 371.546 C65.218 372.846 65.218 374.145 65.218 375.484 C65.217 384.66 65.219 393.835 65.221 403.01 C65.224 414.173 65.223 425.336 65.218 436.499 C65.215 442.199 65.214 447.898 65.217 453.597 C65.22 458.805 65.219 464.013 65.213 469.221 C65.212 471.113 65.213 473.006 65.215 474.898 C65.218 477.453 65.215 480.007 65.211 482.562 C65.213 483.312 65.215 484.062 65.218 484.834 C65.199 489.895 65.199 489.895 64.085 491.009 C54.266 492.402 44.352 492.226 34.455 492.303 C32.43 492.322 30.404 492.342 28.379 492.361 C22.796 492.414 17.214 492.46 11.631 492.504 C8.043 492.533 4.456 492.563 0.869 492.594 C-63.513 493.144 -127.898 493.363 -192.282 493.575 C-205.804 493.619 -219.327 493.67 -232.85 493.722 C-246.983 493.777 -261.117 493.828 -275.25 493.875 C-283.089 493.901 -290.928 493.928 -298.768 493.96 C-305.362 493.987 -311.957 494.01 -318.552 494.028 C-321.896 494.038 -325.241 494.049 -328.585 494.064 C-357.979 494.195 -357.979 494.195 -367.915 493.009 C-372.709 488.215 -370.153 472.024 -370.227 465.259 C-370.248 463.643 -370.268 462.027 -370.289 460.411 C-370.345 455.908 -370.394 451.406 -370.44 446.904 C-370.47 443.968 -370.502 441.031 -370.533 438.095 C-371.187 376.089 -371.067 314.077 -371.045 252.068 C-371.04 239.129 -371.041 226.189 -371.046 213.25 C-371.051 197.919 -371.053 182.589 -371.05 167.259 C-371.05 165.605 -371.049 163.952 -371.049 162.298 C-371.049 161.486 -371.049 160.674 -371.049 159.838 C-371.048 154.306 -371.049 148.774 -371.052 143.242 C-371.064 111.025 -370.955 78.813 -370.501 46.599 C-370.47 44.377 -370.44 42.155 -370.411 39.932 C-370.355 35.813 -370.292 31.694 -370.227 27.575 C-370.211 26.374 -370.194 25.173 -370.178 23.935 C-370.051 16.59 -369.623 9.321 -368.915 2.009 C-287.342 1.258 -205.769 0.826 -124.193 0.48 C-117.703 0.452 -111.213 0.424 -104.723 0.396 C-69.815 0.245 -34.908 0.108 0 0 Z M-181.275 8.391 C-182.533 8.437 -182.533 8.437 -183.817 8.483 C-194.817 9.008 -204.483 11.447 -212.466 19.591 C-214.809 22.821 -215.744 26.061 -215.915 30.009 C-215.092 32.329 -215.092 32.329 -213.915 34.009 C-210.556 32.278 -208.196 30.321 -205.665 27.572 C-196.622 18.373 -185.145 19.007 -173.036 18.899 C-172.13 18.894 -171.224 18.889 -170.29 18.884 C-169.4 18.879 -168.511 18.874 -167.594 18.869 C-166.341 18.873 -166.341 18.873 -165.064 18.876 C-163.937 18.878 -163.937 18.878 -162.788 18.88 C-160.915 19.009 -160.915 19.009 -158.915 20.009 C-159.565 21.069 -160.215 22.128 -160.884 23.22 C-161.728 24.608 -162.572 25.996 -163.415 27.384 C-163.844 28.083 -164.274 28.781 -164.716 29.501 C-167.075 33.002 -167.075 33.002 -167.915 37.009 C-160.787 35.08 -154.605 31.062 -148.234 27.441 C-139.131 22.36 -130.531 18.338 -119.915 20.009 C-115.678 21.269 -111.599 22.913 -107.517 24.599 C-102.057 26.737 -97.167 27.168 -91.341 27.177 C-90.255 27.182 -90.255 27.182 -89.147 27.187 C-87.619 27.192 -86.09 27.195 -84.561 27.194 C-82.252 27.197 -79.944 27.215 -77.636 27.234 C-63.039 27.298 -63.039 27.298 -49.478 22.384 C-45.201 20.009 -45.201 20.009 -41.915 20.009 C-42.339 20.473 -42.763 20.937 -43.2 21.415 C-49.231 28.52 -52.464 36.46 -55.915 45.009 C-53.364 46.285 -52.563 45.803 -49.853 45.072 C-44.845 43.872 -38.696 42.619 -33.915 45.009 C-33.833 46.883 -33.776 48.759 -33.728 50.634 C-33.693 51.678 -33.658 52.722 -33.622 53.798 C-34.043 58.404 -35.113 61.497 -38.74 64.54 C-40.97 66.135 -43.236 67.647 -45.54 69.134 C-47.102 70.147 -48.657 71.17 -50.204 72.204 C-50.892 72.648 -51.58 73.092 -52.289 73.549 C-54.338 75.115 -54.338 75.115 -54.915 79.009 C-50.46 78.514 -50.46 78.514 -45.915 78.009 C-48.233 81.533 -49.314 82.851 -53.478 83.947 C-57.169 84.656 -57.169 84.656 -58.603 88.009 C-59.036 88.999 -59.469 89.989 -59.915 91.009 C-65.285 95.036 -74.406 94.272 -80.853 94.572 C-81.727 94.615 -82.602 94.658 -83.503 94.702 C-85.64 94.808 -87.778 94.909 -89.915 95.009 C-83.931 101.313 -76.884 101.819 -68.536 102.138 C-59.158 102.287 -52.727 102.016 -45.677 95.536 C-41.921 92.28 -37.781 90.08 -32.915 89.009 C-32.829 89.589 -32.743 90.169 -32.654 90.767 C-31.607 96.583 -30.105 99.82 -25.915 104.009 C-25.585 104.009 -25.255 104.009 -24.915 104.009 C-24.895 103.143 -24.876 102.278 -24.855 101.386 C-24.776 98.101 -24.689 94.817 -24.598 91.533 C-24.56 90.126 -24.525 88.718 -24.493 87.31 C-23.874 60.21 -23.874 60.21 -18.915 52.009 C-16.978 50.822 -16.978 50.822 -14.915 51.009 C-11.008 54.128 -9.512 57.873 -7.853 62.447 C-6.209 66.88 -4.503 71.024 -1.915 75.009 C0.942 72.536 2.17 69.931 3.71 66.509 C7.867 57.989 13.497 49.508 22.085 45.009 C23.075 44.679 24.065 44.349 25.085 44.009 C25.306 45.632 25.512 47.258 25.71 48.884 C25.826 49.789 25.942 50.694 26.061 51.626 C26.069 52.413 26.077 53.199 26.085 54.009 C25.095 54.999 25.095 54.999 24.085 56.009 C23.775 56.813 23.466 57.618 23.147 58.447 C22.085 61.009 22.085 61.009 20.624 62.407 C16.877 66.307 15.897 72.325 15.897 77.572 C15.959 78.706 16.021 79.84 16.085 81.009 C23.371 79.9 28.274 75.439 33.085 70.009 C33.085 69.019 33.085 68.029 33.085 67.009 C28.414 68.566 24.998 71.094 21.085 74.009 C25.894 68.735 31.899 63.378 39.085 62.009 C36.104 72.255 29.768 78.546 20.554 83.665 C19.739 84.109 18.924 84.552 18.085 85.009 C16.577 85.913 15.077 86.829 13.585 87.759 C12.641 88.339 12.641 88.339 11.679 88.931 C9.921 90.046 9.921 90.046 8.085 92.009 C7.887 94.146 7.69 96.283 7.496 98.42 C6.762 103.041 4.814 107.178 2.96 111.447 C2.2 113.213 1.447 114.983 0.702 116.755 C0.368 117.525 0.034 118.295 -0.31 119.089 C-1.177 121.064 -1.177 121.064 0.085 123.009 C3.909 119.394 7.406 115.711 10.585 111.509 C18.732 100.793 18.732 100.793 24.085 99.009 C23.903 99.724 23.721 100.44 23.534 101.177 C21.62 108.766 19.82 116.377 18.085 124.009 C27.916 116.269 34.82 106.071 42.085 96.009 C42.074 97.018 42.064 98.027 42.053 99.067 C42.017 102.816 41.994 106.566 41.975 110.316 C41.965 111.937 41.951 113.559 41.934 115.181 C41.91 117.514 41.898 119.847 41.889 122.181 C41.879 122.904 41.869 123.627 41.858 124.372 C41.857 128.087 42.022 130.855 44.085 134.009 C44.363 132.735 44.642 131.462 44.929 130.15 C45.677 126.773 46.47 123.412 47.304 120.056 C53.751 93.686 54.272 66.717 54.27 39.674 C54.272 36.522 54.291 33.37 54.309 30.218 C54.312 28.191 54.314 26.165 54.315 24.138 C54.326 22.741 54.326 22.741 54.337 21.316 C54.334 20.443 54.331 19.571 54.328 18.671 C54.33 17.534 54.33 17.534 54.332 16.374 C54.022 13.406 53.056 10.822 52.085 8.009 C23.502 7.986 -5.08 7.968 -33.663 7.957 C-46.936 7.952 -60.209 7.945 -73.482 7.934 C-85.06 7.924 -96.637 7.917 -108.214 7.915 C-114.337 7.914 -120.459 7.911 -126.581 7.903 C-132.361 7.896 -138.14 7.894 -143.919 7.896 C-146.024 7.896 -148.129 7.894 -150.235 7.89 C-160.589 7.872 -170.929 7.962 -181.275 8.391 Z M-239.54 39.884 C-240.989 40.614 -242.44 41.34 -243.892 42.064 C-244.573 42.404 -245.254 42.744 -245.955 43.094 C-248.54 44.301 -251.186 45.191 -253.915 46.009 C-253.444 49.687 -252.613 52.976 -251.353 56.447 C-249.569 61.683 -249.167 65.808 -250.978 71.134 C-254.281 76.036 -259.203 79.398 -264.915 81.009 C-270.061 81.809 -273.002 80.178 -277.15 77.376 C-280.315 74.925 -281.661 72.773 -282.915 69.009 C-283.423 61.881 -281.667 57.079 -278.784 50.657 C-277.794 48.396 -277.794 48.396 -276.915 45.009 C-278.149 42.055 -279.175 41.32 -282.095 40.095 C-286.072 39.974 -289.378 41.247 -293.04 42.634 C-293.791 42.907 -294.543 43.179 -295.317 43.46 C-300.578 45.404 -305.64 47.632 -310.618 50.224 C-314.78 51.647 -317.449 50.227 -321.325 48.415 C-322.546 47.786 -323.763 47.15 -324.978 46.509 C-333.33 42.126 -340.412 40.417 -349.665 43.259 C-354.331 44.999 -357.44 47.33 -360.728 51.072 C-362.591 55.68 -362.701 60.118 -361.915 65.009 C-359.671 68.216 -358.068 69.493 -354.54 71.072 C-349.771 70.958 -346.097 67.825 -342.29 65.197 C-339.253 63.678 -338.113 63.975 -334.915 65.009 C-321.636 77.398 -312.999 97.024 -307.103 113.759 C-306.679 114.959 -306.255 116.158 -305.819 117.394 C-278.272 196.406 -278.272 196.406 -289.915 233.009 C-290.895 235.019 -291.889 237.022 -292.915 239.009 C-292.915 239.669 -292.915 240.329 -292.915 241.009 C-293.791 241.144 -293.791 241.144 -294.684 241.281 C-312.389 243.713 -312.389 243.713 -326.415 253.947 C-330.396 262.073 -331.678 271.025 -329.075 279.861 C-326.452 285.708 -323.022 290.624 -316.915 293.009 C-313.415 293.545 -309.913 293.696 -306.375 293.697 C-304.552 293.707 -302.731 293.849 -300.915 294.009 C-298.585 297.504 -298.543 299.299 -298.282 303.45 C-298.198 304.747 -298.114 306.044 -298.028 307.38 C-297.948 308.777 -297.868 310.174 -297.79 311.572 C-297.749 312.277 -297.707 312.982 -297.664 313.709 C-296.191 338.684 -296.193 363.711 -302.915 388.009 C-303.263 389.277 -303.611 390.546 -303.97 391.853 C-308.457 406.583 -316.899 425.831 -328.915 436.009 C-329.905 436.339 -330.895 436.669 -331.915 437.009 C-331.853 435.998 -331.791 434.988 -331.728 433.947 C-331.974 428.778 -333.154 424.77 -336.915 421.009 C-339.973 420.438 -342.851 420.499 -345.915 421.009 C-351.348 424.906 -353.581 430.527 -354.853 436.947 C-355.418 442.77 -352.378 446.92 -349.165 451.509 C-345.86 453.713 -342.729 453.501 -338.915 453.009 C-335.542 451.955 -332.374 450.545 -329.165 449.072 C-327.505 448.331 -325.843 447.593 -324.181 446.857 C-323.457 446.527 -322.733 446.197 -321.987 445.857 C-317.113 443.862 -312.138 443.271 -306.915 444.009 C-304.353 446.009 -304.353 446.009 -302.915 448.009 C-299.439 444.964 -298.07 442.362 -296.603 438.009 C-290.135 420.321 -290.135 420.321 -282.915 416.009 C-278.203 414.504 -273.85 414.674 -269.228 416.384 C-259.969 421.214 -257.438 431.349 -254.274 440.621 C-253.996 441.429 -253.718 442.238 -253.431 443.072 C-253.186 443.805 -252.942 444.539 -252.69 445.294 C-252.042 447.208 -252.042 447.208 -249.915 448.009 C-249.412 447.666 -248.908 447.324 -248.39 446.971 C-246.068 445.395 -243.742 443.827 -241.415 442.259 C-240.624 441.72 -239.832 441.181 -239.017 440.626 C-234.684 437.714 -230.378 435.153 -225.671 432.899 C-223.251 431.673 -221.142 430.137 -218.978 428.509 C-214.509 425.288 -210.011 423.047 -204.915 421.009 C-207.081 413.993 -209.884 407.54 -213.103 400.947 C-213.591 399.934 -214.079 398.922 -214.582 397.879 C-217.051 392.778 -219.562 387.703 -222.138 382.655 C-235.869 355.675 -251.59 316.381 -245.427 285.568 C-245.174 284.796 -245.174 284.796 -244.915 284.009 C-243.482 283.68 -243.482 283.68 -242.021 283.345 C-231.38 280.785 -220.057 277.798 -213.915 268.009 C-211.564 262.768 -210.167 257.784 -210.915 252.009 C-211.982 249.47 -213.348 247.268 -214.915 245.009 C-215.534 244.102 -216.153 243.194 -216.79 242.259 C-220.85 237.961 -224.557 236.817 -230.353 236.634 C-235.295 236.762 -238.544 237.779 -242.915 240.009 C-244.238 240.382 -245.568 240.74 -246.915 241.009 C-247.973 237.709 -247.843 235.264 -247.314 231.857 C-247.156 230.791 -246.997 229.726 -246.834 228.628 C-246.565 226.867 -246.565 226.867 -246.29 225.072 C-243.988 209.359 -242.264 193.595 -240.579 177.806 C-240.475 176.849 -240.372 175.892 -240.266 174.905 C-240.07 173.094 -239.878 171.281 -239.689 169.469 C-239.558 168.257 -239.558 168.257 -239.424 167.02 C-239.35 166.315 -239.275 165.61 -239.198 164.883 C-238.915 163.009 -238.915 163.009 -237.915 160.009 C-217.391 145.622 -194.099 143.603 -169.853 143.947 C-169.176 143.955 -168.5 143.964 -167.803 143.973 C-133.186 144.447 -133.186 144.447 -122.353 150.634 C-121.405 151.155 -121.405 151.155 -120.437 151.687 C-115.559 154.449 -111.205 157.669 -106.966 161.345 C-105.011 163.074 -105.011 163.074 -102.771 163.986 C-100.394 165.297 -100.038 166.578 -98.915 169.009 C-97.755 170.264 -96.564 171.49 -95.353 172.697 C-79.269 190.45 -75.531 213.877 -75.654 236.939 C-75.665 239.309 -75.655 241.677 -75.642 244.046 C-75.628 257.645 -76.4 271.306 -80.165 284.447 C-80.494 285.629 -80.494 285.629 -80.829 286.835 C-81.506 289.232 -82.208 291.621 -82.915 294.009 C-83.121 294.726 -83.327 295.443 -83.539 296.182 C-93.706 331.182 -112.928 363.272 -134.915 392.009 C-135.805 393.179 -136.694 394.35 -137.583 395.521 C-144.968 405.215 -152.58 414.645 -160.782 423.661 C-163.877 427.068 -166.905 430.528 -169.915 434.009 C-170.424 434.589 -170.934 435.169 -171.458 435.767 C-174.092 438.495 -174.092 438.495 -174.915 442.009 C-171.092 443.283 -167.382 443.375 -163.39 443.561 C-162.51 443.603 -161.63 443.645 -160.723 443.688 C-148.928 444.199 -137.129 444.173 -125.325 444.177 C-122.804 444.18 -120.282 444.184 -117.76 444.187 C-112.506 444.193 -107.253 444.195 -101.999 444.194 C-96.653 444.194 -91.307 444.201 -85.961 444.215 C-79.435 444.232 -72.908 444.238 -66.382 444.238 C-63.924 444.239 -61.465 444.243 -59.007 444.251 C-47.43 444.284 -35.909 444.211 -24.37 443.182 C-23.555 443.113 -22.739 443.044 -21.899 442.972 C-12.785 442.039 -4.116 440.214 2.085 433.009 C4.118 429.445 4.8 427.14 4.085 423.009 C1.35 419.024 -1.261 415.56 -5.915 414.009 C-11.884 413.475 -16.851 413.476 -21.915 417.009 C-25.466 420.725 -27.69 424.412 -29.915 429.009 C-30.585 428.984 -31.255 428.959 -31.945 428.933 C-45.506 428.429 -59.066 427.962 -72.63 427.571 C-74.767 427.509 -76.903 427.447 -79.04 427.384 C-87.748 427.13 -87.748 427.13 -96.456 426.884 C-100.08 426.783 -103.705 426.678 -107.329 426.569 C-109.347 426.51 -111.365 426.456 -113.383 426.402 C-114.594 426.365 -115.805 426.328 -117.052 426.29 C-118.116 426.26 -119.179 426.23 -120.275 426.199 C-122.915 426.009 -122.915 426.009 -125.915 425.009 C-125.428 424.424 -124.941 423.839 -124.439 423.236 C-109.898 405.628 -95.909 387.451 -82.79 368.759 C-72.454 354.095 -60.828 339.411 -46.915 328.009 C-46.061 327.301 -45.206 326.594 -44.325 325.865 C-40.607 322.803 -36.891 319.753 -33.06 316.833 C-32.166 316.149 -31.273 315.464 -30.353 314.759 C-29.547 314.156 -28.741 313.552 -27.911 312.931 C-25.666 310.769 -24.854 308.953 -23.915 306.009 C-26.744 303.734 -29.466 302.256 -32.79 300.822 C-38.035 298.273 -41.055 295.054 -43.915 290.009 C-45.884 284.102 -45.651 277.431 -43.853 271.509 C-40.821 267.597 -37.34 265.796 -32.603 264.259 C-24.757 263.529 -18.259 264.173 -10.677 266.45 C-7.66 267.061 -5.824 266.99 -2.915 266.009 C1.165 259.818 0.461 253.179 0.085 246.009 C0.069 245.355 0.053 244.701 0.036 244.027 C-0.414 227.754 -6.226 213.059 -11.915 198.009 C-12.247 197.107 -12.58 196.205 -12.922 195.276 C-24.203 164.763 -46.232 145.637 -75.297 131.95 C-97.941 121.561 -118.263 119.596 -142.998 119.529 C-145.712 119.52 -148.424 119.492 -151.138 119.447 C-170.59 119.125 -188.071 121.167 -206.915 126.009 C-208.69 126.443 -210.465 126.874 -212.24 127.301 C-212.969 127.477 -213.697 127.652 -214.448 127.833 C-215.118 127.994 -215.788 128.156 -216.478 128.322 C-217.466 128.563 -217.466 128.563 -218.475 128.809 C-223.924 130.104 -229.325 130.768 -234.915 131.009 C-232.543 110.873 -219.339 89.774 -203.603 77.259 C-198.15 73.243 -191.009 72.584 -184.478 71.572 C-179.877 70.848 -175.295 70.122 -170.747 69.115 C-157.379 66.182 -142.894 65.983 -129.915 71.009 C-127.353 73.697 -127.353 73.697 -125.915 77.009 C-122.466 84.816 -122.466 84.816 -115.915 90.009 C-107.526 92.355 -99.725 90.46 -91.915 87.009 C-85.326 83.089 -81.391 79.107 -79.228 71.634 C-78.369 64.421 -78.37 58.488 -82.79 52.447 C-92.001 45.262 -102.553 43.299 -113.915 44.009 C-118.968 44.766 -123.935 45.877 -128.915 47.009 C-155.638 53.049 -155.638 53.049 -167.915 54.009 C-169.203 54.116 -170.491 54.223 -171.818 54.333 C-189.642 55.122 -206.756 47.463 -220.841 36.857 C-227.698 34.054 -233.44 36.713 -239.54 39.884 Z M-337.915 92.009 C-337.967 92.881 -337.967 92.881 -338.019 93.771 C-338.736 105.134 -339.874 116.208 -342.415 127.322 C-342.629 128.263 -342.842 129.205 -343.062 130.176 C-344.641 136.735 -344.641 136.735 -346.915 139.009 C-347.197 138.515 -347.479 138.021 -347.77 137.512 C-349.062 135.257 -350.363 133.008 -351.665 130.759 C-352.109 129.982 -352.552 129.204 -353.009 128.404 C-355.302 124.458 -357.428 121.04 -360.915 118.009 C-360.374 123.666 -359.275 128.512 -357.29 133.822 C-357.032 134.538 -356.773 135.254 -356.507 135.992 C-355.025 140.078 -353.485 144.14 -351.927 148.197 C-351.602 149.051 -351.278 149.906 -350.943 150.787 C-350.31 152.45 -349.666 154.109 -349.012 155.764 C-348.58 156.901 -348.58 156.901 -348.138 158.06 C-347.878 158.727 -347.617 159.394 -347.349 160.081 C-346.915 162.009 -346.915 162.009 -347.915 166.009 C-352.37 166.504 -352.37 166.504 -356.915 167.009 C-354.662 171.155 -352.245 174.997 -349.478 178.822 C-346.045 183.638 -343.391 188.647 -340.915 194.009 C-340.255 194.009 -339.595 194.009 -338.915 194.009 C-338.655 194.741 -338.394 195.473 -338.126 196.228 C-334.595 204.337 -327.292 210.851 -321.287 217.237 C-317.709 221.066 -314.46 225.028 -311.415 229.302 C-309.746 231.202 -308.23 232.036 -305.915 233.009 C-307.217 228.915 -308.73 225.035 -310.517 221.13 C-311.007 220.044 -311.496 218.958 -312.001 217.839 C-313.03 215.571 -314.064 213.306 -315.103 211.042 C-315.834 209.415 -315.834 209.415 -316.579 207.755 C-317.027 206.772 -317.476 205.789 -317.937 204.776 C-318.926 201.979 -319.116 199.948 -318.915 197.009 C-315.796 195.216 -313.238 194.666 -309.665 194.384 C-308.773 194.309 -307.881 194.235 -306.962 194.157 C-306.287 194.109 -305.611 194.06 -304.915 194.009 C-304.42 192.524 -304.42 192.524 -303.915 191.009 C-305.4 190.247 -305.4 190.247 -306.915 189.47 C-314.029 185.776 -320.677 182.101 -326.915 177.009 C-325.53 173.025 -323.649 170.182 -321.04 166.884 C-313.923 157.204 -312.233 148.926 -312.915 137.009 C-316.93 138.347 -318.158 140.984 -320.353 144.384 C-322.849 148.24 -325.119 151.342 -328.915 154.009 C-328.93 153.317 -328.944 152.625 -328.959 151.911 C-329.255 139.224 -329.73 126.612 -331.29 114.009 C-331.404 113.063 -331.518 112.117 -331.635 111.142 C-332.505 104.587 -334.036 98.345 -335.915 92.009 C-336.575 92.009 -337.235 92.009 -337.915 92.009 Z M21.085 130.009 C17.684 134.397 15.889 138.777 14.085 144.009 C13.095 143.679 12.105 143.349 11.085 143.009 C9.284 144.169 9.284 144.169 7.522 145.947 C0.778 152.157 -6.391 157.775 -13.915 163.009 C-11.467 165.818 -9.619 167.743 -6.103 169.072 C-0.506 168.962 3.552 166.541 7.46 162.634 C9.193 159.834 10.09 157.135 11.085 154.009 C11.745 153.679 12.405 153.349 13.085 153.009 C13.069 153.618 13.053 154.227 13.037 154.854 C12.669 171.263 12.758 186.011 23.96 199.22 C28.519 203.891 28.519 203.891 34.772 205.259 C39.155 205.164 42.292 204.343 46.085 202.009 C49.632 197.302 51.748 190.873 52.085 185.009 C50.672 180.849 48.703 177.552 45.085 175.009 C40.274 174.398 38.242 174.27 34.147 176.884 C30.684 180.452 30.974 182.753 31.022 187.634 C31.031 188.823 31.04 190.011 31.05 191.236 C31.061 192.151 31.073 193.066 31.085 194.009 C25.929 191.367 24.818 188.956 22.929 183.677 C17.343 166.015 18.994 147.832 23.085 130.009 C22.425 130.009 21.765 130.009 21.085 130.009 Z M-136.915 171.009 C-137.408 171.486 -137.9 171.963 -138.407 172.454 C-139.591 173.625 -140.755 174.815 -141.915 176.009 C-142.484 175.564 -143.052 175.12 -143.638 174.661 C-147.956 171.303 -147.956 171.303 -153.071 169.833 C-155.174 170.122 -155.174 170.122 -157.915 171.009 C-158.134 171.852 -158.354 172.695 -158.579 173.564 C-158.896 174.659 -159.214 175.755 -159.54 176.884 C-159.842 177.975 -160.144 179.065 -160.454 180.189 C-161.915 183.009 -161.915 183.009 -165.001 184.204 C-165.963 184.47 -166.924 184.735 -167.915 185.009 C-169.057 188.436 -169.058 191.277 -169.165 194.884 C-169.634 202.602 -169.634 202.602 -172.478 205.134 C-173.684 206.062 -173.684 206.062 -174.915 207.009 C-175.365 210.943 -175.365 210.943 -173.193 212.896 C-166.783 217.861 -166.783 217.861 -158.915 219.009 C-155.507 218.202 -152.214 217.184 -148.915 216.009 C-148.915 215.019 -148.915 214.029 -148.915 213.009 C-151.555 212.019 -154.195 211.029 -156.915 210.009 C-156.915 209.679 -156.915 209.349 -156.915 209.009 C-155.946 208.762 -154.976 208.514 -153.978 208.259 C-152.967 207.847 -151.956 207.434 -150.915 207.009 C-150.172 205.038 -150.172 205.038 -149.915 203.009 C-148.925 202.349 -147.935 201.689 -146.915 201.009 C-146.55 198.113 -146.55 198.113 -146.728 194.884 C-146.755 193.788 -146.782 192.693 -146.81 191.564 C-146.845 190.721 -146.879 189.878 -146.915 189.009 C-145.595 191.649 -144.275 194.289 -142.915 197.009 C-139.748 193.842 -139.052 192.121 -137.728 187.947 C-137.384 186.883 -137.039 185.82 -136.685 184.724 C-135.824 182.159 -135.824 182.159 -135.915 180.009 C-135.255 180.009 -134.595 180.009 -133.915 180.009 C-134.905 184.959 -135.895 189.909 -136.915 195.009 C-136.255 195.339 -135.595 195.669 -134.915 196.009 C-132.999 195.237 -132.999 195.237 -130.978 194.072 C-128.226 192.554 -127.137 192.009 -123.915 192.009 C-124.276 192.491 -124.637 192.973 -125.009 193.47 C-125.473 194.102 -125.937 194.733 -126.415 195.384 C-126.879 196.011 -127.343 196.637 -127.821 197.282 C-129.094 198.95 -129.094 198.95 -128.915 201.009 C-123.191 200.262 -117.567 199.18 -111.915 198.009 C-114.915 201.009 -117.915 204.009 -120.915 207.009 C-120.205 207.214 -119.495 207.419 -118.763 207.63 C-117.844 207.9 -116.925 208.169 -115.978 208.447 C-115.061 208.713 -114.145 208.98 -113.2 209.255 C-110.915 210.009 -110.915 210.009 -109.915 211.009 C-113.38 211.504 -113.38 211.504 -116.915 212.009 C-117.245 213.329 -117.575 214.649 -117.915 216.009 C-116.629 217.182 -115.336 218.347 -114.04 219.509 C-113.321 220.159 -112.602 220.808 -111.861 221.478 C-110.066 223.215 -110.066 223.215 -107.915 223.009 C-107.915 223.669 -107.915 224.329 -107.915 225.009 C-108.733 224.692 -109.55 224.375 -110.392 224.048 C-114.428 222.858 -118.11 222.565 -122.29 222.384 C-123.026 222.345 -123.762 222.307 -124.521 222.267 C-126.319 222.173 -128.117 222.09 -129.915 222.009 C-129.418 221.246 -128.92 220.483 -128.407 219.697 C-126.651 217.083 -126.651 217.083 -127.04 214.009 C-127.945 210.909 -129.041 208.633 -130.915 206.009 C-133.756 204.589 -135.77 204.695 -138.915 205.009 C-142.503 207.301 -143.262 209.775 -144.165 213.759 C-144.42 215.175 -144.671 216.591 -144.915 218.009 C-146.739 218.407 -146.739 218.407 -148.599 218.814 C-150.184 219.17 -151.768 219.527 -153.353 219.884 C-154.155 220.058 -154.958 220.232 -155.784 220.411 C-157.843 220.881 -159.882 221.439 -161.915 222.009 C-162.245 222.669 -162.575 223.329 -162.915 224.009 C-162.585 224.669 -162.255 225.329 -161.915 226.009 C-161.255 226.009 -160.595 226.009 -159.915 226.009 C-159.915 226.669 -159.915 227.329 -159.915 228.009 C-158.383 229.381 -156.786 230.681 -155.165 231.947 C-150.221 235.887 -145.551 240.015 -140.977 244.378 C-138.459 246.743 -136.193 248.823 -132.915 250.009 C-130.225 249.705 -130.225 249.705 -127.915 249.009 C-127.255 246.699 -126.595 244.389 -125.915 242.009 C-129.021 240.798 -129.021 240.798 -132.915 241.009 C-132.915 240.019 -132.915 239.029 -132.915 238.009 C-126.798 238.136 -124.087 240.126 -119.712 244.318 C-117.063 246.811 -115.624 248.009 -111.915 248.009 C-111.855 247.383 -111.794 246.756 -111.732 246.111 C-111.606 244.885 -111.606 244.885 -111.478 243.634 C-111.356 242.416 -111.356 242.416 -111.232 241.173 C-110.915 239.009 -110.915 239.009 -109.915 237.009 C-109.324 237.032 -108.732 237.055 -108.122 237.079 C-103.577 237.183 -100.056 237.146 -95.915 235.009 C-96.33 231.523 -96.76 229.253 -98.665 226.259 C-100.546 221.368 -98.82 217.721 -96.915 213.009 C-96.527 212.331 -96.139 211.653 -95.739 210.954 C-94.754 209.043 -94.754 209.043 -95.071 206.95 C-96.117 204.544 -97.344 203.538 -99.415 201.947 C-102.082 199.887 -102.812 199.32 -103.915 196.009 C-103.995 194.601 -104.023 193.189 -104.013 191.779 C-104.008 190.575 -104.008 190.575 -104.003 189.347 C-103.991 188.097 -103.991 188.097 -103.978 186.822 C-103.973 185.977 -103.969 185.132 -103.964 184.261 C-103.952 182.177 -103.934 180.093 -103.915 178.009 C-104.723 177.995 -105.532 177.981 -106.364 177.966 C-115.157 177.574 -115.157 177.574 -118.853 174.822 C-119.874 173.429 -119.874 173.429 -120.915 172.009 C-123.886 167.711 -123.886 167.711 -128.353 165.322 C-131.984 166.296 -134.278 168.455 -136.915 171.009 Z M6.085 169.009 C2.979 175.22 5.622 183.707 7.21 190.072 C7.436 190.991 7.662 191.911 7.894 192.859 C11.191 205.838 16.419 217.817 21.752 230.065 C24.258 235.888 26.519 241.744 28.522 247.759 C28.757 248.461 28.991 249.163 29.233 249.886 C29.889 251.918 30.499 253.956 31.085 256.009 C31.295 256.734 31.505 257.459 31.722 258.206 C34.216 267.818 31.836 275.607 28.585 284.759 C27.947 286.586 27.311 288.414 26.679 290.243 C26.397 291.04 26.115 291.836 25.825 292.657 C25.059 295.09 24.541 297.501 24.085 300.009 C35.223 290.104 43.473 270.907 44.518 256.197 C44.947 245.309 43.52 235.327 40.085 225.009 C39.831 224.236 39.577 223.462 39.315 222.665 C37.158 217.479 33.173 213.671 29.369 209.645 C19.342 199.001 12.487 188.17 9.858 173.697 C9.306 170.69 9.306 170.69 6.085 169.009 Z M-150.915 245.009 C-151.188 251.751 -150.71 258.264 -149.915 264.947 C-147.281 288.049 -149.391 309.758 -155.915 332.009 C-156.406 333.701 -156.406 333.701 -156.907 335.427 C-157.559 337.626 -158.233 339.819 -158.915 342.009 C-155.948 341.691 -154.957 341.052 -152.853 338.865 C-150.756 335.775 -149.337 332.772 -147.915 329.322 C-147.655 328.707 -147.395 328.091 -147.127 327.458 C-145.977 324.716 -144.903 321.973 -143.958 319.154 C-139.951 307.353 -130.227 302.774 -119.655 297.509 C-115.371 295.372 -111.422 293.345 -107.915 290.009 C-107.915 289.349 -107.915 288.689 -107.915 288.009 C-111.875 287.679 -115.835 287.349 -119.915 287.009 C-114.764 280.191 -108.285 275.465 -101.571 270.299 C-96.525 266.398 -96.525 266.398 -91.915 262.009 C-91.915 261.349 -91.915 260.689 -91.915 260.009 C-96.362 260.57 -99.782 261.713 -103.79 263.697 C-109.612 266.493 -115.495 268.785 -121.622 270.828 C-125.585 272.223 -127.908 273.269 -129.915 277.009 C-130.954 279.439 -131.929 281.849 -132.853 284.322 C-133.336 285.611 -133.824 286.899 -134.318 288.185 C-134.529 288.751 -134.74 289.317 -134.958 289.901 C-136.395 293.065 -138.166 296.007 -139.915 299.009 C-139.909 298.459 -139.902 297.908 -139.895 297.341 C-139.829 291.598 -139.783 285.856 -139.75 280.113 C-139.735 277.971 -139.715 275.829 -139.689 273.688 C-139.652 270.605 -139.635 267.522 -139.622 264.439 C-139.607 263.485 -139.591 262.532 -139.575 261.55 C-139.574 256.281 -139.905 252.54 -142.915 248.009 C-145.871 245.793 -147.203 245.009 -150.915 245.009 Z M-204.915 261.009 C-205.152 268.68 -204.675 275.532 -202.915 283.009 C-208.525 282.679 -214.135 282.349 -219.915 282.009 C-218.265 283.659 -216.615 285.309 -214.915 287.009 C-208.915 293.009 -208.915 293.009 -202.915 299.009 C-206.875 298.679 -210.835 298.349 -214.915 298.009 C-210.943 302.453 -206.762 305.002 -201.478 307.697 C-200.74 308.086 -200.002 308.476 -199.241 308.878 C-195.213 310.973 -191.286 312.714 -186.915 314.009 C-189.225 314.999 -191.535 315.989 -193.915 317.009 C-191.6 319.857 -188.794 321.118 -185.519 322.659 C-175.328 327.524 -175.328 327.524 -173.103 332.509 C-172.407 334.798 -172.407 334.798 -171.915 337.009 C-171.712 337.656 -171.508 338.303 -171.298 338.97 C-169.645 344.517 -169.317 350.26 -168.915 356.009 C-161.881 347.64 -160.732 334.294 -158.665 323.884 C-158.397 322.604 -158.129 321.324 -157.853 320.005 C-155.064 306.106 -154.534 292.662 -161.915 280.009 C-162.245 280.009 -162.575 280.009 -162.915 280.009 C-163.245 283.309 -163.575 286.609 -163.915 290.009 C-168.477 287.728 -169.361 286.184 -171.915 281.884 C-172.439 281.007 -172.439 281.007 -172.972 280.113 C-176.423 274.272 -179.529 268.371 -181.915 262.009 C-182.245 262.009 -182.575 262.009 -182.915 262.009 C-183.245 266.959 -183.575 271.909 -183.915 277.009 C-187.941 274.593 -190.276 272.849 -193.415 269.572 C-197.897 264.987 -197.897 264.987 -202.915 261.009 C-203.575 261.009 -204.235 261.009 -204.915 261.009 Z M-27.103 279.509 C-29.723 283.123 -29.844 285.544 -29.915 290.009 C-28.444 292.543 -27.29 292.881 -24.54 293.822 C-21.422 294.044 -19.664 293.46 -16.915 292.009 C-15.31 288.799 -15.298 285.482 -15.915 282.009 C-18.022 279.389 -18.022 279.389 -20.915 278.009 C-24.807 277.632 -24.807 277.632 -27.103 279.509 Z M-98.915 296.009 C-100.325 298.306 -101.69 300.615 -103.04 302.947 C-108.118 311.554 -113.656 319.104 -120.915 326.009 C-121.575 321.389 -122.235 316.769 -122.915 312.009 C-130.409 315.756 -135.539 322.708 -140.915 329.009 C-141.74 329.968 -142.565 330.927 -143.415 331.915 C-173.112 364.393 -173.112 364.393 -185.228 404.447 C-185.257 405.674 -185.286 406.902 -185.316 408.167 C-185.324 409.351 -185.332 410.535 -185.341 411.755 C-185.356 412.835 -185.37 413.914 -185.385 415.026 C-184.802 418.729 -183.513 420.356 -180.915 423.009 C-178.297 424.342 -178.297 424.342 -175.915 425.009 C-174.013 421.204 -176.852 416.455 -178.103 412.587 C-179.132 408.056 -178.984 404.935 -176.716 400.849 C-173.436 396.657 -170.154 393.238 -165.915 390.009 C-166.348 390.647 -166.781 391.285 -167.228 391.943 C-167.785 392.769 -168.341 393.595 -168.915 394.447 C-169.472 395.27 -170.029 396.094 -170.603 396.943 C-172.005 398.742 -172.005 398.742 -171.915 400.009 C-165.89 399.632 -161.657 397.781 -156.915 394.009 C-154.638 391.194 -154.638 391.194 -154.915 388.009 C-155.663 384.806 -155.663 384.806 -158.54 383.072 C-164.141 381.308 -168.686 382.632 -173.915 385.009 C-168.156 371.022 -154.793 356.92 -140.915 351.009 C-141.678 351.731 -142.441 352.453 -143.228 353.197 C-145.627 355.707 -147.269 357.977 -148.915 361.009 C-142.391 360.106 -136.831 357.725 -130.79 355.197 C-129.706 354.758 -128.622 354.319 -127.505 353.866 C-126.462 353.433 -125.419 352.999 -124.345 352.552 C-123.399 352.16 -122.452 351.769 -121.477 351.365 C-117.378 349.195 -114.87 346.598 -113.29 342.259 C-111.016 336.751 -107.804 331.903 -104.532 326.946 C-98.738 317.998 -96.079 309.058 -97.353 298.322 C-97.538 297.558 -97.724 296.795 -97.915 296.009 C-98.245 296.009 -98.575 296.009 -98.915 296.009 Z M-351.915 319.009 C-360.416 328.325 -361.693 341.546 -361.224 353.634 C-360.85 359.817 -360.013 365.913 -358.915 372.009 C-353.6 364.036 -351.188 355.004 -349.347 345.71 C-348.001 339.249 -348.001 339.249 -344.915 337.009 C-344.829 337.799 -344.743 338.589 -344.654 339.404 C-343.762 346.558 -342.422 353.37 -340.54 360.322 C-340.322 361.127 -340.105 361.932 -339.88 362.762 C-339.439 364.388 -338.997 366.014 -338.554 367.639 C-335.298 379.711 -333.1 391.558 -331.915 404.009 C-330.43 403.514 -330.43 403.514 -328.915 403.009 C-328.567 401.575 -328.238 400.137 -327.915 398.697 C-327.637 397.496 -327.637 397.496 -327.353 396.271 C-326.189 387.591 -327.078 379.017 -328.228 370.384 C-328.361 369.343 -328.494 368.302 -328.631 367.229 C-329.541 360.299 -330.69 353.441 -331.994 346.575 C-332.961 341.292 -333.17 336.363 -332.915 331.009 C-330.17 332.382 -330.097 333.735 -329.075 336.595 C-328.564 337.991 -328.564 337.991 -328.042 339.415 C-327.335 341.386 -326.63 343.358 -325.925 345.329 C-325.412 346.729 -325.412 346.729 -324.888 348.157 C-324.581 349.015 -324.274 349.873 -323.958 350.757 C-322.896 353.051 -321.809 354.363 -319.915 356.009 C-318.96 351.529 -319.01 348 -319.763 343.493 C-319.957 342.25 -320.152 341.006 -320.352 339.724 C-320.455 339.076 -320.558 338.427 -320.664 337.759 C-322.584 325.516 -323.367 314.237 -320.915 302.009 C-324.055 303.868 -327.033 305.768 -329.915 308.009 C-329.585 306.029 -329.255 304.049 -328.915 302.009 C-336.863 302.009 -346.415 313.634 -351.915 319.009 Z M-6.915 310.009 C-6.915 310.339 -6.915 310.669 -6.915 311.009 C-5.853 311.228 -4.791 311.447 -3.696 311.673 C11.431 314.994 11.431 314.994 17.085 321.009 C18.518 323.875 18.391 325.822 18.085 329.009 C14.725 335.231 10.88 338.586 4.21 340.759 C-3.718 342.887 -10.361 342.134 -17.915 339.009 C-20.415 336.947 -20.415 336.947 -21.915 335.009 C-22.575 334.349 -23.235 333.689 -23.915 333.009 C-25.217 336.914 -24.707 339.31 -23.095 343.068 C-19.683 348.683 -15.321 352.533 -10.103 356.384 C-9.207 357.059 -9.207 357.059 -8.292 357.747 C-6.838 358.841 -5.377 359.926 -3.915 361.009 C-4.519 360.993 -5.122 360.978 -5.744 360.961 C-25.059 360.525 -40.559 361.991 -55.978 375.009 C-61.994 380.783 -64.491 385.861 -64.943 394.294 C-64.888 399.754 -64.235 403.52 -60.478 407.759 C-54.13 412.315 -46.075 414.906 -38.267 414.509 C-32.841 413.355 -29.445 410.175 -26.31 405.736 C-22.968 399.802 -22.271 394.739 -22.915 388.009 C-23.446 388.407 -23.977 388.806 -24.525 389.216 C-26.655 390.814 -28.785 392.411 -30.915 394.009 C-31.602 394.553 -32.289 395.097 -32.997 395.657 C-35.636 397.517 -37.712 397.813 -40.915 398.009 C-44.6 396.93 -47.675 395.046 -50.915 393.009 C-51.575 394.659 -52.235 396.309 -52.915 398.009 C-53.575 398.009 -54.235 398.009 -54.915 398.009 C-54.742 391.191 -53.385 386.255 -48.915 381.009 C-46.428 378.663 -43.825 376.797 -40.915 375.009 C-40.248 374.594 -39.58 374.179 -38.892 373.751 C-30.994 369.553 -22.232 370.472 -13.603 371.513 C-8.702 372.08 -3.846 372.229 1.085 372.259 C2.342 372.29 2.342 372.29 3.624 372.322 C11.036 372.367 17.176 370.93 23.397 366.822 C26.186 363.903 27.653 361.35 29.225 357.681 C30.085 356.009 30.085 356.009 32.085 355.009 C30.082 361.494 27.098 366.672 23.085 372.072 C15.19 382.7 12.108 391.657 13.085 405.009 C15.18 418.95 19.615 429.781 29.075 440.282 C33.035 444.707 36.397 449.202 37.835 455.072 C36.794 459.146 34.546 460.354 31.128 462.615 C29.2 463.93 27.674 465.309 26.085 467.009 C26.415 467.339 26.745 467.669 27.085 468.009 C32.563 467.899 35.637 466.471 39.503 462.806 C42.594 459.294 44.977 455.707 45.168 450.915 C44.588 445.01 42.795 440.927 39.647 435.947 C30.784 421.707 33.375 409.019 36.968 393.363 C37.34 391.765 37.712 390.168 38.085 388.572 C38.641 386.153 39.194 383.734 39.746 381.315 C40.087 379.824 40.43 378.334 40.777 376.844 C44.372 361.301 43.556 348.229 35.585 334.134 C33.845 331.571 33.5 331.115 30.397 330.322 C29.634 330.218 28.871 330.115 28.085 330.009 C27.791 329.27 27.497 328.532 27.194 327.771 C23.999 319.818 15.647 314.411 8.085 311.009 C4.8 309.914 2.348 309.909 -1.103 309.947 C-2.189 309.956 -3.276 309.965 -4.396 309.974 C-5.227 309.985 -6.059 309.997 -6.915 310.009 Z M-206.915 338.197 C-209.074 340.815 -209.074 340.815 -209.415 343.697 C-209.116 346.378 -209.116 346.378 -205.915 348.009 C-203.591 348.403 -201.257 348.744 -198.915 349.009 C-199.504 349.685 -200.093 350.36 -200.7 351.056 C-201.828 352.394 -201.828 352.394 -202.978 353.759 C-203.732 354.641 -204.486 355.522 -205.263 356.431 C-207.205 358.815 -207.205 358.815 -206.519 361.17 C-206.319 361.777 -206.12 362.384 -205.915 363.009 C-203.945 363.083 -203.945 363.083 -201.935 363.157 C-200.199 363.233 -198.463 363.308 -196.728 363.384 C-195.863 363.415 -194.999 363.446 -194.109 363.478 C-185.666 363.866 -185.666 363.866 -181.915 366.009 C-180.603 368.634 -180.603 368.634 -179.915 371.009 C-178.925 371.009 -177.935 371.009 -176.915 371.009 C-174.795 366.769 -175.462 362.506 -176.786 358.13 C-179.961 349.98 -183.971 341.882 -191.853 337.447 C-197.302 335.166 -201.914 334.55 -206.915 338.197 Z M-197.915 386.009 C-198.245 386.669 -198.575 387.329 -198.915 388.009 C-197.595 387.349 -196.275 386.689 -194.915 386.009 C-195.905 386.009 -196.895 386.009 -197.915 386.009 Z M-260.915 473.009 C-261.245 474.329 -261.575 475.649 -261.915 477.009 C-260.925 476.679 -259.935 476.349 -258.915 476.009 C-259.245 475.019 -259.575 474.029 -259.915 473.009 C-260.245 473.009 -260.575 473.009 -260.915 473.009 Z " fill="#FAFAFA" transform="translate(385.91524028778076,13.990948677062988)"/>
<path d="M0 0 C1.185 0.014 1.185 0.014 2.395 0.027 C3.282 0.045 3.282 0.045 4.188 0.062 C4.683 2.537 4.683 2.537 5.188 5.062 C4.342 5.244 3.496 5.426 2.625 5.613 C-10.38 7.94 -10.38 7.94 -20.466 15.728 C-25.311 24.127 -25.236 34.726 -25.105 44.145 C-25.099 45.915 -25.099 45.915 -25.093 47.721 C-25.076 51.439 -25.038 55.157 -25 58.875 C-24.985 61.417 -24.971 63.96 -24.959 66.502 C-24.926 72.689 -24.876 78.876 -24.812 85.062 C-19.89 83.491 -15.661 81.537 -11.188 79 C-10.139 78.407 -10.139 78.407 -9.068 77.801 C-0.084 72.614 8.034 66.421 15.566 59.277 C17.188 58.062 17.188 58.062 20.188 58.062 C20.432 58.873 20.677 59.684 20.93 60.52 C23.577 68.361 26.828 73.24 32.559 79.133 C45.7 93.777 51.078 112.632 50.311 132.063 C49.279 148.825 42.295 163.514 30.188 175.062 C29.648 175.579 29.108 176.096 28.551 176.629 C23.073 181.851 17.511 186.966 11.75 191.875 C4.735 197.996 -0.185 204.952 -4.918 212.914 C-6.796 216.035 -8.771 219.047 -10.812 222.062 C-14.277 220.383 -16.395 218.459 -18.75 215.5 C-31.279 200.852 -51.122 193.383 -68.812 187.062 C-68.812 186.072 -68.812 185.082 -68.812 184.062 C-67.719 183.526 -66.626 182.99 -65.5 182.438 C-61.741 180.288 -60.326 178.183 -58.812 174.062 C-57.526 169.258 -57.665 164.477 -57.667 159.541 C-57.664 158.587 -57.661 157.633 -57.657 156.651 C-57.648 153.495 -57.646 150.339 -57.645 147.184 C-57.641 144.974 -57.638 142.765 -57.634 140.555 C-57.628 135.914 -57.627 131.273 -57.627 126.632 C-57.627 120.739 -57.614 114.846 -57.596 108.952 C-57.585 104.38 -57.583 99.808 -57.584 95.236 C-57.583 93.067 -57.578 90.898 -57.57 88.729 C-57.275 50.775 -57.275 50.775 -72.562 16.812 C-73.812 15.062 -73.812 15.062 -73.812 11.062 C-72.492 10.732 -71.173 10.403 -69.812 10.062 C-63.835 16.339 -59.94 23.51 -55.812 31.062 C-52.548 29.686 -50.985 28.287 -49 25.375 C-38.258 10.655 -18.614 -0.278 0 0 Z M-25.812 93.062 C-26.089 95.108 -26.089 95.108 -26.003 97.486 C-25.996 98.412 -25.989 99.339 -25.982 100.293 C-25.965 101.309 -25.948 102.325 -25.93 103.371 C-25.909 105.569 -25.889 107.767 -25.87 109.964 C-25.858 111.125 -25.846 112.285 -25.834 113.481 C-25.805 118.248 -25.859 123.012 -25.912 127.778 C-25.957 132.657 -25.949 137.535 -25.935 142.414 C-25.937 144.919 -25.957 147.423 -25.994 149.927 C-26.045 153.61 -26.033 157.289 -26.008 160.973 C-26.038 162.086 -26.067 163.2 -26.098 164.347 C-25.99 170.417 -25.99 170.417 -22.657 175.271 C-20.112 177.075 -17.563 178.595 -14.812 180.062 C-13.375 180.952 -11.94 181.846 -10.512 182.75 C-9.177 183.526 -7.84 184.297 -6.5 185.062 C-5.486 185.672 -5.486 185.672 -4.451 186.293 C-1.548 187.953 0.597 189.071 3.98 189.023 C10.419 186.22 13.472 177.944 16.09 171.867 C23.016 154.171 24.216 132.845 16.559 115.242 C8.729 98.161 8.729 98.161 -4.652 86.375 C-12.118 85.263 -20.397 87.647 -25.812 93.062 Z " fill="#FAFAFA" transform="translate(747.8125,172.9375)"/>
<path d="M0 0 C7.115 0.002 14.231 0.003 21.346 0.001 C22.883 0.001 22.883 0.001 24.451 0.001 C26.534 0.001 28.617 0 30.7 0 C50.05 -0.003 69.4 0 88.749 0.006 C105.315 0.01 121.881 0.01 138.447 0.005 C157.8 -0 177.153 -0.003 196.505 0.001 C198.568 0.001 200.631 0.001 202.694 0.001 C204.216 0.002 204.216 0.002 205.768 0.002 C212.885 0.003 220.003 0.001 227.12 -0.001 C235.775 -0.004 244.431 -0.003 253.086 0.002 C257.493 0.005 261.9 0.006 266.307 0.003 C270.346 -0 274.385 0.001 278.425 0.007 C279.878 0.008 281.332 0.007 282.786 0.005 C291.588 -0.009 300.278 0.32 309.044 1.135 C309.843 4.649 310.17 7.889 310.17 11.49 C310.174 13.092 310.174 13.092 310.178 14.726 C310.175 16.478 310.175 16.478 310.171 18.266 C310.173 19.514 310.174 20.761 310.176 22.046 C310.18 25.511 310.178 28.977 310.175 32.442 C310.173 36.188 310.176 39.934 310.179 43.68 C310.184 51.061 310.183 58.443 310.18 65.825 C310.177 71.912 310.177 77.998 310.178 84.085 C310.178 84.959 310.178 85.832 310.179 86.732 C310.179 88.51 310.179 90.287 310.18 92.065 C310.182 108.823 310.179 125.582 310.174 142.34 C310.169 156.351 310.17 170.363 310.175 184.374 C310.2 262.399 310.12 340.421 309.63 418.445 C309.604 422.624 309.579 426.802 309.555 430.981 C309.504 439.595 309.448 448.209 309.387 456.822 C309.366 459.645 309.348 462.468 309.331 465.291 C309.249 478.683 309.087 492.063 308.587 505.447 C308.53 507.05 308.53 507.05 308.472 508.686 C308.432 509.655 308.391 510.625 308.35 511.623 C308.315 512.474 308.28 513.326 308.245 514.203 C308.044 516.135 308.044 516.135 307.044 517.135 C304.977 517.257 302.906 517.307 300.836 517.332 C299.852 517.345 299.852 517.345 298.847 517.359 C296.631 517.388 294.415 517.41 292.199 517.432 C290.618 517.451 289.038 517.47 287.457 517.49 C283.136 517.543 278.814 517.589 274.492 517.634 C271.753 517.663 269.014 517.693 266.275 517.725 C225.636 518.187 184.997 518.467 144.357 518.683 C141.514 518.698 138.671 518.713 135.828 518.729 C75.361 519.062 14.895 519.241 -45.573 519.257 C-51.494 519.259 -57.415 519.262 -63.336 519.266 C-73.55 519.273 -83.764 519.275 -93.978 519.27 C-97.371 519.268 -100.764 519.269 -104.156 519.271 C-108.059 519.274 -111.961 519.272 -115.863 519.267 C-117.276 519.265 -118.689 519.266 -120.102 519.268 C-122.019 519.271 -123.936 519.267 -125.853 519.262 C-127.451 519.262 -127.451 519.262 -129.082 519.261 C-131.813 519.142 -134.297 518.753 -136.956 518.135 C-128.671 509.851 -100.94 513.652 -90.056 513.528 C-88.684 513.51 -87.313 513.491 -85.941 513.472 C-53.262 513.023 -20.581 512.935 12.101 512.87 C20.699 512.853 29.298 512.829 37.896 512.806 C53.265 512.763 68.633 512.724 84.001 512.688 C84.91 512.685 85.818 512.683 86.754 512.681 C95.058 512.661 103.362 512.642 111.666 512.622 C117.227 512.609 122.787 512.596 128.347 512.583 C129.262 512.581 130.176 512.579 131.119 512.577 C146.483 512.54 161.846 512.5 177.21 512.458 C185.765 512.434 194.32 512.413 202.875 512.396 C245.128 512.372 245.128 512.372 287.374 511.68 C288.547 511.651 288.547 511.651 289.743 511.622 C291.843 511.568 293.943 511.507 296.042 511.442 C297.17 511.407 298.298 511.372 299.46 511.336 C302.03 511.3 302.03 511.3 304.044 510.135 C304.173 463.164 304.301 416.193 304.427 369.222 C304.442 363.617 304.457 358.013 304.472 352.408 C304.475 351.293 304.478 350.178 304.481 349.029 C304.528 331.208 304.577 313.387 304.626 295.565 C304.677 277.141 304.726 258.717 304.775 240.293 C304.803 230.003 304.83 219.712 304.859 209.422 C304.928 184.622 304.988 159.822 305.033 135.022 C305.041 131 305.049 126.979 305.057 122.957 C305.08 111.382 305.1 99.807 305.111 88.232 C305.116 83.247 305.122 78.262 305.132 73.276 C305.177 51.871 305.062 30.521 304.044 9.135 C282.519 8.137 261.035 8 239.491 8.034 C234.676 8.04 229.861 8.041 225.046 8.042 C216.735 8.045 208.424 8.051 200.113 8.06 C188.084 8.073 176.055 8.079 164.026 8.083 C144.485 8.09 124.943 8.101 105.402 8.115 C103.654 8.116 103.654 8.116 101.871 8.117 C93.595 8.123 85.32 8.129 77.044 8.135 C67.563 8.142 58.082 8.149 48.601 8.156 C47.432 8.157 46.264 8.157 45.059 8.158 C25.564 8.172 6.068 8.182 -13.428 8.189 C-25.428 8.193 -37.428 8.201 -49.428 8.214 C-57.64 8.222 -65.852 8.227 -74.063 8.229 C-78.796 8.231 -83.529 8.234 -88.261 8.241 C-92.598 8.248 -96.935 8.25 -101.272 8.248 C-102.835 8.249 -104.399 8.251 -105.962 8.255 C-128.439 8.308 -128.439 8.308 -134.956 6.135 C-134.956 5.475 -134.956 4.815 -134.956 4.135 C-129.829 0.718 -124.568 0.947 -118.554 0.824 C-117.256 0.793 -117.256 0.793 -115.932 0.762 C-112.961 0.695 -109.991 0.637 -107.019 0.581 C-105.419 0.55 -105.419 0.55 -103.786 0.518 C-69.196 -0.14 -34.595 -0.012 0 0 Z " fill="#EBEBEB" transform="translate(152.95565911009908,0.8646995946764946)"/>
<path d="M0 0 C-0.33 1.32 -0.66 2.64 -1 4 C-2.558 4.22 -2.558 4.22 -4.148 4.445 C-14.098 5.99 -21.694 8.253 -29.375 15.125 C-36.359 27.481 -36.152 40.98 -36.129 54.777 C-36.131 56.124 -36.133 57.47 -36.135 58.817 C-36.139 62.438 -36.138 66.059 -36.134 69.681 C-36.132 73.482 -36.134 77.283 -36.136 81.083 C-36.138 87.455 -36.135 93.826 -36.13 100.198 C-36.125 107.564 -36.127 114.93 -36.132 122.295 C-36.137 128.633 -36.137 134.97 -36.135 141.308 C-36.133 145.087 -36.133 148.867 -36.136 152.647 C-36.14 156.851 -36.135 161.054 -36.129 165.258 C-36.131 166.511 -36.133 167.764 -36.136 169.055 C-36.133 170.196 -36.13 171.337 -36.127 172.512 C-36.127 173.505 -36.126 174.499 -36.126 175.522 C-36.104 178.134 -36.104 178.134 -35 181 C-30.778 184.397 -26.684 186.86 -21.25 187.312 C-16.861 185.54 -14.703 182.793 -12 179 C-10.68 179.33 -9.36 179.66 -8 180 C-8.514 184.315 -11.269 187.093 -13.938 190.312 C-21.762 200 -28.502 210.387 -35 221 C-39.359 219.626 -41.418 217.742 -44.312 214.25 C-53.886 203.307 -65.129 198.775 -79 195 C-78.68 192.621 -78.68 192.621 -78 190 C-76.007 188.657 -74.006 187.324 -72 186 C-68.135 180.455 -68.576 174.791 -68.612 168.298 C-68.607 167.124 -68.601 165.951 -68.596 164.742 C-68.585 161.533 -68.588 158.324 -68.597 155.114 C-68.605 151.736 -68.598 148.358 -68.593 144.98 C-68.587 139.297 -68.595 133.613 -68.609 127.93 C-68.625 121.402 -68.62 114.875 -68.603 108.347 C-68.59 102.713 -68.588 97.08 -68.596 91.447 C-68.6 88.095 -68.6 84.744 -68.591 81.393 C-68.546 59.405 -68.632 38.599 -82.352 20.254 C-84.075 17.897 -85.644 15.587 -87 13 C-86.67 12.34 -86.34 11.68 -86 11 C-80.445 11.634 -78.553 14.189 -75.07 18.301 C-71.722 22.666 -68.822 27.282 -66 32 C-62.197 30.732 -61.634 29.301 -59.438 26 C-48.415 10.537 -33.005 1.991 -14.555 -1.457 C-4.365 -2.91 -4.365 -2.91 0 0 Z " fill="#FAFAFA" transform="translate(675,172)"/>
<path d="M0 0 C3.443 5.72 6.139 11.621 8.766 17.754 C9.423 19.283 9.423 19.283 10.094 20.842 C11.014 22.987 11.931 25.132 12.847 27.279 C14.249 30.56 15.667 33.834 17.086 37.107 C17.98 39.197 18.873 41.288 19.766 43.379 C20.191 44.354 20.615 45.329 21.053 46.334 C21.441 47.252 21.828 48.17 22.228 49.115 C22.742 50.316 22.742 50.316 23.268 51.541 C24.133 54.447 24.124 56.984 24 60 C23.301 60.269 22.603 60.538 21.883 60.815 C15.277 63.359 8.672 65.904 2.067 68.45 C-1.328 69.759 -4.723 71.067 -8.119 72.374 C-11.4 73.637 -14.681 74.902 -17.961 76.167 C-19.813 76.881 -21.665 77.593 -23.516 78.306 C-29.056 80.444 -34.567 82.604 -40 85 C-39.555 97.47 -34.016 109.828 -27 120 C-26.361 120.928 -25.721 121.856 -25.062 122.812 C-17.815 130.499 -8.009 134.313 2.449 135.047 C7.077 134.962 11.498 134.01 16 133 C17.666 132.664 19.333 132.329 21 132 C21.33 133.32 21.66 134.64 22 136 C21.387 136.341 20.774 136.683 20.143 137.035 C4.864 145.552 4.864 145.552 -10.125 154.562 C-11.071 155.151 -11.071 155.151 -12.037 155.751 C-14.736 157.458 -17.264 159.216 -19.738 161.238 C-22 163 -22 163 -25.062 163.625 C-26.032 163.419 -27.001 163.212 -28 163 C-28.882 161.637 -28.882 161.637 -29.781 160.246 C-32.212 156.69 -34.867 154.694 -38.438 152.438 C-42.759 149.658 -46.459 146.751 -50 143 C-50.741 142.256 -51.482 141.512 -52.246 140.746 C-68.451 123.675 -72.777 99.397 -72.25 76.555 C-71.331 55.047 -63.919 34.93 -48 20 C-40.597 14.11 -32.849 9.419 -24 6 C-23.334 5.741 -22.667 5.481 -21.98 5.214 C-19.744 4.353 -17.499 3.516 -15.25 2.688 C-14.541 2.42 -13.831 2.153 -13.101 1.878 C-8.532 0.254 -4.847 -0.273 0 0 Z M-34.223 18.906 C-39.789 25.464 -41.835 34.654 -43 43 C-43.111 43.753 -43.222 44.506 -43.336 45.281 C-44.614 55.648 -44.719 66.687 -43 77 C-39.041 78.32 -36.726 77.021 -33.031 75.543 C-32.355 75.28 -31.678 75.017 -30.981 74.746 C-29.55 74.188 -28.121 73.625 -26.694 73.058 C-24.512 72.192 -22.325 71.34 -20.137 70.49 C-18.747 69.946 -17.358 69.401 -15.969 68.855 C-14.989 68.473 -14.989 68.473 -13.989 68.082 C-11.077 66.922 -8.622 65.748 -6 64 C-6.59 60.698 -7.389 57.718 -8.642 54.609 C-8.976 53.775 -9.31 52.941 -9.654 52.081 C-10.014 51.195 -10.375 50.308 -10.746 49.395 C-11.117 48.474 -11.488 47.554 -11.871 46.605 C-12.655 44.665 -13.441 42.726 -14.229 40.788 C-15.436 37.815 -16.634 34.839 -17.83 31.861 C-18.593 29.976 -19.357 28.092 -20.121 26.207 C-20.479 25.314 -20.838 24.422 -21.207 23.502 C-21.544 22.677 -21.881 21.853 -22.228 21.003 C-22.523 20.277 -22.817 19.55 -23.121 18.801 C-23.971 16.813 -23.971 16.813 -26 15 C-29.99 15 -31.322 16.306 -34.223 18.906 Z " fill="#FAFAFA" transform="translate(885,230)"/>
<path d="M0 0 C4.497 4.433 6.553 10.321 8.984 16.031 C9.445 17.1 9.905 18.169 10.38 19.27 C11.348 21.524 12.313 23.78 13.274 26.038 C14.747 29.493 16.238 32.94 17.73 36.387 C18.67 38.58 19.609 40.774 20.547 42.969 C20.994 43.999 21.44 45.029 21.901 46.091 C22.308 47.055 22.716 48.02 23.136 49.014 C23.497 49.858 23.858 50.702 24.23 51.572 C25.057 54.179 25.145 56.283 25 59 C18.339 62.5 11.497 65.252 4.477 67.949 C3.294 68.407 2.112 68.865 0.893 69.337 C-2.225 70.545 -5.345 71.749 -8.465 72.951 C-12.881 74.654 -17.294 76.362 -21.707 78.07 C-24.053 78.977 -26.399 79.883 -28.745 80.788 C-29.801 81.195 -30.856 81.602 -31.943 82.022 C-32.874 82.381 -33.804 82.74 -34.763 83.109 C-36.987 83.958 -36.987 83.958 -39 85 C-38.933 98.984 -32.321 113.662 -23.199 124.051 C-16.205 130.814 -6.766 134.598 2.91 135.152 C9.379 134.833 15.692 133.401 22 132 C22.33 133.32 22.66 134.64 23 136 C22.423 136.306 21.845 136.612 21.25 136.927 C0.384 147.734 0.384 147.734 -18.727 161.297 C-21.851 163.637 -24.202 163.298 -28 163 C-28.268 162.154 -28.536 161.309 -28.812 160.438 C-30.491 157.065 -32.742 155.719 -35.938 153.812 C-46.689 147.333 -55.061 139.159 -61 128 C-61.459 127.151 -61.918 126.301 -62.391 125.426 C-73.897 102.241 -74.293 72.464 -66.188 48.25 C-58.317 28.367 -44.439 15.116 -24.926 6.609 C-6.64 -1.041 -6.64 -1.041 0 0 Z M-31.562 17.062 C-35.9 22.289 -38.515 26.754 -40.188 33.375 C-40.511 34.62 -40.835 35.865 -41.168 37.148 C-42.918 45.251 -43.155 52.986 -43.125 61.25 C-43.129 62.325 -43.133 63.4 -43.137 64.508 C-43.135 65.542 -43.134 66.575 -43.133 67.641 C-43.132 68.574 -43.131 69.508 -43.129 70.47 C-43.011 72.794 -42.657 74.775 -42 77 C-34.328 76.536 -27.787 73.876 -20.688 71.062 C-19.509 70.607 -18.33 70.151 -17.115 69.682 C-10.834 67.282 -10.834 67.282 -5 64 C-7.879 55.079 -11.285 46.405 -14.788 37.713 C-15.517 35.893 -16.238 34.07 -16.952 32.244 C-17.988 29.592 -19.05 26.952 -20.117 24.312 C-20.432 23.493 -20.747 22.673 -21.071 21.829 C-22.776 17.383 -22.776 17.383 -26.583 14.852 C-29.233 14.78 -29.233 14.78 -31.562 17.062 Z " fill="#FAFAFA" transform="translate(549,230)"/>
<path d="M0 0 C9.396 1.863 18.237 9.821 24 17.125 C26.271 21.019 28.215 24.988 30 29.125 C32.953 27.816 34.81 26.504 36.883 24.035 C37.406 23.42 37.929 22.806 38.468 22.172 C39.015 21.517 39.562 20.862 40.125 20.188 C41.276 18.832 42.429 17.478 43.582 16.125 C44.154 15.452 44.726 14.779 45.315 14.086 C47.762 11.238 50.277 8.456 52.812 5.688 C53.623 4.802 54.434 3.916 55.27 3.004 C55.841 2.384 56.412 1.764 57 1.125 C61.312 2.624 62.428 5.227 64.418 9.191 C64.721 9.785 65.023 10.38 65.335 10.992 C66.297 12.885 67.243 14.786 68.188 16.688 C69.146 18.591 70.108 20.493 71.072 22.394 C71.942 24.115 72.803 25.84 73.665 27.565 C74.769 29.994 74.769 29.994 76 31.125 C75.736 36.859 74.383 39.467 70.375 43.5 C66.391 47.626 62.835 51.803 59.473 56.445 C58 58.125 58 58.125 55 59.125 C49.565 51.528 45.294 43.396 41 35.125 C37.153 34.737 37.153 34.737 35.103 36.482 C28.446 44.048 29.081 52.037 29.281 61.523 C29.292 63.207 29.299 64.891 29.304 66.575 C29.325 70.984 29.389 75.391 29.461 79.799 C29.513 83.405 29.535 87.011 29.555 90.617 C29.597 98.062 29.659 105.507 29.775 112.951 C29.794 114.267 29.813 115.583 29.833 116.94 C29.86 120.147 29.86 120.147 31 123.125 C35.028 126.243 39.302 128.7 44.25 129.938 C47.971 128.838 49.242 126.701 51.543 123.684 C53 122.125 53 122.125 55.875 121.688 C56.576 121.832 57.278 121.976 58 122.125 C57.481 126.187 56.499 128.058 53.625 130.938 C45.531 139.642 38.916 149.998 33.219 160.402 C32 162.125 32 162.125 29 163.125 C28.01 162.135 28.01 162.135 27 161.125 C26.539 160.669 26.077 160.212 25.602 159.742 C24.471 158.601 23.364 157.437 22.273 156.258 C12.181 145.584 0.75 141.255 -13 137.125 C-12.68 134.719 -12.68 134.719 -12 132.125 C-10.018 131.091 -8.016 130.093 -6 129.125 C-2.701 125.001 -2.571 121.131 -2.612 116.049 C-2.607 115.25 -2.601 114.451 -2.596 113.628 C-2.583 110.994 -2.591 108.361 -2.602 105.727 C-2.6 103.89 -2.597 102.053 -2.593 100.216 C-2.588 96.367 -2.595 92.519 -2.609 88.671 C-2.626 83.749 -2.616 78.828 -2.598 73.906 C-2.587 70.113 -2.591 66.319 -2.599 62.526 C-2.601 60.712 -2.598 58.898 -2.591 57.084 C-2.583 54.542 -2.595 52.001 -2.612 49.459 C-2.606 48.716 -2.6 47.973 -2.593 47.208 C-2.656 42.058 -3.654 38.615 -6 34.125 C-8.232 31.934 -8.232 31.934 -11 31.125 C-14.276 31.827 -15.638 32.701 -17.812 35.25 C-18.4 36.178 -18.4 36.178 -19 37.125 C-20.32 36.795 -21.64 36.465 -23 36.125 C-22.403 31.686 -20.724 28.486 -18.508 24.617 C-18.161 24.01 -17.815 23.403 -17.457 22.777 C-16.726 21.499 -15.991 20.224 -15.253 18.95 C-14.127 17.004 -13.014 15.051 -11.902 13.098 C-4.491 0.187 -4.491 0.187 0 0 Z " fill="#FAFAFA" transform="translate(947,228.875)"/>
<path d="M0 0 C1.32 0.66 2.64 1.32 4 2 C1.521 6.441 -1.102 10.758 -3.812 15.062 C-10.939 26.59 -19 39.983 -19 54 C-17.69 54.038 -17.69 54.038 -16.354 54.076 C-13.124 54.171 -9.894 54.27 -6.665 54.372 C-5.265 54.416 -3.865 54.457 -2.466 54.497 C-0.457 54.555 1.551 54.619 3.559 54.684 C4.768 54.72 5.978 54.757 7.224 54.795 C10 55 10 55 11 56 C11.126 58.31 11.176 60.624 11.188 62.938 C11.202 64.205 11.216 65.472 11.23 66.777 C11 70 11 70 9 72 C6.203 72.319 6.203 72.319 2.68 72.414 C1.423 72.453 0.166 72.491 -1.129 72.531 C-2.448 72.562 -3.766 72.593 -5.125 72.625 C-6.465 72.663 -7.805 72.702 -9.145 72.742 C-12.43 72.837 -15.715 72.922 -19 73 C-19.278 84.743 -19.491 96.486 -19.622 108.232 C-19.684 113.687 -19.769 119.139 -19.905 124.593 C-20.036 129.858 -20.107 135.121 -20.139 140.387 C-20.161 142.394 -20.204 144.401 -20.269 146.407 C-21.016 157.433 -21.016 157.433 -16.424 166.862 C-12.344 169.408 -9.108 171.2 -4.223 170.736 C-1.482 169.828 -0.452 168.695 1.312 166.438 C1.824 165.797 2.336 165.156 2.863 164.496 C3.238 164.002 3.614 163.509 4 163 C5.32 163.33 6.64 163.66 8 164 C7.499 168.391 6.153 170.279 3.062 173.375 C-5.423 182.428 -11.805 193.298 -18 204 C-21.305 203.693 -22.738 203.25 -25.176 200.926 C-25.881 200.063 -26.586 199.201 -27.312 198.312 C-37.115 186.976 -48.905 182.403 -63 178 C-62.711 176.109 -62.711 176.109 -62 174 C-60.886 173.423 -59.773 172.845 -58.625 172.25 C-54.944 170.309 -53.907 168.24 -52.563 164.261 C-51.619 160.472 -51.607 156.81 -51.659 152.922 C-51.659 152.053 -51.659 151.183 -51.658 150.288 C-51.66 147.442 -51.683 144.596 -51.707 141.75 C-51.713 139.766 -51.717 137.782 -51.72 135.798 C-51.731 130.597 -51.761 125.395 -51.794 120.194 C-51.825 114.878 -51.838 109.562 -51.854 104.246 C-51.886 93.831 -51.938 83.415 -52 73 C-58.93 72.67 -65.86 72.34 -73 72 C-73.33 70.68 -73.66 69.36 -74 68 C-72.396 66.688 -70.792 65.375 -69.188 64.062 C-68.182 63.239 -67.177 62.415 -66.141 61.566 C-64.156 59.942 -62.166 58.326 -60.172 56.715 C-54.84 52.396 -49.643 47.975 -44.579 43.344 C-43.036 41.941 -41.484 40.548 -39.915 39.174 C-31.356 31.651 -23.405 23.515 -15.375 15.438 C-13.879 13.937 -12.383 12.436 -10.887 10.936 C-7.255 7.293 -3.627 3.647 0 0 Z " fill="#FAFAFA" transform="translate(1108,189)"/>
<path d="M0 0 C0.557 0.268 1.114 0.536 1.688 0.812 C1.94 6.242 1.94 6.242 0.748 8.934 C-0.737 12.964 -1.027 16.92 -1.4 21.181 C-1.483 22.109 -1.567 23.037 -1.653 23.993 C-2.55 34.626 -2.772 45.253 -2.918 55.918 C-2.936 57.071 -2.954 58.224 -2.973 59.411 C-3.592 98.816 -3.539 138.232 -3.61 177.641 C-3.631 189.464 -3.657 201.288 -3.684 213.111 C-3.731 234.183 -3.774 255.254 -3.815 276.326 C-3.855 296.75 -3.896 317.175 -3.94 337.6 C-3.943 338.867 -3.946 340.134 -3.948 341.439 C-3.962 347.796 -3.976 354.153 -3.99 360.51 C-4.103 412.944 -4.21 465.378 -4.312 517.812 C-5.303 518.143 -6.293 518.472 -7.312 518.812 C-8.856 515.726 -8.552 512.45 -8.624 509.057 C-8.645 508.25 -8.665 507.443 -8.686 506.612 C-8.752 503.898 -8.81 501.184 -8.867 498.47 C-8.888 497.52 -8.909 496.57 -8.93 495.592 C-9.443 472.039 -9.459 448.486 -9.447 424.929 C-9.445 419.936 -9.446 414.944 -9.448 409.951 C-9.453 396.497 -9.45 383.042 -9.443 369.588 C-9.443 368.194 -9.442 366.8 -9.441 365.406 C-9.441 364.368 -9.441 364.368 -9.44 363.309 C-9.437 356.28 -9.436 349.25 -9.434 342.22 C-9.419 264.225 -9.273 186.231 -8.906 108.237 C-8.88 102.618 -8.855 96.999 -8.83 91.38 C-8.78 79.789 -8.723 68.198 -8.66 56.608 C-8.639 52.8 -8.62 48.991 -8.603 45.183 C-8.584 40.825 -8.56 36.468 -8.532 32.11 C-8.523 30.541 -8.515 28.973 -8.509 27.404 C-8.427 6.318 -8.427 6.318 -5 1.688 C-2.312 -0.187 -2.312 -0.187 0 0 Z " fill="#E4E4E4" transform="translate(11.3125,1.1875)"/>
<path d="M0 0 C0.66 0 1.32 0 2 0 C1.036 10.558 1.036 10.558 0 15 C0.603 14.7 1.207 14.399 1.828 14.09 C2.627 13.71 3.427 13.329 4.25 12.938 C5.039 12.555 5.828 12.172 6.641 11.777 C9 11 9 11 13 12 C11.02 14.97 9.04 17.94 7 21 C8.691 20.505 10.382 20.01 12.125 19.5 C16.201 18.38 19.742 17.655 24 18 C22.498 22.206 19.714 23.739 16 26 C16.626 26.193 17.253 26.387 17.898 26.586 C18.716 26.846 19.533 27.107 20.375 27.375 C21.593 27.758 21.593 27.758 22.836 28.148 C25 29 25 29 27 31 C25.032 32.968 21.652 32.662 19 33 C19.371 35.718 19.757 36.786 21.848 38.633 C22.579 39.125 23.309 39.618 24.062 40.125 C26.285 41.633 26.285 41.633 28 43 C28 43.66 28 44.32 28 45 C24.708 44.694 21.416 44.379 18.125 44.062 C17.188 43.975 16.251 43.888 15.285 43.799 C14.389 43.712 13.493 43.625 12.57 43.535 C11.743 43.457 10.915 43.378 10.063 43.297 C8 43 8 43 6 42 C6.351 41.299 6.701 40.597 7.062 39.875 C8.704 34.84 7.073 30.698 5 26 C3.113 25.907 3.113 25.907 1.188 25.812 C0.48 25.778 -0.228 25.743 -0.957 25.707 C-3.067 25.849 -3.067 25.849 -4.703 27.227 C-6.681 29.931 -6.812 32.685 -7.277 35.941 C-8 38 -8 38 -9.801 39.238 C-13.191 40.412 -16.434 40.643 -20 41 C-18.902 38.007 -18.323 37.154 -15.375 35.75 C-14.591 35.502 -13.808 35.255 -13 35 C-15.098 32.902 -16.38 32.349 -19.125 31.375 C-19.849 31.115 -20.574 30.854 -21.32 30.586 C-21.875 30.393 -22.429 30.199 -23 30 C-21 28 -21 28 -17.938 27.125 C-16.483 26.568 -16.483 26.568 -15 26 C-14.186 23.994 -14.186 23.994 -14 22 C-13.34 21.67 -12.68 21.34 -12 21 C-12 16.71 -12 12.42 -12 8 C-8.753 9.624 -8.298 12.754 -7 16 C-4.355 13.355 -3.555 10.338 -2.375 6.875 C-2.146 6.216 -1.916 5.558 -1.68 4.879 C-1.115 3.254 -0.557 1.627 0 0 Z " fill="#EDEDED" transform="translate(250,194)"/>
<path d="M0 0 C5.427 2.529 9.626 5.982 13 10.938 C14.266 14.813 13.934 17.039 13 21 C10.891 23.836 10.891 23.836 8.25 26.375 C7.389 27.228 6.528 28.082 5.641 28.961 C2.9 31.077 1.453 31.972 -2 32 C-6.633 29.04 -10.185 24.126 -12 19 C-12.514 14.889 -12.327 12.667 -10.5 8.938 C-7.402 5.297 -3.928 2.689 0 0 Z M-8 13 C-8.401 16.216 -8.023 18.932 -7 22 C-4.932 24.756 -4.932 24.756 -2 26 C1.623 26.091 2.941 25.046 5.812 22.812 C8.182 20.174 8.182 20.174 8.688 17 C7.696 12.675 5.667 11.353 2 9 C-2.501 8.012 -5.107 9.511 -8 13 Z " fill="#ECECEC" transform="translate(109,262)"/>
<path d="M0 0 C2.489 3.453 3.01 5.424 2.938 9.688 C2 13 2 13 0.438 15 C-3.166 16.478 -6.333 15.948 -10 15 C-13.5 13.438 -13.5 13.438 -16 12 C-15.745 6.78 -13.887 4.193 -10.57 0.418 C-6.931 -2.869 -4.101 -1.965 0 0 Z M-8 4 C-10.268 5.833 -10.268 5.833 -10.188 8.562 C-10.27 10.947 -10.27 10.947 -9 12 C-7.334 12.041 -5.666 12.043 -4 12 C-3.312 9.646 -3.312 9.646 -3 7 C-3.66 6.01 -4.32 5.02 -5 4 C-5.99 4 -6.98 4 -8 4 Z " fill="#E8E8E8" transform="translate(432,30)"/>
<path d="M0 0 C2.515 1.457 4.764 3.148 7 5 C3.489 6.17 0.716 5.99 -2.941 5.84 C-5.227 5.793 -5.227 5.793 -7 8 C-7.242 9.981 -7.242 9.981 -7.125 12.125 C-7.084 13.404 -7.043 14.683 -7 16 C-5.02 16.99 -3.04 17.98 -1 19 C-1.33 19.99 -1.66 20.98 -2 22 C-6.401 21.497 -8.942 20.228 -12 17 C-13.282 12.752 -13.155 10.49 -11.812 6.25 C-8.824 0.892 -6.237 -0.978 0 0 Z " fill="#E2E2E2" transform="translate(123,391)"/>
<path d="M0 0 C-1 3 -1 3 -3.375 4.75 C-6 6 -6 6 -9 5 C-5.285 -1.586 -5.285 -1.586 0 0 Z " fill="#DADADA" transform="translate(249,238)"/>
<path d="M0 0 C1.488 1.145 1.488 1.145 3 3 C3.293 5.699 3.293 5.699 3.188 8.688 C3.16 9.681 3.133 10.675 3.105 11.699 C3.071 12.458 3.036 13.218 3 14 C0.494 11.494 0.412 9.895 -0.188 6.438 C-0.367 5.446 -0.546 4.455 -0.73 3.434 C-0.819 2.631 -0.908 1.827 -1 1 C-0.67 0.67 -0.34 0.34 0 0 Z " fill="#D0D0D0" transform="translate(426,93)"/>
<path d="M0 0 C0.66 0.33 1.32 0.66 2 1 C1.67 2.32 1.34 3.64 1 5 C1 4.34 1 3.68 1 3 C0.154 3.578 -0.691 4.155 -1.562 4.75 C-4.948 7.012 -8.448 9.011 -12 11 C-10.688 7.063 -8.804 6.173 -5.438 3.812 C-4.426 3.097 -3.414 2.382 -2.371 1.645 C-1.589 1.102 -0.806 0.559 0 0 Z " fill="#C7C7C7" transform="translate(418,78)"/>
<path d="M0 0 C-1.412 0.986 -2.83 1.964 -4.25 2.938 C-5.433 3.755 -5.433 3.755 -6.641 4.59 C-8.826 5.896 -10.515 6.55 -13 7 C-4.849 -1.616 -4.849 -1.616 0 0 Z " fill="#DDDDDD" transform="translate(390,38)"/>
<path d="M0 0 C-1.426 3.452 -3.097 5.101 -6.125 7.25 C-7.212 8.031 -7.212 8.031 -8.32 8.828 C-8.875 9.215 -9.429 9.602 -10 10 C-8.685 7.092 -7.266 4.994 -5 2.75 C-4.484 2.229 -3.969 1.708 -3.438 1.172 C-2 0 -2 0 0 0 Z " fill="#D4D4D4" transform="translate(220,404)"/>
<path d="M0 0 C0.66 0.33 1.32 0.66 2 1 C2 3.31 2 5.62 2 8 C1.34 8 0.68 8 0 8 C-0.381 5.674 -0.713 3.339 -1 1 C-0.67 0.67 -0.34 0.34 0 0 Z " fill="#D5D5D5" transform="translate(417,346)"/>
<path d="M0 0 C0 0.99 0 1.98 0 3 C-1.812 4.75 -1.812 4.75 -4 6 C-4.99 5.67 -5.98 5.34 -7 5 C-2.25 1.125 -2.25 1.125 0 0 Z " fill="#D6D6D6" transform="translate(367,40)"/>
<path d="M0 0 C1.32 0 2.64 0 4 0 C4 0.99 4 1.98 4 3 C2.68 3.33 1.36 3.66 0 4 C0 2.68 0 1.36 0 0 Z " fill="#D1D1D1" transform="translate(369,27)"/>
<path d="M0 0 C0.99 0.33 1.98 0.66 3 1 C1.35 2.32 -0.3 3.64 -2 5 C-2.66 4.67 -3.32 4.34 -4 4 C-2.68 2.68 -1.36 1.36 0 0 Z " fill="#BCBCBC" transform="translate(387,37)"/>
<path d="M0 0 C0.33 0.99 0.66 1.98 1 3 C-0.32 4.32 -1.64 5.64 -3 7 C-1.125 1.125 -1.125 1.125 0 0 Z " fill="#C6C6C6" transform="translate(210,402)"/>
<path d="M0 0 C0.66 0 1.32 0 2 0 C0.951 2.622 0.351 3.794 -2.125 5.25 C-2.744 5.498 -3.363 5.745 -4 6 C-2.726 3.962 -1.389 1.961 0 0 Z " fill="#B1B1B1" transform="translate(383,28)"/>
<path d="M0 0 C1.32 0 2.64 0 4 0 C4 0.66 4 1.32 4 2 C2.68 2.33 1.36 2.66 0 3 C0 2.01 0 1.02 0 0 Z " fill="#C7C7C7" transform="translate(252,185)"/>
<path d="M0 0 C1.32 0.33 2.64 0.66 4 1 C2.68 1.33 1.36 1.66 0 2 C0 1.34 0 0.68 0 0 Z " fill="#AEAEAE" transform="translate(280,224)"/>
<path d="" fill="#A7A7A7" transform="translate(0,0)"/>
<path d="" fill="#DEDEDE" transform="translate(0,0)"/>
</svg>