
<!-- Generator: visioncortex VTracer 0.6.4 -->
<svg version="1.1" xmlns="http://www.w3.org/2000/svg" viewBox="0 0 1748 639" preserveAspectRatio="xMidYMid meet">
<path d="M0 0 C5.623 4.675 10.797 9.678 15.938 14.875 C17.106 16.051 17.106 16.051 18.299 17.25 C20.202 19.164 22.102 21.081 24 23 C23.187 25.438 23.187 25.438 22 28 C21.01 28.33 20.02 28.66 19 29 C19 29.66 19 30.32 19 31 C18.34 31 17.68 31 17 31 C17 31.66 17 32.32 17 33 C16.34 33 15.68 33 15 33 C15 33.66 15 34.32 15 35 C14.34 35 13.68 35 13 35 C12.598 35.959 12.598 35.959 12.188 36.938 C11 39 11 39 8 40 C8 40.66 8 41.32 8 42 C7.34 42 6.68 42 6 42 C6 42.66 6 43.32 6 44 C4.593 45.391 4.593 45.391 2.609 47.028 C-2.415 51.304 -7.075 55.895 -11.75 60.547 C-12.649 61.44 -13.547 62.333 -14.473 63.253 C-16.357 65.127 -18.24 67.003 -20.121 68.88 C-22.533 71.287 -24.954 73.684 -27.377 76.079 C-29.696 78.374 -32.003 80.68 -34.312 82.984 C-35.184 83.844 -36.056 84.703 -36.954 85.589 C-37.749 86.387 -38.544 87.185 -39.363 88.007 C-40.068 88.707 -40.772 89.408 -41.497 90.13 C-43.313 91.99 -43.313 91.99 -43 95 C-38.667 95.205 -34.336 95.328 -30 95.438 C-28.779 95.496 -27.559 95.555 -26.301 95.615 C-18.457 95.825 -18.457 95.825 -11.812 92.16 C-10.516 90.798 -9.247 89.408 -8 88 C-6.235 86.244 -4.464 84.495 -2.688 82.75 C-0.785 80.84 1.107 78.92 3 77 C4.893 75.08 6.789 73.164 8.688 71.25 C9.931 69.989 9.931 69.989 11.199 68.703 C13.262 66.713 15.322 64.86 17.501 63.01 C23.111 58.141 28.239 52.79 33.434 47.488 C36.639 44.222 39.859 40.972 43.076 37.719 C47.153 33.594 51.225 29.465 55.282 25.32 C58.579 21.954 61.889 18.602 65.211 15.259 C66.471 13.985 67.725 12.706 68.975 11.422 C70.714 9.634 72.472 7.865 74.235 6.1 C75.003 5.297 75.003 5.297 75.786 4.479 C77.251 3.035 77.251 3.035 80 1 C82.86 1.181 82.86 1.181 85 2 C85 2.66 85 3.32 85 4 C85.575 4.252 86.149 4.504 86.741 4.764 C91.074 7.135 94.331 10.919 97.812 14.375 C98.614 15.143 99.415 15.912 100.24 16.703 C101.368 17.821 101.368 17.821 102.52 18.961 C103.212 19.639 103.904 20.318 104.616 21.017 C106 23 106 23 105.718 25.252 C105.362 26.117 105.362 26.117 105 27 C104.34 27 103.68 27 103 27 C103 27.66 103 28.32 103 29 C101.708 30.276 101.708 30.276 99.814 31.823 C93.545 37.16 87.796 43.019 81.969 48.828 C81.358 49.436 80.748 50.043 80.119 50.67 C76.9 53.873 73.684 57.08 70.471 60.289 C67.151 63.604 63.821 66.909 60.49 70.212 C57.925 72.758 55.367 75.311 52.811 77.866 C51.585 79.088 50.357 80.308 49.126 81.526 C47.415 83.22 45.713 84.924 44.014 86.63 C43.503 87.132 42.992 87.634 42.465 88.151 C39.51 91.009 39.51 91.009 39 95 C43.333 95.205 47.664 95.328 52 95.438 C53.221 95.496 54.441 95.555 55.699 95.615 C56.892 95.638 58.084 95.66 59.312 95.684 C60.402 95.72 61.491 95.757 62.613 95.795 C67.66 94.61 70.387 91.59 74 88 C74.697 87.32 75.394 86.641 76.112 85.941 C78.363 83.72 80.586 81.475 82.805 79.223 C84.456 77.559 86.107 75.896 87.758 74.232 C90.334 71.631 92.908 69.029 95.48 66.424 C97.98 63.894 100.486 61.37 102.992 58.848 C103.766 58.06 104.54 57.273 105.337 56.462 C106.052 55.744 106.767 55.025 107.503 54.285 C108.132 53.649 108.761 53.013 109.409 52.358 C111 51 111 51 113 51 C113 50.34 113 49.68 113 49 C113.66 49 114.32 49 115 49 C115 48.34 115 47.68 115 47 C115.66 47 116.32 47 117 47 C117 46.34 117 45.68 117 45 C117.66 45 118.32 45 119 45 C119 44.34 119 43.68 119 43 C119.66 43 120.32 43 121 43 C121 42.34 121 41.68 121 41 C122.375 39.375 122.375 39.375 124 38 C124.66 38 125.32 38 126 38 C126 37.34 126 36.68 126 36 C126.66 36 127.32 36 128 36 C128 35.34 128 34.68 128 34 C128.66 34 129.32 34 130 34 C130 33.34 130 32.68 130 32 C130.66 32 131.32 32 132 32 C132 31.34 132 30.68 132 30 C133.354 28.678 133.354 28.678 135.297 27.094 C138.873 24.057 142.196 20.84 145.453 17.469 C145.925 16.984 146.397 16.5 146.883 16 C148.842 13.987 150.799 11.972 152.738 9.939 C154.174 8.438 155.624 6.952 157.078 5.469 C157.928 4.586 158.778 3.704 159.653 2.795 C162 1 162 1 164.124 1.053 C167.359 2.686 169.662 5.4 172.125 8 C175.689 11.98 175.689 11.98 180 15 C180 15.66 180 16.32 180 17 C180.66 17 181.32 17 182 17 C182 17.66 182 18.32 182 19 C182.959 19.34 182.959 19.34 183.938 19.688 C186 21 186 21 186.93 23.237 C187 26 187 26 185.084 28.651 C184.134 29.624 183.167 30.581 182.188 31.525 C181.665 32.052 181.142 32.58 180.602 33.123 C178.868 34.864 177.112 36.582 175.355 38.301 C174.147 39.503 172.94 40.707 171.733 41.911 C169.203 44.433 166.662 46.945 164.114 49.448 C160.842 52.664 157.587 55.897 154.338 59.137 C151.845 61.621 149.347 64.1 146.847 66.577 C145.644 67.768 144.443 68.959 143.243 70.152 C141.567 71.814 139.885 73.469 138.2 75.122 C137.701 75.619 137.201 76.116 136.687 76.629 C133.229 80 133.229 80 131 80 C131 80.66 131 81.32 131 82 C130.34 82 129.68 82 129 82 C129 82.66 129 83.32 129 84 C128.34 84 127.68 84 127 84 C126.732 84.598 126.464 85.196 126.188 85.812 C125.001 87.998 123.904 89.413 122 91 C121.34 91 120.68 91 120 91 C120 91.66 120 92.32 120 93 C119.34 93 118.68 93 118 93 C118 93.66 118 94.32 118 95 C117.34 95 116.68 95 116 95 C116 95.66 116 96.32 116 97 C115.34 97 114.68 97 114 97 C114 97.66 114 98.32 114 99 C113.34 99 112.68 99 112 99 C112 99.66 112 100.32 112 101 C109.625 103.625 109.625 103.625 107 106 C106.34 106 105.68 106 105 106 C105 106.66 105 107.32 105 108 C104.34 108 103.68 108 103 108 C103 110.97 103 113.94 103 117 C103.66 117 104.32 117 105 117 C105 117.66 105 118.32 105 119 C105.66 119 106.32 119 107 119 C108.656 120.715 108.656 120.715 110.5 122.938 C112.889 125.92 112.889 125.92 116 128 C116 128.66 116 129.32 116 130 C116.66 130 117.32 130 118 130 C118 130.66 118 131.32 118 132 C118.66 132 119.32 132 120 132 C120 132.66 120 133.32 120 134 C120.66 134 121.32 134 122 134 C122 134.66 122 135.32 122 136 C122.66 136 123.32 136 124 136 C126.625 138.375 126.625 138.375 129 141 C129 141.66 129 142.32 129 143 C129.66 143 130.32 143 131 143 C131 143.66 131 144.32 131 145 C131.66 145 132.32 145 133 145 C133 145.66 133 146.32 133 147 C133.66 147 134.32 147 135 147 C135 147.66 135 148.32 135 149 C135.66 149 136.32 149 137 149 C137 149.66 137 150.32 137 151 C137.66 151 138.32 151 139 151 C139 151.66 139 152.32 139 153 C139.99 153.33 140.98 153.66 142 154 C142 154.66 142 155.32 142 156 C142.66 156 143.32 156 144 156 C144 156.66 144 157.32 144 158 C144.66 158 145.32 158 146 158 C146 158.66 146 159.32 146 160 C146.66 160 147.32 160 148 160 C148 160.66 148 161.32 148 162 C148.66 162 149.32 162 150 162 C150 162.66 150 163.32 150 164 C150.586 164.261 151.173 164.522 151.777 164.791 C154.138 166.075 155.685 167.444 157.575 169.348 C158.256 170.029 158.936 170.709 159.637 171.41 C160.36 172.144 161.083 172.877 161.828 173.633 C162.952 174.761 162.952 174.761 164.098 175.911 C166.487 178.311 168.868 180.718 171.25 183.125 C172.869 184.754 174.489 186.383 176.109 188.012 C180.078 192.003 184.041 195.999 188 200 C184.651 206.053 179.865 210.465 175 215.312 C174.085 216.244 173.17 217.175 172.227 218.135 C171.347 219.015 170.468 219.894 169.562 220.801 C168.759 221.607 167.956 222.413 167.129 223.243 C165 225 165 225 162 225 C162 224.34 162 223.68 162 223 C161.34 223 160.68 223 160 223 C160 222.34 160 221.68 160 221 C159.34 221 158.68 221 158 221 C158 220.34 158 219.68 158 219 C157.34 219 156.68 219 156 219 C153.375 216.625 153.375 216.625 151 214 C151 213.34 151 212.68 151 212 C150.34 212 149.68 212 149 212 C149 211.34 149 210.68 149 210 C148.34 210 147.68 210 147 210 C147 209.34 147 208.68 147 208 C146.34 208 145.68 208 145 208 C145 207.34 145 206.68 145 206 C144.34 206 143.68 206 143 206 C143 205.34 143 204.68 143 204 C142.34 204 141.68 204 141 204 C141 203.34 141 202.68 141 202 C140.01 201.67 139.02 201.34 138 201 C138 200.34 138 199.68 138 199 C137.34 199 136.68 199 136 199 C136 198.34 136 197.68 136 197 C135.34 197 134.68 197 134 197 C134 196.34 134 195.68 134 195 C133.34 195 132.68 195 132 195 C132 194.34 132 193.68 132 193 C131.34 193 130.68 193 130 193 C130 192.34 130 191.68 130 191 C129.142 190.631 129.142 190.631 128.267 190.254 C125.62 188.79 123.851 187.084 121.722 184.933 C120.888 184.096 120.054 183.258 119.195 182.395 C117.857 181.038 117.857 181.038 116.492 179.652 C115.084 178.236 113.676 176.82 112.268 175.404 C110.299 173.423 108.336 171.437 106.372 169.451 C102.929 165.97 99.481 162.494 96.03 159.021 C94.193 157.172 92.359 155.32 90.528 153.466 C89.7 152.631 88.872 151.797 88.019 150.937 C86.925 149.83 86.925 149.83 85.808 148.701 C84.099 146.93 84.099 146.93 82 146 C82 145.34 82 144.68 82 144 C81.34 144 80.68 144 80 144 C80 143.34 80 142.68 80 142 C79.34 142 78.68 142 78 142 C76.344 140.285 76.344 140.285 74.5 138.062 C72.111 135.08 72.111 135.08 69 133 C69 132.34 69 131.68 69 131 C58.77 130.67 48.54 130.34 38 130 C38 131.32 38 132.64 38 134 C38.66 134 39.32 134 40 134 C40 134.66 40 135.32 40 136 C40.66 136 41.32 136 42 136 C42 136.66 42 137.32 42 138 C42.959 138.402 42.959 138.402 43.938 138.812 C46 140 46 140 47 143 C47.66 143 48.32 143 49 143 C49 143.66 49 144.32 49 145 C49.66 145 50.32 145 51 145 C51 145.66 51 146.32 51 147 C51.66 147 52.32 147 53 147 C53 147.66 53 148.32 53 149 C53.568 149.242 54.136 149.485 54.721 149.734 C57.441 151.245 59.271 153.039 61.461 155.25 C62.773 156.567 62.773 156.567 64.11 157.909 C65.055 158.868 66 159.827 66.945 160.785 C67.921 161.767 68.897 162.748 69.873 163.729 C72.438 166.307 74.997 168.891 77.555 171.476 C81.654 175.618 85.761 179.754 89.87 183.887 C91.305 185.332 92.736 186.781 94.168 188.23 C95.035 189.104 95.903 189.978 96.797 190.879 C97.563 191.653 98.328 192.426 99.116 193.223 C100.885 195.063 100.885 195.063 103 196 C103 196.66 103 197.32 103 198 C103.66 198 104.32 198 105 198 C105.802 199.661 105.802 199.661 106 202 C104.455 204.033 102.991 205.663 101.172 207.422 C100.667 207.927 100.162 208.432 99.642 208.952 C98.572 210.017 97.496 211.075 96.414 212.128 C94.756 213.744 93.121 215.38 91.488 217.02 C90.447 218.051 89.404 219.081 88.359 220.109 C87.869 220.6 87.378 221.09 86.872 221.596 C83.347 225 83.347 225 80 225 C80 224.34 80 223.68 80 223 C79.34 223 78.68 223 78 223 C78 222.34 78 221.68 78 221 C77.34 221 76.68 221 76 221 C74.344 219.285 74.344 219.285 72.5 217.062 C70.111 214.08 70.111 214.08 67 212 C67 211.34 67 210.68 67 210 C66.34 210 65.68 210 65 210 C65 209.34 65 208.68 65 208 C64.34 208 63.68 208 63 208 C63 207.34 63 206.68 63 206 C62.34 206 61.68 206 61 206 C58.375 203.625 58.375 203.625 56 201 C56 200.34 56 199.68 56 199 C55.34 199 54.68 199 54 199 C54 198.34 54 197.68 54 197 C53.34 197 52.68 197 52 197 C52 196.34 52 195.68 52 195 C51.34 195 50.68 195 50 195 C50 194.34 50 193.68 50 193 C49.34 193 48.68 193 48 193 C48 192.34 48 191.68 48 191 C47.34 191 46.68 191 46 191 C46 190.34 46 189.68 46 189 C45.041 188.598 45.041 188.598 44.062 188.188 C42 187 42 187 41 184 C40.34 184 39.68 184 39 184 C39 183.34 39 182.68 39 182 C38.34 182 37.68 182 37 182 C37 181.34 37 180.68 37 180 C36.34 180 35.68 180 35 180 C35 179.34 35 178.68 35 178 C34.432 177.758 33.864 177.515 33.279 177.266 C30.559 175.755 28.729 173.961 26.539 171.75 C25.227 170.433 25.227 170.433 23.89 169.091 C22.945 168.132 22 167.173 21.055 166.215 C20.079 165.233 19.103 164.252 18.127 163.271 C15.562 160.693 13.003 158.109 10.445 155.524 C6.346 151.382 2.239 147.246 -1.87 143.113 C-3.305 141.668 -4.736 140.219 -6.168 138.77 C-7.035 137.896 -7.903 137.022 -8.797 136.121 C-9.563 135.347 -10.328 134.574 -11.116 133.777 C-14.476 130.607 -17.006 130.822 -21.539 130.684 C-22.841 130.642 -24.143 130.6 -25.484 130.557 C-26.865 130.517 -28.245 130.477 -29.625 130.438 C-31.013 130.394 -32.401 130.351 -33.789 130.307 C-37.193 130.2 -40.596 130.098 -44 130 C-44 131.32 -44 132.64 -44 134 C-43.34 134 -42.68 134 -42 134 C-42 134.66 -42 135.32 -42 136 C-41.453 136.222 -40.906 136.443 -40.342 136.671 C-37.268 138.415 -34.985 140.761 -32.529 143.26 C-31.995 143.795 -31.461 144.33 -30.911 144.882 C-29.152 146.647 -27.4 148.419 -25.648 150.191 C-24.426 151.42 -23.204 152.648 -21.981 153.875 C-18.765 157.104 -15.555 160.339 -12.346 163.575 C-7.204 168.76 -2.056 173.938 3.096 179.113 C4.897 180.924 6.694 182.738 8.49 184.552 C9.589 185.658 10.688 186.764 11.788 187.869 C12.539 188.631 12.539 188.631 13.305 189.407 C15.9 192.037 15.9 192.037 19 194 C19 194.66 19 195.32 19 196 C19.66 196 20.32 196 21 196 C21 196.66 21 197.32 21 198 C21.66 198 22.32 198 23 198 C24.125 201.75 24.125 201.75 23 204 C22.34 204 21.68 204 21 204 C21 204.66 21 205.32 21 206 C19.672 207.305 19.672 207.305 17.75 208.875 C11.822 213.897 6.448 219.47 1 225 C-3.296 223.35 -6.005 220.183 -9.125 216.938 C-12.696 212.996 -12.696 212.996 -17 210 C-17 209.34 -17 208.68 -17 208 C-17.66 208 -18.32 208 -19 208 C-20.586 206.355 -20.586 206.355 -22.375 204.188 C-24.236 201.937 -25.869 200.096 -28.227 198.363 C-28.812 197.913 -29.397 197.464 -30 197 C-30 196.34 -30 195.68 -30 195 C-30.66 195 -31.32 195 -32 195 C-32 194.34 -32 193.68 -32 193 C-32.66 193 -33.32 193 -34 193 C-34 192.34 -34 191.68 -34 191 C-34.66 191 -35.32 191 -36 191 C-38.625 188.625 -38.625 188.625 -41 186 C-41 185.34 -41 184.68 -41 184 C-41.66 184 -42.32 184 -43 184 C-43 183.34 -43 182.68 -43 182 C-43.66 182 -44.32 182 -45 182 C-45 181.34 -45 180.68 -45 180 C-45.66 180 -46.32 180 -47 180 C-47 179.34 -47 178.68 -47 178 C-47.66 178 -48.32 178 -49 178 C-49 177.34 -49 176.68 -49 176 C-49.66 176 -50.32 176 -51 176 C-51 175.34 -51 174.68 -51 174 C-51.959 173.598 -51.959 173.598 -52.938 173.188 C-55 172 -55 172 -56 169 C-56.66 169 -57.32 169 -58 169 C-58 168.34 -58 167.68 -58 167 C-58.66 167 -59.32 167 -60 167 C-60 166.34 -60 165.68 -60 165 C-60.66 165 -61.32 165 -62 165 C-62 164.34 -62 163.68 -62 163 C-62.596 162.729 -63.193 162.459 -63.807 162.18 C-65.977 161.013 -67.365 159.872 -69.084 158.127 C-69.658 157.549 -70.232 156.972 -70.823 156.378 C-71.431 155.757 -72.038 155.136 -72.664 154.496 C-73.297 153.858 -73.931 153.219 -74.583 152.561 C-76.602 150.525 -78.614 148.482 -80.625 146.438 C-82.644 144.391 -84.665 142.345 -86.688 140.303 C-87.946 139.033 -89.202 137.759 -90.454 136.484 C-94.668 132.012 -94.668 132.012 -100.432 130.875 C-101.957 130.87 -103.482 130.871 -105.007 130.876 C-106.271 130.874 -106.271 130.874 -107.561 130.872 C-110.422 130.869 -113.282 130.873 -116.143 130.877 C-118.209 130.876 -120.275 130.875 -122.341 130.873 C-128.068 130.87 -133.794 130.874 -139.521 130.878 C-145.732 130.881 -151.944 130.879 -158.155 130.877 C-169.058 130.875 -179.96 130.877 -190.863 130.881 C-202.566 130.885 -214.269 130.887 -225.972 130.887 C-226.71 130.887 -227.448 130.887 -228.209 130.887 C-231.972 130.887 -235.735 130.886 -239.498 130.886 C-266.765 130.885 -294.032 130.888 -321.299 130.894 C-348.309 130.9 -375.319 130.904 -402.33 130.905 C-403.587 130.905 -403.587 130.905 -404.87 130.905 C-412.526 130.906 -420.181 130.906 -427.837 130.906 C-446.87 130.907 -465.903 130.908 -484.936 130.909 C-486.236 130.909 -486.236 130.909 -487.562 130.909 C-529.748 130.912 -571.933 130.918 -614.119 130.925 C-628.762 130.927 -643.404 130.929 -658.047 130.931 C-658.955 130.931 -659.864 130.932 -660.799 130.932 C-703 130.938 -745.201 130.942 -787.402 130.945 C-790.141 130.945 -792.88 130.945 -795.619 130.945 C-813.771 130.947 -831.923 130.948 -850.074 130.949 C-886.193 130.952 -922.311 130.955 -958.429 130.957 C-960.15 130.958 -961.87 130.958 -963.59 130.958 C-1041.046 130.964 -1118.502 130.973 -1195.958 130.984 C-1196.683 130.984 -1197.408 130.984 -1198.156 130.984 C-1234.437 130.989 -1270.719 130.995 -1307 131 C-1305.651 135.936 -1304.072 140.035 -1301.562 144.5 C-1298.001 150.979 -1294.737 157.573 -1291.562 164.25 C-1291.095 165.233 -1290.627 166.216 -1290.146 167.229 C-1287.943 171.87 -1285.755 176.518 -1283.578 181.172 C-1279.482 189.91 -1275.245 198.52 -1270.629 206.996 C-1270.091 207.987 -1269.554 208.979 -1269 210 C-1268.597 210.733 -1268.193 211.467 -1267.777 212.223 C-1267 214 -1267 214 -1267 217 C-1271.397 216.408 -1275.145 215.293 -1279.25 213.625 C-1283.983 211.749 -1288.675 210.11 -1293.586 208.773 C-1296.171 207.945 -1298.614 206.886 -1301.099 205.798 C-1304.385 204.418 -1307.756 203.285 -1311.125 202.125 C-1316.435 200.278 -1321.703 198.368 -1326.938 196.312 C-1330.617 194.874 -1334.263 193.58 -1338.062 192.5 C-1341.674 191.466 -1345.051 190.178 -1348.5 188.688 C-1354.424 186.144 -1360.46 184.111 -1366.594 182.143 C-1369.922 181.067 -1373.13 179.944 -1376.348 178.562 C-1381.19 176.491 -1386.143 174.825 -1391.125 173.125 C-1398.581 170.562 -1405.962 167.902 -1413.297 165.012 C-1415.865 164.051 -1418.426 163.25 -1421.062 162.5 C-1424.674 161.466 -1428.051 160.178 -1431.5 158.688 C-1437.424 156.144 -1443.46 154.111 -1449.594 152.143 C-1453.042 151.028 -1456.41 149.869 -1459.73 148.414 C-1462.488 147.221 -1465.112 146.298 -1468 145.5 C-1471.507 144.531 -1474.754 143.263 -1478.086 141.803 C-1481.498 140.372 -1485.002 139.201 -1488.5 138 C-1492.534 136.614 -1496.5 135.22 -1500.406 133.5 C-1503.22 132.326 -1505.867 131.407 -1508.781 130.562 C-1515.053 128.741 -1521.07 126.348 -1527.145 123.961 C-1532.31 121.956 -1537.472 120.184 -1542.803 118.668 C-1547.407 117.268 -1551.735 115.218 -1556 113 C-1552.183 110.523 -1548.425 108.968 -1544.125 107.5 C-1538.621 105.605 -1538.621 105.605 -1533.25 103.375 C-1529.761 101.899 -1526.272 100.851 -1522.625 99.844 C-1519.972 98.991 -1517.465 97.921 -1514.914 96.803 C-1510.795 95.075 -1506.539 93.7 -1502.316 92.25 C-1498.919 91.07 -1495.576 89.851 -1492.281 88.406 C-1488.773 86.903 -1485.295 85.858 -1481.625 84.844 C-1478.971 83.991 -1476.47 82.912 -1473.919 81.794 C-1470.474 80.369 -1466.921 79.268 -1463.375 78.125 C-1456.79 75.972 -1450.326 73.624 -1443.879 71.082 C-1441.25 70.094 -1438.638 69.266 -1435.938 68.5 C-1432.326 67.466 -1428.949 66.178 -1425.5 64.688 C-1419.576 62.144 -1413.54 60.111 -1407.406 58.143 C-1404.078 57.067 -1400.87 55.944 -1397.652 54.562 C-1392.81 52.491 -1387.857 50.825 -1382.875 49.125 C-1375.427 46.565 -1368.053 43.909 -1360.727 41.02 C-1357.243 39.717 -1353.703 38.701 -1350.129 37.68 C-1347.801 36.997 -1347.801 36.997 -1345 35.5 C-1341.695 33.847 -1338.46 32.901 -1334.918 31.883 C-1327.924 29.767 -1320.92 27.371 -1314.25 24.375 C-1310.761 22.899 -1307.272 21.851 -1303.625 20.844 C-1300.972 19.991 -1298.465 18.921 -1295.914 17.803 C-1291.795 16.075 -1287.539 14.7 -1283.316 13.25 C-1279.866 12.052 -1276.492 10.805 -1273.156 9.312 C-1270 8 -1270 8 -1267 8 C-1267.948 12.191 -1269.717 15.891 -1271.562 19.75 C-1271.92 20.503 -1272.277 21.256 -1272.645 22.032 C-1275.328 27.663 -1278.106 33.243 -1280.915 38.813 C-1283.641 44.237 -1286.273 49.703 -1288.875 55.188 C-1289.447 56.391 -1289.447 56.391 -1290.031 57.619 C-1291.805 61.373 -1293.521 65.117 -1295 69 C-1295.66 69 -1296.32 69 -1297 69 C-1297.084 69.648 -1297.168 70.297 -1297.254 70.965 C-1298.273 75.111 -1300.08 78.732 -1301.938 82.562 C-1302.478 83.695 -1302.478 83.695 -1303.029 84.85 C-1304.656 88.249 -1306.313 91.631 -1308 95 C-1271.002 95.011 -1234.003 95.022 -1197.005 95.032 C-1196.281 95.032 -1195.557 95.032 -1194.811 95.032 C-1117.254 95.054 -1039.696 95.072 -962.139 95.085 C-960.416 95.085 -958.694 95.085 -956.972 95.086 C-920.822 95.091 -884.672 95.097 -848.522 95.102 C-830.363 95.104 -812.204 95.107 -794.045 95.109 C-791.306 95.11 -788.567 95.11 -785.828 95.111 C-743.636 95.117 -701.445 95.125 -659.253 95.137 C-658.346 95.138 -657.438 95.138 -656.503 95.138 C-641.871 95.143 -627.24 95.147 -612.608 95.152 C-570.475 95.165 -528.342 95.177 -486.209 95.182 C-485.343 95.182 -484.477 95.182 -483.585 95.183 C-464.576 95.185 -445.567 95.187 -426.558 95.188 C-418.911 95.189 -411.263 95.189 -403.615 95.19 C-402.778 95.19 -401.941 95.19 -401.078 95.19 C-374.087 95.192 -347.095 95.201 -320.103 95.213 C-292.925 95.224 -265.746 95.23 -238.567 95.227 C-234.815 95.227 -231.063 95.227 -227.311 95.226 C-226.208 95.226 -226.208 95.226 -225.082 95.226 C-213.415 95.225 -201.747 95.231 -190.079 95.24 C-178.618 95.248 -167.158 95.25 -155.698 95.244 C-149.562 95.241 -143.426 95.241 -137.29 95.25 C-131.716 95.258 -126.143 95.257 -120.569 95.248 C-118.557 95.247 -116.545 95.249 -114.533 95.254 C-111.815 95.262 -109.098 95.257 -106.38 95.248 C-105.594 95.253 -104.809 95.258 -104 95.264 C-99.893 95.237 -96.695 94.841 -93 93 C-93 92.34 -93 91.68 -93 91 C-92.34 91 -91.68 91 -91 91 C-91 90.34 -91 89.68 -91 89 C-90.34 89 -89.68 89 -89 89 C-89 88.34 -89 87.68 -89 87 C-88.34 87 -87.68 87 -87 87 C-86.754 86.416 -86.508 85.833 -86.254 85.231 C-84.791 82.629 -83.209 81.23 -80.93 79.301 C-73.801 73.037 -67.174 66.286 -60.485 59.56 C-58.083 57.145 -55.678 54.734 -53.272 52.323 C-48.179 47.218 -43.089 42.109 -38 37 C-32.072 31.049 -26.143 25.099 -20.21 19.154 C-17.838 16.775 -15.469 14.394 -13.1 12.012 C-11.657 10.565 -10.213 9.119 -8.77 7.672 C-8.11 7.007 -7.45 6.342 -6.77 5.657 C-6.168 5.055 -5.565 4.452 -4.945 3.831 C-4.421 3.305 -3.898 2.78 -3.358 2.238 C-2 1 -2 1 0 0 Z M-1324.812 52.125 C-1330.026 54.226 -1335.258 56.202 -1340.562 58.062 C-1341.284 58.316 -1342.005 58.57 -1342.749 58.832 C-1347.026 60.33 -1351.318 61.775 -1355.625 63.188 C-1358.715 64.204 -1361.632 65.272 -1364.625 66.562 C-1367.373 67.733 -1369.955 68.613 -1372.812 69.438 C-1377.03 70.664 -1381.04 72.163 -1385.102 73.828 C-1393.914 77.391 -1402.78 80.745 -1411.922 83.363 C-1414.343 84.105 -1416.638 85.068 -1418.941 86.117 C-1422.926 87.826 -1427.034 89.24 -1431.109 90.719 C-1433.757 91.892 -1435.183 92.799 -1437 95 C-1434.289 95.904 -1432.723 96.127 -1429.939 96.134 C-1429.115 96.138 -1428.29 96.142 -1427.441 96.147 C-1426.54 96.146 -1425.639 96.146 -1424.711 96.145 C-1423.284 96.15 -1423.284 96.15 -1421.828 96.155 C-1418.677 96.165 -1415.526 96.167 -1412.375 96.168 C-1410.189 96.171 -1408.004 96.175 -1405.818 96.178 C-1401.235 96.184 -1396.652 96.186 -1392.068 96.185 C-1386.187 96.185 -1380.305 96.199 -1374.424 96.216 C-1369.91 96.227 -1365.396 96.229 -1360.882 96.229 C-1358.713 96.23 -1356.544 96.234 -1354.375 96.242 C-1351.346 96.252 -1348.318 96.249 -1345.289 96.243 C-1344.388 96.249 -1343.487 96.254 -1342.559 96.26 C-1341.735 96.256 -1340.91 96.252 -1340.061 96.247 C-1339.345 96.248 -1338.629 96.248 -1337.891 96.249 C-1335.669 96.098 -1335.669 96.098 -1333 94 C-1331.95 92.343 -1331.95 92.343 -1331.133 90.402 C-1330.807 89.687 -1330.481 88.972 -1330.145 88.235 C-1329.808 87.477 -1329.472 86.719 -1329.125 85.938 C-1326.598 80.374 -1324.025 74.972 -1320.812 69.762 C-1319.721 67.718 -1319.721 67.718 -1320 64 C-1319.34 64 -1318.68 64 -1318 64 C-1317.16 62.232 -1316.328 60.461 -1315.5 58.688 C-1315.036 57.701 -1314.572 56.715 -1314.094 55.699 C-1312.812 53.022 -1312.812 53.022 -1313 50 C-1317.522 49.772 -1320.647 50.389 -1324.812 52.125 Z M-1437 130 C-1434.213 134.08 -1432.079 134.947 -1427.312 136.375 C-1425.954 136.797 -1424.595 137.221 -1423.238 137.648 C-1422.538 137.867 -1421.837 138.086 -1421.116 138.312 C-1417.699 139.423 -1414.353 140.711 -1411 142 C-1404.621 144.435 -1398.195 146.639 -1391.695 148.727 C-1387.954 150.016 -1384.309 151.463 -1380.642 152.947 C-1376.233 154.704 -1371.774 156.321 -1367.312 157.938 C-1366.356 158.285 -1365.399 158.633 -1364.413 158.991 C-1358.883 160.99 -1353.338 162.922 -1347.75 164.75 C-1342.956 166.322 -1338.28 168.039 -1333.613 169.953 C-1330.305 171.278 -1326.972 172.527 -1323.625 173.75 C-1322.462 174.178 -1321.3 174.606 -1320.102 175.047 C-1316.904 176.196 -1316.904 176.196 -1313 176 C-1313.547 171.043 -1315.196 167.166 -1317.5 162.812 C-1318.223 161.409 -1318.945 160.004 -1319.664 158.598 C-1320.043 157.858 -1320.423 157.118 -1320.813 156.356 C-1322.911 152.191 -1324.891 147.97 -1326.875 143.75 C-1327.622 142.161 -1328.37 140.573 -1329.117 138.984 C-1329.591 137.975 -1329.591 137.975 -1330.074 136.944 C-1330.379 136.303 -1330.685 135.661 -1331 135 C-1331.328 134.278 -1331.655 133.557 -1331.993 132.813 C-1332.872 130.829 -1332.872 130.829 -1335 130 C-1336.368 129.908 -1337.741 129.878 -1339.113 129.88 C-1339.974 129.878 -1340.835 129.877 -1341.722 129.876 C-1342.668 129.879 -1343.615 129.883 -1344.59 129.886 C-1345.585 129.886 -1346.581 129.886 -1347.606 129.886 C-1350.907 129.887 -1354.207 129.895 -1357.508 129.902 C-1359.792 129.904 -1362.076 129.906 -1364.36 129.907 C-1370.38 129.91 -1376.4 129.92 -1382.421 129.931 C-1388.56 129.942 -1394.7 129.946 -1400.84 129.951 C-1412.893 129.962 -1424.947 129.979 -1437 130 Z " fill="#FDFDFD" transform="translate(1559,412)"/>
<path d="M0 0 C65.67 0 131.34 0 199 0 C199 7.26 199 14.52 199 22 C186.46 22.33 173.92 22.66 161 23 C167.973 51.28 175.171 79.498 182.5 107.688 C191.059 140.61 199.547 173.55 208 206.5 C217.274 242.646 226.582 278.782 235.971 314.897 C236.791 318.049 237.61 321.202 238.429 324.354 C238.972 326.443 239.516 328.532 240.06 330.62 C242.428 339.733 244.73 348.862 247 358 C247.33 358 247.66 358 248 358 C248.194 357.158 248.389 356.315 248.589 355.447 C259.962 306.12 271.355 256.798 282.765 207.48 C283.921 202.487 285.076 197.493 286.231 192.499 C292.869 163.8 299.51 135.101 306.168 106.405 C308.09 98.125 310.01 89.844 311.93 81.562 C313.583 74.43 315.239 67.298 316.897 60.167 C317.905 55.825 318.912 51.483 319.918 47.141 C320.382 45.139 320.847 43.137 321.313 41.135 C321.943 38.429 322.571 35.722 323.197 33.015 C323.475 31.826 323.475 31.826 323.758 30.613 C324.674 26.846 324.674 26.846 325 23 C306.19 22.505 306.19 22.505 287 22 C287 14.74 287 7.48 287 0 C336.17 0 385.34 0 436 0 C436 7.26 436 14.52 436 22 C422.635 22.495 422.635 22.495 409 23 C405.207 32.027 405.207 32.027 401.642 41.126 C401.046 42.712 401.046 42.712 400.438 44.33 C400.022 45.446 399.605 46.562 399.176 47.711 C398.721 48.923 398.266 50.136 397.798 51.385 C396.559 54.689 395.323 57.995 394.088 61.3 C393.037 64.111 391.985 66.922 390.932 69.733 C382.297 92.793 373.723 115.876 365.157 138.962 C357.99 158.278 350.803 177.586 343.562 196.875 C343.146 197.985 342.729 199.095 342.3 200.238 C339.679 207.222 337.056 214.204 334.432 221.187 C329.557 234.166 324.683 247.145 319.812 260.125 C319.53 260.878 319.247 261.631 318.956 262.407 C310.008 286.254 301.11 310.12 292.25 334 C291.698 335.488 291.146 336.975 290.594 338.463 C290.324 339.191 290.053 339.92 289.775 340.671 C288.449 344.244 287.123 347.818 285.797 351.391 C285.415 352.418 285.415 352.418 285.026 353.467 C281.822 362.101 278.613 370.732 275.391 379.359 C275.052 380.268 274.713 381.177 274.363 382.113 C272.827 386.227 271.279 390.336 269.703 394.434 C267.334 400.612 265.014 406.754 263.133 413.1 C262.563 415.011 261.959 416.912 261.354 418.812 C260.653 421.033 260.014 423.274 259.459 425.536 C258.386 428.821 257.519 430.618 255 433 C249.783 434.766 244.603 435.218 239.136 435.696 C233.727 436.22 228.355 437.019 222.974 437.768 C219.615 438.23 216.253 438.669 212.891 439.107 C211.52 439.286 210.15 439.465 208.779 439.644 C208.096 439.733 207.413 439.823 206.71 439.914 C203.901 440.282 201.094 440.654 198.286 441.026 C194.913 441.472 191.538 441.914 188.164 442.355 C186.915 442.521 185.666 442.687 184.38 442.857 C182.64 443.083 182.64 443.083 180.866 443.313 C179.85 443.446 178.835 443.579 177.789 443.716 C175.169 443.983 172.632 444.053 170 444 C165.858 434.573 162.532 424.975 159.316 415.207 C158.775 413.573 158.232 411.94 157.69 410.307 C156.263 406.008 154.841 401.709 153.42 397.408 C150.912 389.818 148.396 382.231 145.879 374.645 C145.598 373.797 145.317 372.949 145.027 372.076 C140.523 358.501 135.933 344.957 131.298 331.426 C126.528 317.501 121.803 303.561 117.109 289.609 C116.774 288.612 116.438 287.615 116.093 286.587 C114.361 281.441 112.631 276.295 110.901 271.148 C107.547 261.171 104.19 251.196 100.834 241.22 C100.078 238.974 99.323 236.728 98.567 234.482 C90.546 210.641 82.502 186.806 74.45 162.975 C74.194 162.216 73.937 161.458 73.673 160.676 C73.417 159.917 73.161 159.159 72.897 158.377 C72.512 157.239 72.512 157.239 72.12 156.078 C71.604 154.55 71.087 153.022 70.571 151.494 C66.61 139.771 62.654 128.047 58.701 116.321 C57.783 113.6 56.866 110.878 55.948 108.157 C55.647 107.264 55.346 106.371 55.035 105.451 C54.431 103.658 53.826 101.866 53.221 100.073 C51.773 95.778 50.325 91.484 48.878 87.189 C41.66 65.767 34.375 44.369 27 23 C18.09 22.67 9.18 22.34 0 22 C0 14.74 0 7.48 0 0 Z " fill="#FEFEFE" transform="translate(264,4)"/>
<path d="M0 0 C5.056 0.126 7.399 1.816 10.793 5.256 C11.315 5.811 11.837 6.366 12.375 6.938 C12.92 7.489 13.466 8.04 14.027 8.607 C18 12.705 18 12.705 18 15 C18.584 15.251 19.168 15.503 19.77 15.762 C22.285 17.158 23.748 18.692 25.688 20.812 C43.371 38.815 65.801 51.139 90.27 56.945 C93 58 93 58 94.387 60.117 C94.589 60.739 94.791 61.36 95 62 C93.938 63.062 92.875 64.125 91.812 65.188 C91.173 65.831 90.534 66.474 89.875 67.137 C88.382 68.62 86.853 70.067 85.312 71.5 C79.331 77.966 77.846 84.041 77.871 92.65 C77.869 93.42 77.867 94.189 77.865 94.982 C77.861 97.54 77.864 100.098 77.867 102.656 C77.866 104.461 77.864 106.265 77.863 108.07 C77.859 113.88 77.866 119.69 77.875 125.5 C77.877 127.477 77.88 129.455 77.882 131.432 C77.898 144.622 77.94 157.811 78 171 C78.003 171.74 78.006 172.479 78.01 173.242 C78.042 180.578 78.092 187.914 78.21 195.25 C78.236 197.025 78.257 198.8 78.27 200.575 C78.291 202.956 78.337 205.335 78.391 207.715 C78.412 208.974 78.433 210.234 78.454 211.531 C79.258 216.642 81.262 220.504 85.25 223.938 C88.903 225.349 92.172 225.675 96 225 C98.97 223.391 101.398 221.491 104.008 219.363 C105.056 218.534 105.056 218.534 106.125 217.688 C106.767 217.155 107.409 216.623 108.07 216.074 C110 215 110 215 112.242 215.332 C113.112 215.663 113.112 215.663 114 216 C115.168 219.478 115.015 219.964 113.473 223.637 C110.804 228.587 107.619 233.182 104.438 237.812 C95.415 251.157 87.17 264.814 80.535 279.508 C79 282 79 282 77.012 283.027 C74.357 282.991 73.678 282.235 71.75 280.438 C67.881 277.292 63.855 275.714 59.188 274.125 C47.603 270.054 39.009 263.933 33 253 C31.158 249.06 29.554 245.06 28 241 C27.404 239.58 26.801 238.163 26.188 236.75 C25.6 235.389 25.6 235.389 25 234 C19.947 234.469 17.346 235.877 13.438 239.062 C12.298 239.974 11.157 240.884 10.016 241.793 C9.385 242.3 8.754 242.807 8.104 243.33 C4.015 246.576 -0.155 249.717 -4.312 252.875 C-5.214 253.562 -6.116 254.248 -7.045 254.955 C-13.83 260.12 -20.625 265.272 -27.469 270.359 C-29.742 272.05 -31.99 273.766 -34.219 275.516 C-35.178 276.253 -36.137 276.99 -37.125 277.75 C-37.932 278.384 -38.739 279.018 -39.57 279.672 C-42.553 281.302 -44.651 281.252 -48 281 C-48.186 279.866 -48.371 278.731 -48.562 277.562 C-50.825 268.588 -58.783 262.052 -65.25 255.875 C-72.795 248.489 -79.23 240.834 -85 232 C-85.664 230.986 -86.328 229.971 -87.012 228.926 C-91.68 221.342 -94.977 213.34 -98 205 C-98.572 203.428 -98.572 203.428 -99.156 201.824 C-109.49 171.019 -108.344 134.621 -94.254 105.328 C-88.721 94.226 -81.719 84.022 -72.57 75.562 C-70.864 73.931 -70.864 73.931 -69.121 71.578 C-66.919 68.902 -64.647 66.905 -61.938 64.75 C-60.478 63.578 -60.478 63.578 -58.988 62.383 C-58.002 61.596 -57.016 60.81 -56 60 C-52.32 57.016 -48.658 54.011 -45 51 C-43.98 50.169 -42.961 49.337 -41.91 48.48 C-25.725 35.157 -13.314 20.8 -2.277 3.012 C-1 1 -1 1 0 0 Z M-33 53 C-34.634 55.399 -36.049 57.89 -37.438 60.438 C-37.826 61.144 -38.214 61.851 -38.614 62.579 C-58.282 98.937 -58.712 139.49 -47.23 178.625 C-40.365 200.414 -28.755 218.665 -8.691 230.344 C-3.286 233.117 1.15 233.848 7 232 C10.614 230.334 13.843 228.423 17 226 C17.578 225.571 18.155 225.143 18.75 224.701 C21.658 222.24 23.681 220.246 24.643 216.491 C24.891 213.293 24.909 210.156 24.867 206.949 C24.888 204.969 24.908 202.99 24.931 201.01 C24.953 198.731 24.96 196.453 24.965 194.175 C24.991 188.367 25.123 182.562 25.259 176.756 C25.5 166.379 25.717 156.002 25.916 145.624 C26.056 138.337 26.201 131.05 26.352 123.763 C26.448 119.041 26.539 114.318 26.629 109.596 C26.673 107.346 26.719 105.096 26.766 102.846 C26.831 99.732 26.889 96.617 26.946 93.503 C26.967 92.579 26.987 91.655 27.009 90.703 C27.023 89.859 27.037 89.015 27.051 88.145 C27.073 87.046 27.073 87.046 27.095 85.925 C27.076 83.778 27.076 83.778 26 81 C23.452 79.703 20.938 78.554 18.312 77.438 C5.282 71.576 -4.993 63.408 -15.258 53.566 C-19.516 49.405 -19.516 49.405 -24.938 47.5 C-29.103 48.18 -30.225 49.852 -33 53 Z " fill="#FEFEFE" transform="translate(1244,176)"/>
<path d="M0 0 C0.14 0.552 0.28 1.105 0.424 1.674 C5.563 21.621 13.283 38.194 26 54.5 C45.419 79.428 60.141 115.138 56.594 147.348 C53.234 171.463 40.03 192.96 22.473 209.562 C20.755 211.184 20.755 211.184 18.562 214 C15.34 217.772 11.814 220.838 8 224 C7.222 224.654 7.222 224.654 6.429 225.322 C-0.526 231.152 -7.551 236.533 -15.312 241.25 C-29.131 249.648 -39.009 259.11 -47.238 273.082 C-51.283 279.781 -51.283 279.781 -54.25 280.688 C-59.311 279.422 -62.305 275.037 -65.547 271.141 C-84.645 248.261 -113.427 235.296 -141.002 225.866 C-142.016 225.519 -143.03 225.171 -144.074 224.812 C-144.977 224.51 -145.881 224.207 -146.811 223.895 C-149 223 -149 223 -151 221 C-151.125 218.688 -151.125 218.688 -150 216 C-143.791 211 -143.791 211 -140 211 C-139.711 210.416 -139.423 209.832 -139.125 209.23 C-138.446 207.884 -137.744 206.549 -137 205.238 C-128.792 189.432 -131.836 168.178 -132.065 150.87 C-132.114 146.97 -132.148 143.07 -132.184 139.17 C-132.269 130.139 -132.369 121.109 -132.471 112.078 C-132.603 100.529 -132.731 88.98 -132.838 77.43 C-132.881 72.795 -132.934 68.16 -132.995 63.525 C-133.031 60.656 -133.058 57.787 -133.083 54.918 C-133.103 52.948 -133.133 50.978 -133.163 49.008 C-133.172 47.843 -133.18 46.679 -133.189 45.479 C-133.201 44.463 -133.213 43.447 -133.225 42.401 C-133 40 -133 40 -131 38 C-128.4 37.485 -128.4 37.485 -125.086 37.105 C-123.862 36.957 -122.638 36.809 -121.376 36.657 C-120.724 36.581 -120.072 36.505 -119.4 36.426 C-81.322 31.936 -42.077 21.996 -9.124 1.706 C-5.593 -0.405 -3.922 -1.309 0 0 Z M-68.625 36.312 C-69.627 36.633 -69.627 36.633 -70.648 36.959 C-74.135 38.127 -76.787 39.017 -79 42 C-79.42 44.571 -79.42 44.571 -79.3 47.557 C-79.291 48.761 -79.282 49.965 -79.273 51.205 C-79.249 52.578 -79.224 53.951 -79.199 55.324 C-79.184 56.805 -79.17 58.286 -79.158 59.768 C-79.137 62.272 -79.113 64.777 -79.085 67.282 C-78.999 74.842 -78.98 82.402 -78.975 89.963 C-78.966 101.799 -78.929 113.633 -78.868 125.468 C-78.833 132.386 -78.808 139.303 -78.804 146.221 C-78.801 153.01 -78.772 159.799 -78.727 166.588 C-78.714 169.154 -78.709 171.721 -78.714 174.287 C-78.719 177.844 -78.693 181.4 -78.659 184.956 C-78.668 186.007 -78.677 187.058 -78.686 188.14 C-78.608 194.072 -78.608 194.072 -75.6 199.087 C-72.08 201.681 -72.08 201.681 -68.438 204.094 C-67.568 204.643 -66.698 205.193 -65.802 205.759 C-64.877 206.333 -63.953 206.908 -63 207.5 C-62.041 208.103 -61.082 208.706 -60.094 209.327 C-57.068 211.227 -54.035 213.115 -51 215 C-49.499 215.933 -49.499 215.933 -47.967 216.885 C-42.625 220.202 -37.276 223.509 -31.919 226.802 C-30.26 227.838 -28.627 228.915 -27 230 C-22.822 230.708 -20.47 231.028 -16.945 228.562 C-0.379 212.576 6.955 192.176 7.47 169.658 C7.611 156.767 7.115 144.316 3 132 C2.791 131.363 2.582 130.726 2.367 130.069 C-2.756 114.973 -10.833 101.382 -21.356 89.464 C-33.496 75.701 -42.434 61.947 -49.991 45.196 C-52.423 39.195 -52.423 39.195 -56 34 C-60.516 33.552 -64.407 34.875 -68.625 36.312 Z " fill="#FEFEFE" transform="translate(743,174)"/>
<path d="M0 0 C0.508 0.652 1.016 1.305 1.539 1.977 C0.879 3.627 0.219 5.277 -0.461 6.977 C-1.059 7.041 -1.658 7.106 -2.274 7.173 C-19.675 9.119 -36.302 11.417 -48.559 25.363 C-63.633 45.75 -61.613 73.021 -61.606 97.102 C-61.609 99.392 -61.613 101.682 -61.616 103.972 C-61.625 110.142 -61.628 116.313 -61.628 122.484 C-61.629 126.342 -61.631 130.2 -61.634 134.058 C-61.642 146.832 -61.647 159.606 -61.646 172.38 C-61.646 173.408 -61.646 173.408 -61.646 174.457 C-61.646 175.487 -61.646 175.487 -61.646 176.537 C-61.646 187.698 -61.655 198.858 -61.669 210.018 C-61.684 221.502 -61.69 232.987 -61.69 244.472 C-61.69 250.91 -61.692 257.348 -61.703 263.786 C-61.713 269.828 -61.713 275.87 -61.705 281.912 C-61.704 284.131 -61.707 286.349 -61.713 288.567 C-61.72 291.591 -61.716 294.614 -61.708 297.637 C-61.713 298.518 -61.718 299.4 -61.724 300.307 C-61.699 304.615 -61.585 308.105 -59.461 311.977 C-55.883 315.319 -51.742 317.774 -47.523 320.227 C-46.631 320.772 -46.631 320.772 -45.721 321.328 C-41.8 323.608 -38.98 324.512 -34.461 323.977 C-29.239 321.366 -26.107 317.423 -22.488 312.902 C-20.099 310.632 -18.734 310.118 -15.461 309.977 C-14.471 310.637 -13.481 311.297 -12.461 311.977 C-13.051 315.807 -14.788 317.874 -17.273 320.789 C-18.086 321.76 -18.898 322.73 -19.734 323.73 C-20.175 324.254 -20.615 324.778 -21.069 325.317 C-32.415 338.848 -42.243 352.869 -51.063 368.167 C-53.394 372.21 -55.828 376.123 -58.461 379.977 C-62.499 379.808 -64.73 379.068 -67.496 376.211 C-68.52 375.062 -69.528 373.9 -70.523 372.727 C-71.534 371.575 -72.546 370.424 -73.559 369.273 C-74.29 368.433 -74.29 368.433 -75.037 367.575 C-77.084 365.278 -79.263 363.128 -81.461 360.977 C-82.507 359.9 -82.507 359.9 -83.574 358.801 C-97.095 345.664 -115.629 340.501 -133.461 335.977 C-133.791 334.327 -134.121 332.677 -134.461 330.977 C-133.725 330.469 -132.989 329.961 -132.23 329.438 C-122.564 322.618 -117.593 317.89 -115.461 305.977 C-114.922 299.801 -115.06 293.585 -115.089 287.392 C-115.086 285.528 -115.082 283.664 -115.078 281.799 C-115.068 276.759 -115.078 271.719 -115.091 266.679 C-115.102 261.375 -115.098 256.07 -115.096 250.766 C-115.095 241.846 -115.106 232.926 -115.125 224.007 C-115.146 213.754 -115.149 203.502 -115.143 193.25 C-115.137 183.332 -115.143 173.414 -115.154 163.496 C-115.159 159.304 -115.16 155.113 -115.158 150.921 C-114.704 85.549 -114.704 85.549 -144.461 28.977 C-147.487 25.271 -147.487 25.271 -147.273 22.852 C-146.461 20.977 -146.461 20.977 -144.461 18.977 C-141.374 19.139 -139.814 19.683 -137.426 21.664 C-132.686 27.071 -128.379 32.683 -124.211 38.539 C-123.716 39.235 -123.221 39.93 -122.711 40.646 C-119.273 45.577 -116.288 50.674 -113.461 55.977 C-111.041 56.145 -111.041 56.145 -108.461 55.977 C-106.41 53.943 -106.41 53.943 -104.711 51.164 C-86.032 23.848 -60.902 6.401 -28.57 -0.902 C-5.648 -4.644 -5.648 -4.644 0 0 Z " fill="#FEFEFE" transform="translate(972.4609375,76.0234375)"/>
<path d="M0 0 C3.117 1.41 6.051 3.083 9 4.812 C9.835 5.302 10.67 5.791 11.531 6.295 C27.77 16.078 41.853 29.375 47.312 48.125 C47.539 49.074 47.766 50.023 48 51 C50.915 50.892 53.181 50.685 55.475 48.766 C56.994 47.081 58.412 45.347 59.812 43.562 C60.866 42.275 61.921 40.989 62.977 39.703 C63.747 38.753 63.747 38.753 64.532 37.783 C66.505 35.386 68.586 33.098 70.688 30.812 C73.679 27.521 76.525 24.154 79.312 20.688 C82.886 16.31 86.51 11.986 90.25 7.75 C90.745 7.164 91.241 6.579 91.751 5.975 C93.203 4.359 93.203 4.359 96 2 C98.502 2.074 98.502 2.074 101 3 C102.51 4.923 102.51 4.923 103.762 7.461 C104.236 8.398 104.71 9.336 105.199 10.302 C105.69 11.316 106.181 12.33 106.688 13.375 C107.746 15.482 108.804 17.589 109.863 19.695 C110.389 20.755 110.914 21.815 111.456 22.907 C113.695 27.391 116.031 31.821 118.375 36.25 C118.782 37.028 119.188 37.806 119.607 38.608 C122.29 43.729 125.113 48.746 128.137 53.676 C129.355 56.956 129.055 58.663 128 62 C126.382 64.434 124.476 66.541 122.5 68.688 C121.396 69.929 120.293 71.171 119.191 72.414 C118.646 73.023 118.101 73.632 117.54 74.259 C115.436 76.638 113.433 79.092 111.438 81.562 C106.384 87.787 101.194 93.893 96 100 C91.455 99.523 91.455 99.523 89.485 97.26 C89.059 96.483 88.634 95.706 88.195 94.906 C87.692 94.001 87.188 93.096 86.669 92.164 C86.118 91.12 85.567 90.076 85 89 C84.692 88.42 84.384 87.84 84.067 87.243 C81.279 81.987 78.523 76.714 75.808 71.419 C74.776 69.409 73.729 67.407 72.68 65.406 C72.369 64.792 72.059 64.177 71.739 63.544 C70.395 61.004 69.292 59.206 66.924 57.535 C64.879 56.752 64.879 56.752 62.543 58.031 C59.657 60.265 57.577 62.64 55.312 65.5 C54.546 66.459 53.779 67.418 52.988 68.406 C49.919 72.41 48.75 74.396 48.739 79.414 C48.732 80.539 48.725 81.663 48.718 82.822 C48.72 84.056 48.723 85.29 48.725 86.562 C48.718 88.511 48.718 88.511 48.71 90.5 C48.696 94.066 48.696 97.632 48.698 101.198 C48.699 104.175 48.695 107.152 48.69 110.129 C48.679 117.154 48.678 124.178 48.684 131.203 C48.69 138.448 48.678 145.693 48.657 152.938 C48.639 159.159 48.633 165.38 48.636 171.601 C48.638 175.316 48.636 179.032 48.622 182.747 C48.607 186.891 48.616 191.035 48.628 195.179 C48.62 196.41 48.612 197.64 48.605 198.907 C48.612 200.037 48.619 201.167 48.626 202.332 C48.626 203.801 48.626 203.801 48.625 205.3 C49.185 209.336 50.817 212.045 53.974 214.593 C56.388 216.041 58.808 217.474 61.25 218.875 C62.084 219.385 62.918 219.896 63.777 220.422 C67.797 222.757 70.186 224.01 74.914 223.953 C80.49 222.231 83.43 219.01 86.438 214.25 C88.522 211.11 88.818 211.045 92.812 210.062 C94.39 210.032 94.39 210.032 96 210 C96.73 212.195 96.73 212.195 97 215 C95.551 217.367 95.551 217.367 93.312 219.875 C92.477 220.844 91.642 221.814 90.781 222.812 C90.327 223.331 89.874 223.849 89.406 224.383 C75.88 239.938 64.38 257.023 54.574 275.141 C53 278 53 278 52 279 C49.371 279.504 49.371 279.504 46 279 C43.338 276.958 41.24 274.479 39.062 271.938 C37.888 270.612 36.712 269.288 35.535 267.965 C34.952 267.305 34.37 266.645 33.769 265.966 C29.149 260.832 24.452 256.315 18.75 252.375 C17.734 251.661 16.718 250.947 15.672 250.211 C7.08 244.762 -2.532 241.669 -12.188 238.688 C-13.33 238.328 -14.473 237.969 -15.65 237.6 C-18.432 236.727 -21.215 235.86 -24 235 C-24.33 233.35 -24.66 231.7 -25 230 C-22.737 228.586 -20.529 227.221 -18.062 226.191 C-12.257 223.717 -9.565 220.736 -7 215 C-4.841 207.602 -4.708 200.204 -4.725 192.552 C-4.72 191.348 -4.715 190.143 -4.71 188.902 C-4.698 185.624 -4.696 182.347 -4.698 179.07 C-4.699 176.317 -4.695 173.564 -4.69 170.812 C-4.679 164.305 -4.678 157.798 -4.684 151.292 C-4.69 144.622 -4.678 137.952 -4.657 131.282 C-4.639 125.52 -4.633 119.759 -4.636 113.997 C-4.638 110.571 -4.636 107.146 -4.622 103.721 C-3.47 79.173 -3.47 79.173 -12 57 C-15.263 54.182 -17.789 52.741 -22.062 52.5 C-26.513 53.065 -27.951 53.782 -31 57 C-31.66 58.072 -32.32 59.145 -33 60.25 C-33.99 61.611 -33.99 61.611 -35 63 C-37.75 63.375 -37.75 63.375 -40 63 C-41.131 59.345 -41.493 57.195 -40.012 53.607 C-38.422 50.765 -36.736 48.006 -35 45.25 C-33.708 43.126 -32.419 40.999 -31.133 38.871 C-30.456 37.758 -29.78 36.646 -29.083 35.5 C-24.821 28.406 -20.931 21.091 -16.977 13.823 C-16.087 12.203 -16.087 12.203 -15.18 10.551 C-14.402 9.122 -14.402 9.122 -13.609 7.665 C-9.722 1.226 -7.665 -1.925 0 0 Z " fill="#FEFEFE" transform="translate(1425,175)"/>
<path d="M0 0 C1.65 0.66 3.3 1.32 5 2 C4.568 7.238 1.745 10.396 -1.312 14.438 C-17.679 36.845 -31.64 64.191 -35 92 C-34.67 92.66 -34.34 93.32 -34 94 C-33.378 94.008 -32.756 94.016 -32.115 94.025 C-25.659 94.11 -19.203 94.21 -12.748 94.317 C-10.336 94.356 -7.925 94.391 -5.513 94.422 C-2.053 94.467 1.407 94.525 4.867 94.586 C6.492 94.603 6.492 94.603 8.15 94.621 C9.151 94.641 10.152 94.661 11.183 94.681 C12.509 94.701 12.509 94.701 13.861 94.722 C16 95 16 95 18 97 C18.174 99.583 18.235 102.045 18.188 104.625 C18.18 105.348 18.172 106.072 18.164 106.817 C17.952 120.048 17.952 120.048 15 123 C12.906 123.272 12.906 123.272 10.291 123.303 C9.313 123.32 8.335 123.336 7.328 123.353 C6.27 123.362 5.212 123.37 4.121 123.379 C3.039 123.396 1.956 123.413 0.841 123.43 C-2.627 123.484 -6.095 123.524 -9.562 123.562 C-13.034 123.606 -16.505 123.653 -19.977 123.705 C-22.14 123.737 -24.304 123.764 -26.467 123.786 C-27.442 123.799 -28.416 123.813 -29.42 123.826 C-30.282 123.836 -31.145 123.845 -32.033 123.855 C-34.003 123.785 -34.003 123.785 -35 125 C-35.101 126.991 -35.131 128.985 -35.134 130.978 C-35.138 132.278 -35.142 133.577 -35.147 134.916 C-35.146 136.371 -35.146 137.825 -35.145 139.279 C-35.148 140.799 -35.152 142.32 -35.155 143.841 C-35.164 147.983 -35.167 152.126 -35.167 156.269 C-35.168 159.723 -35.172 163.177 -35.175 166.632 C-35.184 174.781 -35.186 182.93 -35.185 191.079 C-35.185 199.492 -35.195 207.905 -35.211 216.318 C-35.224 223.534 -35.229 230.749 -35.229 237.964 C-35.229 242.277 -35.231 246.59 -35.242 250.902 C-35.252 254.959 -35.252 259.016 -35.245 263.074 C-35.243 264.564 -35.246 266.054 -35.252 267.543 C-35.26 269.576 -35.254 271.609 -35.247 273.641 C-35.248 274.779 -35.248 275.917 -35.249 277.09 C-35.002 279.974 -34.573 281.599 -33 284 C-29.775 286.442 -26.207 288.325 -22.688 290.312 C-21.737 290.875 -20.786 291.438 -19.807 292.018 C-18.884 292.544 -17.962 293.071 -17.012 293.613 C-16.171 294.096 -15.33 294.578 -14.464 295.075 C-11.497 296.189 -9.988 295.95 -7 295 C-1.512 291.257 2.828 286.11 7 281 C8.98 281.66 10.96 282.32 13 283 C12.671 288.417 9.493 291.263 6 295.062 C4.803 296.405 3.609 297.75 2.418 299.098 C1.832 299.76 1.246 300.423 0.642 301.106 C-8.32 311.444 -16.211 323.18 -22.902 335.109 C-23.388 335.973 -23.873 336.837 -24.374 337.726 C-25.316 339.42 -26.244 341.121 -27.158 342.83 C-30.391 348.667 -30.391 348.667 -33.824 350.543 C-34.901 350.769 -34.901 350.769 -36 351 C-40.853 346.882 -45.45 342.616 -49.884 338.05 C-65.883 321.577 -83.144 313.683 -105.145 307.676 C-107 307 -107 307 -109 305 C-108.953 303.051 -108.953 303.051 -108 301 C-105.672 299.543 -105.672 299.543 -102.75 298.188 C-96.354 294.894 -93.573 291.617 -90.75 285.125 C-88.687 276.531 -88.854 267.827 -88.867 259.043 C-88.866 257.648 -88.865 256.253 -88.863 254.859 C-88.86 251.087 -88.865 247.316 -88.871 243.544 C-88.875 241.183 -88.877 238.821 -88.879 236.46 C-88.899 211.342 -89.093 186.227 -89.406 161.111 C-89.438 158.558 -89.467 156.004 -89.497 153.451 C-89.544 149.442 -89.596 145.434 -89.653 141.425 C-89.673 139.946 -89.692 138.467 -89.709 136.989 C-89.733 134.975 -89.764 132.961 -89.795 130.948 C-89.818 129.251 -89.818 129.251 -89.842 127.521 C-89.717 125.062 -89.717 125.062 -91 124 C-93.653 123.852 -96.283 123.765 -98.938 123.719 C-99.733 123.7 -100.528 123.682 -101.347 123.663 C-103.898 123.604 -106.449 123.551 -109 123.5 C-112.354 123.433 -115.708 123.359 -119.062 123.281 C-119.842 123.268 -120.621 123.254 -121.424 123.24 C-126.887 123.113 -126.887 123.113 -128 122 C-128.418 119.73 -128.418 119.73 -128 117 C-126.123 115.172 -124.438 113.792 -122.312 112.312 C-121.11 111.433 -119.909 110.552 -118.707 109.672 C-118.089 109.228 -117.471 108.784 -116.834 108.326 C-114.017 106.289 -111.256 104.182 -108.5 102.062 C-107.963 101.651 -107.427 101.239 -106.874 100.815 C-101.35 96.548 -96.029 92.054 -90.742 87.499 C-88.875 85.893 -87.002 84.294 -85.129 82.695 C-79.183 77.602 -73.317 72.521 -67.879 66.878 C-66.129 65.129 -64.327 63.527 -62.44 61.927 C-57.193 57.367 -52.31 52.454 -47.402 47.535 C-46.399 46.533 -45.396 45.531 -44.393 44.529 C-42.303 42.44 -40.215 40.35 -38.128 38.258 C-35.473 35.598 -32.814 32.942 -30.153 30.287 C-28.085 28.222 -26.019 26.155 -23.953 24.087 C-22.974 23.107 -21.995 22.129 -21.015 21.151 C-15.975 16.12 -11.043 11.067 -6.45 5.622 C-4.513 3.456 -2.345 1.705 0 0 Z " fill="#FEFEFE" transform="translate(1095,106)"/>
</svg>