
<!-- Generator: visioncortex VTracer 0.6.4 -->
<svg version="1.1" xmlns="http://www.w3.org/2000/svg" viewBox="0 0 1007 530" preserveAspectRatio="xMidYMid meet">
<path d="M0 0 C37.799 -0.046 75.599 -0.081 113.398 -0.102 C117.91 -0.105 122.423 -0.107 126.935 -0.11 C127.833 -0.11 128.731 -0.111 129.656 -0.111 C143.995 -0.12 158.334 -0.136 172.673 -0.154 C187.503 -0.173 202.333 -0.184 217.162 -0.188 C225.443 -0.191 233.723 -0.196 242.004 -0.211 C277.474 -0.274 312.911 -0.006 348.37 0.946 C349.174 0.967 349.978 0.989 350.806 1.011 C424.533 3.004 424.533 3.004 437.769 4.517 C438.565 4.607 439.362 4.697 440.182 4.791 C440.782 4.86 441.382 4.929 442 5 C443.175 88.724 443.156 172.447 443.129 256.177 C443.125 270.497 443.126 284.816 443.13 299.136 C443.136 316.072 443.138 333.009 443.135 349.946 C443.134 351.766 443.134 353.586 443.134 355.406 C443.134 356.299 443.134 357.193 443.133 358.114 C443.133 364.247 443.134 370.38 443.136 376.513 C443.151 417.687 442.902 458.834 442 500 C437.555 500.661 433.304 501.126 428.809 501.129 C427.041 501.134 427.041 501.134 425.239 501.139 C423.984 501.137 422.73 501.135 421.438 501.133 C419.48 501.134 419.48 501.134 417.482 501.136 C414.729 501.137 411.975 501.135 409.222 501.13 C405.708 501.125 402.195 501.128 398.681 501.134 C395.308 501.138 391.935 501.135 388.562 501.133 C386.681 501.136 386.681 501.136 384.761 501.139 C383.583 501.136 382.405 501.133 381.191 501.129 C380.162 501.129 379.133 501.128 378.073 501.127 C375 501 375 501 371.576 500.505 C367.878 499.983 364.333 499.841 360.601 499.795 C359.895 499.785 359.189 499.775 358.462 499.765 C356.136 499.733 353.81 499.708 351.484 499.684 C349.829 499.663 348.175 499.642 346.52 499.621 C343.036 499.577 339.553 499.536 336.069 499.497 C331.72 499.449 327.371 499.395 323.022 499.339 C319.587 499.295 316.153 499.254 312.718 499.213 C311.123 499.194 309.527 499.175 307.932 499.155 C296.859 499.018 285.787 498.992 274.713 499 C249.594 499.018 224.475 498.911 199.355 498.816 C198.057 498.812 196.759 498.807 195.422 498.802 C183.142 498.756 170.863 498.709 158.583 498.661 C155.776 498.65 152.969 498.639 150.162 498.628 C149.465 498.625 148.768 498.622 148.049 498.619 C136.69 498.575 125.33 498.534 113.97 498.495 C102.224 498.455 90.477 498.411 78.731 498.363 C72.168 498.337 65.605 498.312 59.043 498.291 C52.89 498.271 46.738 498.247 40.586 498.22 C38.339 498.21 36.092 498.203 33.845 498.197 C22.52 498.166 11.285 498.062 0 497 C-1.285 448.938 -1.149 400.871 -1.135 352.796 C-1.133 344.402 -1.133 336.009 -1.134 327.616 C-1.134 325.805 -1.134 325.805 -1.134 323.958 C-1.135 321.505 -1.135 319.052 -1.135 316.599 C-1.138 293.797 -1.135 270.996 -1.129 248.194 C-1.125 228.644 -1.126 209.095 -1.13 189.545 C-1.136 166.733 -1.138 143.922 -1.135 121.111 C-1.134 118.683 -1.134 116.255 -1.134 113.827 C-1.134 112.633 -1.134 111.439 -1.133 110.209 C-1.132 101.804 -1.134 93.399 -1.136 84.994 C-1.139 74.786 -1.138 64.579 -1.133 54.371 C-1.13 49.168 -1.129 43.964 -1.133 38.76 C-1.136 34.002 -1.134 29.244 -1.129 24.486 C-1.128 22.762 -1.128 21.038 -1.131 19.314 C-1.134 16.978 -1.13 14.641 -1.126 12.305 C-1.126 11.005 -1.126 9.706 -1.125 8.367 C-1.016 5.44 -0.684 2.84 0 0 Z M29.625 11.125 C27.901 14.175 27.323 16.532 27 20 C31.33 23.7 35.417 24.145 41 24 C44.094 23.098 44.094 23.098 46 21 C46.644 18.434 46.644 18.434 47 16 C41.914 10.773 41.914 10.773 35.25 8.25 C31.897 8.749 31.897 8.749 29.625 11.125 Z M67 10 C66.67 10.66 66.34 11.32 66 12 C67.093 12.371 68.186 12.742 69.312 13.125 C72.316 14.4 72.841 14.667 74.312 17.75 C76.481 21.927 79.149 23.38 83.02 25.93 C86.539 28.375 89.796 31.043 93.062 33.812 C93.635 34.293 94.207 34.773 94.796 35.268 C98.872 38.744 98.872 38.744 100 41 C99.476 40.708 98.951 40.415 98.411 40.114 C96.025 38.783 93.637 37.454 91.25 36.125 C90.425 35.665 89.6 35.205 88.75 34.73 C87.951 34.286 87.152 33.841 86.328 33.383 C85.595 32.974 84.862 32.566 84.106 32.145 C83.411 31.767 82.716 31.389 82 31 C81.313 30.621 80.625 30.242 79.917 29.851 C77.893 28.797 77.893 28.797 75 29 C75.708 31.958 75.708 31.958 77 35 C77.928 35.433 77.928 35.433 78.875 35.875 C81.765 37.405 82.658 39.302 84.25 42.125 C85.031 43.49 85.031 43.49 85.828 44.883 C86.215 45.581 86.602 46.28 87 47 C86.457 46.567 85.915 46.134 85.355 45.688 C84.64 45.131 83.925 44.574 83.188 44 C82.48 43.443 81.772 42.886 81.043 42.312 C78.984 40.73 78.984 40.73 76 41 C77.76 46.92 80.397 52.416 83 58 C79.357 56.033 77.071 54.194 74.688 50.812 C74.176 50.097 73.664 49.382 73.137 48.645 C72.762 48.102 72.386 47.559 72 47 C71.01 47.495 71.01 47.495 70 48 C71.65 52.62 73.3 57.24 75 62 C71.279 58.279 67.902 54.595 64.551 50.574 C64.039 50.055 63.527 49.535 63 49 C62.34 49 61.68 49 61 49 C63.306 57.138 66.104 65.057 69 73 C65.124 69.625 63.19 65.921 61 61.375 C60.475 60.312 60.475 60.312 59.938 59.228 C57.629 54.497 55.623 49.732 53.984 44.723 C53.126 42.787 53.126 42.787 50.891 42.246 C50.267 42.165 49.643 42.084 49 42 C49 39.36 49 36.72 49 34 C49.846 34.969 50.691 35.939 51.562 36.938 C54.03 39.393 55.077 40.023 58.562 41.062 C62.529 40.99 64.142 40.774 67 38 C68.617 31.937 68.044 28.436 65 23 C61.72 20.813 59.904 20.234 56 20 C51.77 21.771 49.891 23.873 48 28 C41.103 49.421 45.202 68.776 51.168 89.836 C54.727 103.37 54.433 116.597 47.375 128.812 C44.341 131.607 40.992 133.47 37.418 135.508 C34.421 137.357 32.319 139.372 30 142 C35.211 146.777 42.124 147.374 48.902 147.188 C59.334 146.255 66.363 138.33 73 131 C80.068 122.006 84.147 114.518 84.098 102.949 C84.096 101.961 84.096 101.961 84.093 100.953 C84.088 98.864 84.075 96.776 84.062 94.688 C84.057 93.265 84.053 91.842 84.049 90.42 C84.038 86.947 84.021 83.473 84 80 C84.66 80 85.32 80 86 80 C86.083 80.688 86.165 81.377 86.25 82.086 C87.186 85.724 88.951 88.529 91 91.625 C91.399 92.237 91.797 92.85 92.208 93.481 C95.493 98.437 99.168 102.989 102.988 107.543 C110.359 116.545 112.11 124.576 113 136 C115.934 136.319 115.934 136.319 117.473 134.777 C132.053 117.915 132.053 117.915 137.379 97.117 C135.343 85.743 128.96 76.09 121.355 67.629 C118.889 64.665 116 60.941 116 57 C122.929 58.043 129.624 59.661 136.375 61.5 C155.943 67.036 155.943 67.036 175.07 62.336 C186.334 54.538 194.102 40.939 198 28 C198.586 24.187 199.081 20.526 196.738 17.219 C195.074 15.803 195.074 15.803 192.949 16.004 C187.876 17.257 184.065 18.664 180 22 C180 22.66 180 23.32 180 24 C179.155 24.404 179.155 24.404 178.293 24.816 C175.871 26.067 173.615 27.48 171.312 28.938 C157.364 37.206 141.695 36.512 126.25 32.666 C115.06 29.354 105.392 24.041 95.482 17.996 C86.611 12.804 77.397 9.668 67 10 Z M339.375 11.25 C336.968 12.932 336.968 12.932 335 15 C334.874 16.939 334.874 16.939 336 19 C337.898 20.846 339.89 22.384 342 24 C334.907 32.071 324.852 36.722 315.5 41.688 C314.634 42.151 313.769 42.615 312.877 43.092 C296.079 51.873 296.079 51.873 288 51 C288.617 50.527 289.235 50.054 289.871 49.566 C302.321 39.903 302.321 39.903 311 27 C311 26.01 311 25.02 311 24 C306.17 22.887 306.17 22.887 301.535 24.152 C298.668 26.242 296.794 28.447 294.625 31.25 C289.384 37.836 283.846 43.475 277.285 48.738 C276.861 49.155 276.437 49.571 276 50 C276 50.66 276 51.32 276 52 C292.668 57.836 292.668 57.836 309.688 62.5 C310.362 62.66 311.037 62.819 311.732 62.983 C315.209 63.755 318.439 64.163 322 64 C322.66 62.68 323.32 61.36 324 60 C323.216 59.257 322.433 58.515 321.625 57.75 C319.387 55.406 318.306 53.857 317 51 C317.764 50.816 318.529 50.631 319.316 50.441 C326.127 48.597 331.949 46.221 338 42.625 C338.622 42.262 339.244 41.899 339.885 41.526 C344.972 38.389 350.212 33.9 352 28 C351.882 21.965 349.612 16.78 346 12 C342.867 9.867 342.867 9.867 339.375 11.25 Z M250.637 39.344 C248.267 41.742 246.079 44.274 243.906 46.852 C241.073 50.045 237.949 52.923 234.82 55.824 C232.802 57.879 232.802 57.879 232.492 60.637 C232 63 232 63 230.188 64.258 C229.466 64.544 228.744 64.83 228 65.125 C225.838 65.948 225.838 65.948 224 67 C223.67 67.99 223.34 68.98 223 70 C228.605 70.074 234.21 70.129 239.815 70.165 C241.721 70.18 243.627 70.2 245.533 70.226 C248.276 70.263 251.019 70.28 253.762 70.293 C254.611 70.308 255.46 70.324 256.335 70.34 C261.078 70.341 264.122 70.04 268 67 C270.881 63.998 272.868 61.239 273.312 57.062 C273.158 56.042 273.158 56.042 273 55 C267.201 55.626 261.662 56.674 256 58.062 C255.225 58.249 254.451 58.435 253.652 58.627 C251.767 59.081 249.884 59.54 248 60 C250.613 55.099 253.454 51.078 257.312 47.062 C258.284 46.024 259.256 44.985 260.227 43.945 C260.697 43.445 261.168 42.946 261.653 42.431 C263.518 40.45 265.363 38.455 267.188 36.438 C267.738 35.838 268.288 35.239 268.855 34.621 C270.288 32.922 270.288 32.922 270 30 C262.546 30 256.039 34.408 250.637 39.344 Z M227.062 47.062 C225.572 48.022 225.572 48.022 224.051 49 C222.14 50.253 220.24 51.521 218.355 52.812 C200.894 64.54 181.425 68.194 160.701 68.13 C158.637 68.125 156.572 68.13 154.508 68.137 C147.284 68.14 140.169 67.938 133 67 C133.374 67.489 133.748 67.978 134.133 68.482 C135.471 70.231 135.471 70.231 136.809 71.98 C143.159 77.833 149.305 79.742 157.793 79.453 C158.701 79.444 159.61 79.434 160.546 79.424 C163.427 79.39 166.307 79.322 169.188 79.25 C172.973 79.183 176.758 79.13 180.543 79.078 C181.454 79.063 182.365 79.048 183.303 79.033 C189.647 78.951 195.859 79.217 202.182 79.764 C205.6 80.05 208.947 80.101 212.375 80.062 C213.455 80.053 214.535 80.044 215.648 80.035 C216.812 80.018 216.812 80.018 218 80 C217.573 75.76 217.573 75.76 215.438 72.25 C213.174 71.089 211.303 70.51 208.848 69.922 C206.943 69.466 206.943 69.466 205 69 C206.169 68.613 207.338 68.227 208.543 67.828 C210.091 67.303 211.639 66.777 213.188 66.25 C213.956 65.997 214.725 65.745 215.518 65.484 C224.032 62.561 228.726 57.882 233 50 C233.941 46.653 233.941 46.653 234 44 C231.058 44 229.513 45.463 227.062 47.062 Z M367.467 48.25 C366.984 48.828 366.501 49.405 366.004 50 C365.176 50.954 365.176 50.954 364.332 51.928 C363.748 52.612 363.164 53.296 362.562 54 C341.23 77.776 308.95 78.917 279.045 81.518 C264.982 82.76 250.626 84.086 237.125 88.438 C236.428 88.651 235.731 88.864 235.012 89.083 C230.934 90.342 226.904 91.719 222.875 93.125 C218.651 94.584 214.599 95.426 210.188 96.125 C200.067 97.996 191.006 102.53 181.706 106.802 C179.112 107.951 176.497 108.973 173.844 109.977 C168.924 111.919 164.673 114.463 160.312 117.438 C159.542 117.958 158.772 118.479 157.978 119.016 C141.701 130.244 127.024 144.322 115 160 C114.188 161.034 113.376 162.068 112.539 163.133 C96.523 184.069 81.202 218.371 81.531 245.031 C81.859 247.397 81.859 247.397 85 249 C87.388 249.331 89.786 249.593 92.188 249.812 C98.664 250.507 102.779 252.11 108 256 C108.66 256 109.32 256 110 256 C110.309 256.784 110.619 257.567 110.938 258.375 C111.929 260.923 111.929 260.923 113 263 C113.149 264.934 113.221 266.873 113.25 268.812 C113.276 269.85 113.302 270.888 113.328 271.957 C112.951 275.458 112.162 277.236 110 280 C108.012 281.223 108.012 281.223 105.688 282.062 C104.816 282.38 103.945 282.697 103.047 283.023 C98.336 284.533 93.584 285.878 88.809 287.168 C86.119 287.722 86.119 287.722 85 289 C84.659 294.283 85.53 298.717 87.188 303.688 C87.529 304.735 87.529 304.735 87.878 305.804 C91.232 315.907 95.298 324.864 101.043 333.859 C102.768 336.628 104.275 339.406 105.75 342.312 C109.557 349.41 114.527 355.656 119.451 362.001 C120.912 363.886 122.358 365.781 123.801 367.68 C135.647 383.149 148 396.183 165 406 C166.098 406.65 167.197 407.299 168.328 407.969 C185.875 418.044 205.021 424.224 225 427 C226.013 427.147 227.026 427.293 228.07 427.444 C252.195 430.856 274.692 430.286 298.734 426.973 C304.818 426.14 310.878 425.466 317 425 C318.19 424.896 319.38 424.791 320.606 424.684 C346.546 422.651 346.546 422.651 353.965 427.711 C358.012 431.299 360.99 435.541 364 440 C365.224 441.65 366.456 443.295 367.695 444.934 C370.498 448.681 373.195 452.484 375.818 456.359 C377.037 458.144 377.037 458.144 379 460 C388.311 460.545 398.047 457.257 407 455 C406.939 454.33 406.877 453.661 406.814 452.97 C406.282 446.912 405.859 440.857 405.535 434.785 C405.496 434.075 405.458 433.365 405.418 432.634 C405.257 429.695 405.097 426.756 404.95 423.817 C404.841 421.639 404.72 419.462 404.598 417.285 C404.497 415.365 404.497 415.365 404.395 413.406 C404.022 410.19 403.507 407.855 402 405 C397.6 402.591 394.775 403.106 390.066 404.473 C383.551 406.135 376.892 405.141 371 402 C366.726 398.597 363.767 394.963 362.812 389.5 C362.693 384.542 363.678 380.749 367 377 C371.821 373.558 377.02 370.976 382.32 368.363 C384.856 367.247 384.856 367.247 386 366 C386.029 364.598 385.986 363.194 385.914 361.793 C385.849 360.461 385.849 360.461 385.783 359.102 C385.731 358.14 385.679 357.178 385.625 356.188 C385.576 355.21 385.527 354.233 385.477 353.226 C385.374 351.181 385.269 349.135 385.162 347.09 C385.005 344.09 384.855 341.09 384.707 338.09 C384.476 333.393 384.239 328.696 384 324 C382.753 323.355 381.504 322.716 380.254 322.078 C379.559 321.721 378.863 321.365 378.147 320.997 C372.832 318.529 366.818 317.105 361 318 C356.973 322.795 355.708 327.892 354.188 333.875 C347.933 356.871 337.069 377.871 315.816 390.508 C290.796 403.764 262.741 403.342 236.057 395.18 C228.302 392.612 221.118 388.973 214 385 C213.342 384.633 212.684 384.267 212.006 383.889 C203.786 379.25 196.063 374.305 189 368 C188.081 367.198 187.162 366.396 186.215 365.57 C167.676 348.677 150.917 320.7 146 296 C145.974 293.667 145.97 291.333 146 289 C156.693 288.147 167.296 287.851 178.02 287.867 C179.614 287.867 181.209 287.866 182.803 287.864 C186.122 287.863 189.44 287.865 192.759 287.87 C196.957 287.875 201.155 287.872 205.354 287.866 C208.641 287.862 211.928 287.864 215.215 287.866 C216.76 287.867 218.306 287.866 219.851 287.864 C245.823 287.833 263.422 289.807 285.086 305.191 C286.151 305.933 287.215 306.674 288.312 307.438 C289.299 308.137 290.285 308.837 291.301 309.559 C293.806 311.13 293.806 311.13 296.133 311.16 C299.182 309.266 300.196 306.184 301.562 303 C301.865 302.32 302.167 301.641 302.479 300.94 C307.184 291.712 307.184 291.712 307 282 C302.93 277.111 297.139 274.29 291.551 271.492 C288.309 269.596 285.759 267.519 284.062 264.125 C283.96 260.651 285.09 258.895 287 256 C293.722 249.202 303.592 245.299 312 241 C311.735 234.003 310.806 227.3 309.188 220.5 C309.034 219.818 308.881 219.136 308.724 218.434 C307.666 214.22 306.364 211.764 303 209 C294.39 213.094 286.084 217.437 278 222.5 C249.074 240.543 221.446 244.636 188 246 C185.807 246.091 183.614 246.182 181.42 246.273 C166.615 246.885 151.808 247.456 137 248 C137.33 247.01 137.66 246.02 138 245 C138.227 243.087 138.414 241.169 138.578 239.25 C140.493 218.35 143.52 200.333 154 182 C154.556 181.016 155.111 180.033 155.684 179.02 C159.934 171.955 165.13 165.777 170.574 159.619 C171.951 158.056 173.306 156.477 174.66 154.895 C194.528 132.04 221.194 119.825 251 116 C251.677 115.908 252.355 115.816 253.052 115.721 C261.062 114.761 269.109 114.743 277.166 114.705 C278.838 114.693 280.51 114.673 282.182 114.643 C312.675 114.106 340.829 128.276 362.736 149.1 C366.836 152.966 371.174 156.112 376 159 C381.548 156.744 383.848 151.849 387 147 C387.724 145.909 388.449 144.819 389.195 143.695 C389.924 142.569 390.65 141.441 391.375 140.312 C392.377 138.76 392.377 138.76 393.398 137.176 C395.2 133.603 395.972 131.007 396 127 C393.343 123.001 390.001 122.104 385.5 120.875 C375.881 118.205 375.881 118.205 373.516 114.969 C370.411 108.912 368.771 103.816 370 97 C372.595 91.02 377.177 88.411 383 86 C386.965 84.81 390.948 83.843 395 83 C393.692 70.825 383.313 57.64 375.25 48.812 C372.551 46.638 370.375 45.879 367.467 48.25 Z M279 127 C278.118 129.431 277.804 130.55 278.855 132.965 C279.295 133.616 279.735 134.267 280.188 134.938 C280.828 135.91 280.828 135.91 281.48 136.902 C288 145.903 296.447 152.033 305.562 158.188 C341.827 182.71 341.827 182.71 346 193 C345.585 192.622 345.17 192.245 344.742 191.855 C328.563 177.402 312.917 164.532 290.227 164.785 C280.644 165.423 271.768 168.005 265.027 175.066 C263.808 176.466 262.612 177.885 261.445 179.328 C260 181 260 181 258 182 C262.069 173.863 267.673 169.531 275.496 165.078 C275.992 164.722 276.489 164.367 277 164 C277 163.34 277 162.68 277 162 C273.863 160.432 270.604 161.09 267.188 161.312 C266.054 161.382 266.054 161.382 264.897 161.453 C258.189 161.906 251.619 162.814 245 164 C251.534 159.949 256.645 158.875 264.402 158.867 C266.223 158.864 266.223 158.864 268.081 158.861 C269.354 158.866 270.626 158.87 271.938 158.875 C273.234 158.877 274.53 158.879 275.866 158.881 C284.615 158.92 293.29 159.158 302 160 C297.195 153.461 292.104 149.184 284.07 147.32 C277.811 146.381 271.538 145.96 265.227 145.547 C264.009 145.466 262.791 145.385 261.536 145.302 C259.109 145.146 256.68 145.002 254.251 144.872 C244.306 144.266 235.073 142.37 225.75 138.812 C224.837 138.468 223.925 138.124 222.984 137.77 C222.33 137.516 221.675 137.262 221 137 C220.042 140.051 219.924 140.801 221.125 143.938 C224.531 149.501 228.188 152.218 234 155 C232.875 155.121 231.749 155.242 230.59 155.367 C226.542 155.806 222.496 156.261 218.451 156.722 C216.891 156.899 215.332 157.073 213.772 157.243 C211.763 157.463 209.757 157.7 207.75 157.938 C206.01 158.137 206.01 158.137 204.234 158.34 C198.116 159.589 194.573 161.916 191 167 C191.639 169.476 191.639 169.476 193 172 C195.524 173.361 195.524 173.361 198 174 C197.125 175.021 196.25 176.042 195.375 177.062 C194.549 178.037 194.549 178.037 193.707 179.031 C192.672 180.225 191.613 181.398 190.512 182.531 C182.637 190.851 176.209 204.189 176.484 215.785 C178.086 222.663 183.176 229.173 189 233 C190.485 232.505 190.485 232.505 192 232 C193.105 229.599 194.016 227.301 194.875 224.812 C195.134 224.096 195.393 223.379 195.66 222.641 C196.919 219.142 198.13 215.627 199.324 212.105 C204.813 196.125 204.813 196.125 211 192 C210.965 192.834 210.93 193.668 210.895 194.527 C210.699 202.647 210.83 209.736 215.812 216.438 C220.389 219.707 224.512 220.092 230 220 C230.04 219.361 230.079 218.722 230.12 218.063 C231.259 200.613 232.417 188.115 245 175 C246.305 173.963 247.629 172.947 249 172 C247.125 177.75 247.125 177.75 246 180 C245.419 184.764 245.549 188.145 247.812 192.438 C249.923 195.146 249.923 195.146 253 197 C254.32 197 255.64 197 257 197 C257.464 195.732 257.464 195.732 257.938 194.438 C262.171 186.109 272.749 181.326 281 178 C291.969 174.693 302.88 175.605 313 181 C330.396 191.906 341.977 208.787 354 225 C356.243 223.188 356.243 223.188 356.195 220.617 C356.172 219.712 356.149 218.807 356.125 217.875 C356.107 216.965 356.089 216.055 356.07 215.117 C356.047 214.419 356.024 213.72 356 213 C356.66 213 357.32 213 358 213 C358.66 214.32 359.32 215.64 360 217 C360.939 197.705 354.664 183.3 342 169 C341.002 167.838 341.002 167.838 339.984 166.652 C320.032 143.638 320.032 143.638 293.18 130.773 C290.434 130.106 287.931 129.295 285.312 128.25 C282.122 126.823 282.122 126.823 279 127 Z M408 147 C406.362 148.638 406.638 150.767 406.375 153.027 C405.015 161.483 401.532 168.832 398 176.562 C397.317 178.082 396.633 179.601 395.951 181.12 C389.478 195.441 382.605 209.297 373.918 222.415 C368.254 231.047 366.487 239.746 367 250 C367.66 250.99 368.32 251.98 369 253 C372.091 250.442 372.971 247.747 374.25 244 C377.945 234.035 383.849 222.531 393.375 217.062 C394.241 216.712 395.108 216.361 396 216 C394.716 219.509 393.21 222.368 391.031 225.398 C390.46 226.208 389.889 227.017 389.301 227.852 C388.104 229.529 386.903 231.203 385.699 232.875 C380.117 240.814 378.367 247.079 379.344 256.793 C381.014 264.955 387.257 270.615 392.852 276.445 C395.392 279.466 397.125 282.531 399 286 C398.613 285.582 398.225 285.165 397.826 284.734 C396.031 282.801 394.234 280.869 392.438 278.938 C391.828 278.281 391.219 277.624 390.592 276.947 C387.502 273.629 384.39 270.335 381.219 267.094 C380.396 266.252 380.396 266.252 379.557 265.393 C377.562 263.608 375.572 262.701 373 262 C374.304 271.946 379.515 279.675 385.684 287.367 C390.04 292.878 393.902 298.689 397.75 304.562 C398.689 305.98 398.689 305.98 399.646 307.427 C410.082 323.476 416.152 339.629 413.602 359.031 C411.758 365.713 408.236 371.904 405 378 C410.704 378.466 414.503 377.474 419 374 C425.876 368.074 427.593 360.954 428.316 352.145 C428.899 338.023 425.618 324.568 420.734 311.383 C420 309 420 309 420 305 C421.093 304.918 422.186 304.835 423.312 304.75 C426.948 304.318 426.948 304.318 429 302.312 C430.455 298.947 430.165 297.503 429 294 C426.439 291.401 423.536 289.352 420.562 287.25 C419.001 286.11 417.439 284.97 415.879 283.828 C415.184 283.332 414.488 282.836 413.772 282.325 C412 281 412 281 410 279 C410 278.01 410 277.02 410 276 C411.665 274.545 411.665 274.545 413.98 273.039 C414.815 272.485 415.65 271.93 416.51 271.359 C417.393 270.787 418.277 270.215 419.188 269.625 C428.462 264.165 428.462 264.165 434.902 255.922 C435.144 251.173 431.976 247.214 429.125 243.668 C426.296 240.561 426.296 240.561 423 238 C419.041 238.164 416.439 239.789 413.188 241.938 C404.819 247.072 398.665 247.315 389 246 C389 245.01 389 244.02 389 243 C389.929 242.504 390.859 242.007 391.816 241.496 C402.544 235.654 410.908 229.603 416 218 C416.397 215.373 416.397 215.373 416 213 C413.379 210.753 411.91 209.933 408.438 210.188 C406.151 210.95 404.139 211.901 402 213 C403.436 207.616 405.118 202.545 407.5 197.5 C411.711 188.461 413.623 179.297 415.352 169.539 C415.82 166.981 416.359 164.514 417 162 C417.461 158.512 417.673 156.076 415.766 153.027 C413.274 150.024 411.766 148.255 408 147 Z M62 163 C59.129 169.962 57.493 177.032 55.875 184.375 C55.354 186.717 54.83 189.058 54.305 191.398 C54.078 192.426 53.851 193.454 53.617 194.513 C53 197 53 197 52 199 C51.34 199 50.68 199 50 199 C48.534 196.857 47.189 194.733 45.875 192.5 C45.502 191.88 45.13 191.26 44.746 190.621 C43.824 189.085 42.911 187.543 42 186 C41.01 186.33 40.02 186.66 39 187 C38.842 193.66 39.407 199.879 40.461 206.449 C40.687 207.912 40.687 207.912 40.917 209.404 C41.397 212.5 41.886 215.594 42.375 218.688 C42.854 221.756 43.331 224.826 43.808 227.895 C44.116 229.875 44.426 231.854 44.738 233.833 C45.764 240.365 46.687 246.901 47.495 253.464 C47.878 256.231 47.878 256.231 50 259 C54.576 259.826 58.833 259.524 63.062 257.625 C65.097 256.137 65.097 256.137 66 254 C66.081 252.367 66.161 250.734 66.24 249.101 C67.063 236.333 72.573 225.511 77.716 213.975 C82.245 203.802 82.245 203.802 84 193 C79.733 194.382 77.377 196.322 74.312 199.562 C70.168 203.916 70.168 203.916 68 205 C67.963 204.028 67.925 203.056 67.887 202.055 C67.494 193.356 66.706 184.758 65.562 176.125 C65.44 175.168 65.318 174.212 65.192 173.226 C65.068 172.329 64.944 171.432 64.816 170.508 C64.708 169.71 64.599 168.912 64.487 168.09 C64.062 165.712 64.062 165.712 62 163 Z M390 185 C388.253 187.373 386.601 189.802 384.941 192.236 C384.53 192.839 384.119 193.442 383.695 194.062 C383.263 194.698 382.83 195.334 382.384 195.988 C380.939 198.089 379.468 200.171 377.992 202.25 C377.494 202.957 376.997 203.664 376.484 204.393 C375.51 205.776 374.53 207.155 373.543 208.529 C371.127 211.986 369.399 214.682 369 219 C377.516 211.283 389.464 196.726 391 185 C390.67 185 390.34 185 390 185 Z M366 222 C364.522 224.957 364.94 227.742 365 231 C367.097 228.64 367.969 227.454 368.188 224.25 C368.126 223.507 368.064 222.765 368 222 C367.34 222 366.68 222 366 222 Z M342.188 251.188 C340.389 255.448 340.327 259.447 341 264 C342.791 267.25 343.93 268.537 347.312 270 C352.22 270 355.768 268.102 359.375 264.875 C361.587 260.962 362.341 257.492 362 253 C360.052 249.104 357.861 246.106 354 244 C348.024 242.774 345.68 246.973 342.188 251.188 Z M367 262 C365.86 272.031 371.537 281.073 377.301 288.875 C380.461 292.827 383.866 296.091 388 299 C386.731 294.559 385.103 291.491 382.25 287.875 C376.343 279.981 371.871 271.729 370 262 C369.01 262 368.02 262 367 262 Z M54 265 C52.501 267.696 51.993 268.825 52.125 272 C53.134 275.459 54.166 276.814 57 279 C58.889 280.076 58.889 280.076 61 280 C64.111 278.667 65.638 277.609 67.375 274.688 C68.125 271.463 67.798 269.194 67 266 C65.914 264.687 65.914 264.687 63.277 264.902 C62.175 264.914 61.073 264.926 59.938 264.938 C58.833 264.947 57.728 264.956 56.59 264.965 C55.735 264.976 54.881 264.988 54 265 Z M48 281 C47.734 281.748 47.469 282.495 47.195 283.266 C46.666 284.743 46.666 284.743 46.125 286.25 C45.777 287.225 45.429 288.199 45.07 289.203 C44 292 44 292 42.922 294.035 C41.803 296.42 41.493 298.583 41.125 301.188 C40.206 306.622 38.429 311.086 36 316 C34.061 320.057 32.582 323.401 33 328 C34.65 328.33 36.3 328.66 38 329 C42.394 322.843 46.566 316.603 50.52 310.152 C52 308 52 308 54 307 C54.231 308.079 54.461 309.158 54.699 310.27 C59.027 335.506 59.027 335.506 70 358 C70.66 357.67 71.32 357.34 72 357 C71.864 356.322 71.728 355.645 71.589 354.947 C68.613 340.011 65.972 325.101 64 310 C65.949 310.348 65.949 310.348 68 311 C68.667 313 69.333 315 70 317 C73.874 323.435 78.477 328.931 84 334 C85.546 329.302 83.596 326.158 81.625 321.875 C77.506 312.583 74.169 303.102 70.971 293.458 C70.612 292.388 70.253 291.318 69.883 290.215 C69.567 289.257 69.251 288.299 68.926 287.312 C68.118 284.856 68.118 284.856 66 283 C63.574 282.572 63.574 282.572 60.812 282.438 C56.498 282.12 52.274 281.665 48 281 Z M168 306 C168.183 314.246 172.708 320.745 178.453 326.426 C189.238 335.934 189.238 335.934 202 341 C202.495 342.98 202.495 342.98 203 345 C197.72 346.32 192.44 347.64 187 349 C187 350.32 187 351.64 187 353 C188.415 353.65 189.832 354.295 191.25 354.938 C192.039 355.297 192.828 355.657 193.641 356.027 C203.693 360.172 216.643 356.987 227 355 C226.505 356.176 226.01 357.351 225.5 358.562 C223.758 363.306 222.925 367.361 224.902 372.215 C225.875 374.185 226.895 376.101 228 378 C230.024 377.46 230.024 377.46 232 376 C233.07 373.01 233.07 373.01 233.625 369.562 C234.82 363.27 234.82 363.27 237 360 C239.763 360.523 242.326 361.109 245 362 C245.703 363.314 246.366 364.651 247 366 C248.473 367.777 248.473 367.777 250.188 369.453 C250.804 370.072 251.42 370.691 252.055 371.328 C253.018 372.279 253.018 372.279 254 373.25 C254.642 373.9 255.284 374.549 255.945 375.219 C256.87 376.139 256.87 376.139 257.812 377.078 C258.657 377.92 258.657 377.92 259.52 378.778 C260.937 380.212 260.937 380.212 263 380 C263.268 378.866 263.536 377.731 263.812 376.562 C264.204 375.387 264.596 374.211 265 373 C267.965 372.012 270.201 371.793 273.305 371.641 C290.247 370.767 290.247 370.767 306 365 C306.573 364.708 307.145 364.416 307.735 364.116 C322.742 356.414 333.287 346.591 339.355 330.504 C340.429 326.333 340.327 322.269 340 318 C336.963 319.406 334.471 321.101 331.812 323.125 C327.197 326.401 322.418 328.91 317.312 331.312 C316.6 331.65 315.888 331.987 315.154 332.334 C303.371 337.749 289.572 339.325 276.832 336.23 C274.309 335.034 272.242 333.666 270 332 C268.888 331.249 267.773 330.502 266.656 329.758 C260.049 325.272 253.968 320.434 248.184 314.91 C243.436 310.757 240.343 309.627 234 310 C235.543 314.194 237.585 318.015 239.812 321.875 C240.343 322.8 240.343 322.8 240.885 323.745 C243.368 328.027 246.002 332.065 249 336 C238.699 332.108 230.555 325.877 222.655 318.361 C218.651 314.554 214.52 311.191 210 308 C208.365 309.217 208.365 309.217 207 311 C207.038 313.079 207.038 313.079 207.75 315.25 C208.791 319.177 209.486 322.972 210 327 C204.951 326.446 200.9 324.743 196.438 322.438 C195.741 322.084 195.045 321.73 194.328 321.366 C188.641 318.432 183.208 315.184 177.797 311.766 C174.584 309.737 171.317 307.851 168 306 Z M42 341 C41.34 341.66 40.68 342.32 40 343 C40.254 345.925 40.628 348.297 42.008 350.906 C48.505 364.616 44.206 389.273 39.5 402.75 C36.447 411.193 32.995 419.486 29.623 427.805 C20.04 451.496 20.04 451.496 20.648 476.613 C23.642 483.203 29.076 487.353 35.562 490.25 C51.893 496.077 70.204 494.956 85.98 487.965 C91.869 485.13 97.688 482.151 103.513 479.188 C121.272 470.23 141.552 460.301 161.93 464.621 C171.482 467.888 176.167 475.992 181.617 483.996 C182.847 485.907 182.847 485.907 184 487 C186.373 487.418 186.373 487.418 189 487 C191.79 484.752 192.859 483.423 194 480 C194.808 468.491 190.427 459.027 183.477 450.027 C175.948 441.673 164.002 437.1 153 436 C152.317 435.923 151.634 435.845 150.93 435.766 C134.071 434.737 117.605 444.641 102.941 451.619 C97.362 454.239 91.693 456.64 86 459 C86.464 458.632 86.927 458.265 87.405 457.886 C89.525 456.201 91.637 454.507 93.75 452.812 C94.48 452.234 95.209 451.656 95.961 451.061 C99.76 448.004 103.29 445.116 106 441 C105.841 437.577 105.437 436.437 103 434 C100.117 433.031 97.479 432.882 94.453 432.902 C93.609 432.906 92.764 432.909 91.895 432.912 C91.022 432.92 90.149 432.929 89.25 432.938 C88.362 432.942 87.474 432.947 86.559 432.951 C84.372 432.963 82.186 432.979 80 433 C82.41 429.873 83.553 429.058 87.539 428.539 C88.901 428.544 90.264 428.574 91.625 428.625 C92.692 428.648 92.692 428.648 93.781 428.671 C101.68 428.919 108.206 429.804 115 434 C117.069 433.924 117.069 433.924 119 433 C122.4 427.355 123.141 419.461 123 413 C121.364 407.48 117.848 404.766 113 402 C109.52 400.84 106.667 400.796 103 400.75 C101.763 400.724 100.525 400.698 99.25 400.672 C96.095 400.736 96.095 400.736 94.195 402.195 C92.722 404.42 91.801 406.623 90.875 409.125 C89.083 413.917 89.083 413.917 88 415 C88 413.02 88 411.04 88 409 C80.461 409.193 75.571 414.82 70.125 419.438 C68 421 68 421 65 421 C65.121 420.429 65.242 419.858 65.367 419.27 C69.332 400.084 74.341 374.895 63.25 357.25 C62.194 355.813 61.11 354.396 60 353 C59.439 352.277 58.879 351.554 58.301 350.809 C54.638 346.34 51.28 343.391 46 341 C44.68 341 43.36 341 42 341 Z M123 434 C123 435.32 123 436.64 123 438 C128.38 436.919 133.514 435.588 138.664 433.684 C154.578 429.026 175.884 430.71 190.5 438.625 C195.088 441.684 198.572 445.614 202.09 449.828 C203.996 452.184 203.996 452.184 207 454 C208.1 453.798 209.199 453.595 210.332 453.387 C214 453 214 453 216.887 454.52 C217.811 455.276 218.735 456.033 219.688 456.812 C220.715 457.637 221.742 458.462 222.801 459.312 C223.869 460.206 224.935 461.102 226 462 C227.076 462.896 228.153 463.792 229.23 464.688 C231.237 466.357 233.227 468.041 235.211 469.738 C239.904 473.544 243.966 476.309 249.875 477.75 C250.842 477.992 251.809 478.235 252.805 478.484 C253.529 478.655 254.254 478.825 255 479 C254.699 475.921 254.101 475.084 251.672 473.07 C250.708 472.428 249.743 471.786 248.75 471.125 C244.372 468.085 241.118 465.301 238 461 C241.606 462.362 244.878 464.016 248.25 465.875 C262.359 473.026 284.448 477.665 300.015 473.455 C305.016 471.562 309.019 469.471 312 465 C311.67 464.67 311.34 464.34 311 464 C309.558 464.097 308.121 464.257 306.688 464.438 C297.821 465.355 288.902 465.078 280 465 C280 464.34 280 463.68 280 463 C280.928 462.814 281.856 462.629 282.812 462.438 C288.684 460.765 296.148 457.113 299.324 451.773 C299.547 451.188 299.77 450.603 300 450 C294.789 450.444 290.82 451.789 286.113 454.062 C280.403 456.596 274.817 456.072 268.688 455.875 C267.687 455.865 266.686 455.854 265.654 455.844 C251.195 455.367 238.985 449.315 226.421 442.756 C213.911 436.241 201.509 430.179 188 426 C186.989 425.648 185.979 425.296 184.938 424.934 C165.624 418.952 139.823 422.785 123 434 Z M325 440 C325 440.66 325 441.32 325 442 C325.748 442.387 326.495 442.773 327.266 443.172 C328.25 443.693 329.235 444.213 330.25 444.75 C331.225 445.26 332.199 445.771 333.203 446.297 C336.54 448.329 339.3 450.199 340.75 453.93 C341.225 457.623 341.135 459.671 339.688 463.188 C332.678 470.523 323.124 472.166 313.562 474.203 C310.18 474.809 310.18 474.809 308 476 C309.397 479.304 310.944 481.054 313.812 483.188 C314.812 483.951 314.812 483.951 315.832 484.73 C321.126 487.83 325.555 486.709 331.25 485.25 C332.39 484.963 332.39 484.963 333.553 484.671 C335.047 484.29 336.539 483.904 338.03 483.511 C339.6 483.104 341.179 482.735 342.762 482.379 C350.057 480.48 356.029 475.269 360.297 469.137 C363.012 463.565 362.704 457.637 360.938 451.875 C358.388 445.828 353.468 442.546 347.75 439.688 C339.861 436.483 332.524 435.82 325 440 Z " fill="#FBFBFB" transform="translate(15,15)"/>
<path d="M0 0 C2.184 -0.001 4.368 -0.003 6.552 -0.005 C12.458 -0.01 18.363 -0.008 24.269 -0.005 C30.521 -0.002 36.773 -0.005 43.026 -0.006 C54.242 -0.008 65.458 -0.005 76.673 -0 C88.024 0.005 99.374 0.002 110.724 -0.003 C121.155 -0.007 131.587 -0.008 142.019 -0.005 C148.199 -0.004 154.378 -0.003 160.558 -0.007 C186.975 -0.019 213.383 0.127 239.796 0.575 C240.975 0.595 242.153 0.614 243.367 0.634 C260.3 0.919 277.216 1.455 294.137 2.129 C296.579 2.225 299.021 2.32 301.463 2.415 C302.561 2.458 303.658 2.501 304.789 2.545 C320.955 3.17 337.123 3.439 353.298 3.663 C356.057 3.701 358.815 3.741 361.574 3.78 C366.17 3.846 370.766 3.912 375.362 3.977 C396.436 4.275 396.436 4.275 404.127 4.458 C406.117 4.503 408.108 4.532 410.098 4.561 C411.809 4.607 411.809 4.607 413.555 4.653 C414.979 4.683 414.979 4.683 416.431 4.713 C419.708 5.242 421.416 6.037 424.012 8.129 C424.585 10.735 424.794 12.724 424.812 15.348 C424.836 16.094 424.86 16.84 424.885 17.608 C424.956 20.115 424.987 22.621 425.012 25.129 C425.042 26.9 425.072 28.67 425.101 30.44 C425.185 36.504 425.202 42.567 425.218 48.632 C425.227 50.949 425.237 53.267 425.248 55.585 C425.275 61.825 425.296 68.066 425.316 74.306 C425.338 80.847 425.365 87.388 425.392 93.929 C425.436 104.891 425.477 115.853 425.515 126.815 C425.555 138.097 425.596 149.379 425.64 160.66 C425.643 161.358 425.646 162.055 425.648 162.774 C425.662 166.274 425.676 169.773 425.69 173.273 C425.803 202.225 425.91 231.177 426.012 260.129 C428.099 258.53 430.185 256.929 432.27 255.328 C432.858 254.878 433.445 254.428 434.051 253.964 C438.13 250.83 442.128 247.628 446.012 244.254 C446.513 243.828 447.013 243.401 447.528 242.961 C456.851 234.928 465.747 226.49 474.36 217.704 C475.072 216.979 475.784 216.254 476.518 215.508 C479.461 212.51 482.403 209.511 485.326 206.494 C487.493 204.261 489.675 202.044 491.86 199.829 C492.521 199.139 493.181 198.45 493.861 197.74 C494.48 197.118 495.098 196.496 495.735 195.855 C496.273 195.302 496.812 194.75 497.366 194.181 C499.012 193.129 499.012 193.129 501.217 193.459 C501.81 193.68 502.402 193.901 503.012 194.129 C502.434 198.386 499.865 201.413 497.45 204.817 C489.442 216.512 480.012 232.457 480.012 247.129 C480.88 247.149 481.748 247.169 482.643 247.189 C485.86 247.267 489.076 247.354 492.293 247.447 C493.686 247.485 495.078 247.52 496.471 247.551 C498.472 247.597 500.473 247.656 502.473 247.715 C503.678 247.747 504.882 247.778 506.123 247.811 C509.012 248.129 509.012 248.129 511.012 250.129 C511.059 253.352 511.059 253.352 510.762 257.192 C510.631 259.096 510.631 259.096 510.497 261.04 C510.337 262.059 510.177 263.079 510.012 264.129 C507.221 265.525 504.81 265.347 501.692 265.446 C500.435 265.488 499.178 265.53 497.884 265.573 C496.565 265.612 495.246 265.651 493.887 265.692 C492.548 265.735 491.208 265.779 489.868 265.823 C486.583 265.929 483.298 266.031 480.012 266.129 C479.804 277.89 479.644 289.651 479.546 301.413 C479.499 306.875 479.436 312.336 479.333 317.797 C479.236 323.069 479.182 328.339 479.159 333.612 C479.142 335.622 479.109 337.632 479.061 339.642 C478.328 350.195 478.328 350.195 481.9 359.657 C484.266 361.293 486.285 362.244 489.012 363.129 C489.883 363.519 490.753 363.909 491.65 364.311 C494.064 365.44 494.064 365.44 496.575 364.067 C499.181 361.995 501.054 359.813 503.012 357.129 C504.662 357.459 506.312 357.789 508.012 358.129 C506.322 362.089 503.645 365.2 500.95 368.504 C495.038 375.886 489.375 383.642 485.012 392.06 C482.466 396.925 482.466 396.925 480.082 397.999 C478.012 398.129 478.012 398.129 476.432 397.053 C475.679 396.223 475.679 396.223 474.911 395.375 C474.344 394.771 473.777 394.166 473.193 393.543 C472.597 392.891 472.001 392.239 471.387 391.567 C461.192 380.966 450.794 376.638 437.012 372.129 C437.012 370.809 437.012 369.489 437.012 368.129 C441.084 365.129 441.084 365.129 444.012 365.129 C446.46 358.891 447.442 353.526 447.353 346.846 C447.354 345.527 447.354 345.527 447.354 344.182 C447.352 341.309 447.329 338.436 447.305 335.563 C447.3 333.558 447.296 331.553 447.293 329.548 C447.281 324.296 447.252 319.043 447.218 313.791 C447.188 308.421 447.174 303.052 447.159 297.682 C447.127 287.164 447.074 276.647 447.012 266.129 C439.752 265.799 432.492 265.469 425.012 265.129 C425.015 267.621 425.017 270.112 425.019 272.678 C425.04 296.357 425.055 320.036 425.064 343.714 C425.069 355.883 425.076 368.051 425.088 380.219 C425.098 390.85 425.104 401.481 425.107 412.112 C425.108 417.718 425.111 423.324 425.118 428.93 C425.146 450.833 425.096 472.732 424.687 494.632 C424.651 496.635 424.616 498.639 424.585 500.644 C424.541 503.409 424.484 506.173 424.423 508.938 C424.412 509.739 424.401 510.541 424.389 511.367 C424.249 516.817 423.369 521.852 422.012 527.129 C373.027 527.152 324.042 527.17 275.057 527.18 C269.24 527.182 263.424 527.183 257.608 527.184 C256.451 527.185 255.293 527.185 254.1 527.185 C235.489 527.189 216.877 527.197 198.265 527.207 C179.091 527.216 159.917 527.221 140.742 527.223 C130.005 527.225 119.268 527.228 108.53 527.235 C30.964 527.287 30.964 527.287 -2.751 526.686 C-3.875 526.666 -4.998 526.647 -6.156 526.627 C-11.95 526.522 -17.741 526.392 -23.533 526.207 C-25.15 526.156 -26.767 526.11 -28.384 526.071 C-30.529 526.016 -32.671 525.935 -34.815 525.845 C-36.554 525.783 -36.554 525.783 -38.328 525.719 C-40.988 525.129 -40.988 525.129 -42.358 523.506 C-43.182 520.397 -43.236 517.61 -43.235 514.389 C-43.238 513.366 -43.238 513.366 -43.242 512.323 C-43.248 510.022 -43.239 507.722 -43.23 505.421 C-43.232 503.753 -43.233 502.086 -43.236 500.418 C-43.241 495.799 -43.233 491.179 -43.223 486.56 C-43.214 481.518 -43.217 476.476 -43.218 471.435 C-43.218 461.407 -43.206 451.38 -43.19 441.353 C-43.178 433.117 -43.169 424.88 -43.164 416.644 C-43.138 379.139 -43.072 341.634 -42.988 304.129 C-42.986 303.358 -42.984 302.588 -42.982 301.793 C-42.875 254.192 -42.746 206.591 -42.597 158.99 C-42.57 150.646 -42.545 142.301 -42.52 133.956 C-42.517 132.715 -42.517 132.715 -42.513 131.448 C-42.511 130.622 -42.508 129.796 -42.506 128.944 C-42.459 112.934 -42.408 96.923 -42.351 80.913 C-42.324 73.512 -42.299 66.111 -42.278 58.709 C-42.259 51.886 -42.235 45.063 -42.207 38.239 C-42.198 35.756 -42.19 33.273 -42.184 30.79 C-42.176 27.418 -42.162 24.045 -42.146 20.672 C-42.144 19.209 -42.144 19.209 -42.143 17.716 C-42.081 7.512 -42.081 7.512 -40.988 3.129 C-32.97 -3.611 -9.967 -0.01 0 0 Z M7.76 6.543 C4.936 6.575 2.111 6.604 -0.714 6.634 C-5.096 6.68 -9.479 6.731 -13.861 6.787 C-15.463 6.807 -17.066 6.826 -18.668 6.842 C-20.85 6.866 -23.032 6.895 -25.214 6.926 C-26.434 6.941 -27.653 6.956 -28.909 6.972 C-32.545 7.127 -32.545 7.127 -35.988 8.129 C-37.226 11.846 -37.351 15.423 -37.542 19.303 C-37.584 20.142 -37.626 20.981 -37.67 21.845 C-38.164 32.676 -38.127 43.509 -38.117 54.35 C-38.118 56.742 -38.12 59.134 -38.122 61.526 C-38.126 67.349 -38.126 73.173 -38.123 78.997 C-38.12 83.812 -38.12 88.627 -38.122 93.442 C-38.122 94.138 -38.122 94.835 -38.122 95.552 C-38.123 96.971 -38.123 98.39 -38.124 99.81 C-38.128 114.048 -38.124 128.287 -38.118 142.526 C-38.114 152.658 -38.111 162.789 -38.11 172.92 C-38.101 257.608 -37.939 342.294 -36.988 519.129 C-31.925 521.161 -27.636 521.407 -22.279 521.363 C-21.413 521.364 -20.547 521.365 -19.654 521.366 C-16.753 521.367 -13.852 521.354 -10.951 521.341 C-8.865 521.338 -6.778 521.337 -4.691 521.337 C-0.178 521.334 4.334 521.324 8.847 521.31 C16.106 521.288 23.364 521.28 30.623 521.274 C43.569 521.261 56.514 521.236 69.46 521.208 C92.265 521.16 115.07 521.126 137.876 521.102 C139.752 521.1 139.752 521.1 141.666 521.098 C179.381 521.058 217.092 521.197 254.805 521.563 C256.386 521.578 256.386 521.578 257.998 521.593 C281.272 521.814 304.543 522.122 327.814 522.54 C330.091 522.581 332.368 522.621 334.646 522.659 C355.025 523.006 355.025 523.006 364.371 523.919 C369.571 524.334 374.783 524.251 379.997 524.227 C381.178 524.226 382.36 524.224 383.577 524.223 C387.306 524.217 391.034 524.205 394.762 524.192 C397.309 524.187 399.856 524.182 402.403 524.178 C408.606 524.167 414.809 524.151 421.012 524.129 C421.119 432.156 421.089 340.183 420.723 187.412 C420.72 186.165 420.72 186.165 420.716 184.892 C420.714 184.061 420.711 183.23 420.709 182.374 C420.706 181.543 420.704 180.712 420.701 179.856 C420.697 178.18 420.692 176.504 420.687 174.828 C420.65 162.253 420.619 149.677 420.591 137.101 C420.558 122.663 420.519 108.224 420.47 93.786 C420.445 86.327 420.423 78.869 420.409 71.41 C420.397 64.525 420.374 57.64 420.345 50.754 C420.336 48.25 420.33 45.745 420.328 43.241 C420.325 39.833 420.309 36.426 420.291 33.018 C420.294 31.548 420.294 31.548 420.297 30.047 C420.411 20.192 420.411 20.192 416.663 11.409 C413.796 9.187 410.252 9.585 406.759 9.504 C405.884 9.473 405.01 9.441 404.109 9.409 C402.146 9.34 400.184 9.278 398.221 9.222 C394.873 9.125 391.527 9.008 388.181 8.887 C354.974 7.716 321.755 6.982 288.53 6.604 C285.845 6.574 283.16 6.543 280.474 6.511 C238.787 6.031 197.1 5.975 155.41 6.001 C148.49 6.005 141.57 6.003 134.651 5.999 C92.352 5.974 50.057 6.07 7.76 6.543 Z " fill="#EDEDED" transform="translate(44.987548828125,-0.12939453125)"/>
<path d="M0 0 C0.28 1.016 0.559 2.032 0.848 3.078 C4.204 14.794 8.938 24.155 16.5 33.812 C28.081 48.944 34.505 68.963 33 88 C28.169 111.909 9.117 129.114 -10.133 142.324 C-18.605 148.143 -25.335 154.67 -30 164 C-35.026 163.636 -37.241 161.047 -40.438 157.5 C-52.419 144.935 -68.428 137.025 -84.926 132.02 C-87.475 130.767 -88.021 129.613 -89 127 C-87.907 126.299 -86.814 125.597 -85.688 124.875 C-81.378 121.784 -79.545 118.564 -78.437 113.35 C-77.911 109.317 -77.868 105.395 -77.886 101.333 C-77.886 100.483 -77.886 99.634 -77.886 98.758 C-77.887 95.967 -77.894 93.175 -77.902 90.383 C-77.904 88.441 -77.906 86.499 -77.907 84.557 C-77.91 79.457 -77.92 74.358 -77.931 69.258 C-77.942 64.05 -77.946 58.841 -77.951 53.633 C-77.962 43.422 -77.979 33.211 -78 23 C-75.862 21.931 -74.383 21.726 -72.02 21.457 C-48.857 18.619 -26.207 13.099 -6.056 0.955 C-4 0 -4 0 0 0 Z M-46 25 C-46.099 26.779 -46.128 28.563 -46.129 30.345 C-46.133 31.492 -46.136 32.64 -46.139 33.822 C-46.137 35.082 -46.135 36.342 -46.133 37.641 C-46.134 38.947 -46.135 40.253 -46.136 41.598 C-46.137 44.389 -46.135 47.18 -46.13 49.972 C-46.126 52.774 -46.126 55.576 -46.13 58.378 C-46.142 65.878 -46.119 73.377 -46.037 80.877 C-45.998 84.995 -46.022 89.106 -46.092 93.224 C-46.137 96.519 -46.121 99.814 -46.117 103.109 C-46.154 104.307 -46.191 105.505 -46.228 106.739 C-46.207 113.094 -46.207 113.094 -42.867 118.244 C-40.316 120.053 -37.764 121.545 -35 123 C-33.402 124.007 -31.809 125.024 -30.227 126.055 C-28.695 126.998 -27.161 127.938 -25.625 128.875 C-24.845 129.36 -24.065 129.844 -23.262 130.344 C-22.508 130.805 -21.754 131.267 -20.977 131.742 C-20.307 132.153 -19.638 132.564 -18.948 132.988 C-16.947 134.028 -15.223 134.635 -13 135 C-5.385 131.158 -0.9 121.992 1.812 114.312 C6.795 97.577 3.623 79.399 -4.496 64.199 C-7.704 58.884 -11.438 54.227 -15.5 49.562 C-22.958 40.997 -28.186 31.708 -32 21 C-36.906 20.641 -42.32 21.32 -46 25 Z " fill="#FAFAFA" transform="translate(747,232)"/>
<path d="M0 0 C1.602 2.6 1.602 2.6 2.98 5.914 C3.235 6.513 3.49 7.111 3.752 7.728 C4.581 9.687 5.385 11.655 6.188 13.625 C6.753 14.981 7.321 16.336 7.889 17.691 C9.044 20.448 10.188 23.209 11.327 25.973 C12.875 29.72 14.482 33.437 16.105 37.152 C17.029 39.289 17.952 41.426 18.875 43.562 C19.31 44.548 19.744 45.533 20.192 46.547 C20.58 47.461 20.968 48.375 21.367 49.316 C21.709 50.105 22.05 50.893 22.402 51.705 C23.15 54.576 23.027 56.217 22 59 C20.234 60.301 20.234 60.301 17.75 61.312 C16.752 61.725 15.755 62.137 14.727 62.562 C13.497 63.037 12.267 63.511 11 64 C9.892 64.431 9.892 64.431 8.761 64.871 C1.585 67.657 -5.623 70.358 -12.83 73.062 C-27.606 78.574 -27.606 78.574 -42 85 C-38.445 100.65 -34.454 117.806 -20.438 127.5 C-10.656 133.342 -0.171 135.85 11.227 133.551 C12.824 133.055 14.413 132.529 16 132 C18.938 131.875 18.938 131.875 21 132 C20.776 133.831 20.776 133.831 20 136 C18.089 137.413 18.089 137.413 15.582 138.699 C14.664 139.182 13.745 139.664 12.799 140.162 C11.814 140.665 10.828 141.169 9.812 141.688 C7.793 142.753 5.777 143.822 3.762 144.895 C2.775 145.42 1.788 145.945 0.771 146.487 C-7.356 150.925 -15.199 155.992 -22.254 162.004 C-24.661 163.377 -26.278 163.391 -29 163 C-30.174 161.322 -31.34 159.638 -32.445 157.914 C-34.275 155.661 -36.021 154.639 -38.562 153.25 C-49.229 147.248 -57.275 138.774 -63 128 C-63.459 127.139 -63.918 126.278 -64.391 125.391 C-75.836 102.085 -77.116 73.187 -69.086 48.658 C-62.93 30.97 -49.684 16.447 -32.986 7.913 C-26.606 4.98 -19.836 2.859 -13.157 0.716 C-11.317 0.105 -9.509 -0.6 -7.711 -1.324 C-4.26 -2.185 -3.082 -1.729 0 0 Z M-36 18 C-47.201 34.208 -46.151 56.183 -45 75 C-44.67 75.66 -44.34 76.32 -44 77 C-37.403 76.102 -31.45 73.742 -25.267 71.39 C-23.246 70.623 -21.219 69.874 -19.191 69.125 C-17.903 68.639 -16.615 68.152 -15.328 67.664 C-13.579 67.006 -13.579 67.006 -11.794 66.334 C-8.744 65.17 -8.744 65.17 -7 62 C-7.84 59.204 -8.773 56.675 -9.91 54 C-10.234 53.209 -10.558 52.418 -10.892 51.603 C-11.936 49.063 -12.999 46.532 -14.062 44 C-14.753 42.325 -15.443 40.649 -16.131 38.973 C-19.593 30.574 -23.144 22.227 -27 14 C-31.767 14 -32.633 14.794 -36 18 Z " fill="#F9F9F9" transform="translate(983,235)"/>
<path d="M0 0 C12.974 4.987 24.167 12.999 30 26 C30.386 27.655 30.735 29.321 31 31 C35.652 28.623 38.382 25.526 41.625 21.562 C42.673 20.31 43.722 19.058 44.773 17.809 C45.304 17.177 45.835 16.545 46.382 15.894 C48.934 12.906 51.584 10.011 54.25 7.125 C54.728 6.608 55.206 6.09 55.698 5.557 C56.797 4.369 57.898 3.184 59 2 C63.258 3.499 64.392 6.005 66.383 9.926 C66.683 10.51 66.983 11.095 67.293 11.697 C68.248 13.564 69.186 15.438 70.125 17.312 C70.763 18.562 71.403 19.812 72.043 21.061 C74.548 25.973 77.027 30.843 79 36 C78.299 36.822 77.597 37.645 76.875 38.492 C75.917 39.62 74.958 40.747 74 41.875 C73.501 42.461 73.002 43.046 72.488 43.649 C68.759 48.046 65.204 52.551 61.754 57.172 C59.785 59.224 58.713 59.446 56 60 C55.622 59.278 55.244 58.556 54.854 57.813 C53.142 54.557 51.415 51.31 49.688 48.062 C49.093 46.926 48.498 45.79 47.885 44.619 C47.019 43 47.019 43 46.137 41.348 C45.343 39.847 45.343 39.847 44.534 38.317 C43.148 35.707 43.148 35.707 40 35 C38.852 36.289 37.706 37.582 36.562 38.875 C35.924 39.594 35.286 40.314 34.629 41.055 C31.621 44.647 31.834 47.719 31.807 52.216 C31.799 52.959 31.791 53.703 31.782 54.468 C31.757 56.933 31.741 59.398 31.727 61.863 C31.719 63.125 31.719 63.125 31.71 64.413 C31.684 68.867 31.664 73.32 31.65 77.774 C31.633 82.375 31.588 86.974 31.538 91.574 C31.504 95.111 31.492 98.648 31.487 102.185 C31.48 103.881 31.465 105.577 31.441 107.272 C31.409 109.647 31.409 112.021 31.417 114.396 C31.4 115.095 31.384 115.794 31.367 116.514 C31.416 120.381 31.9 121.881 34.421 124.888 C39.871 129.444 39.871 129.444 46.625 131.062 C49.813 129.636 51.676 127.575 54 125 C54.66 124.34 55.32 123.68 56 123 C58.125 123.375 58.125 123.375 60 124 C59.451 128.11 57.259 130.271 54.562 133.312 C50.586 137.915 47.035 142.672 43.688 147.75 C43.267 148.387 42.847 149.025 42.414 149.681 C40.228 153.031 38.148 156.424 36.125 159.875 C34 163 34 163 32.219 164.039 C30 164 30 164 27.336 161.719 C26.34 160.654 25.353 159.581 24.375 158.5 C15.785 149.562 8.01 144.528 -3.932 141.04 C-5.064 140.703 -5.064 140.703 -6.219 140.359 C-6.899 140.168 -7.579 139.977 -8.279 139.78 C-10 139 -10 139 -12 136 C-10.481 132.961 -8.02 132.356 -5 131 C-4.34 131 -3.68 131 -3 131 C-1.32 125.884 -0.707 121.293 -0.725 115.897 C-0.72 115.119 -0.715 114.34 -0.71 113.539 C-0.696 110.985 -0.697 108.432 -0.699 105.879 C-0.695 104.092 -0.691 102.305 -0.686 100.518 C-0.679 96.78 -0.679 93.042 -0.684 89.304 C-0.69 84.529 -0.673 79.753 -0.65 74.978 C-0.635 71.289 -0.634 67.601 -0.637 63.913 C-0.637 62.153 -0.632 60.393 -0.622 58.633 C-0.609 56.166 -0.616 53.7 -0.628 51.233 C-0.62 50.515 -0.612 49.797 -0.605 49.058 C-0.659 43.794 -1.74 39.779 -4 35 C-6.323 33.45 -8.287 32.819 -11 32 C-11.742 32.804 -12.485 33.609 -13.25 34.438 C-15.753 36.77 -16.718 37.635 -20 38 C-21.053 34.753 -21.141 33.337 -19.8 30.141 C-19.192 29.116 -18.584 28.091 -17.957 27.035 C-17.295 25.905 -16.633 24.775 -15.951 23.611 C-15.238 22.428 -14.526 21.245 -13.812 20.062 C-13.118 18.884 -12.424 17.705 -11.732 16.525 C-2.793 1.397 -2.793 1.397 0 0 Z " fill="#FAFAFA" transform="translate(816,232)"/>
<path d="M0 0 C-0.496 4.337 -1.302 6.896 -4 10.312 C-13.752 23.696 -20.377 38.615 -23 55 C-22.096 54.995 -21.193 54.99 -20.262 54.984 C-16.92 54.967 -13.579 54.955 -10.238 54.945 C-8.789 54.94 -7.341 54.933 -5.893 54.925 C-3.815 54.912 -1.738 54.907 0.34 54.902 C1.591 54.897 2.843 54.892 4.133 54.886 C7 55 7 55 8 56 C8.126 58.122 8.176 60.249 8.188 62.375 C8.202 63.538 8.216 64.7 8.23 65.898 C8 69 8 69 6 72 C3.111 72.341 3.111 72.341 -0.539 72.293 C-2.492 72.278 -2.492 72.278 -4.484 72.264 C-5.865 72.239 -7.245 72.213 -8.625 72.188 C-10.013 72.172 -11.401 72.159 -12.789 72.146 C-16.193 72.111 -19.596 72.062 -23 72 C-23.023 83.683 -23.041 95.365 -23.052 107.048 C-23.057 112.473 -23.064 117.897 -23.075 123.322 C-23.086 128.554 -23.092 133.786 -23.095 139.019 C-23.097 141.018 -23.1 143.016 -23.106 145.015 C-23.113 147.809 -23.114 150.604 -23.114 153.398 C-23.119 154.644 -23.119 154.644 -23.124 155.915 C-23.118 159.203 -23.047 161.858 -22 165 C-19.408 166.994 -19.408 166.994 -16.25 168.812 C-15.203 169.458 -14.157 170.104 -13.078 170.77 C-10.109 172.292 -10.109 172.292 -7.285 171.395 C-5.074 170.045 -3.745 168.922 -2.188 166.875 C-1.466 165.926 -0.744 164.977 0 164 C1.65 164.33 3.3 164.66 5 165 C4.418 168.631 3.03 170.322 0.5 172.938 C-5.582 179.574 -10.608 186.987 -15.242 194.688 C-15.601 195.284 -15.96 195.881 -16.33 196.495 C-17.323 198.162 -18.298 199.839 -19.273 201.516 C-21 204 -21 204 -24 205 C-27.364 202.851 -29.73 200.164 -32.25 197.125 C-40.979 187.007 -53.594 182.928 -66 179 C-65.875 176.688 -65.875 176.688 -65 174 C-63 173 -61 172 -59 171 C-55.673 165.972 -55.558 161.597 -55.568 155.782 C-55.557 154.874 -55.547 153.966 -55.537 153.03 C-55.507 150.044 -55.497 147.057 -55.488 144.07 C-55.471 141.994 -55.453 139.917 -55.434 137.841 C-55.386 132.386 -55.357 126.932 -55.33 121.477 C-55.301 115.906 -55.254 110.336 -55.209 104.766 C-55.123 93.844 -55.057 82.922 -55 72 C-62.26 72 -69.52 72 -77 72 C-77.33 70.68 -77.66 69.36 -78 68 C-76.784 67.074 -76.784 67.074 -75.543 66.129 C-64.203 57.469 -53.269 48.524 -42.864 38.751 C-40.817 36.828 -38.764 34.91 -36.711 32.992 C-26.739 23.66 -16.926 14.352 -8 4 C-4.5 0 -4.5 0 0 0 Z " fill="#FAFAFA" transform="translate(644,193)"/>
<path d="M0 0 C0.59 0.224 1.179 0.448 1.786 0.679 C1.208 4.935 -1.361 7.962 -3.776 11.367 C-11.784 23.062 -21.214 39.007 -21.214 53.679 C-20.346 53.699 -19.477 53.719 -18.583 53.739 C-15.366 53.817 -12.15 53.904 -8.933 53.996 C-7.54 54.035 -6.148 54.07 -4.755 54.101 C-2.754 54.147 -0.753 54.206 1.247 54.265 C2.452 54.296 3.656 54.328 4.897 54.36 C7.786 54.679 7.786 54.679 9.786 56.679 C9.833 59.902 9.833 59.902 9.536 63.742 C9.449 65.011 9.361 66.281 9.271 67.589 C9.111 68.609 8.951 69.628 8.786 70.679 C5.995 72.075 3.584 71.897 0.466 71.995 C-0.791 72.037 -2.048 72.079 -3.342 72.122 C-4.661 72.162 -5.98 72.201 -7.339 72.242 C-8.678 72.285 -10.018 72.328 -11.358 72.372 C-14.643 72.479 -17.928 72.581 -21.214 72.679 C-21.422 84.44 -21.582 96.201 -21.68 107.963 C-21.727 113.425 -21.79 118.886 -21.892 124.347 C-21.99 129.619 -22.044 134.889 -22.067 140.161 C-22.084 142.172 -22.117 144.182 -22.165 146.192 C-22.898 156.744 -22.898 156.744 -19.326 166.206 C-16.96 167.842 -14.941 168.794 -12.214 169.679 C-11.343 170.069 -10.473 170.459 -9.576 170.861 C-7.162 171.99 -7.162 171.99 -4.651 170.617 C-2.045 168.545 -0.172 166.363 1.786 163.679 C3.436 164.009 5.086 164.339 6.786 164.679 C5.096 168.639 2.419 171.749 -0.276 175.054 C-6.188 182.436 -11.851 190.191 -16.214 198.609 C-18.76 203.475 -18.76 203.475 -21.144 204.548 C-23.214 204.679 -23.214 204.679 -24.794 203.603 C-25.296 203.049 -25.798 202.495 -26.315 201.925 C-26.882 201.321 -27.449 200.716 -28.033 200.093 C-28.629 199.441 -29.225 198.789 -29.839 198.117 C-40.034 187.516 -50.432 183.188 -64.214 178.679 C-64.214 177.359 -64.214 176.039 -64.214 174.679 C-60.142 171.679 -60.142 171.679 -57.214 171.679 C-54.773 165.449 -53.781 160.082 -53.857 153.411 C-53.855 152.534 -53.853 151.656 -53.851 150.752 C-53.848 147.884 -53.866 145.016 -53.885 142.148 C-53.888 140.145 -53.89 138.143 -53.891 136.14 C-53.896 131.961 -53.91 127.782 -53.932 123.603 C-53.961 118.235 -53.972 112.867 -53.976 107.498 C-53.98 103.372 -53.99 99.246 -54.002 95.12 C-54.008 93.139 -54.012 91.158 -54.016 89.177 C-54.023 86.422 -54.037 83.667 -54.052 80.911 C-54.054 80.088 -54.055 79.264 -54.056 78.415 C-53.737 74.746 -53.737 74.746 -55.214 71.679 C-56.7 71.522 -58.193 71.428 -59.686 71.363 C-60.585 71.321 -61.484 71.279 -62.411 71.236 C-63.356 71.196 -64.302 71.157 -65.276 71.117 C-66.225 71.073 -67.175 71.03 -68.153 70.986 C-70.506 70.879 -72.86 70.777 -75.214 70.679 C-72.254 64.327 -66.654 60.25 -61.401 55.804 C-60.15 54.738 -58.898 53.672 -57.647 52.605 C-57.051 52.098 -56.456 51.591 -55.842 51.068 C-53.284 48.886 -50.746 46.684 -48.228 44.456 C-46.916 43.299 -45.597 42.148 -44.271 41.006 C-38.574 36.014 -33.241 30.734 -27.94 25.327 C-27.204 24.579 -26.467 23.83 -25.709 23.058 C-22.629 19.924 -19.552 16.789 -16.492 13.636 C-14.236 11.313 -11.965 9.007 -9.69 6.702 C-8.998 5.982 -8.307 5.261 -7.594 4.519 C-6.622 3.541 -6.622 3.541 -5.63 2.544 C-5.065 1.965 -4.5 1.386 -3.918 0.789 C-2.214 -0.321 -2.214 -0.321 0 0 Z " fill="#FBFBFB" transform="translate(546.2135314941406,193.32095336914063)"/>
<path d="M0 0 C5.153 1.643 9.133 4.771 13.438 7.938 C14.233 8.519 15.029 9.1 15.848 9.699 C45.277 31.309 45.277 31.309 52 41 C51.505 41.99 51.505 41.99 51 43 C50.585 42.622 50.17 42.245 49.742 41.855 C33.563 27.402 17.917 14.532 -4.773 14.785 C-14.339 15.422 -23.292 17.984 -29.973 25.102 C-31.193 26.52 -32.39 27.961 -33.555 29.426 C-34.032 29.945 -34.509 30.465 -35 31 C-35.66 31 -36.32 31 -37 31 C-36.058 25.769 -32.802 22.536 -29 19 C-26.407 17.258 -23.786 15.712 -21.039 14.227 C-18.858 13.163 -18.858 13.163 -18 11 C-25.316 10.815 -32.316 11.53 -39.562 12.5 C-40.667 12.643 -41.771 12.786 -42.908 12.934 C-45.606 13.284 -48.303 13.64 -51 14 C-46.907 8.983 -43.386 7.666 -37 7 C-32.266 6.762 -27.551 6.766 -22.812 6.812 C-21.587 6.813 -20.362 6.814 -19.1 6.814 C-10.69 6.854 -2.379 7.301 6 8 C3.69 6.02 1.38 4.04 -1 2 C-0.67 1.34 -0.34 0.68 0 0 Z " fill="#E6E6E6" transform="translate(310,166)"/>
<path d="M0 0 C5.147 0.338 8.305 1.548 11.75 5.438 C13.185 9.236 13.094 12.453 11.812 16.25 C9.62 18.892 7.879 20.717 4.812 22.25 C2.836 22.372 0.855 22.425 -1.125 22.438 C-2.186 22.452 -3.247 22.466 -4.34 22.48 C-7.188 22.25 -7.188 22.25 -10.188 20.25 C-9.858 18.93 -9.528 17.61 -9.188 16.25 C-7.923 16.068 -7.923 16.068 -6.633 15.883 C-5.537 15.715 -4.441 15.548 -3.312 15.375 C-2.222 15.213 -1.131 15.05 -0.008 14.883 C2.932 14.487 2.932 14.487 4.812 12.25 C4.492 9.647 4.492 9.647 3.812 7.25 C1.502 6.59 -0.808 5.93 -3.188 5.25 C-3.75 3.312 -3.75 3.312 -4.188 1.25 C-3.188 0.25 -3.188 0.25 0 0 Z " fill="#EDEDED" transform="translate(71.1875,461.75)"/>
<path d="M0 0 C-0.69 0.362 -1.381 0.725 -2.092 1.098 C-5.254 2.765 -8.408 4.445 -11.562 6.125 C-12.649 6.695 -13.735 7.265 -14.854 7.852 C-19.61 10.396 -24.057 12.82 -28.09 16.43 C-31 19 -31 19 -34 19 C-31.704 11.527 -24.675 7.953 -18.074 4.445 C-5 -1.667 -5 -1.667 0 0 Z " fill="#DCDCDC" transform="translate(252,184)"/>
<path d="M0 0 C3.5 0.25 3.5 0.25 5.5 2.25 C1.87 2.25 -1.76 2.25 -5.5 2.25 C-3.5 0.25 -3.5 0.25 0 0 Z " fill="#949494" transform="translate(286.5,370.75)"/>
<path d="M0 0 C0.33 0.99 0.66 1.98 1 3 C-0.32 4.32 -1.64 5.64 -3 7 C-3.33 6.34 -3.66 5.68 -4 5 C-2.528 1.264 -2.528 1.264 0 0 Z " fill="#D6D6D6" transform="translate(407,202)"/>
<path d="M0 0 C1.938 0.312 1.938 0.312 4 1 C4.33 1.99 4.66 2.98 5 4 C2.525 3.01 2.525 3.01 0 2 C0 1.34 0 0.68 0 0 Z " fill="#BEBEBE" transform="translate(271,369)"/>
<path d="M0 0 C2.475 0.99 2.475 0.99 5 2 C5 2.66 5 3.32 5 4 C2.525 3.01 2.525 3.01 0 2 C0 1.34 0 0.68 0 0 Z " fill="#C1C1C1" transform="translate(255,363)"/>
<path d="M0 0 C2.475 0.99 2.475 0.99 5 2 C5 2.66 5 3.32 5 4 C2.525 3.01 2.525 3.01 0 2 C0 1.34 0 0.68 0 0 Z " fill="#B6B6B6" transform="translate(241,355)"/>
<path d="M0 0 C0.66 0 1.32 0 2 0 C2.33 1.32 2.66 2.64 3 4 C2.01 4.33 1.02 4.66 0 5 C0 3.35 0 1.7 0 0 Z " fill="#BDBDBD" transform="translate(371,228)"/>
<path d="M0 0 C0.99 0 1.98 0 3 0 C2.34 1.32 1.68 2.64 1 4 C0.34 3.67 -0.32 3.34 -1 3 C-0.67 2.01 -0.34 1.02 0 0 Z " fill="#C5C5C5" transform="translate(213,208)"/>
<path d="M0 0 C0.99 0.33 1.98 0.66 3 1 C2.67 1.99 2.34 2.98 2 4 C1.01 3.01 0.02 2.02 -1 1 C-0.67 0.67 -0.34 0.34 0 0 Z " fill="#CECECE" transform="translate(310,166)"/>
<path d="" fill="#787878" transform="translate(0,0)"/>
<path d="" fill="#B5B5B5" transform="translate(0,0)"/>
<path d="" fill="#A8A8A8" transform="translate(0,0)"/>
<path d="" fill="#6C6C6C" transform="translate(0,0)"/>
</svg>