
<!-- Generator: visioncortex VTracer 0.6.4 -->
<svg version="1.1" xmlns="http://www.w3.org/2000/svg" viewBox="0 0 1194 537" preserveAspectRatio="xMidYMid meet">
<path d="M0 0 C0.992 11.067 1.142 22.036 1.127 33.137 C1.128 35.046 1.13 36.955 1.132 38.864 C1.136 44.076 1.134 49.289 1.131 54.501 C1.128 60.136 1.132 65.771 1.135 71.406 C1.139 82.434 1.138 93.463 1.135 104.491 C1.133 113.463 1.133 122.435 1.134 131.406 C1.134 132.685 1.134 133.964 1.134 135.282 C1.135 137.88 1.135 140.479 1.135 143.078 C1.138 166.739 1.135 190.399 1.13 214.06 C1.125 235.612 1.126 257.164 1.13 278.716 C1.136 302.971 1.138 327.225 1.135 351.48 C1.134 354.072 1.134 356.664 1.134 359.256 C1.134 360.531 1.134 361.806 1.133 363.119 C1.132 372.066 1.134 381.013 1.136 389.959 C1.139 400.884 1.138 411.808 1.133 422.732 C1.13 428.296 1.129 433.861 1.133 439.425 C1.153 477.803 1.153 477.803 0.617 492.506 C0.587 493.437 0.556 494.368 0.525 495.328 C0.328 499.618 -0.029 503.091 -2 507 C-28.944 507.684 -55.883 508.213 -82.834 508.472 C-85.774 508.501 -88.714 508.53 -91.654 508.56 C-122.55 508.871 -153.447 509.074 -184.344 509.25 C-185.255 509.255 -186.166 509.26 -187.105 509.266 C-207.045 509.379 -226.985 509.487 -246.925 509.589 C-256.419 509.638 -265.913 509.688 -275.406 509.738 C-276.338 509.743 -277.27 509.748 -278.231 509.753 C-303.544 509.889 -328.856 510.072 -354.168 510.333 C-357.032 510.363 -359.897 510.391 -362.761 510.42 C-375.14 510.543 -387.519 510.671 -399.897 510.827 C-404.497 510.883 -409.097 510.931 -413.697 510.977 C-415.779 511 -417.861 511.026 -419.943 511.057 C-422.76 511.098 -425.576 511.126 -428.393 511.151 C-429.183 511.166 -429.973 511.181 -430.787 511.196 C-437.643 511.234 -444.255 510.163 -451 509 C-452.062 483.781 -452.319 458.56 -452.525 433.322 C-452.555 429.604 -452.587 425.886 -452.618 422.168 C-453.24 347.269 -453.152 272.367 -453.129 197.466 C-453.125 182.066 -453.126 166.666 -453.13 151.266 C-453.136 133.111 -453.138 114.956 -453.135 96.802 C-453.134 94.876 -453.134 92.95 -453.134 91.025 C-453.134 90.078 -453.134 89.132 -453.133 88.157 C-453.132 81.519 -453.134 74.881 -453.136 68.244 C-453.139 60.236 -453.138 52.228 -453.133 44.221 C-453.13 40.147 -453.129 36.073 -453.133 31.999 C-453.136 28.282 -453.134 24.564 -453.129 20.846 C-453.127 18.854 -453.13 16.862 -453.134 14.87 C-453.131 13.705 -453.129 12.539 -453.126 11.338 C-453.126 10.324 -453.126 9.309 -453.125 8.265 C-453 6 -453 6 -452 5 C-444.058 3.839 -435.948 3.737 -427.938 3.5 C-427.284 3.48 -426.631 3.46 -425.958 3.44 C-377.724 1.979 -329.46 1.531 -281.208 1.033 C-277.931 0.999 -274.653 0.965 -271.376 0.93 C-181.674 -0.01 -91.98 -0.124 0 0 Z M-254.23 38.875 C-256 40 -256 40 -257.922 39.945 C-260.74 38.663 -262.858 36.836 -265.25 34.875 C-269.699 31.393 -269.699 31.393 -275.062 30.75 C-276.997 31.241 -276.997 31.241 -279 32 C-279.861 32.245 -280.722 32.49 -281.609 32.742 C-285.856 34.129 -288.398 35.204 -291.125 38.812 C-293.601 46.889 -292.708 56.178 -290 64 C-289.4 71.755 -292.181 78.039 -297 84 C-300.375 87.125 -303.952 88.229 -308.5 88.438 C-312.976 88.208 -316.116 87.253 -320 85 C-324.549 79.12 -323.667 72.03 -323 65 C-321.659 60.196 -318.814 56.717 -315.812 52.812 C-312.682 48.857 -312.682 48.857 -312 44 C-313.712 38.845 -316.009 33.756 -320 30 C-322.809 28.74 -322.809 28.74 -326 29 C-329.481 30.607 -332.288 32.468 -335.352 34.758 C-340.632 38.665 -345.239 41.954 -352 42 C-358.189 40.927 -364.008 38.29 -369.773 35.867 C-375.937 33.467 -382.074 33.743 -388.625 33.705 C-389.991 33.693 -391.357 33.673 -392.723 33.643 C-402.585 33.43 -409.981 33.984 -417.812 40.25 C-423.782 47.755 -425.975 55.465 -425 65 C-423.994 67.804 -422.782 69.525 -421 72 C-420.381 72.887 -419.762 73.774 -419.125 74.688 C-415.874 78.225 -413.079 80.91 -408.125 81.125 C-400.34 78.323 -395.506 72.724 -391 66 C-377.501 69.461 -368.244 80.789 -361 92 C-353.56 104.824 -351.088 120.304 -348.812 134.75 C-348.658 135.723 -348.503 136.695 -348.344 137.698 C-345.202 158.95 -344.437 180.453 -343.53 201.889 C-343.407 204.768 -343.28 207.646 -343.152 210.524 C-342.505 225.096 -341.915 239.669 -341.41 254.246 C-341.368 255.429 -341.326 256.611 -341.282 257.83 C-340.917 268.812 -340.795 279.794 -341.297 290.773 C-341.33 291.532 -341.364 292.291 -341.398 293.074 C-345.967 393.422 -345.967 393.422 -376 422 C-381.93 427.396 -388.405 433.095 -396 436 C-396.66 435.67 -397.32 435.34 -398 435 C-397.954 434.348 -397.907 433.695 -397.859 433.023 C-397.615 427.105 -397.93 423.651 -402 419 C-405.726 416.516 -407.587 416.62 -412 417 C-417.941 419.687 -422.191 424.831 -426 430 C-427.579 434.738 -428.008 438.723 -425.977 443.312 C-422.424 449.122 -418.187 453.134 -412 456 C-404.149 457.757 -397.353 456.586 -389.75 454.375 C-388.262 453.965 -388.262 453.965 -386.744 453.546 C-378.737 451.306 -370.83 448.796 -363 446 C-362.758 446.563 -362.515 447.127 -362.266 447.707 C-360.748 450.457 -358.939 452.435 -356.75 454.688 C-356.002 455.475 -355.255 456.263 -354.484 457.074 C-351.478 459.404 -349.807 460.059 -346 460 C-343.119 458.18 -343.119 458.18 -340.625 455.562 C-339.751 454.718 -338.877 453.874 -337.977 453.004 C-337.324 452.343 -336.672 451.681 -336 451 C-336.422 450.313 -336.843 449.626 -337.277 448.918 C-337.825 448.017 -338.373 447.116 -338.938 446.188 C-339.755 444.848 -339.755 444.848 -340.59 443.48 C-343.032 439.184 -343.402 435.9 -343 431 C-341.322 425.369 -338.495 421.752 -333.352 418.91 C-328.032 416.851 -322.443 416.064 -317.062 418.125 C-312.375 422.387 -309.246 426.271 -308.672 432.633 C-308.72 437.653 -310.836 440.938 -313.5 445.062 C-316.784 450.176 -318.83 453.669 -318 460 C-315.266 462.651 -313.598 462.988 -309.812 463.062 C-306.365 462.102 -304.398 461.128 -301.438 459.25 C-293.482 454.214 -284.54 450.326 -275 451 C-272.48 451.699 -272.48 451.699 -270.188 452.688 C-269.342 453.048 -268.496 453.409 -267.625 453.781 C-264.136 455.401 -260.717 457.138 -257.324 458.949 C-250.075 462.227 -242.671 461.394 -235.305 458.965 C-231.181 457.238 -228.87 455.108 -227.156 450.957 C-225.743 446.07 -225.852 442.49 -227.949 437.852 C-230.628 433.132 -233.9 429.168 -239 427 C-243.526 426.881 -246.221 429.475 -249.414 432.375 C-251.405 434.415 -252.841 436.392 -254 439 C-253.67 439.66 -253.34 440.32 -253 441 C-252.34 441 -251.68 441 -251 441 C-251 441.66 -251 442.32 -251 443 C-260.698 440.222 -264.896 437.373 -269.891 428.727 C-275.711 418.019 -279.616 406.677 -283 395 C-283.238 394.179 -283.477 393.358 -283.723 392.513 C-291.454 364.888 -292.177 335.145 -294.188 306.688 C-294.272 305.49 -294.357 304.293 -294.444 303.059 C-295.967 281.313 -297.222 259.556 -297.188 237.75 C-297.187 237.018 -297.186 236.285 -297.186 235.531 C-297.078 186.82 -291.003 131.351 -261 91 C-260.606 90.461 -260.212 89.922 -259.807 89.367 C-254.585 82.261 -248.965 75.695 -242.75 69.438 C-242.184 68.866 -241.618 68.294 -241.035 67.706 C-231.346 58.18 -231.346 58.18 -226.562 57.812 C-224.026 58.988 -222.439 60.276 -220.312 62.062 C-216.389 65.108 -213.466 65.916 -208.52 65.574 C-201.936 64.074 -197.398 59.98 -193.5 54.625 C-190.864 50.229 -189.837 47.149 -190 42 C-191.513 36.116 -194.92 32.436 -200.035 29.32 C-220.427 20.239 -237.556 24.858 -254.23 38.875 Z M-104 41 C-110.597 46.923 -117.714 52.085 -126.875 51.938 C-129.193 51.492 -131.431 50.88 -133.707 50.25 C-142.1 47.962 -151.507 45.938 -159.938 49.188 C-166.791 53.244 -171.095 57.472 -174 65 C-174.075 68.896 -173.298 70.521 -171.25 73.812 C-168.687 76.304 -167.561 77 -164 77 C-159.669 75.223 -157.291 72.153 -154.527 68.523 C-151.03 65.035 -145.962 65.807 -141.312 65.812 C-140.245 65.814 -140.245 65.814 -139.156 65.815 C-126.033 65.967 -126.033 65.967 -122 70 C-120.064 89.917 -152.178 119.923 -163.984 134.301 C-166.904 137.863 -169.738 141.487 -172.562 145.125 C-176.776 150.536 -181.164 155.769 -185.654 160.953 C-188.728 164.504 -191.734 168.097 -194.688 171.75 C-198.244 176.134 -201.97 180.322 -205.773 184.492 C-207.979 186.976 -210.055 189.528 -212.125 192.125 C-216.035 196.968 -220.216 201.487 -224.5 206 C-229.476 211.246 -234.236 216.563 -238.758 222.211 C-258.103 246.275 -258.103 246.275 -267.879 247.867 C-270.713 248.045 -273.256 247.704 -276 247 C-274.419 238.377 -270.802 236.224 -263.688 231.312 C-254.57 224.751 -254.57 224.751 -249.289 215.23 C-249.194 214.494 -249.098 213.758 -249 213 C-253.697 209.91 -257.101 209.664 -262.484 210.438 C-271.242 212.396 -277.668 217.977 -282.578 225.379 C-285.959 231.277 -288.282 237.067 -287 244 C-283.707 250.837 -278.964 256.145 -272.062 259.375 C-263.321 261.159 -255.196 256.548 -248 252 C-242.997 248.398 -238.506 244.194 -234 240 C-233.325 239.379 -232.651 238.758 -231.956 238.118 C-223.678 230.487 -215.601 222.676 -207.689 214.668 C-204.192 211.141 -200.584 207.842 -196.789 204.637 C-194.027 202.11 -191.648 199.275 -189.25 196.406 C-187.378 194.405 -185.514 192.682 -183.438 190.906 C-178.009 186.226 -173.028 181.1 -168 176 C-162.4 170.32 -156.804 164.704 -150.738 159.516 C-148.192 157.296 -145.86 154.917 -143.5 152.5 C-139.749 148.691 -135.894 145.08 -131.828 141.609 C-129.971 139.974 -128.234 138.265 -126.5 136.5 C-123.575 133.529 -120.514 130.793 -117.355 128.074 C-114.984 125.986 -112.671 123.845 -110.362 121.688 C-105.002 116.684 -99.535 111.935 -93.812 107.344 C-90.601 104.668 -87.55 101.856 -84.5 99 C-78.861 93.739 -73.076 88.757 -67 84 C-66.371 83.504 -65.743 83.008 -65.095 82.497 C-63.01 80.86 -60.913 79.241 -58.812 77.625 C-57.833 76.856 -57.833 76.856 -56.833 76.072 C-50.101 70.964 -42.598 67.746 -34 68 C-30.5 69.125 -30.5 69.125 -28 71 C-26.875 73.312 -26.875 73.312 -27 76 C-28.535 79.152 -28.535 79.152 -31 82 C-33.826 82.409 -35.793 82.496 -38.562 82.25 C-44.046 81.759 -44.046 81.759 -49 84 C-50.201 88.164 -50.361 90.233 -48.5 94.188 C-43.635 99.66 -38.308 101.733 -31.125 102.312 C-26.709 102.223 -24.379 100.938 -21 98 C-14.949 91.18 -10.557 83.342 -11 74 C-12.701 65.762 -17.246 60.743 -24 56 C-29.19 52.684 -33.046 51.856 -39.188 52.25 C-44.423 52.484 -44.423 52.484 -47.062 50.27 C-48.557 48.24 -49.813 46.22 -51 44 C-52.156 42.626 -52.156 42.626 -55.312 42.75 C-59.216 43.015 -60.357 43.234 -63 46 C-63.202 49.009 -62.87 51.801 -62.555 54.797 C-63.623 62.484 -71.555 67.349 -77.375 71.75 C-78.092 72.313 -78.808 72.877 -79.547 73.457 C-85.291 77.843 -91.251 81.49 -98.75 81.312 C-99.467 81.309 -100.183 81.305 -100.922 81.301 C-103.272 80.961 -104.943 80.163 -107 79 C-107.802 67.778 -102.076 61.247 -95 53 C-94.327 52.285 -93.654 51.569 -92.961 50.832 C-88.926 46.539 -87.124 43.972 -87 38 C-93.586 33.609 -99.082 35.222 -104 41 Z M-307 60 C-307 60.99 -307 61.98 -307 63 C-306.01 63 -305.02 63 -304 63 C-304 62.01 -304 61.02 -304 60 C-304.99 60 -305.98 60 -307 60 Z M-246 86 C-246 87.32 -246 88.64 -246 90 C-244.907 90.227 -243.814 90.454 -242.688 90.688 C-239 92 -239 92 -237.062 94 C-235.031 99.735 -235.009 105.544 -237.562 111.125 C-239.174 113.985 -241.068 116.239 -243.312 118.625 C-249.643 125.571 -254.892 135.297 -255.203 144.828 C-254.603 151.249 -250.754 156.028 -247 161 C-247.592 161.364 -248.183 161.727 -248.793 162.102 C-257.172 167.432 -261.909 172.586 -264.688 182.438 C-265.12 185.98 -265.06 189.431 -265 193 C-259.613 187.94 -255.238 182.12 -250.938 176.125 C-247.824 172.71 -244.458 171.172 -239.879 170.631 C-238.784 170.63 -237.69 170.63 -236.562 170.629 C-235.344 170.615 -234.126 170.6 -232.871 170.585 C-231.593 170.578 -230.316 170.57 -229 170.562 C-213.208 170.222 -199.205 168.782 -187.211 157.285 C-184.703 154.525 -184.703 154.525 -184 151 C-185.155 150.794 -186.31 150.588 -187.5 150.375 C-193.81 148.786 -198.282 145.135 -202.312 140.125 C-204.277 136.487 -205.653 132.907 -207 129 C-207.99 129.33 -208.98 129.66 -210 130 C-212.533 137.599 -210.108 142.714 -207.18 149.887 C-205.864 153.358 -205.257 156.32 -205 160 C-210.352 161.091 -215.562 161.218 -221 161.25 C-221.877 161.271 -222.753 161.291 -223.656 161.312 C-228.826 161.344 -232.595 161.033 -237 158 C-238.451 153.888 -238.302 151.033 -236.562 147.125 C-234.794 143.941 -232.66 141.415 -230.188 138.75 C-220.9 128.684 -214.091 115.709 -214.613 101.797 C-215.526 95.197 -218.783 90.125 -224 86 C-231.738 82.991 -238.245 83.823 -246 86 Z M-76 131 C-75.132 135.996 -73.445 140.593 -71.742 145.355 C-71 148 -71 148 -72 150 C-72.687 149.711 -73.374 149.423 -74.082 149.125 C-74.983 148.754 -75.884 148.382 -76.812 148 C-77.706 147.629 -78.599 147.257 -79.52 146.875 C-82.033 145.834 -82.033 145.834 -85 146 C-83.601 150.227 -81.601 152.835 -78.562 156.062 C-75.865 158.946 -73.305 161.791 -71 165 C-73.825 165.942 -76.017 166.244 -78.965 166.465 C-79.93 166.543 -80.895 166.621 -81.889 166.701 C-83.917 166.858 -85.946 167.012 -87.975 167.162 C-88.941 167.241 -89.907 167.321 -90.902 167.402 C-91.784 167.469 -92.666 167.536 -93.574 167.605 C-96.066 168.011 -97.82 168.752 -100 170 C-92.621 174.021 -85.288 175.104 -77 176 C-77 176.66 -77 177.32 -77 178 C-77.706 178.237 -78.413 178.474 -79.141 178.719 C-82.496 180.222 -84.927 182.15 -87.75 184.5 C-88.714 185.294 -89.678 186.088 -90.672 186.906 C-93.044 188.782 -93.044 188.782 -94 191 C-88.555 190.505 -88.555 190.505 -83 190 C-84.742 193.484 -86.527 196.117 -88.875 199.188 C-95.766 208.554 -99.004 217.32 -98 229 C-96.942 233.473 -95.553 237.171 -93 241 C-92.34 241 -91.68 241 -91 241 C-91.021 240.199 -91.042 239.398 -91.063 238.573 C-91.147 234.903 -91.199 231.233 -91.25 227.562 C-91.284 226.302 -91.317 225.042 -91.352 223.744 C-91.442 215.115 -90.645 208.664 -85.254 201.766 C-84.696 201.265 -84.138 200.765 -83.562 200.25 C-82.661 199.413 -82.661 199.413 -81.742 198.559 C-81.167 198.044 -80.592 197.53 -80 197 C-75.791 193.001 -75.791 193.001 -73 188 C-72.34 188 -71.68 188 -71 188 C-71.33 189.176 -71.66 190.351 -72 191.562 C-72.997 195.501 -73.169 198.951 -73 203 C-67.453 200.042 -62.549 196.518 -57.551 192.707 C-55.244 191.163 -53.705 190.425 -51 190 C-47.797 193.655 -46.424 197.747 -44.812 202.25 C-44.54 202.995 -44.267 203.74 -43.986 204.508 C-43.318 206.336 -42.658 208.168 -42 210 C-41.34 210 -40.68 210 -40 210 C-39.34 205.71 -38.68 201.42 -38 197 C-34 197 -34 197 -32.508 198.391 C-32.051 199.004 -31.595 199.618 -31.125 200.25 C-28.347 203.702 -25.944 205.942 -22 208 C-19.858 207.65 -19.858 207.65 -18 207 C-26.638 194.237 -26.638 194.237 -36 182 C-34.987 182.144 -33.974 182.289 -32.93 182.438 C-31.578 182.625 -30.227 182.813 -28.875 183 C-28.21 183.095 -27.545 183.191 -26.859 183.289 C-22.874 183.836 -19.021 184.1 -15 184 C-19.379 179.337 -24.144 176.219 -29.551 172.867 C-30.359 172.251 -31.167 171.635 -32 171 C-32 170.01 -32 169.02 -32 168 C-21.356 164.035 -21.356 164.035 -16.875 162.875 C-15.926 162.586 -14.978 162.298 -14 162 C-13.67 161.34 -13.34 160.68 -13 160 C-16.422 158.859 -19.087 158.902 -22.688 158.938 C-23.867 158.947 -25.046 158.956 -26.262 158.965 C-27.617 158.982 -27.617 158.982 -29 159 C-27.209 155.25 -25.417 151.5 -23.625 147.75 C-22.863 146.155 -22.863 146.155 -22.086 144.527 C-21.596 143.503 -21.106 142.478 -20.602 141.422 C-19.926 140.008 -19.926 140.008 -19.237 138.565 C-18.177 136.367 -17.099 134.179 -16 132 C-24.58 134.34 -29.94 143.287 -35 150 C-35 145.05 -35 140.1 -35 135 C-38.698 138.698 -40.257 142.566 -42.402 147.285 C-44.064 150.108 -44.963 150.944 -48 152 C-48.182 151.359 -48.364 150.719 -48.551 150.059 C-50.063 144.856 -51.75 139.929 -54 135 C-54.66 135 -55.32 135 -56 135 C-56.762 139.316 -57.161 142.744 -56 147 C-59.09 145.246 -61.501 143.499 -64 141 C-64.66 141 -65.32 141 -66 141 C-66.245 140.407 -66.49 139.814 -66.742 139.203 C-68.21 136.633 -69.723 135.455 -72.125 133.75 C-72.849 133.229 -73.574 132.708 -74.32 132.172 C-74.875 131.785 -75.429 131.398 -76 131 Z M-393.73 142.512 C-402.314 151.604 -401.379 162.932 -401.188 174.562 C-401.172 176.159 -401.159 177.756 -401.146 179.354 C-401.114 183.236 -401.062 187.118 -401 191 C-401.66 191 -402.32 191 -403 191 C-403.389 190.178 -403.389 190.178 -403.785 189.34 C-405.188 186.637 -406.787 184.121 -408.438 181.562 C-410.228 178.782 -411.994 176.01 -413.66 173.152 C-414.102 172.442 -414.544 171.732 -415 171 C-415.33 171 -415.66 171 -416 171 C-417.148 182.533 -412.297 191.644 -406 201 C-406.99 201.495 -406.99 201.495 -408 202 C-402.395 207.886 -396.436 213.041 -390 218 C-393.042 218 -394.884 217.438 -397.75 216.5 C-405.55 214.319 -414.742 213.178 -422.332 216.426 C-424.652 217.795 -426.347 218.888 -428 221 C-428 221.66 -428 222.32 -428 223 C-426.667 222.855 -425.333 222.709 -424 222.562 C-423.174 222.476 -422.347 222.39 -421.496 222.301 C-419.982 222.118 -418.47 221.897 -416.973 221.605 C-410.228 220.35 -404.404 221.922 -398.574 225.48 C-391.198 230.898 -385.888 236.936 -384 246 C-387.122 247.41 -390.09 248.242 -393.438 248.875 C-397.747 249.836 -400.726 250.882 -404 254 C-406.026 258.32 -406.942 262.495 -407.125 267.25 C-405.14 272.101 -401.141 274.902 -396.562 277.25 C-393.063 278.274 -389.548 279.158 -386 280 C-385.447 285.67 -387.121 288.321 -390 293 C-390 293.66 -390 294.32 -390 295 C-390.552 295.26 -391.103 295.521 -391.672 295.789 C-394.316 297.164 -396.756 298.743 -399.25 300.375 C-405.608 304.447 -411.742 307.823 -419 310 C-419 310.66 -419 311.32 -419 312 C-406.926 312.694 -398.309 309.056 -388 303 C-390.413 307.168 -393.178 310.193 -396.688 313.5 C-407.053 323.682 -416.396 338.44 -418 353 C-413.076 348.235 -408.557 343.113 -404 338 C-404.722 343.514 -406.586 347.959 -408.844 353 C-413.682 365.552 -410.348 378.317 -405.414 390.238 C-403.492 393.992 -401.415 397.111 -397.812 399.375 C-390.06 401.098 -384.085 398.518 -377.395 394.625 C-373.915 392.264 -371.859 389.718 -370 386 C-369.597 380.763 -370.169 377.449 -373 373 C-376.019 369.981 -378.755 369.166 -383 369 C-386.637 370.273 -389.267 371.267 -392 374 C-392.306 376.569 -392.511 379.048 -392.625 381.625 C-392.683 382.685 -392.683 382.685 -392.742 383.766 C-392.836 385.51 -392.919 387.255 -393 389 C-397.602 384.556 -400.822 380.397 -402 374 C-402.11 356.774 -396.294 347.487 -385.555 334.844 C-373.849 320.965 -363.939 304.125 -365.246 285.492 C-366.083 278.75 -367.509 272.804 -370.293 266.598 C-372.022 260.246 -369.219 254.649 -366.562 249 C-360.521 235.996 -359.459 225.656 -363.734 211.812 C-365.75 207.333 -368.902 204.962 -372.875 202.25 C-382.351 195.2 -387.277 184.276 -390 173 C-390.232 170.302 -390.381 167.755 -390.375 165.062 C-390.373 164.011 -390.373 164.011 -390.37 162.939 C-390.234 157.198 -389.339 153.638 -386 149 C-383.859 147.805 -383.859 147.805 -382 147 C-382.165 147.516 -382.33 148.031 -382.5 148.562 C-383.183 151.892 -383.357 154.605 -383 158 C-380.43 161.583 -378.745 162.787 -374.5 164 C-370.557 164 -369.012 163.495 -366 161 C-362.746 156.662 -363.848 151.469 -364.375 146.375 C-366.852 141.231 -370.778 139.866 -376 138 C-383.087 135.805 -388.32 137.786 -393.73 142.512 Z M-132 170 C-132.482 171.249 -132.96 172.499 -133.438 173.75 C-133.704 174.446 -133.971 175.142 -134.246 175.859 C-135.472 179.341 -136.126 182.411 -136.098 186.109 C-136.094 186.863 -136.091 187.618 -136.088 188.395 C-136.08 189.172 -136.071 189.949 -136.062 190.75 C-136.058 191.543 -136.053 192.336 -136.049 193.152 C-136.037 195.102 -136.019 197.051 -136 199 C-136.99 199 -137.98 199 -139 199 C-139.227 197.845 -139.454 196.69 -139.688 195.5 C-141.1 190.007 -143.268 185.136 -147.824 181.574 C-152.852 178.7 -156.414 178.803 -162 180 C-162.33 180.99 -162.66 181.98 -163 183 C-161.721 185.483 -161.721 185.483 -159.875 188.188 C-155.465 195.391 -153.231 202.899 -151 211 C-155.516 209.526 -160.004 208.021 -164.438 206.312 C-167.68 204.885 -167.68 204.885 -170 205 C-169.504 209.354 -168.199 211.301 -165.062 214.312 C-164.352 215.01 -163.642 215.707 -162.91 216.426 C-161.155 218.212 -161.155 218.212 -159 218 C-159 218.66 -159 219.32 -159 220 C-159.655 219.984 -160.31 219.969 -160.984 219.952 C-163.989 219.89 -166.994 219.851 -170 219.812 C-171.03 219.787 -172.06 219.762 -173.121 219.736 C-180.728 219.664 -186.608 220.302 -192.75 225.188 C-197.418 231.023 -200.453 237.349 -200 245 C-199.34 245.99 -198.68 246.98 -198 248 C-194.347 244.458 -191.106 240.757 -187.941 236.77 C-182.668 231.963 -175.646 232.64 -168.945 232.758 C-153.965 233.677 -143.285 239.598 -132.523 249.785 C-128.377 253.424 -123.716 256.167 -119 259 C-117.515 259.99 -117.515 259.99 -116 261 C-116.836 261.135 -116.836 261.135 -117.69 261.272 C-128.613 263.074 -138.639 265.245 -148.801 269.672 C-152.84 271.349 -156.703 272.246 -161 273 C-159.348 276.908 -157.38 278.303 -153.508 280.117 C-148.813 281.77 -143.921 282.377 -139 283 C-138.706 284.108 -138.706 284.108 -138.406 285.238 C-135.998 293.408 -132.347 299.407 -127 306 C-126.01 305.67 -125.02 305.34 -124 305 C-124.474 304.257 -124.949 303.515 -125.438 302.75 C-127.903 298.411 -128.137 294.905 -128.125 289.938 C-128.128 288.895 -128.13 287.852 -128.133 286.777 C-128 284 -128 284 -127 281 C-126.34 280.67 -125.68 280.34 -125 280 C-124.865 280.629 -124.729 281.258 -124.59 281.906 C-122.89 288.666 -120.273 293.373 -115 298 C-111.83 299.872 -109.683 300.205 -106 300 C-108.116 297.806 -110.138 295.902 -112.625 294.125 C-115.572 291.489 -116.388 289.904 -117 286 C-115.839 281.793 -114.655 279.577 -111.375 276.688 C-107.321 274.66 -103.446 273.751 -99 273 C-100.782 268.998 -103.373 266.264 -106.344 263.098 C-108.145 260.816 -108.95 258.696 -110 256 C-110.988 254.642 -112.013 253.311 -113.062 252 C-116.758 246.837 -119.295 241.361 -121.812 235.562 C-122.197 234.693 -122.582 233.824 -122.979 232.928 C-125.603 226.716 -127.049 220.669 -128 214 C-127.671 214.981 -127.343 215.962 -127.004 216.973 C-123.47 227.144 -118.956 236.043 -113 245 C-112.608 245.59 -112.216 246.18 -111.812 246.789 C-104.631 257.461 -96.56 267.781 -87.25 276.688 C-71.92 291.606 -65.104 313.891 -64.709 334.883 C-64.624 346.468 -65.882 356.849 -69 368 C-69.059 367.132 -69.059 367.132 -69.12 366.247 C-69.823 347.078 -69.823 347.078 -79 331 C-85.766 326.954 -92.324 327.253 -100 328 C-103.922 329.113 -107.121 330.431 -109.199 334.141 C-109.463 334.754 -109.728 335.368 -110 336 C-109.394 335.977 -108.788 335.954 -108.164 335.93 C-97.836 335.707 -88.918 336.791 -81 344 C-75.925 350.593 -74.157 358.108 -72 366 C-71.752 366.819 -71.505 367.637 -71.25 368.48 C-69.699 375.642 -73.511 382.57 -76.206 389.071 C-77.32 391.777 -78.357 394.507 -79.375 397.25 C-79.692 398.08 -80.009 398.91 -80.336 399.766 C-81.19 402.251 -81.19 402.251 -81 406 C-72.582 402.392 -69.306 393.977 -66 386 C-63.011 378.105 -60.444 370.078 -58 362 C-57.788 361.314 -57.576 360.628 -57.357 359.921 C-50.318 336.394 -56.187 311.439 -64.512 289.16 C-65.636 286.128 -66.514 283.211 -67 280 C-42.131 278.168 -42.131 278.168 -29.812 284.195 C-28.026 285.135 -28.026 285.135 -26 285 C-26 277.637 -29.983 274.04 -35 269 C-33.913 265.74 -33.364 265.296 -30.75 263.312 C-22.385 256.373 -20.171 247.597 -18.953 237.137 C-18.758 234.781 -18.758 234.781 -21 233 C-25.748 238.712 -28.851 243.287 -30.625 250.562 C-33.029 254.825 -37.604 257.32 -42.258 258.641 C-42.833 258.759 -43.408 258.878 -44 259 C-43.237 258.257 -42.474 257.515 -41.688 256.75 C-39.561 254.574 -37.744 252.478 -36 250 C-37.398 250.43 -38.794 250.869 -40.188 251.312 C-40.965 251.556 -41.742 251.8 -42.543 252.051 C-45.243 253.094 -47.559 254.452 -50 256 C-49.662 255.322 -49.325 254.644 -48.977 253.945 C-42.654 240.751 -41.406 228.701 -46.086 214.609 C-46.968 212.639 -46.968 212.639 -50 212 C-50.026 213.232 -50.052 214.465 -50.078 215.734 C-50.465 228.538 -51.218 241.497 -61 251 C-61.66 251 -62.32 251 -63 251 C-63.291 249.961 -63.583 248.922 -63.883 247.852 C-67.988 233.081 -67.988 233.081 -78 222 C-77.415 225.22 -76.609 228.162 -75.5 231.234 C-73.005 239.404 -73.223 248.094 -72.916 256.57 C-72.83 258.824 -72.728 261.076 -72.625 263.328 C-72.606 264.009 -72.587 264.691 -72.568 265.393 C-72.357 269.921 -71.266 273.091 -69 277 C-84.275 270.568 -97.844 240.791 -104.25 226.25 C-108.99 213.357 -111.616 199.629 -113 186 C-116.086 188.512 -118.964 190.964 -121.75 193.812 C-124 196 -124 196 -126 196 C-127.826 191.283 -128.372 186.885 -128.562 181.875 C-128.759 175.863 -128.759 175.863 -130 170 C-130.66 170 -131.32 170 -132 170 Z M-185 258 C-182.027 259.486 -179.812 258.607 -176.562 258.062 C-168.1 256.794 -160.544 256.443 -152.125 258.062 C-145.623 259.283 -139.534 258.78 -133 258 C-133 253.924 -134.231 252.977 -137 250 C-153.967 235.832 -171.742 243.381 -185 258 Z M-238.625 250.625 C-243.826 255.217 -249.042 259.406 -255 263 C-253.357 267.108 -250.391 269.933 -247.375 273.062 C-239.476 281.477 -233.288 290.294 -227.768 300.403 C-222.97 309.063 -217.318 317.159 -211.779 325.355 C-204.005 336.914 -196.55 348.676 -189.188 360.5 C-181.099 373.475 -172.651 385.924 -163.423 398.115 C-161.369 400.835 -159.334 403.568 -157.312 406.312 C-156.69 407.154 -156.067 407.996 -155.426 408.863 C-152.693 412.959 -152.269 417.21 -153 422 C-157.469 433.27 -168.523 439.32 -179 444 C-180.261 441.478 -179.814 440.425 -179.312 437.688 C-178.898 434.248 -178.87 433.255 -180.5 430.062 C-185.185 426.197 -189.672 425.805 -195.562 426.125 C-200.379 426.732 -203.506 427.42 -207 431 C-210.378 437.405 -211.907 442.967 -210 450 C-207.856 453.993 -206.279 456.465 -202 458 C-199.054 458.277 -196.26 458.428 -193.312 458.438 C-192.477 458.441 -191.641 458.445 -190.78 458.449 C-184.015 458.327 -178.064 457.014 -171.697 454.779 C-167.284 453.238 -163.664 452.343 -159 453 C-154.727 456.246 -152.799 459.95 -150.688 464.812 C-150.176 465.974 -149.664 467.135 -149.137 468.332 C-148.762 469.212 -148.386 470.093 -148 471 C-141.541 471.404 -136.939 470.592 -131 468 C-131.519 462.374 -133.065 458.103 -135.562 453.062 C-135.892 452.379 -136.221 451.695 -136.561 450.99 C-137.365 449.323 -138.181 447.661 -139 446 C-133.991 441.017 -130.173 437.683 -123 437 C-117.686 438.506 -114.997 440.42 -112 445 C-111.032 447.996 -110.446 451.032 -109.875 454.125 C-109.566 455.733 -109.251 457.34 -108.93 458.945 C-108.732 460.005 -108.732 460.005 -108.531 461.086 C-108.023 463.304 -108.023 463.304 -106 466 C-97.189 467.137 -90.03 463.833 -82.434 459.555 C-74.736 455.23 -68.229 454.806 -59.629 456.77 C-54.013 458.399 -48.917 460.452 -43.758 463.172 C-39.428 465.212 -35.559 465.411 -31.062 464 C-26.015 461.881 -20.488 457.977 -18 453 C-17.441 447.019 -17.541 442.124 -21 437 C-24.719 434.52 -27.69 434.461 -32 435 C-35.516 436.393 -38.805 437.829 -41 441 C-41.045 442.666 -41.049 444.334 -41 446 C-50.327 444.465 -56.756 442.051 -64 436 C-64.538 435.554 -65.076 435.107 -65.631 434.647 C-80.87 421.937 -95.022 408.066 -109.062 394.062 C-109.651 393.476 -110.24 392.89 -110.847 392.286 C-117.12 386.035 -123.282 379.771 -129 373 C-130.068 371.773 -131.139 370.548 -132.211 369.324 C-137.83 362.872 -143.377 356.381 -148.766 349.734 C-151.27 346.67 -153.815 343.643 -156.375 340.625 C-156.835 340.082 -157.295 339.54 -157.77 338.98 C-159.179 337.32 -160.589 335.66 -162 334 C-168.746 326.063 -175.445 318.096 -182 310 C-182.439 309.462 -182.878 308.924 -183.33 308.37 C-191.287 298.615 -198.837 288.599 -206.239 278.418 C-207.984 276.022 -209.739 273.634 -211.496 271.246 C-217.217 263.436 -222.646 255.644 -227.414 247.211 C-227.937 246.481 -228.461 245.752 -229 245 C-233.408 245 -235.51 247.81 -238.625 250.625 Z M-151.375 291.938 C-156.513 294.733 -161.903 294.622 -167.609 294.824 C-170.282 294.963 -172.465 295.213 -175 296 C-175.34 299.462 -175.34 299.462 -173.926 302.504 C-171.177 304.639 -168.286 305.509 -165 306.625 C-163.762 307.05 -162.525 307.476 -161.25 307.914 C-159.167 308.61 -157.084 309.305 -155 310 C-154.191 312.406 -154.191 312.406 -153.562 315.5 C-151.766 323.644 -151.766 323.644 -148 331 C-144.575 332.885 -144.575 332.885 -141 334 C-138.562 336.188 -138.562 336.188 -137 338 C-138.373 333.537 -140.133 329.373 -142.098 325.148 C-145.451 317.164 -144.551 308.187 -142.449 299.973 C-141.65 296.465 -141.377 293.245 -143 290 C-146.666 289.542 -148.103 290.059 -151.375 291.938 Z M-276 299 C-277.617 302.234 -276.259 305.463 -275.523 308.867 C-275.273 310.052 -275.273 310.052 -275.017 311.261 C-274.659 312.941 -274.297 314.621 -273.932 316.3 C-273.385 318.827 -272.858 321.359 -272.332 323.891 C-268.115 343.72 -260.733 357.924 -245 371 C-252.123 373.326 -257.836 373.447 -265.066 371.445 C-267.731 370.832 -270.28 370.864 -273 371 C-272.523 375.293 -270.202 377.285 -267 380 C-260.696 383.809 -254.221 383.767 -247 383 C-242.517 381.863 -238.313 380.281 -234.262 378.037 C-228.833 375.087 -223.696 373.962 -217.625 373 C-204.563 371.155 -204.563 371.155 -194 364 C-194 361.003 -195.111 359.872 -197.066 357.602 C-200.484 354.571 -203.798 353.062 -207.938 351.25 C-214.681 348.072 -219.083 345.15 -222 338 C-222.895 335.497 -223.668 333.012 -224.344 330.441 C-225.308 326.855 -226.655 323.459 -228 320 C-230.569 320.942 -231.784 321.655 -233.25 324 C-235.221 331.885 -234.173 339.57 -231 347 C-227.088 353.164 -220.733 357.834 -213.574 359.598 C-211.186 359.932 -211.186 359.932 -208 360 C-210.147 363.22 -211.175 363.758 -214.828 364.648 C-225.107 366.312 -235.905 364.793 -244.875 359.375 C-258.094 349.58 -262.516 330.427 -265.959 315.25 C-267.91 306.368 -267.91 306.368 -273 299 C-273.99 299 -274.98 299 -276 299 Z M-44 327 C-48.201 331.64 -49.822 337.133 -51.375 343.062 C-51.645 344.071 -51.645 344.071 -51.92 345.101 C-53.051 349.822 -52.935 353.329 -52 358 C-48.606 356.571 -46.803 354.847 -44.5 352 C-41.555 348.359 -39.345 346.294 -34.598 345.699 C-25.552 345.657 -25.552 345.657 -22 349 C-18.521 353.788 -17.293 358.529 -17.547 364.414 C-18.824 371.703 -23.081 377.66 -28 383 C-20.631 380.945 -14.755 376.381 -10.656 369.863 C-7.617 362.251 -8.572 353.861 -11.355 346.336 C-15.81 336.361 -22.005 328.627 -32 324 C-37.404 322.236 -39.762 323.303 -44 327 Z M-125 348 C-122.64 350.36 -121.221 350.491 -118 351 C-119.249 349.417 -119.249 349.417 -121 348 C-122.32 348 -123.64 348 -125 348 Z M-200 375 C-201.811 377.716 -202.321 379.034 -203.062 382.062 C-205.332 389.136 -210.622 395.083 -217.043 398.727 C-222.5 401.076 -227.376 401.245 -233.25 401.312 C-234.071 401.342 -234.892 401.371 -235.738 401.4 C-244.497 401.491 -250.032 397.984 -256.875 392.75 C-260.101 389.945 -260.101 389.945 -264 389 C-260.091 397.517 -251.953 405.338 -243.414 409.156 C-233.051 412.778 -220.074 412.16 -210 408 C-200.209 402.102 -190.71 392.537 -186 382 C-185.783 377.525 -186.49 375.799 -188.875 372.062 C-193.392 367.678 -196.17 371.496 -200 375 Z " fill="#F9F9F9" transform="translate(468,14)"/>
<path d="M0 0 C10.799 0.005 21.598 0.004 32.397 -0.001 C45.216 -0.006 58.035 -0.008 70.854 -0.005 C72.213 -0.005 73.572 -0.005 74.931 -0.004 C75.598 -0.004 76.265 -0.004 76.953 -0.004 C81.612 -0.003 86.271 -0.005 90.93 -0.007 C97.117 -0.01 103.304 -0.008 109.491 -0.002 C111.754 -0.001 114.016 -0.001 116.278 -0.003 C119.354 -0.006 122.429 -0.003 125.504 0.002 C126.85 -0.001 126.85 -0.001 128.224 -0.004 C129.456 -0 129.456 -0 130.712 0.004 C131.773 0.004 131.773 0.004 132.855 0.004 C134.956 0.136 136.826 0.558 138.847 1.129 C139.597 20.878 139.997 40.59 139.978 60.355 C139.976 63.923 139.979 67.491 139.982 71.059 C139.987 78.038 139.986 85.016 139.983 91.994 C139.98 97.752 139.98 103.51 139.981 109.268 C139.981 110.102 139.982 110.936 139.982 111.795 C139.982 113.493 139.982 115.191 139.983 116.889 C139.986 132.786 139.982 148.682 139.977 164.579 C139.973 177.836 139.973 191.093 139.978 204.35 C140.003 279.775 139.907 355.198 139.434 430.621 C139.407 434.793 139.382 438.966 139.358 443.138 C139.307 451.766 139.251 460.394 139.19 469.021 C139.17 471.851 139.151 474.68 139.135 477.509 C139.045 492.008 138.839 506.497 138.39 520.989 C138.352 522.293 138.314 523.598 138.275 524.941 C138.235 526.132 138.194 527.323 138.153 528.551 C138.118 529.606 138.084 530.662 138.048 531.75 C137.847 534.129 137.847 534.129 136.847 535.129 C134.998 535.283 133.143 535.368 131.288 535.426 C130.1 535.465 128.912 535.504 127.687 535.545 C125.734 535.6 125.734 535.6 123.742 535.657 C122.376 535.699 121.01 535.741 119.645 535.782 C104.946 536.222 90.244 536.481 75.54 536.686 C74.812 536.696 74.083 536.707 73.332 536.717 C34.498 537.271 -4.335 537.262 -43.173 537.233 C-53.467 537.226 -63.761 537.224 -74.056 537.223 C-92.396 537.221 -110.737 537.214 -129.078 537.205 C-146.836 537.196 -164.595 537.189 -182.353 537.184 C-183.458 537.184 -184.563 537.184 -185.701 537.184 C-191.246 537.182 -196.791 537.181 -202.336 537.18 C-247.942 537.17 -293.547 537.152 -339.153 537.129 C-340.215 533.941 -340.348 531.505 -340.45 528.151 C-340.489 526.899 -340.529 525.646 -340.569 524.355 C-340.607 522.96 -340.645 521.564 -340.682 520.168 C-340.702 519.447 -340.723 518.726 -340.744 517.983 C-341.285 498.844 -341.475 479.701 -341.655 460.556 C-341.684 457.444 -341.715 454.332 -341.746 451.22 C-342.243 400.949 -342.442 350.677 -342.626 300.404 C-342.704 278.972 -342.786 257.54 -342.872 236.108 C-342.882 233.572 -342.892 231.037 -342.902 228.501 C-343.035 194.671 -343.221 160.841 -343.494 127.012 C-343.543 120.935 -343.589 114.858 -343.635 108.782 C-343.665 104.891 -343.695 101.001 -343.725 97.11 C-343.732 96.168 -343.739 95.227 -343.747 94.256 C-343.831 83.236 -343.926 72.215 -344.036 61.194 C-344.102 54.444 -344.159 47.693 -344.207 40.942 C-344.241 36.368 -344.286 31.795 -344.342 27.221 C-344.379 23.852 -344.397 20.482 -344.417 17.113 C-344.436 15.911 -344.454 14.71 -344.473 13.472 C-344.476 12.39 -344.479 11.308 -344.482 10.193 C-344.491 9.256 -344.5 8.319 -344.509 7.354 C-344.333 6.253 -344.333 6.253 -344.153 5.129 C-340.708 2.833 -339.278 2.84 -335.21 2.733 C-333.988 2.697 -332.766 2.661 -331.507 2.623 C-330.163 2.594 -328.82 2.565 -327.477 2.536 C-326.072 2.499 -324.667 2.462 -323.263 2.424 C-318.893 2.31 -314.523 2.217 -310.153 2.129 C-308.21 2.09 -308.21 2.09 -306.228 2.05 C-221.64 0.424 -137.006 0.039 0 0 Z M-252.778 8.6 C-255.823 8.629 -258.869 8.656 -261.914 8.684 C-286.669 8.909 -311.408 9.393 -336.153 10.129 C-337.353 12.53 -337.276 14.006 -337.272 16.686 C-337.274 17.646 -337.275 18.606 -337.276 19.595 C-337.272 20.65 -337.268 21.706 -337.264 22.794 C-337.264 23.9 -337.264 25.007 -337.263 26.147 C-337.261 29.831 -337.251 33.515 -337.24 37.2 C-337.236 39.795 -337.232 42.391 -337.229 44.987 C-337.182 70.731 -336.996 96.473 -336.782 122.216 C-336.733 128.116 -336.686 134.016 -336.64 139.916 C-336.547 151.764 -336.451 163.612 -336.355 175.46 C-336.136 202.328 -335.924 229.196 -335.712 256.064 C-335.678 260.398 -335.643 264.733 -335.609 269.067 C-335.331 304.196 -335.065 339.324 -334.849 374.454 C-334.832 377.172 -334.816 379.889 -334.799 382.607 C-334.704 397.864 -334.611 413.121 -334.53 428.377 C-334.499 434.006 -334.467 439.635 -334.433 445.264 C-334.407 449.477 -334.387 453.69 -334.367 457.903 C-334.232 481.982 -333.666 506.056 -333.153 530.129 C-292.738 530.153 -252.324 530.17 -211.91 530.181 C-207.071 530.182 -202.231 530.183 -197.392 530.184 C-196.429 530.185 -195.466 530.185 -194.474 530.185 C-181.038 530.189 -167.602 530.195 -154.165 530.203 C-47.847 530.314 -47.847 530.314 58.469 529.688 C60.032 529.673 60.032 529.673 61.627 529.658 C88.879 529.404 88.879 529.404 116.121 528.657 C117.15 528.62 118.179 528.583 119.238 528.545 C123.926 528.348 128.177 527.908 132.847 527.129 C132.847 356.189 132.847 185.249 132.847 9.129 C126.331 7.382 126.331 7.382 120.05 6.882 C119.181 6.878 118.311 6.874 117.416 6.87 C116.483 6.875 115.551 6.881 114.59 6.887 C113.577 6.885 112.563 6.883 111.519 6.881 C108.11 6.877 104.702 6.888 101.293 6.899 C98.812 6.9 96.332 6.9 93.851 6.899 C87.725 6.9 81.598 6.911 75.472 6.927 C70.389 6.939 65.306 6.948 60.223 6.953 C-30.113 7.055 -120.451 7.566 -252.778 8.6 Z " fill="#E8E8E8" transform="translate(344.1525608673692,-0.12946131825447083)"/>
<path d="M0 0 C-1 3 -1 3 -2.707 3.992 C-3.402 4.284 -4.097 4.575 -4.812 4.875 C-8.604 6.676 -10.838 8.281 -13 12 C-14.563 17.625 -13.816 20.932 -11 26 C-5.555 32.534 0.603 35.703 8.688 37.938 C31.76 44.505 53.762 57.683 72 73 C72.683 73.526 73.366 74.052 74.07 74.594 C86.146 84.255 93.299 99.261 97 114 C97.375 118.741 97.372 123.477 97.371 128.23 C97.375 130.467 97.411 132.701 97.449 134.938 C97.551 147.824 95.108 159.464 89.688 171.25 C89.389 171.913 89.091 172.575 88.783 173.258 C76.564 199.696 55.766 213.514 31.002 226.874 C29.288 227.838 27.636 228.909 26 230 C23.98 229.91 23.98 229.91 22 229 C20.613 226.996 20.613 226.996 19.312 224.438 C10.75 209.538 -5.789 203.246 -21.474 198.433 C-22.703 198.041 -22.703 198.041 -23.957 197.641 C-24.689 197.419 -25.421 197.198 -26.175 196.97 C-28.514 195.727 -29.047 194.42 -30 192 C-28.907 191.299 -27.814 190.597 -26.688 189.875 C-22.073 186.584 -20.058 182.508 -19 177 C-18.903 174.499 -18.856 172.026 -18.858 169.525 C-18.855 168.778 -18.851 168.032 -18.848 167.262 C-18.84 165.644 -18.835 164.027 -18.831 162.409 C-18.824 159.849 -18.808 157.29 -18.79 154.731 C-18.738 147.455 -18.69 140.18 -18.674 132.905 C-18.664 128.452 -18.635 123.999 -18.593 119.547 C-18.58 117.85 -18.575 116.152 -18.578 114.455 C-18.58 112.085 -18.558 109.716 -18.53 107.345 C-18.537 106.643 -18.543 105.94 -18.55 105.215 C-18.489 102.04 -18.391 100.411 -16.161 98.064 C-13.182 96.597 -10.684 96.625 -7.375 96.562 C3.217 95.992 10.519 92.146 19 86 C18.34 82.873 18.34 82.873 15.906 81.884 C14.994 81.538 14.083 81.192 13.145 80.836 C12.136 80.441 11.127 80.046 10.088 79.638 C9.007 79.221 7.926 78.805 6.812 78.375 C-13.141 70.348 -26.348 61.138 -35 41 C-37.848 31.677 -35.019 22.85 -30.68 14.441 C-24.956 5.169 -17.485 1.263 -7.312 -1.812 C-4.409 -2.048 -2.592 -1.259 0 0 Z M21.875 89.562 C21.212 90.059 20.55 90.555 19.867 91.066 C15.362 95.732 14.541 100.698 14.497 106.958 C14.481 107.733 14.465 108.508 14.448 109.306 C14.401 111.855 14.379 114.404 14.363 116.953 C14.357 117.829 14.351 118.704 14.345 119.607 C14.317 124.241 14.312 128.875 14.322 133.51 C14.326 137.331 14.284 141.148 14.201 144.968 C14.1 149.6 14.079 154.226 14.113 158.858 C14.113 160.614 14.086 162.37 14.031 164.125 C13.544 173.568 13.544 173.568 17.564 181.7 C21.4 184.784 25.598 187 30.047 189.066 C32.817 190.391 35.384 192.003 37.98 193.637 C39.714 194.657 41.45 195.674 43.188 196.688 C44.075 197.223 44.963 197.759 45.877 198.311 C47.166 199.06 47.166 199.06 48.48 199.824 C49.608 200.491 49.608 200.491 50.759 201.171 C53.58 202.215 55.159 201.885 58 201 C66.703 193.552 69.574 179.824 71 169 C71.278 165.078 71.335 161.181 71.312 157.25 C71.307 156.2 71.301 155.15 71.295 154.069 C70.978 133.629 65.11 116.1 51.137 100.984 C44.77 94.931 30.129 83.105 21.875 89.562 Z " fill="#F9F9F9" transform="translate(1097,184)"/>
<path d="M0 0 C4.185 0.505 6.015 1.559 8.855 4.641 C9.914 5.752 9.914 5.752 10.994 6.887 C12.44 8.444 13.882 10.004 15.322 11.566 C22.339 18.92 29.698 22.718 39.5 25.125 C45.778 26.667 45.778 26.667 48 30 C45.417 32.686 42.599 34.881 39.621 37.109 C35.708 41.673 35.748 47.854 35.741 53.597 C35.738 54.321 35.734 55.046 35.731 55.793 C35.722 58.169 35.728 60.545 35.734 62.922 C35.733 64.589 35.731 66.257 35.729 67.925 C35.726 71.415 35.73 74.905 35.739 78.395 C35.751 82.84 35.744 87.286 35.732 91.732 C35.725 95.176 35.727 98.619 35.732 102.063 C35.734 103.701 35.732 105.338 35.727 106.976 C35.148 122.298 35.148 122.298 40.188 136.25 C42.953 138.295 42.953 138.295 46.562 138.125 C50.529 136.827 51.78 135.463 54 132 C55.32 132.66 56.64 133.32 58 134 C57.447 138.647 55.383 142.055 52.938 145.938 C52.118 147.265 51.301 148.593 50.484 149.922 C50.07 150.595 49.656 151.269 49.229 151.963 C46.636 156.261 44.244 160.677 41.824 165.074 C40.066 167.894 38.672 170.02 36 172 C26.55 171.525 18.177 163.429 12 157 C3.74 146.936 1.784 135.936 1.969 123.194 C1.985 121.427 2.001 119.661 2.016 117.894 C2.031 116.503 2.031 116.503 2.045 115.083 C2.097 109.099 2.091 103.115 2.097 97.131 C2.105 91.885 2.133 86.64 2.202 81.395 C2.268 76.303 2.281 71.213 2.257 66.12 C2.258 64.189 2.277 62.257 2.318 60.326 C2.894 49.35 2.894 49.35 -1.322 39.633 C-5.797 35.427 -10.471 32.63 -16 30 C-17.897 31.416 -19.792 32.832 -21.688 34.25 C-22.743 35.039 -23.799 35.828 -24.887 36.641 C-25.914 37.419 -26.941 38.198 -28 39 C-28.877 39.553 -29.753 40.106 -30.656 40.676 C-33.301 43.299 -33.593 44.734 -33.655 48.4 C-33.642 49.109 -33.629 49.817 -33.615 50.547 C-33.621 51.302 -33.626 52.057 -33.632 52.835 C-33.644 55.331 -33.62 57.825 -33.594 60.32 C-33.592 62.062 -33.592 63.803 -33.594 65.545 C-33.592 69.198 -33.574 72.851 -33.542 76.505 C-33.502 81.165 -33.498 85.825 -33.505 90.485 C-33.509 94.085 -33.496 97.685 -33.479 101.285 C-33.472 103.001 -33.469 104.718 -33.47 106.434 C-33.925 121.719 -33.925 121.719 -27.375 134.875 C-26.591 135.576 -25.808 136.278 -25 137 C-24.352 139.133 -24.352 139.133 -24 141 C-24.45 141.343 -24.9 141.686 -25.363 142.039 C-35.245 150.079 -42.927 160.878 -49 172 C-51.266 171.871 -51.266 171.871 -54 171 C-55.922 168.41 -55.922 168.41 -57.75 165.062 C-63.245 155.484 -70.493 148.001 -79 141 C-77.745 138.24 -76.88 136.893 -74.562 134.812 C-66.41 125.864 -67.838 111.638 -67.832 100.352 C-67.829 98.93 -67.825 97.508 -67.822 96.086 C-67.816 93.115 -67.814 90.145 -67.815 87.175 C-67.815 83.394 -67.801 79.613 -67.784 75.832 C-67.773 72.897 -67.771 69.963 -67.771 67.029 C-67.77 65.636 -67.766 64.243 -67.758 62.851 C-67.317 49.177 -67.317 49.177 -72.25 36.875 C-74.883 34.835 -74.883 34.835 -78 34.312 C-82.343 35.308 -83.46 37.414 -86 41 C-87.32 40.34 -88.64 39.68 -90 39 C-89.458 33.948 -87.034 30.301 -84.438 26.062 C-83.528 24.553 -82.619 23.042 -81.711 21.531 C-81.028 20.398 -81.028 20.398 -80.331 19.242 C-79.075 17.126 -77.86 14.994 -76.664 12.844 C-76.308 12.204 -75.951 11.565 -75.584 10.906 C-74.616 9.159 -73.654 7.41 -72.691 5.66 C-71 3 -71 3 -68 1 C-60.743 1.372 -55.684 5.879 -50 10 C-49.312 10.487 -48.623 10.975 -47.914 11.477 C-41.97 16.076 -36.843 22.947 -35.305 30.344 C-35.154 31.659 -35.154 31.659 -35 33 C-30.897 31.623 -28.332 29.764 -25.188 26.812 C-23.882 25.602 -23.882 25.602 -22.551 24.367 C-21.709 23.586 -20.867 22.805 -20 22 C-18.63 20.807 -17.255 19.619 -15.875 18.438 C-9.497 12.847 -3.828 7.656 0 0 Z " fill="#F8F8F8" transform="translate(718,244)"/>
<path d="M0 0 C4.962 0.782 6.579 2.261 10 6 C22.66 19.596 36.843 28.791 54.672 34.273 C57 35 57 35 59 36 C58.667 39.108 58.106 39.914 55.625 41.938 C54.759 42.618 53.892 43.299 53 44 C49.049 49.645 48.85 54.538 48.867 61.277 C48.866 62.104 48.864 62.932 48.863 63.784 C48.861 66.502 48.867 69.22 48.875 71.938 C48.876 72.864 48.877 73.79 48.879 74.744 C48.9 88.458 49.08 102.165 49.438 115.875 C49.457 116.669 49.477 117.463 49.497 118.28 C49.554 120.518 49.617 122.755 49.684 124.992 C49.72 126.254 49.757 127.516 49.795 128.816 C49.96 131.385 50.248 133.554 51 136 C56.36 137.407 56.36 137.407 61.43 135.695 C62.988 134.586 64.521 133.439 66.02 132.25 C66.673 131.837 67.327 131.425 68 131 C68.99 131.33 69.98 131.66 71 132 C70.564 137.729 68.231 141.167 65.062 145.75 C59.16 154.549 54.026 163.679 49 173 C44.975 172.287 42.486 171.139 39 169 C37.546 168.385 36.087 167.782 34.625 167.188 C24.927 162.861 21.149 156.648 17 147 C16.67 146.01 16.34 145.02 16 144 C10.67 144.375 7.749 147.355 3.875 150.688 C-2.363 155.889 -8.692 160.936 -15.188 165.812 C-15.989 166.429 -16.79 167.045 -17.616 167.68 C-18.375 168.246 -19.135 168.812 -19.918 169.395 C-20.92 170.15 -20.92 170.15 -21.942 170.921 C-24.443 172.232 -26.215 172.202 -29 172 C-29.309 171.051 -29.619 170.102 -29.938 169.125 C-32.701 162.66 -38.259 157.823 -43.086 152.852 C-59.07 135.856 -65.035 113.786 -64.34 90.895 C-63.205 70.237 -53.262 54.042 -38.222 40.385 C-34.718 37.28 -31.144 34.264 -27.538 31.278 C-16.352 21.982 -7.595 12.427 0 0 Z M-18.844 31.984 C-32.452 54.708 -35.216 77.819 -29.195 103.461 C-25.151 119.341 -17.949 132.13 -3.812 141 C-0.535 142.165 1.548 142.503 5 142 C8.874 139.831 12.121 137.381 15 134 C15.623 131.578 15.623 131.578 15.574 128.875 C15.602 127.8 15.629 126.726 15.657 125.619 C15.667 124.424 15.677 123.23 15.688 122 C15.724 120.044 15.76 118.088 15.798 116.131 C15.824 114.661 15.847 113.191 15.867 111.721 C15.951 105.849 16.115 99.982 16.303 94.112 C16.452 89.386 16.583 84.66 16.711 79.933 C16.779 77.561 16.852 75.189 16.932 72.818 C17.043 69.449 17.128 66.081 17.207 62.711 C17.246 61.689 17.286 60.668 17.326 59.615 C17.527 54.142 17.527 54.142 15.124 49.404 C12.942 47.962 10.84 46.845 8.438 45.812 C1.438 42.473 -4.876 37.544 -10.008 31.723 C-11.897 29.81 -11.897 29.81 -14.531 29.453 C-17.154 29.789 -17.154 29.789 -18.844 31.984 Z " fill="#F9F9F9" transform="translate(975,244)"/>
<path d="M0 0 C0.352 1.16 0.704 2.32 1.066 3.516 C4.874 15.713 9.619 25.706 17.5 35.875 C29.309 51.379 36.626 72.347 35 92 C32.343 105.754 25.874 115.467 17 126 C16.407 126.74 15.814 127.48 15.203 128.242 C8.086 136.789 -0.939 143.349 -10.161 149.465 C-19.622 155.753 -26.36 163.176 -32 173 C-36.248 171.645 -38.176 169.956 -40.938 166.5 C-54.185 151.382 -73.453 143.626 -92 137 C-92 135.68 -92 134.36 -92 133 C-90.639 132.196 -90.639 132.196 -89.25 131.375 C-84.65 128.59 -83.459 123.963 -82 119 C-81.517 115.725 -81.489 112.542 -81.546 109.236 C-81.545 108.318 -81.545 107.399 -81.544 106.453 C-81.547 103.455 -81.578 100.459 -81.609 97.461 C-81.617 95.368 -81.623 93.275 -81.627 91.181 C-81.642 85.7 -81.681 80.219 -81.725 74.739 C-81.766 69.134 -81.785 63.53 -81.805 57.926 C-81.847 46.95 -81.916 35.975 -82 25 C-78.805 23.683 -76.024 22.715 -72.586 22.324 C-71.753 22.221 -70.919 22.119 -70.061 22.013 C-68.731 21.852 -68.731 21.852 -67.375 21.688 C-45.738 18.784 -24.293 12.359 -5.398 1.25 C-3 0 -3 0 0 0 Z M-42.125 23.375 C-43.014 23.63 -43.904 23.885 -44.82 24.148 C-47.173 24.787 -47.173 24.787 -48 27 C-48.1 28.997 -48.131 30.997 -48.133 32.996 C-48.136 34.312 -48.14 35.627 -48.143 36.982 C-48.136 40.022 -48.11 43.06 -48.077 46.1 C-48.06 47.794 -48.044 49.489 -48.027 51.184 C-48.018 52.079 -48.009 52.975 -47.999 53.898 C-47.954 60.658 -48.111 67.399 -48.327 74.155 C-48.48 79.447 -48.553 84.738 -48.614 90.032 C-48.663 92.665 -48.745 95.297 -48.861 97.928 C-50.002 111.835 -50.002 111.835 -45.155 124.299 C-40.669 128.166 -35.696 130.683 -30.271 132.982 C-27.099 134.404 -24.451 136.233 -21.625 138.25 C-18.236 140.568 -16.14 141.513 -12 141 C-3 133.847 2.259 122.176 4 111 C5.375 87.564 -1.441 69.604 -16.566 52.016 C-24.286 42.789 -29.243 33.018 -34 22 C-37.044 22 -39.219 22.519 -42.125 23.375 Z " fill="#F9F9F9" transform="translate(577,242)"/>
<path d="M0 0 C9.173 0 17.417 7.738 23.738 13.633 C28.609 18.731 32.059 24.629 35 31 C35.99 31 36.98 31 38 31 C38.226 30.455 38.451 29.909 38.684 29.348 C40.391 26.302 42.67 23.947 45.062 21.438 C49.676 16.513 54.001 11.447 58.223 6.18 C60 4 60 4 62 2 C64.355 1.929 64.355 1.929 67 3 C68.697 5.389 70 7.552 71.312 10.141 C71.69 10.86 72.067 11.579 72.456 12.32 C73.248 13.842 74.031 15.369 74.805 16.9 C75.996 19.243 77.228 21.56 78.465 23.879 C79.229 25.361 79.991 26.844 80.75 28.328 C81.122 29.021 81.493 29.714 81.876 30.428 C82.859 32.419 82.859 32.419 84 36 C82.856 38.789 82.856 38.789 81 41 C80.19 42.007 79.381 43.014 78.547 44.051 C77.618 45.141 76.686 46.228 75.75 47.312 C75.265 47.88 74.78 48.447 74.28 49.032 C70.553 53.383 66.797 57.71 63 62 C61.202 61.834 61.202 61.834 59 61 C57.353 58.683 57.353 58.683 55.766 55.652 C55.192 54.573 54.618 53.493 54.027 52.381 C53.441 51.245 52.854 50.108 52.25 48.938 C51.648 47.797 51.046 46.657 50.426 45.482 C48.938 42.661 47.464 39.834 46 37 C43.313 37 41.53 37.615 39.356 39.193 C32.811 46.062 34.194 55.789 34.309 64.613 C34.312 66.433 34.314 68.253 34.313 70.073 C34.317 73.873 34.342 77.673 34.383 81.473 C34.434 86.347 34.445 91.22 34.443 96.094 C34.444 99.845 34.46 103.597 34.482 107.348 C34.491 109.146 34.497 110.943 34.499 112.741 C34.506 115.248 34.532 117.753 34.564 120.259 C34.562 121.374 34.562 121.374 34.56 122.512 C34.614 126.452 34.614 126.452 36.37 129.877 C38.671 131.462 40.96 132.966 43.375 134.375 C44.311 134.94 45.247 135.504 46.211 136.086 C49.008 137.342 49.008 137.342 51.66 135.867 C54.247 133.803 56.324 131.61 58.473 129.109 C60 128 60 128 62.184 128.328 C62.783 128.55 63.382 128.772 64 129 C63.48 133.025 62.536 134.895 59.688 137.75 C51.13 146.971 43.636 157.698 38.281 169.094 C37 171 37 171 35.127 171.805 C33 172 33 172 31.328 170.832 C30.512 169.939 30.512 169.939 29.68 169.027 C29.068 168.378 28.455 167.728 27.825 167.058 C27.181 166.358 26.538 165.659 25.875 164.938 C16.369 155.08 7.437 150.48 -5.438 146.199 C-9 145 -9 145 -11 144 C-11 142.68 -11 141.36 -11 140 C-10.186 139.671 -10.186 139.671 -9.355 139.336 C-8.64 139.019 -7.925 138.702 -7.188 138.375 C-6.48 138.073 -5.772 137.772 -5.043 137.461 C-2.128 135.377 -1.35 133.315 0 130 C0.28 127.143 0.411 124.51 0.388 121.659 C0.393 120.843 0.399 120.028 0.404 119.188 C0.417 116.504 0.409 113.821 0.398 111.137 C0.4 109.261 0.403 107.386 0.407 105.51 C0.412 101.582 0.405 97.654 0.391 93.726 C0.374 88.709 0.384 83.693 0.402 78.676 C0.413 74.803 0.409 70.929 0.401 67.056 C0.399 65.207 0.402 63.358 0.409 61.51 C0.417 58.916 0.405 56.323 0.388 53.729 C0.394 52.976 0.4 52.223 0.407 51.447 C0.343 46.03 -0.541 40.882 -3 36 C-6.518 33.655 -7.858 33.42 -12 34 C-13.707 35.626 -15.377 37.291 -17 39 C-18.32 39 -19.64 39 -21 39 C-20.564 32.931 -18.63 28.994 -15.438 23.875 C-14.991 23.14 -14.545 22.405 -14.086 21.648 C-13.174 20.15 -12.258 18.655 -11.335 17.163 C-10.087 15.141 -8.855 13.11 -7.629 11.074 C-2.342 2.342 -2.342 2.342 0 0 Z " fill="#F8F8F8" transform="translate(813,243)"/>
<path d="M0 0 C2.938 1 2.938 1 5 2 C5 2.99 5 3.98 5 5 C1.7 5.33 -1.6 5.66 -5 6 C-5.33 8.31 -5.66 10.62 -6 13 C-5.34 12.835 -4.68 12.67 -4 12.5 C-0.269 11.878 3.219 11.936 7 12 C6.67 14.31 6.34 16.62 6 19 C0.41 19.981 -3.647 20.368 -9 18 C-12.072 14.698 -12.983 12.962 -13.062 8.438 C-10.875 1.362 -7.273 -0.909 0 0 Z " fill="#E3E3E3" transform="translate(421,176)"/>
<path d="M0 0 C2 1 2 1 3.289 4.379 C3.742 5.771 4.187 7.166 4.625 8.562 C4.854 9.273 5.084 9.984 5.32 10.717 C5.887 12.476 6.444 14.238 7 16 C6.01 16.33 5.02 16.66 4 17 C1.603 11.267 0.416 6.195 0 0 Z " fill="#B6B6B6" transform="translate(339,227)"/>
<path d="M0 0 C0.33 0 0.66 0 1 0 C1 1.98 1 3.96 1 6 C1.66 6 2.32 6 3 6 C2.34 8.64 1.68 11.28 1 14 C0.67 14 0.34 14 0 14 C0 9.38 0 4.76 0 0 Z " fill="#A5A5A5" transform="translate(398,370)"/>
</svg>