
<!-- Generator: visioncortex VTracer 0.6.4 -->
<svg version="1.1" xmlns="http://www.w3.org/2000/svg" viewBox="0 0 1039 535" preserveAspectRatio="xMidYMid meet">
<path d="M0 0 C0.023 58.438 0.041 116.875 0.051 175.313 C0.052 182.248 0.054 189.183 0.055 196.118 C0.055 197.153 0.055 197.153 0.055 198.209 C0.06 220.426 0.067 242.643 0.076 264.86 C0.086 288.416 0.092 311.972 0.094 335.528 C0.095 348.338 0.098 361.148 0.106 373.958 C0.157 466.409 0.157 466.409 -0.296 502.58 C-0.318 504.548 -0.335 506.517 -0.352 508.485 C-0.383 511.973 -0.434 515.461 -0.492 518.949 C-0.501 520.444 -0.501 520.444 -0.51 521.969 C-0.539 523.313 -0.539 523.313 -0.569 524.685 C-0.58 525.454 -0.591 526.222 -0.602 527.014 C-1.111 529.553 -1.976 530.424 -4 532 C-7.812 533.271 -11.504 533.349 -15.484 533.528 C-16.807 533.59 -16.807 533.59 -18.157 533.653 C-30.186 534.182 -42.222 534.371 -54.26 534.552 C-54.927 534.562 -55.594 534.573 -56.281 534.583 C-97.58 535.224 -138.883 535.165 -180.186 535.167 C-186.913 535.168 -193.641 535.17 -200.369 535.173 C-222.689 535.181 -245.009 535.186 -267.329 535.185 C-268.518 535.185 -269.707 535.185 -270.932 535.185 C-272.122 535.185 -273.313 535.185 -274.54 535.185 C-293.991 535.185 -313.441 535.194 -332.892 535.208 C-352.989 535.223 -373.086 535.23 -393.184 535.229 C-404.419 535.229 -415.654 535.231 -426.889 535.242 C-436.407 535.251 -445.925 535.253 -455.443 535.247 C-460.291 535.243 -465.139 535.243 -469.987 535.252 C-474.424 535.26 -478.861 535.258 -483.298 535.25 C-484.901 535.248 -486.504 535.25 -488.106 535.255 C-495.962 535.281 -503.407 535.242 -511 533 C-513.828 530.172 -513.118 522.036 -513.133 518.263 C-513.131 517.585 -513.128 516.906 -513.126 516.207 C-513.128 515.089 -513.128 515.089 -513.13 513.948 C-513.134 511.461 -513.13 508.973 -513.127 506.485 C-513.128 504.679 -513.13 502.872 -513.132 501.066 C-513.136 496.109 -513.134 491.151 -513.131 486.194 C-513.128 480.843 -513.132 475.492 -513.135 470.141 C-513.139 459.65 -513.138 449.159 -513.135 438.668 C-513.133 430.12 -513.133 421.572 -513.134 413.024 C-513.134 411.806 -513.134 410.588 -513.134 409.333 C-513.135 406.858 -513.135 404.382 -513.135 401.907 C-513.138 378.67 -513.135 355.433 -513.129 332.197 C-513.125 312.349 -513.126 292.501 -513.13 272.653 C-513.136 249.555 -513.138 226.457 -513.135 203.359 C-513.134 200.882 -513.134 198.404 -513.134 195.927 C-513.134 194.708 -513.134 193.49 -513.133 192.234 C-513.132 183.736 -513.134 175.238 -513.136 166.74 C-513.139 156.324 -513.138 145.908 -513.133 135.492 C-513.13 130.198 -513.129 124.905 -513.133 119.611 C-513.144 99.357 -513.067 79.107 -512.673 58.856 C-512.636 56.969 -512.602 55.082 -512.571 53.194 C-512.401 43.312 -511.997 33.477 -511.149 23.628 C-511.081 22.766 -511.013 21.904 -510.944 21.015 C-510.447 15.784 -509.44 11.675 -507 7 C-499.834 2.223 -486.861 3.724 -478.594 3.469 C-477.287 3.427 -475.981 3.385 -474.635 3.343 C-459.43 2.877 -444.221 2.696 -429.009 2.531 C-426.439 2.503 -423.869 2.474 -421.298 2.444 C-375.974 1.919 -330.648 1.517 -285.322 1.136 C-272.432 1.027 -259.542 0.917 -246.652 0.8 C-164.432 0.053 -82.222 -0.12 0 0 Z M-451.817 9.352 C-455.475 9.379 -459.133 9.402 -462.791 9.425 C-468.315 9.46 -473.838 9.506 -479.362 9.56 C-481.324 9.579 -483.286 9.594 -485.248 9.605 C-487.866 9.622 -490.484 9.65 -493.103 9.682 C-494.232 9.685 -494.232 9.685 -495.385 9.688 C-499.031 9.747 -501.977 9.824 -505 12 C-505.7 14.157 -505.7 14.157 -505.73 16.729 C-505.786 17.724 -505.841 18.719 -505.898 19.744 C-505.932 20.818 -505.965 21.893 -506 23 C-506.037 24.072 -506.074 25.143 -506.113 26.248 C-506.213 29.941 -506.266 33.634 -506.316 37.328 C-506.326 38.003 -506.335 38.678 -506.345 39.374 C-506.878 78.518 -507.076 117.659 -507.06 156.807 C-507.059 160.827 -507.058 164.848 -507.057 168.868 C-507.046 236.573 -506.803 304.277 -506.555 371.981 C-506.511 383.824 -506.469 395.668 -506.427 407.511 C-506.423 408.788 -506.423 408.788 -506.418 410.09 C-506.403 414.364 -506.388 418.637 -506.373 422.911 C-506.252 457.608 -506.127 492.304 -506 527 C-501.582 528.913 -497.848 529.279 -493.081 529.243 C-492.279 529.245 -491.476 529.247 -490.65 529.249 C-487.919 529.252 -485.188 529.241 -482.457 529.23 C-480.444 529.23 -478.43 529.23 -476.416 529.23 C-470.76 529.229 -465.104 529.215 -459.447 529.197 C-454.533 529.184 -449.619 529.178 -444.705 529.171 C-425.136 529.144 -405.568 529.075 -386 529 C-385.083 528.997 -384.166 528.993 -383.221 528.989 C-296.367 528.66 -209.511 528.304 -122.659 527.529 C-119.465 527.501 -116.271 527.473 -113.077 527.446 C-92.474 527.266 -71.875 526.998 -51.275 526.593 C-49.198 526.553 -47.12 526.513 -45.043 526.474 C-33.667 526.259 -22.344 525.906 -11 525 C-8.764 520.452 -8.58 516.278 -8.395 511.311 C-8.357 510.472 -8.32 509.632 -8.281 508.766 C-7.921 500.185 -7.777 491.604 -7.688 483.017 C-7.667 481.271 -7.647 479.526 -7.626 477.78 C-7.57 472.991 -7.522 468.203 -7.475 463.414 C-7.445 460.313 -7.413 457.213 -7.382 454.113 C-6.788 394.695 -6.848 335.273 -6.871 275.853 C-6.875 263.9 -6.874 251.947 -6.87 239.994 C-6.864 225.795 -6.862 211.596 -6.865 197.396 C-6.866 195.864 -6.866 194.331 -6.866 192.799 C-6.866 192.046 -6.866 191.294 -6.867 190.519 C-6.867 185.409 -6.866 180.3 -6.864 175.191 C-6.851 144.365 -6.983 113.546 -7.414 82.723 C-7.445 80.472 -7.475 78.222 -7.505 75.971 C-7.56 71.794 -7.623 67.618 -7.688 63.441 C-7.705 62.209 -7.721 60.977 -7.738 59.708 C-7.845 53.403 -8.179 47.254 -9 41 C-10.65 40.34 -12.3 39.68 -14 39 C-15.131 42.393 -15.13 44.969 -15.136 48.548 C-15.138 49.22 -15.141 49.892 -15.144 50.584 C-15.151 52.851 -15.151 55.118 -15.151 57.386 C-15.155 59.022 -15.16 60.658 -15.164 62.295 C-15.176 66.807 -15.181 71.318 -15.186 75.83 C-15.192 80.695 -15.204 85.559 -15.215 90.423 C-15.233 98.871 -15.248 107.32 -15.26 115.768 C-15.279 128.058 -15.303 140.348 -15.33 152.638 C-15.373 172.676 -15.412 192.714 -15.448 212.752 C-15.45 213.953 -15.452 215.153 -15.454 216.39 C-15.465 222.462 -15.476 228.533 -15.487 234.605 C-15.508 246.617 -15.53 258.63 -15.552 270.643 C-15.554 271.822 -15.557 273.001 -15.559 274.215 C-15.595 294.098 -15.635 313.981 -15.678 333.864 C-15.701 344.988 -15.723 356.112 -15.74 367.236 C-15.817 417.832 -16.076 468.412 -17 519 C-46.158 519.7 -75.312 520.261 -104.477 520.555 C-105.483 520.565 -106.489 520.575 -107.526 520.586 C-174.419 521.27 -241.317 521.152 -308.212 521.129 C-322.047 521.125 -335.883 521.126 -349.718 521.13 C-366.032 521.136 -382.346 521.138 -398.659 521.135 C-400.395 521.134 -402.131 521.134 -403.867 521.134 C-404.72 521.134 -405.573 521.134 -406.452 521.133 C-412.406 521.132 -418.36 521.134 -424.314 521.136 C-431.521 521.139 -438.729 521.138 -445.937 521.133 C-449.597 521.13 -453.257 521.129 -456.917 521.133 C-460.892 521.136 -464.866 521.132 -468.841 521.127 C-469.977 521.129 -471.113 521.131 -472.284 521.134 C-480.224 521.115 -488.087 520.652 -496 520 C-496.919 511.577 -497.206 503.214 -497.313 494.746 C-497.334 493.33 -497.354 491.914 -497.375 490.498 C-497.431 486.629 -497.48 482.76 -497.527 478.891 C-497.557 476.405 -497.588 473.918 -497.62 471.431 C-498.151 429.29 -498.132 387.148 -498.104 345.004 C-498.096 333.666 -498.095 322.328 -498.094 310.989 C-498.092 290.788 -498.085 270.588 -498.075 250.387 C-498.066 230.826 -498.059 211.266 -498.055 191.705 C-498.055 190.488 -498.054 189.272 -498.054 188.018 C-498.053 181.911 -498.052 175.805 -498.05 169.698 C-498.04 119.465 -498.023 69.233 -498 19 C-443.718 17.879 -443.718 17.879 -418.773 17.719 C-416.357 17.701 -413.941 17.682 -411.525 17.664 C-405.137 17.616 -398.75 17.571 -392.362 17.527 C-385.452 17.48 -378.542 17.429 -371.632 17.379 C-369.49 17.364 -367.347 17.348 -365.205 17.332 C-363.767 17.322 -362.33 17.312 -360.892 17.301 C-356.549 17.269 -352.205 17.238 -347.862 17.207 C-329.507 17.077 -311.152 16.925 -292.797 16.751 C-231.008 16.168 -169.223 15.895 -107.432 15.878 C-101.65 15.876 -95.869 15.873 -90.088 15.869 C-80.061 15.862 -70.034 15.861 -60.008 15.866 C-56.639 15.867 -53.27 15.866 -49.901 15.864 C-45.998 15.861 -42.095 15.863 -38.191 15.869 C-36.773 15.87 -35.354 15.87 -33.935 15.867 C-32.007 15.865 -30.078 15.869 -28.149 15.873 C-27.075 15.873 -26.001 15.874 -24.894 15.874 C-22 16 -22 16 -17 17 C-16.34 21.62 -15.68 26.24 -15 31 C-13.35 31.33 -11.7 31.66 -10 32 C-8.278 29.009 -7.758 26.893 -7.805 23.453 C-7.811 22.609 -7.818 21.764 -7.824 20.895 C-7.841 20.022 -7.858 19.149 -7.875 18.25 C-7.889 16.918 -7.889 16.918 -7.902 15.559 C-7.926 13.372 -7.959 11.186 -8 9 C-54.197 8.977 -100.395 8.959 -146.592 8.949 C-152.122 8.948 -157.652 8.946 -163.182 8.945 C-164.282 8.945 -165.382 8.945 -166.516 8.944 C-181.876 8.941 -197.236 8.934 -212.596 8.926 C-332.208 8.811 -332.208 8.811 -451.817 9.352 Z M-52.438 33.812 C-70.487 40.642 -86.775 43.837 -105.344 37.191 C-108.993 36.002 -112.206 35.425 -116 35 C-116.66 36.32 -117.32 37.64 -118 39 C-113.506 45.706 -108.611 51.847 -100.5 53.875 C-99.262 53.937 -99.262 53.937 -98 54 C-96.99 62.224 -99.848 67.686 -103.469 74.84 C-105.145 77.715 -105.145 77.715 -105 80 C-98.266 78.797 -92.172 76.67 -85.85 74.121 C-81.535 72.422 -77.616 71.486 -73 71 C-72.974 71.822 -72.948 72.645 -72.922 73.492 C-72.462 82.553 -71.624 91.074 -64.625 97.5 C-60.088 100.901 -56.294 102.293 -50.625 101.625 C-49.429 101.419 -48.233 101.213 -47 101 C-47.377 97.799 -47.949 96.07 -49.875 93.438 C-56.16 84.344 -55.794 72.466 -54 62 C-52.003 52.852 -48.614 44.525 -44.039 36.355 C-42.652 33.925 -42.652 33.925 -44 31 C-46.743 31 -49.856 32.823 -52.438 33.812 Z M-417.164 47.357 C-422.921 51.863 -426.915 52.472 -434 52 C-435.631 51.698 -437.257 51.364 -438.875 51 C-446.14 49.413 -453.122 48.888 -460 52 C-458.768 55.971 -456.244 57.273 -452.688 59.146 C-452.007 59.49 -451.326 59.834 -450.625 60.188 C-449.952 60.543 -449.279 60.898 -448.586 61.264 C-441.018 65.189 -433.151 66.559 -424.719 64.422 C-417.719 61.366 -412.913 55.108 -409 48.75 C-407.984 45.955 -407.74 43.947 -408 41 C-410.775 41 -414.92 45.577 -417.164 47.357 Z M-468.188 60.125 C-470.261 63.414 -471.156 65.096 -471 69 C-468.779 73.005 -466.434 75.582 -462 76.875 C-458.184 75.762 -456.476 74.134 -454.09 71.008 C-452.744 68.836 -452.744 68.836 -452.625 65.312 C-454.333 61.197 -455.956 60.395 -459.895 58.629 C-463.593 57.524 -465.379 57.397 -468.188 60.125 Z M-380 50 C-377.161 53.864 -374.251 56.469 -370.312 59.188 C-364.316 63.341 -364.316 63.341 -363.5 67.625 C-364.392 73.648 -369.104 77.204 -373.375 81.25 C-384.325 88.55 -396.073 89.524 -408.875 87 C-409.758 86.823 -410.641 86.647 -411.551 86.465 C-419.496 84.957 -425.306 86.463 -432 91 C-440.441 98.238 -443.845 107.117 -445 118 C-444.925 136.127 -440.275 148.751 -430.139 163.727 C-417.671 182.158 -417.671 182.158 -419.625 193.688 C-421.2 197.483 -422.9 199.333 -426 202 C-426.722 202.681 -427.444 203.361 -428.188 204.062 C-433.008 207.383 -438.217 209.889 -444.125 210.125 C-450.15 207.767 -455.653 203.507 -459.131 197.994 C-461.908 191.623 -457.92 182.769 -455.938 176.562 C-455.382 174.794 -454.828 173.024 -454.277 171.254 C-454.032 170.484 -453.787 169.714 -453.535 168.92 C-452.911 167.011 -452.911 167.011 -453 165 C-458.361 165.325 -461.513 168.194 -465 172 C-470.358 179.332 -476.761 188.492 -476 198 C-474.08 205.417 -471.902 212.885 -466 218 C-458.544 222.357 -451.92 225.402 -443.262 223.352 C-430.455 219.465 -420.474 212.861 -413.879 200.98 C-408.471 189.104 -411.575 177.385 -415.844 165.687 C-417.041 162.558 -418.264 159.441 -419.537 156.342 C-423.006 147.834 -426.2 138.72 -422.75 129.75 C-419.405 124.494 -415.905 119.448 -410 117 C-402.219 115.818 -395.078 116.304 -388.234 120.352 C-374.496 130.487 -368.314 149.376 -363 165 C-362.746 165.746 -362.491 166.493 -362.229 167.262 C-358.982 177.21 -357.644 186.914 -357.375 197.355 C-357.338 198.617 -357.301 199.878 -357.263 201.178 C-356.732 221.101 -356.85 241.042 -356.87 260.97 C-356.875 266.9 -356.872 272.829 -356.866 278.759 C-356.862 283.405 -356.864 288.051 -356.866 292.697 C-356.867 294.881 -356.866 297.066 -356.864 299.251 C-356.848 317.321 -357.3 335.33 -359.016 353.328 C-359.113 354.371 -359.211 355.414 -359.312 356.489 C-359.517 358.66 -359.726 360.83 -359.937 363 C-360.248 366.232 -360.54 369.466 -360.832 372.699 C-361.871 383.733 -363.304 394.59 -365.461 405.465 C-365.66 406.471 -365.86 407.478 -366.065 408.515 C-371.108 432.679 -382.805 455.363 -403.25 470 C-409.003 473.51 -414.384 474.308 -421 473 C-424.456 471.287 -425.831 470.253 -428 467 C-428.856 460.122 -428.135 454.162 -425 448 C-415.596 439.495 -401.958 437.122 -390 434 C-390 433.34 -390 432.68 -390 432 C-397.452 428.274 -411.692 430.686 -419.332 432.973 C-428.722 436.588 -434.683 442.28 -441 450 C-435.93 426.75 -435.93 426.75 -426.441 420.246 C-425.491 419.649 -424.541 419.052 -423.562 418.438 C-408.61 408.609 -396.912 398.16 -392.75 380.125 C-390.151 365.091 -392.809 349.93 -401 337 C-406.991 328.794 -413.417 324.194 -423 321 C-430.444 320.404 -437.72 321.053 -445.062 322.25 C-446.151 322.414 -446.151 322.414 -447.262 322.581 C-451.721 323.377 -454.223 324.389 -457 328 C-459.545 332.816 -460.693 336.559 -460 342 C-457.729 346.29 -455.171 349.478 -451 352 C-446.156 352.932 -443.322 351.887 -439.25 349.375 C-435.563 346.695 -433.311 344.495 -432 340 C-432.211 336.721 -432.211 336.721 -433 334 C-426.878 334.919 -421.713 335.715 -417 340 C-409.313 350.546 -403.593 364.133 -405.402 377.359 C-407.679 387.418 -412.305 396.203 -421 402 C-423.688 402.125 -423.688 402.125 -426 402 C-426.208 401.189 -426.415 400.378 -426.629 399.543 C-430.14 386.925 -436.627 375.837 -447 367.625 C-452.869 364.413 -452.869 364.413 -459.422 364.492 C-467.216 367.161 -471.814 371.623 -475.469 378.941 C-476.756 381.932 -477.916 384.93 -479 388 C-479.371 389.046 -479.371 389.046 -479.75 390.113 C-480.927 393.799 -481.188 397.148 -481 401 C-476.848 398.822 -474.465 396.394 -471.625 392.688 C-467.197 387.118 -462.705 381.788 -456 379 C-452.269 379.133 -449.84 379.417 -446.75 381.562 C-441.039 389.517 -441.023 398.579 -442 408 C-443.541 416.072 -446.558 423.42 -449.779 430.944 C-452.347 437.257 -453.557 443.778 -454.707 450.475 C-454.85 451.294 -454.993 452.113 -455.141 452.957 C-455.26 453.689 -455.378 454.421 -455.501 455.175 C-456 457 -456 457 -458 459 C-459.002 458.567 -460.003 458.134 -461.035 457.688 C-462.377 457.124 -463.72 456.562 -465.062 456 C-465.719 455.714 -466.376 455.428 -467.053 455.133 C-471.601 453.251 -475.081 452.693 -480 453 C-480 453.99 -480 454.98 -480 456 C-477.853 458.009 -475.574 459.639 -473.086 461.203 C-465.084 466.266 -458.433 472.757 -451.621 479.277 C-440.477 489.664 -428.107 494.565 -412.938 494.375 C-411.544 494.392 -411.544 494.392 -410.123 494.41 C-402.652 494.379 -395.481 493.559 -389.875 488.25 C-387 486 -387 486 -383.734 486.102 C-378.367 487.393 -374.59 490.291 -370.086 493.383 C-367.191 495.209 -367.191 495.209 -364.359 494.977 C-358.765 492.661 -353.33 486.534 -351 481 C-350.481 477.19 -351.124 474.555 -352.5 471.062 C-354.003 466.822 -354.4 462.719 -354.5 458.25 C-354.531 456.997 -354.562 455.744 -354.594 454.453 C-353.832 450.024 -352.644 448.589 -349 446 C-345.555 445.477 -345.555 445.477 -341.875 445.625 C-340.046 445.675 -340.046 445.675 -338.18 445.727 C-335 446 -335 446 -332 447 C-331.008 449.105 -331.008 449.105 -330 452 C-329.502 453.151 -329.005 454.302 -328.492 455.488 C-327.953 456.763 -327.414 458.038 -326.875 459.312 C-326.598 459.938 -326.321 460.564 -326.035 461.209 C-323.868 466.414 -322.644 471.688 -324.875 477.137 C-325.246 477.648 -325.618 478.16 -326 478.688 C-328.061 481.756 -328.061 481.756 -328.688 484.562 C-327.527 488.679 -324.599 490.866 -321 493 C-317.475 493.755 -315.418 493.909 -312.318 491.922 C-307.559 487.934 -304.568 483.649 -301.562 478.25 C-301.117 477.483 -300.672 476.716 -300.213 475.926 C-297.846 472.188 -297.846 472.188 -297 468 C-292.553 470.141 -288.314 472.389 -284.125 475 C-273.382 481.505 -260.704 485.748 -248 484 C-237.534 479.6 -230.117 470.937 -225 461 C-222.617 454.16 -222.809 444.849 -225.562 438.188 C-229.546 430.628 -235.595 421.802 -244 419 C-252.997 418.309 -252.997 418.309 -261.562 420.562 C-266.937 425.937 -270.099 430.613 -270.375 438.375 C-270.327 442.372 -270.198 443.7 -267.938 447.125 C-264.399 449.384 -262.199 450 -258 450 C-253.278 448.334 -250.857 446.065 -248 442 C-248.205 445.58 -248.937 446.931 -251.375 449.625 C-256.804 453.739 -263.948 455.358 -270.688 455.125 C-277.821 453.917 -282.236 448.272 -286.375 442.75 C-294.681 430.243 -301.631 416.382 -306 402 C-306.253 401.167 -306.507 400.334 -306.768 399.476 C-309.036 391.298 -309.834 383.198 -310.453 374.77 C-310.621 372.492 -310.805 370.216 -310.992 367.939 C-313.087 341.599 -313.188 315.218 -313.185 288.813 C-313.185 285.025 -313.192 281.236 -313.206 277.448 C-313.403 221.486 -313.403 221.486 -308.75 195.312 C-308.536 194.074 -308.322 192.836 -308.102 191.56 C-305.748 178.609 -302.628 164.98 -295 154 C-294.45 153.207 -293.899 152.414 -293.332 151.598 C-288.13 144.637 -281.923 139.2 -275 134 C-274.439 133.577 -273.879 133.154 -273.301 132.718 C-251.692 116.705 -225.474 108.789 -198.61 112.313 C-179.403 115.56 -161.66 124.259 -147 137 C-146.375 137.518 -145.75 138.036 -145.105 138.57 C-133.761 148.762 -128.091 165.274 -126 180 C-125.754 185.08 -125.755 190.165 -125.75 195.25 C-125.749 195.968 -125.748 196.685 -125.747 197.425 C-125.765 216.886 -128.9 233.539 -137.145 251.309 C-138.132 254.416 -138.232 255.978 -137 259 C-135.016 260.166 -135.016 260.166 -132.438 260.75 C-126.309 262.694 -121.089 265.596 -115.572 268.827 C-106.867 273.936 -106.867 273.936 -97 274 C-90.506 270.323 -85.621 264.752 -81 259 C-80.193 258.041 -79.386 257.082 -78.555 256.094 C-67.002 242.071 -60.766 224.196 -60 206 C-59.923 204.496 -59.923 204.496 -59.844 202.961 C-59.633 195.474 -60.612 189.093 -63 182 C-65.701 183.274 -68.012 184.68 -70.375 186.5 C-74.791 189.669 -78.626 191.273 -84.125 190.938 C-88 190 -88 190 -90.375 188 C-92.835 183.458 -94.554 178.995 -93.59 173.781 C-92.235 169.812 -90.667 166.219 -87 164 C-81.006 163.625 -75.127 165.7 -69.48 167.477 C-66.887 168.024 -65.473 167.865 -63 167 C-58.293 149.984 -67.335 134.1 -75.387 119.406 C-78.56 113.872 -82.347 109.354 -87 105 C-87.672 104.334 -88.343 103.667 -89.035 102.98 C-121.113 72.582 -165.02 66.908 -207.318 67.868 C-228.099 68.612 -245.881 77.701 -264.162 86.684 C-269.457 89.286 -274.762 91.86 -280.102 94.367 C-281.125 94.848 -282.148 95.329 -283.202 95.824 C-289.332 98.4 -293.99 98.618 -300.312 96.562 C-304.754 94.572 -306.579 92.492 -308.328 87.996 C-308.55 87.337 -308.772 86.679 -309 86 C-309.619 84.608 -309.619 84.608 -310.25 83.188 C-311.589 77.495 -312.07 71.514 -309.75 66.062 C-307.931 63.918 -306.058 61.916 -304 60 C-315.998 61.5 -324.74 70.893 -332.039 79.785 C-334.449 85.339 -332.806 92.14 -331.938 97.938 C-330.936 105.259 -330.079 112.367 -334 119 C-337.935 121.249 -341.536 121.558 -346 121 C-350.973 117.132 -352.628 113.606 -353.5 107.5 C-353.437 103.343 -351.85 100.366 -350 96.688 C-345.848 88.147 -345.96 81.825 -348.625 72.812 C-351.797 64.239 -356.89 57.45 -365 53 C-370.029 51.151 -374.633 50 -380 50 Z M-475 70 C-475.474 71.196 -475.949 72.392 -476.438 73.625 C-476.704 74.298 -476.971 74.971 -477.246 75.664 C-478.878 80.72 -479.047 85.424 -478.884 90.675 C-478.624 99.581 -479.425 106.722 -483 115 C-485.221 120.339 -485.221 120.339 -486 126 C-475.299 121.3 -468.326 109.472 -463.766 99.227 C-461.821 93.681 -461.507 89.384 -464 84 C-467.002 78.661 -470.479 74.122 -475 70 Z M-242.625 145.5 C-248.333 152.689 -249.622 158.667 -249.418 167.793 C-249.027 170.791 -248.792 172.22 -246.812 174.438 C-244.174 176.238 -244.174 176.238 -241.527 175.828 C-238.516 174.841 -237.639 173.816 -235.75 171.312 C-230.504 164.963 -223.214 159.635 -215 158 C-206.986 157.309 -198.266 157.084 -191 161 C-185.649 166.01 -183.918 172.424 -183.562 179.562 C-183.713 188.828 -187.363 197.693 -193 205 C-192.61 201.721 -192.129 199.242 -190.562 196.312 C-187.366 189.535 -186.243 181.443 -187 174 C-189.895 167.968 -195.039 163.576 -201.238 161.109 C-206.735 159.628 -210.661 160.1 -216 162 C-218.418 163.474 -218.418 163.474 -220 165 C-219.67 165.99 -219.34 166.98 -219 168 C-217.987 168.11 -216.974 168.219 -215.93 168.332 C-214.578 168.492 -213.226 168.652 -211.875 168.812 C-211.21 168.883 -210.545 168.953 -209.859 169.025 C-205.358 169.577 -201.87 170.629 -198 173 C-196 176 -196 176 -196.129 179.254 C-197.082 183.353 -198.694 186.444 -200.938 189.938 C-201.335 190.58 -201.733 191.223 -202.142 191.885 C-204.25 195.281 -206.412 198.642 -208.574 202.004 C-218.362 217.277 -229.475 236.137 -228 255 C-224.925 265.599 -218.722 278.118 -209 284 C-189.676 293.976 -169.405 299.802 -148 294 C-145.602 293.1 -143.324 292.084 -141 291 C-143.115 287.632 -144.882 285.11 -147.812 282.375 C-148.895 281.199 -148.895 281.199 -150 280 C-149.637 277.852 -149.637 277.852 -149 276 C-139.166 283.369 -131.345 294.099 -128 306 C-127.491 310.061 -127.475 314.037 -127.562 318.125 C-127.577 319.223 -127.592 320.321 -127.607 321.452 C-128.084 342.16 -135.002 357.719 -145.169 375.459 C-157.968 397.852 -166.714 422.583 -160.875 448.688 C-157.232 460.369 -150.378 468.452 -142 477 C-141.31 477.728 -140.621 478.457 -139.91 479.207 C-131.754 487.685 -123.189 488.974 -111.668 489.266 C-109.508 489.275 -107.348 489.269 -105.188 489.25 C-104.047 489.241 -102.907 489.232 -101.733 489.223 C-83.666 488.975 -66.517 486.718 -53.109 473.445 C-49.498 469.259 -46.647 464.844 -44 460 C-43.238 458.652 -43.238 458.652 -42.461 457.277 C-38.613 449.807 -37.462 442.736 -39.664 434.523 C-42.642 426.989 -47.433 420.785 -54.938 417.5 C-62.716 414.856 -69.567 415.509 -77 419 C-79.926 420.629 -82.119 422.202 -84 425 C-84.751 428.45 -84.48 431.523 -84 435 C-83.902 435.849 -83.804 436.699 -83.703 437.574 C-83.208 440.902 -83.208 440.902 -82 444 C-77.788 446.457 -73.009 446.569 -68.25 447 C-62.033 447.62 -56.062 448.428 -50 450 C-50 450.99 -50 451.98 -50 453 C-50.978 452.948 -50.978 452.948 -51.977 452.895 C-60.302 452.637 -64.378 454.624 -70.75 459.938 C-79.392 467.039 -88.334 469.183 -99.25 469.25 C-100.482 469.281 -100.482 469.281 -101.738 469.312 C-108.689 469.357 -114.381 468.322 -119.75 463.562 C-125.482 455.836 -128.127 443.461 -127 434 C-125.038 425.884 -121.738 418.849 -117 412 C-116.584 411.398 -116.167 410.796 -115.738 410.176 C-107.341 399.358 -94.408 392.652 -82.667 386.174 C-76.262 382.577 -69.714 378.755 -65 373 C-65 371.68 -65 370.36 -65 369 C-66.258 368.979 -67.516 368.959 -68.812 368.938 C-69.52 368.926 -70.228 368.914 -70.957 368.902 C-73.203 368.917 -73.203 368.917 -76 370 C-81.631 370.558 -86.272 370.408 -91 367 C-94.687 362.246 -95.709 358.382 -95.453 352.371 C-94.683 348.341 -93.06 346.72 -90 344 C-84.14 341.163 -77.73 341.007 -71.461 342.676 C-69.949 343.209 -68.442 343.758 -66.941 344.324 C-64.517 345.168 -62.54 345.385 -60 345 C-57.289 342.289 -57.297 340.227 -56.98 336.496 C-57.039 329.044 -60.497 323.927 -65.129 318.371 C-67.069 315.913 -68.604 313.387 -70.188 310.688 C-84.651 287.675 -113.383 273.262 -138 264 C-139.042 263.587 -140.083 263.175 -141.156 262.75 C-158.99 256.206 -181.897 250.132 -201 251 C-199.707 258.457 -191.929 264.755 -186 269 C-177.667 274.324 -168.817 276 -159 276 C-160.646 278 -161.543 278.914 -164.129 279.398 C-175.471 279.289 -186.053 275.937 -194.23 267.773 C-202.458 258.048 -208.041 245.911 -207 233 C-205.74 229.88 -204.399 227.502 -202.312 224.875 C-200.618 222.835 -200.618 222.835 -201 219 C-200.428 218.899 -199.855 218.799 -199.266 218.695 C-194.851 217.341 -191.512 213.903 -188 211 C-187.301 210.426 -186.603 209.853 -185.883 209.262 C-181.097 205.212 -176.999 200.818 -173 196 C-172.316 195.215 -171.631 194.43 -170.926 193.621 C-164.87 186.468 -160.154 179.098 -160.684 169.41 C-162.254 157.447 -166.228 147.262 -175.801 139.531 C-195.519 125.802 -225.869 127.55 -242.625 145.5 Z M-409 170 C-408.969 170.694 -408.937 171.389 -408.905 172.104 C-407.899 197.682 -407.899 197.682 -415 207 C-415.7 207.958 -416.4 208.916 -417.121 209.902 C-422.177 216.43 -427.748 222.833 -435.188 226.625 C-441.035 231.563 -443.002 240.095 -443.938 247.5 C-444.309 254.961 -443.548 262.517 -440.5 269.375 C-433.258 276.979 -424.539 281.85 -413.938 282.375 C-403.918 281.421 -397.821 277.44 -391 270 C-389.165 267.062 -388.994 266.154 -389.125 262.562 C-390.074 258.701 -391.254 256.829 -394 254 C-397.072 252.464 -399.602 252.773 -403 253 C-406.788 254.546 -406.788 254.546 -410 257 C-410.073 259.53 -410.092 262.033 -410.062 264.562 C-410.058 265.273 -410.053 265.984 -410.049 266.717 C-410.037 268.478 -410.019 270.239 -410 272 C-410.99 272.495 -410.99 272.495 -412 273 C-417.003 268.524 -418.717 265.052 -419.336 258.371 C-419.467 245.153 -416.873 233.001 -409 222 C-408.01 221.67 -407.02 221.34 -406 221 C-404.238 222.223 -404.238 222.223 -402.312 224.062 C-393.04 232.921 -393.04 232.921 -381.125 236 C-376.31 235.233 -373.069 232.71 -370 229 C-368.878 226.341 -368.878 226.341 -369 224 C-369.33 223.67 -369.66 223.34 -370 223 C-373.342 223.042 -376.672 223.128 -380.01 223.303 C-383.377 223.386 -385.542 223.303 -388.387 221.422 C-390.433 218.35 -391.168 215.663 -392 212.062 C-392.244 211.037 -392.244 211.037 -392.492 209.991 C-393.45 205.844 -394.254 201.678 -395 197.488 C-395.168 196.557 -395.335 195.625 -395.508 194.666 C-395.83 192.841 -396.138 191.014 -396.43 189.184 C-397.976 180.272 -402.042 175.512 -409 170 Z M-290 195 C-296.135 205.352 -294.44 217.968 -292.047 229.199 C-289.936 236.861 -286.59 245.178 -280 250 C-275.628 251.669 -271.664 252.595 -267 252 C-262.218 249.463 -258.991 246.441 -256 242 C-256.084 238.396 -256.976 237.036 -259 234 C-261.962 234.613 -263.381 235.254 -266 237 C-268.875 237.125 -268.875 237.125 -272 236 C-274.014 233.509 -275.536 230.844 -277 228 C-276.408 228.107 -275.817 228.214 -275.207 228.324 C-271.331 228.912 -268.726 229.272 -265 227.875 C-262.886 226.137 -262.886 226.137 -262 223.75 C-262 219.189 -263.493 215.641 -266.539 212.324 C-267.083 211.805 -267.627 211.285 -268.188 210.75 C-269.116 209.843 -270.044 208.935 -271 208 C-271 207.01 -271 206.02 -271 205 C-267.332 202.653 -264.283 202.557 -260 203 C-250.128 208.037 -245.069 218.518 -239.68 227.701 C-239.133 228.611 -238.587 229.52 -238.023 230.457 C-237.538 231.282 -237.052 232.107 -236.552 232.956 C-234.872 235.168 -233.556 235.989 -231 237 C-226.854 229.068 -225.784 219.777 -228.152 211.086 C-232.047 201.502 -241.079 194.355 -250.207 190.066 C-264.324 184.676 -277.749 185.469 -290 195 Z M-190 219 C-190 219.66 -190 220.32 -190 221 C-187.18 219.889 -184.431 218.732 -181.688 217.438 C-176.608 215.457 -172.404 214.299 -167 215.875 C-164.594 218.431 -164.704 219.277 -164.688 222.688 C-164.768 224.127 -164.865 225.565 -165 227 C-166.052 227.248 -167.104 227.495 -168.188 227.75 C-171.827 228.791 -174.256 230.337 -177 233 C-177.33 233.99 -177.66 234.98 -178 236 C-175.72 238.678 -174.172 239.478 -170.688 239.875 C-166.286 240.21 -163.685 239.596 -160 237 C-155.583 232.607 -153.851 228.901 -153.688 222.688 C-153.741 217.625 -154.521 214.855 -158 211 C-160.872 208.344 -163.077 206.448 -167 206 C-168.238 205.856 -169.475 205.711 -170.75 205.562 C-178.491 205.677 -185.342 213.352 -190 219 Z M-245.375 261.875 C-246.071 262.185 -246.768 262.496 -247.485 262.815 C-253.239 265.468 -258.539 268.658 -263.855 272.091 C-268.825 275.297 -273.885 278.267 -279.062 281.125 C-279.811 281.539 -280.559 281.953 -281.33 282.379 C-284.964 284.374 -288.614 286.329 -292.297 288.23 C-293.314 288.759 -293.314 288.759 -294.351 289.298 C-296.184 290.246 -298.023 291.18 -299.863 292.113 C-303.145 294.087 -305.507 296.099 -308 299 C-308.42 301.712 -308.42 301.712 -308 304 C-303.645 303.435 -300.171 302.366 -296.211 300.48 C-295.114 299.959 -294.017 299.437 -292.887 298.899 C-291.149 298.052 -291.149 298.052 -289.375 297.188 C-288.778 296.899 -288.182 296.61 -287.567 296.313 C-277.067 291.222 -267.052 285.502 -257.151 279.33 C-253.907 277.325 -250.62 275.399 -247.312 273.5 C-246.222 272.874 -245.131 272.247 -244.008 271.602 C-241.275 270.146 -238.572 268.987 -235.688 267.875 C-233.614 267.088 -233.614 267.088 -232 266 C-230.694 262.933 -230.694 262.933 -231 260 C-232.073 258.714 -232.073 258.714 -234.602 258.758 C-238.601 259.043 -241.772 260.24 -245.375 261.875 Z M-296 264 C-297.248 267.405 -297.248 267.405 -297 271 C-295.234 273.802 -293.97 275.515 -291 277 C-286.729 277.484 -284.701 277.487 -281.125 275 C-278.274 270.976 -277.843 268.937 -278 264 C-280.079 261.317 -281.591 260.272 -284.941 259.625 C-289.784 259.331 -292.755 260.165 -296 264 Z M-409 299 C-410.555 302.11 -410.286 304.563 -410 308 C-407.206 313.278 -403.734 317.089 -398 319 C-393.766 319.47 -391.691 319.441 -388.062 317.125 C-385.166 312.736 -385.216 309.12 -386 304 C-387.33 300.495 -387.33 300.495 -389 298 C-380.575 301.162 -373.807 306.184 -366.801 311.746 C-365.092 313.19 -365.092 313.19 -363 313 C-363.313 306.904 -366.028 302.468 -370 298 C-383.193 287.929 -396.899 286.728 -409 299 Z M-269.938 296.25 C-271.292 298.14 -271.292 298.14 -271 301.375 C-269.818 305.661 -268.496 307.299 -265 310 C-262.569 311.237 -262.569 311.237 -260 311 C-256.614 308.874 -254.244 306.846 -253 303 C-252.543 299.346 -252.493 297.695 -254.688 294.688 C-260.569 290.396 -264.272 292.595 -269.938 296.25 Z M-147 304 C-148.174 305.821 -148.174 305.821 -149.375 308.188 C-155.613 318.909 -165.684 330.731 -177.938 334.375 C-189.664 336.628 -199.6 333.989 -209.594 327.695 C-213.316 325.073 -216.692 322.123 -220 319 C-221.985 319.561 -221.985 319.561 -224 321 C-225.36 323.917 -225.36 323.917 -226.375 327.312 C-228.776 333.986 -230.71 336.843 -237.082 340.047 C-241.228 341.401 -245.357 341.687 -249.688 342.062 C-251.4 342.217 -253.112 342.374 -254.824 342.535 C-255.578 342.601 -256.332 342.667 -257.108 342.735 C-259.084 342.909 -259.084 342.909 -261 344 C-261.731 346.731 -262.365 349.423 -262.938 352.188 C-265.463 364.38 -265.463 364.38 -269.785 368.844 C-272.733 370.383 -275.125 370.408 -278.438 370.5 C-283.534 370.642 -287.27 371.27 -291 375 C-291.417 377.916 -291.417 377.916 -291 381 C-287.846 384.184 -284.718 384.614 -280.375 385.188 C-278.654 385.425 -278.654 385.425 -276.898 385.668 C-274.155 386.038 -274.155 386.038 -272 386 C-271.758 387.207 -271.515 388.413 -271.266 389.656 C-270.928 391.271 -270.589 392.886 -270.25 394.5 C-270.093 395.291 -269.935 396.083 -269.773 396.898 C-267.825 406.36 -267.825 406.36 -261.84 413.477 C-256.937 414.38 -252.012 414.36 -247.037 414.391 C-241.513 414.548 -238.424 415.402 -234 419 C-233.287 419.55 -232.574 420.101 -231.84 420.668 C-231.212 421.169 -230.584 421.671 -229.938 422.188 C-227.001 424.425 -224.786 425.763 -221 426 C-220.45 420.365 -222.05 417.61 -225 413 C-224.051 412.567 -223.103 412.134 -222.125 411.688 C-218.8 410.207 -218.8 410.207 -217 407 C-215.582 400.562 -216.222 396.967 -219 391 C-220.908 388.669 -220.908 388.669 -224.188 388.688 C-228.605 389.05 -231.12 389.905 -235 392 C-235.495 393.485 -235.495 393.485 -236 395 C-233.674 399.567 -230.888 403.772 -228 408 C-228.909 407.584 -228.909 407.584 -229.836 407.16 C-235.938 404.522 -241.364 403.282 -248 403 C-251.41 396.464 -252.058 390.757 -250.449 383.523 C-247.346 374.257 -239.787 365.628 -231.154 361.013 C-222.92 357.14 -214.124 356.234 -205.188 355.188 C-196.036 354.016 -187.129 352.601 -178.25 350.062 C-177.437 349.834 -176.624 349.605 -175.786 349.37 C-163.441 345.614 -153.563 338.858 -147.254 327.477 C-143.989 321.028 -141.936 315.349 -143 308 C-143.952 305.792 -143.952 305.792 -145 304 C-145.66 304 -146.32 304 -147 304 Z M-203.703 391.543 C-214.686 403.291 -216.252 418.025 -217.426 433.402 C-218.565 448.161 -221.253 460.057 -227.926 473.418 C-228.28 474.27 -228.635 475.122 -229 476 C-228.67 476.66 -228.34 477.32 -228 478 C-222.688 472.106 -222.688 472.106 -217.625 466 C-216 464 -216 464 -214 463 C-214.66 463.763 -215.32 464.526 -216 465.312 C-218.299 467.843 -218.299 467.843 -218 471 C-210.746 468.96 -204.631 462.771 -200.965 456.34 C-196.132 444.62 -196.983 429.302 -199 417 C-199.628 415.648 -200.286 414.309 -201 413 C-200.408 412.764 -199.817 412.528 -199.207 412.285 C-196.493 410.705 -195.405 409.056 -193.688 406.438 C-193.082 405.544 -192.476 404.651 -191.852 403.73 C-191.241 402.829 -190.63 401.928 -190 401 C-184.666 393.433 -179.382 386.757 -170 384.625 C-168.67 384.396 -167.338 384.18 -166 384 C-166.642 380.938 -166.642 380.938 -168.742 380.051 C-169.446 379.807 -170.15 379.564 -170.875 379.312 C-171.574 379.061 -172.272 378.81 -172.992 378.551 C-184.418 375.416 -195.973 384.305 -203.703 391.543 Z M-454 422 C-456.811 427.621 -458.748 433.184 -460.312 439.25 C-460.496 439.935 -460.679 440.62 -460.868 441.326 C-461.83 445.214 -462.159 448.142 -461 452 C-460.01 452 -459.02 452 -458 452 C-456.637 449.273 -456.548 446.716 -456.188 443.688 C-455.214 436.501 -453.344 429.849 -451 423 C-451.99 422.67 -452.98 422.34 -454 422 Z M-199 468 C-200.112 468.402 -201.225 468.804 -202.371 469.219 C-209.809 472.152 -215.539 475.77 -221.758 480.742 C-227.663 484.855 -234.333 487.369 -241 490 C-241 490.33 -241 490.66 -241 491 C-219.93 492.068 -219.93 492.068 -200.5 484.938 C-190.914 479.037 -176.961 478.454 -166 480 C-161.561 481.389 -157.941 483.559 -154 486 C-151.644 487.334 -149.275 488.643 -146.904 489.95 C-145.283 490.845 -143.666 491.749 -142.053 492.66 C-141.312 493.077 -140.572 493.495 -139.809 493.926 C-139.147 494.301 -138.485 494.677 -137.802 495.064 C-135.853 496.136 -135.853 496.136 -133 497 C-133.177 494.578 -133.177 494.578 -134 492 C-135.808 490.517 -135.808 490.517 -138.188 489.438 C-142.985 486.792 -146.868 483.681 -150.938 480.062 C-161.31 470.912 -170.208 464.503 -184.383 464.754 C-189.592 465.108 -194.105 466.222 -199 468 Z " fill="#FBFBFB" transform="translate(514,0)"/>
<path d="M0 0 C0.124 0.681 0.247 1.361 0.375 2.062 C3.122 14.975 8.983 25.742 17.062 36.062 C30.321 53.065 37.579 75.382 36 97 C31.431 121.541 11.631 141.022 -8 155 C-9.927 156.225 -11.864 157.435 -13.812 158.625 C-22.261 163.898 -27.488 170.196 -32.457 178.777 C-34 181 -34 181 -37 182 C-37.99 181.01 -37.99 181.01 -39 180 C-39.465 179.54 -39.931 179.08 -40.41 178.605 C-41.501 177.503 -42.571 176.38 -43.621 175.238 C-57.242 160.797 -75.957 151.144 -94.918 145.719 C-97 145 -97 145 -99 143 C-99 141.125 -99 141.125 -98 139 C-97.072 138.423 -96.144 137.845 -95.188 137.25 C-91.024 134.311 -89.555 131.786 -88 127 C-86.489 116.852 -86.879 106.404 -86.925 96.174 C-86.938 93.24 -86.944 90.307 -86.949 87.374 C-86.96 81.166 -86.98 74.958 -87 68.75 C-87.024 61.511 -87.044 54.272 -87.056 47.033 C-87.062 44.138 -87.075 41.244 -87.088 38.349 C-87.091 36.592 -87.095 34.835 -87.098 33.077 C-87.103 32.269 -87.108 31.461 -87.113 30.628 C-87.113 28.752 -87.062 26.875 -87 25 C-85.354 23.354 -83.289 23.538 -81.023 23.238 C-54.893 19.614 -28.648 14.023 -5.968 -0.177 C-3.558 -1.185 -2.413 -0.875 0 0 Z M-46.188 23.875 C-47.068 24.223 -47.948 24.571 -48.855 24.93 C-51.155 25.809 -51.155 25.809 -52 28 C-52.068 30.711 -52.071 33.399 -52.039 36.109 C-51.987 43.404 -52.011 50.693 -52.128 57.986 C-52.252 65.71 -52.317 73.433 -52.334 81.157 C-52.347 85.68 -52.387 90.2 -52.483 94.722 C-52.577 99.163 -52.602 103.6 -52.58 108.041 C-52.584 109.714 -52.612 111.388 -52.665 113.06 C-53.159 121.859 -53.159 121.859 -49.633 129.562 C-45.794 132.774 -41.496 134.857 -37 137 C-35.263 138.059 -33.538 139.136 -31.836 140.25 C-30.35 141.168 -28.863 142.085 -27.375 143 C-26.613 143.476 -25.851 143.951 -25.066 144.441 C-24.33 144.894 -23.594 145.346 -22.836 145.812 C-22.192 146.211 -21.548 146.609 -20.884 147.02 C-18.91 148.047 -17.192 148.624 -15 149 C-9.167 147.158 -6.062 140.909 -3 136 C4.3 121.257 6.151 101.731 1.168 85.848 C-4 73.248 -10.444 62.087 -19.625 51.938 C-25.911 44.923 -29.923 36.415 -34 28 C-34.602 26.791 -35.206 25.582 -35.812 24.375 C-36.204 23.591 -36.596 22.808 -37 22 C-40.84 22 -42.715 22.47 -46.188 23.875 Z " fill="#FAFAFA" transform="translate(1003,232)"/>
<path d="M0 0 C0.364 1.172 0.727 2.344 1.102 3.551 C4.997 15.847 9.662 25.98 17.438 36.312 C30.209 53.329 38.748 75.445 37 97 C34.844 110.934 28.212 121.596 19 132 C18.254 132.868 17.507 133.735 16.738 134.629 C7.713 144.946 -2.334 152.456 -13.672 160.047 C-18.847 163.55 -23.092 166.703 -26.625 171.938 C-27.195 172.772 -27.765 173.606 -28.352 174.465 C-29.472 176.188 -30.528 177.955 -31.523 179.754 C-33 182 -33 182 -36 183 C-39.293 180.896 -41.609 178.297 -44.062 175.312 C-57.722 159.556 -78.748 151.511 -98 145 C-97.68 142.625 -97.68 142.625 -97 140 C-95.027 138.627 -93.025 137.296 -91 136 C-87.889 131.71 -86.885 127.925 -86.849 122.691 C-86.84 121.837 -86.832 120.984 -86.823 120.104 C-86.819 119.175 -86.815 118.247 -86.811 117.29 C-86.802 116.306 -86.794 115.322 -86.785 114.308 C-86.768 112.173 -86.753 110.038 -86.74 107.903 C-86.719 104.529 -86.692 101.155 -86.663 97.782 C-86.593 89.406 -86.534 81.031 -86.474 72.655 C-86.423 65.573 -86.368 58.491 -86.308 51.41 C-86.281 48.076 -86.261 44.743 -86.24 41.41 C-86.224 39.38 -86.207 37.351 -86.189 35.322 C-86.185 34.387 -86.181 33.452 -86.177 32.49 C-86.114 26.114 -86.114 26.114 -85 25 C-83.349 24.702 -81.687 24.459 -80.023 24.238 C-53.297 20.529 -29.56 13.862 -5.688 1.25 C-3 0 -3 0 0 0 Z M-45.25 24.875 C-46.121 25.244 -46.993 25.612 -47.891 25.992 C-49.937 26.826 -49.937 26.826 -51 28 C-51.103 29.724 -51.131 31.453 -51.133 33.18 C-51.136 34.367 -51.139 35.554 -51.143 36.777 C-51.135 39.585 -51.112 42.393 -51.082 45.201 C-51.066 46.82 -51.05 48.44 -51.035 50.059 C-51.026 50.933 -51.017 51.807 -51.008 52.707 C-50.964 59.191 -51.066 65.667 -51.224 72.148 C-51.366 78.131 -51.444 84.112 -51.486 90.095 C-51.517 93.889 -51.578 97.677 -51.71 101.469 C-52.9 117.089 -52.9 117.089 -48.389 131.362 C-44.523 135.056 -40.197 137.185 -35.24 139.071 C-31.456 140.64 -28.118 142.907 -24.688 145.125 C-19.678 148.497 -19.678 148.497 -14 150 C-4.753 144.815 0.54 133.882 3.305 124.078 C7.247 104.538 3.609 84.64 -6.789 67.802 C-9.633 63.57 -13.021 59.789 -16.395 55.977 C-23.876 47.43 -30.493 37.072 -33.887 26.145 C-34.817 23.785 -34.817 23.785 -37.297 23.07 C-40.44 22.989 -42.375 23.627 -45.25 24.875 Z " fill="#FAFAFA" transform="translate(613,231)"/>
<path d="M0 0 C2.021 2.474 3.497 5.189 5 8 C5.374 8.685 5.748 9.369 6.133 10.074 C7.27 12.197 8.371 14.334 9.461 16.48 C10.053 17.644 10.053 17.644 10.657 18.832 C11.481 20.457 12.303 22.083 13.123 23.71 C14.38 26.198 15.657 28.676 16.934 31.154 C17.736 32.742 18.536 34.329 19.336 35.918 C19.719 36.655 20.102 37.391 20.497 38.15 C23.061 43.322 23.061 43.322 22.729 47.005 C22.368 47.993 22.368 47.993 22 49 C20.949 49.303 19.899 49.606 18.816 49.918 C8.4 52.993 8.4 52.993 -1.105 58.18 C-3 59 -3 59 -5.426 59.133 C-12.404 56.062 -15.51 45.06 -18.562 38.562 C-19.031 37.577 -19.5 36.592 -19.982 35.576 C-22.472 30.321 -24.866 25.061 -27.023 19.66 C-27.963 17.647 -27.963 17.647 -31 17 C-37.479 19.899 -40.727 24.799 -43.188 31.188 C-52.929 60.214 -49.426 96.861 -36.182 124.27 C-29.327 137.49 -20.526 143.844 -6.66 148.844 C3.153 151.621 14.281 149.307 24 147 C24.33 148.32 24.66 149.64 25 151 C24.433 151.301 23.866 151.601 23.282 151.911 C12.885 157.447 2.584 163.077 -7.375 169.375 C-8.128 169.85 -8.88 170.324 -9.656 170.813 C-14.015 173.608 -18.163 176.575 -22.23 179.781 C-24.805 181.554 -26.893 182.072 -30 182 C-32.099 180.576 -32.832 179.418 -33.773 177.078 C-35.381 174.355 -37.132 173.492 -39.875 171.938 C-46.741 167.738 -52.287 162.615 -58 157 C-59.005 156.049 -59.005 156.049 -60.031 155.078 C-70.085 144.75 -74.73 129.695 -78 116 C-78.246 114.995 -78.492 113.989 -78.746 112.953 C-82.007 96.312 -81.372 77.376 -77 61 C-76.722 59.952 -76.443 58.904 -76.156 57.824 C-69.977 37.289 -55.778 21.096 -37 11 C-29.997 7.3 -22.598 4.699 -15.125 2.125 C-14.209 1.802 -13.292 1.479 -12.348 1.147 C-11.473 0.853 -10.597 0.56 -9.695 0.258 C-8.912 -0.009 -8.128 -0.276 -7.321 -0.55 C-4.292 -1.137 -2.875 -1.231 0 0 Z " fill="#FAFAFA" transform="translate(871,234)"/>
<path d="M0 0 C3.783 5.054 6.609 10.867 9.461 16.48 C10.053 17.644 10.053 17.644 10.657 18.832 C11.481 20.457 12.303 22.083 13.123 23.71 C14.38 26.198 15.657 28.676 16.934 31.154 C17.736 32.742 18.536 34.329 19.336 35.918 C19.719 36.655 20.102 37.391 20.497 38.15 C23.061 43.322 23.061 43.322 22.729 47.005 C22.368 47.993 22.368 47.993 22 49 C20.782 49.387 19.564 49.773 18.309 50.172 C16.685 50.698 15.061 51.224 13.438 51.75 C12.638 52.003 11.838 52.255 11.014 52.516 C7.132 53.783 3.686 55.084 0.223 57.266 C-3 59 -3 59 -5.645 59.266 C-9.531 57.177 -10.808 53.62 -12.688 49.75 C-13.111 48.915 -13.535 48.081 -13.971 47.221 C-16.319 42.554 -18.556 37.836 -20.766 33.102 C-21.437 31.667 -21.437 31.667 -22.122 30.204 C-22.989 28.339 -23.845 26.469 -24.688 24.593 C-25.079 23.745 -25.469 22.897 -25.871 22.023 C-26.211 21.27 -26.55 20.516 -26.9 19.74 C-27.956 17.663 -27.956 17.663 -31 17 C-38.513 20.757 -41.528 27.098 -44.188 34.812 C-52.737 64.65 -48.501 100.648 -34 128 C-31.916 131.292 -29.686 134.181 -27 137 C-26.469 137.559 -25.938 138.119 -25.391 138.695 C-17.592 146.085 -6.506 150.093 4.164 149.961 C10.896 149.535 17.433 148.527 24 147 C24.33 148.32 24.66 149.64 25 151 C24.382 151.347 23.764 151.693 23.127 152.051 C8.43 160.278 8.43 160.278 -6.125 168.75 C-7.003 169.272 -7.003 169.272 -7.898 169.804 C-10.889 171.614 -13.77 173.524 -16.59 175.586 C-17.174 176.01 -17.759 176.435 -18.361 176.872 C-19.953 178.045 -21.526 179.244 -23.098 180.445 C-26 182 -26 182 -29.297 181.906 C-30.189 181.607 -31.081 181.308 -32 181 C-32.392 180.134 -32.784 179.268 -33.188 178.375 C-35.189 174.648 -36.323 173.966 -39.875 171.875 C-58.661 160.569 -70.323 143.449 -76.25 122.5 C-82.916 95.418 -82.433 65.645 -68.75 40.75 C-65.133 34.863 -60.872 29.881 -56 25 C-55.313 24.301 -54.626 23.603 -53.918 22.883 C-44.617 14.013 -13.291 -6.296 0 0 Z " fill="#FAFAFA" transform="translate(748,234)"/>
<path d="M0 0 C0.66 0 1.32 0 2 0 C0.951 2.622 0.351 3.794 -2.125 5.25 C-2.744 5.498 -3.363 5.745 -4 6 C-2.848 3.532 -1.952 1.952 0 0 Z " fill="#D5D5D5" transform="translate(298,463)"/>
</svg>