
<!-- Generator: visioncortex VTracer 0.6.4 -->
<svg version="1.1" xmlns="http://www.w3.org/2000/svg" viewBox="0 0 1069 542" preserveAspectRatio="xMidYMid meet">
<path d="M0 0 C6.936 -0.001 13.871 -0.003 20.807 -0.007 C21.838 -0.007 21.838 -0.007 22.89 -0.008 C24.275 -0.008 25.66 -0.009 27.045 -0.01 C40.919 -0.016 54.794 -0.017 68.668 -0.012 C73.607 -0.011 78.546 -0.011 83.484 -0.014 C89.217 -0.017 94.95 -0.015 100.682 -0.009 C102.779 -0.008 104.875 -0.008 106.971 -0.011 C109.809 -0.013 112.647 -0.01 115.485 -0.005 C116.738 -0.008 116.738 -0.008 118.017 -0.012 C123.66 0.008 123.66 0.008 124.775 1.122 C124.873 2.712 124.9 4.306 124.901 5.898 C124.904 7.459 124.904 7.459 124.908 9.051 C124.905 10.788 124.905 10.788 124.902 12.559 C124.903 13.779 124.905 14.999 124.906 16.256 C124.91 19.662 124.908 23.068 124.905 26.473 C124.903 30.145 124.907 33.817 124.909 37.489 C124.914 44.719 124.913 51.948 124.91 59.177 C124.908 65.11 124.907 71.042 124.908 76.974 C124.909 77.821 124.909 78.669 124.909 79.543 C124.909 81.266 124.91 82.99 124.91 84.714 C124.913 100.957 124.909 117.199 124.904 133.441 C124.9 147.143 124.9 160.846 124.905 174.548 C124.951 314.05 124.951 314.05 124.325 375.224 C124.311 376.71 124.311 376.71 124.295 378.225 C123.986 408.922 123.393 439.61 122.593 470.297 C122.574 470.995 122.556 471.692 122.538 472.411 C122.186 485.67 121.659 498.92 120.957 512.165 C120.875 513.72 120.796 515.276 120.72 516.833 C120.612 518.984 120.493 521.134 120.37 523.284 C120.304 524.51 120.237 525.737 120.168 527.001 C119.801 529.915 119.418 531.712 117.775 534.122 C109.378 538.013 99.001 537.308 89.934 537.434 C88.665 537.454 87.396 537.475 86.089 537.496 C82.594 537.551 79.099 537.6 75.604 537.647 C73.365 537.677 71.126 537.708 68.888 537.74 C32.702 538.246 -3.483 538.27 -39.672 538.257 C-46.316 538.255 -52.961 538.255 -59.605 538.256 C-61.051 538.256 -61.051 538.256 -62.527 538.256 C-64.488 538.257 -66.45 538.257 -68.411 538.257 C-86.555 538.26 -104.699 538.257 -122.843 538.252 C-138.294 538.247 -153.745 538.248 -169.195 538.252 C-187.339 538.258 -205.483 538.26 -223.627 538.257 C-225.571 538.257 -227.515 538.256 -229.459 538.256 C-230.414 538.256 -231.369 538.256 -232.354 538.255 C-238.977 538.255 -245.601 538.256 -252.224 538.258 C-328.78 538.283 -328.78 538.283 -361.225 537.122 C-361.72 535.637 -361.72 535.637 -362.225 534.122 C-352.637 530.926 -340.394 531.95 -330.383 531.823 C-329.07 531.804 -327.756 531.784 -326.402 531.764 C-322.791 531.712 -319.181 531.665 -315.57 531.62 C-313.25 531.59 -310.93 531.56 -308.609 531.529 C-262.398 530.914 -216.182 530.786 -169.968 530.596 C-158.542 530.549 -147.115 530.5 -135.689 530.445 C-130.831 530.421 -125.973 530.4 -121.114 530.382 C-96.335 530.313 -96.335 530.313 -71.563 529.73 C-70.576 529.7 -69.589 529.67 -68.572 529.639 C-63.773 529.44 -59.732 528.964 -55.225 527.122 C-55.225 526.792 -55.225 526.462 -55.225 526.122 C-58.67 525.344 -61.848 524.997 -65.377 524.995 C-66.397 524.992 -67.417 524.989 -68.468 524.987 C-69.58 524.989 -70.693 524.991 -71.839 524.993 C-73.024 524.991 -74.209 524.989 -75.43 524.987 C-78.705 524.984 -81.979 524.985 -85.254 524.988 C-88.043 524.99 -90.832 524.988 -93.621 524.987 C-101.145 524.982 -108.669 524.985 -116.193 524.992 C-121.71 524.996 -127.227 524.999 -132.744 525 C-179.049 525.012 -225.347 525.235 -271.649 525.766 C-275.699 525.812 -279.75 525.858 -283.8 525.903 C-284.763 525.914 -285.726 525.925 -286.718 525.936 C-309.554 526.19 -332.389 526.169 -355.225 526.122 C-355.999 499.555 -356.374 473.015 -356.32 446.437 C-356.313 442.491 -356.31 438.544 -356.307 434.598 C-356.293 420.106 -356.262 405.614 -356.225 391.122 C-356.222 389.922 -356.219 388.721 -356.216 387.484 C-356.122 350.759 -355.99 314.033 -355.845 277.308 C-355.804 266.833 -355.765 256.358 -355.728 245.883 C-355.531 189.942 -355.301 134.001 -354.783 78.062 C-354.753 74.75 -354.724 71.438 -354.696 68.126 C-354.652 63.01 -354.603 57.894 -354.55 52.779 C-354.532 50.931 -354.515 49.083 -354.499 47.235 C-354.421 38.153 -354.304 29.154 -353.225 20.122 C-349.634 18.925 -346.207 18.783 -342.46 18.591 C-341.697 18.549 -340.935 18.508 -340.15 18.465 C-316.235 17.201 -292.256 17.005 -268.315 16.657 C-267.603 16.647 -266.89 16.636 -266.156 16.626 C-222.77 15.993 -179.381 15.611 -135.991 15.225 C-134.163 15.209 -134.163 15.209 -132.297 15.192 C-131.077 15.181 -129.857 15.17 -128.6 15.159 C-120.073 15.083 -111.546 15.003 -103.02 14.922 C-31.086 14.233 40.837 13.994 112.775 14.122 C112.509 93.442 112.238 172.762 110.304 471.119 C110.276 473.419 110.248 475.719 110.22 478.019 C110.048 492.076 109.828 506.099 108.775 520.122 C87.792 527.358 60.518 524.2 38.454 524.403 C37.415 524.413 36.376 524.423 35.306 524.432 C26.644 524.511 17.983 524.58 9.321 524.648 C2.809 524.699 -3.702 524.754 -10.213 524.814 C-13.229 524.84 -16.245 524.861 -19.262 524.882 C-21.114 524.899 -22.967 524.915 -24.82 524.933 C-25.642 524.937 -26.465 524.941 -27.313 524.945 C-32.68 525.003 -37.898 525.457 -43.225 526.122 C-42.327 528.27 -42.327 528.27 -40.225 530.122 C-37.168 530.509 -34.471 530.638 -31.412 530.592 C-30.509 530.594 -29.606 530.596 -28.675 530.599 C-25.668 530.601 -22.662 530.575 -19.655 530.548 C-17.541 530.543 -15.427 530.54 -13.314 530.538 C-7.713 530.528 -2.114 530.494 3.486 530.455 C7.954 530.428 12.422 530.419 16.89 530.411 C64.533 530.966 64.533 530.966 111.983 527.605 C113.86 527.366 113.86 527.366 115.775 527.122 C115.772 526.223 115.77 525.324 115.768 524.397 C115.747 515.545 115.732 506.693 115.723 497.84 C115.718 493.299 115.711 488.758 115.699 484.216 C115.642 461.645 115.807 439.083 116.172 416.515 C116.947 368.497 117.166 320.476 117.383 272.453 C117.4 268.85 117.417 265.248 117.434 261.645 C117.717 201.373 117.923 141.104 117.417 80.832 C117.4 78.81 117.383 76.789 117.367 74.767 C117.307 67.275 117.24 59.784 117.161 52.292 C117.138 50.112 117.117 47.933 117.096 45.753 C116.972 31.24 116.972 31.24 115.786 16.785 C115.772 13.57 116.71 11.136 117.775 8.122 C90.773 8.098 63.772 8.081 36.77 8.07 C24.219 8.065 11.668 8.058 -0.883 8.047 C-89.692 7.965 -178.492 8.418 -267.288 10.06 C-272.068 10.147 -276.849 10.228 -281.63 10.309 C-286.4 10.391 -291.171 10.476 -295.941 10.562 C-298.125 10.601 -300.31 10.639 -302.494 10.677 C-313.886 10.874 -325.271 11.158 -336.657 11.591 C-337.682 11.628 -338.707 11.666 -339.762 11.704 C-349.782 11.658 -349.782 11.658 -359.225 14.122 C-360.077 36.759 -360.494 59.387 -360.728 82.037 C-360.757 84.875 -360.788 87.712 -360.819 90.549 C-361.315 136.344 -361.497 182.141 -361.671 227.938 C-361.758 250.803 -361.858 273.669 -361.959 296.534 C-361.97 298.91 -361.981 301.285 -361.991 303.66 C-362.159 341.606 -362.36 379.551 -362.696 417.495 C-362.725 420.788 -362.752 424.082 -362.78 427.375 C-362.963 449.132 -363.259 470.884 -363.694 492.638 C-363.722 494.121 -363.722 494.121 -363.751 495.633 C-364.266 522.29 -364.266 522.29 -365.225 528.122 C-365.885 528.452 -366.545 528.782 -367.225 529.122 C-368.325 509.987 -368.37 490.878 -368.356 471.72 C-368.354 467.123 -368.357 462.526 -368.36 457.93 C-368.364 448.941 -368.364 439.953 -368.361 430.965 C-368.358 423.622 -368.358 416.279 -368.359 408.936 C-368.359 407.883 -368.359 406.831 -368.36 405.746 C-368.36 403.606 -368.36 401.465 -368.361 399.325 C-368.363 379.286 -368.36 359.246 -368.355 339.207 C-368.35 322.184 -368.351 305.16 -368.356 288.137 C-368.361 268.238 -368.363 248.339 -368.36 228.44 C-368.36 226.293 -368.359 224.146 -368.359 221.999 C-368.359 220.944 -368.359 219.888 -368.359 218.801 C-368.358 211.532 -368.359 204.263 -368.362 196.993 C-368.373 157.342 -368.323 117.696 -367.78 78.047 C-367.77 77.315 -367.76 76.582 -367.75 75.827 C-367.539 60.138 -367.246 44.452 -366.815 28.768 C-366.774 27.277 -366.735 25.785 -366.697 24.294 C-366.643 22.224 -366.583 20.155 -366.522 18.086 C-366.489 16.907 -366.456 15.729 -366.422 14.515 C-365.856 4.753 -365.856 4.753 -364.225 3.122 C-361.449 2.88 -358.699 2.712 -355.917 2.591 C-354.528 2.529 -354.528 2.529 -353.111 2.465 C-338.707 1.879 -324.286 1.795 -309.871 1.65 C-307.088 1.621 -304.305 1.592 -301.522 1.563 C-289.879 1.441 -278.237 1.328 -266.594 1.22 C-259.676 1.155 -252.757 1.088 -245.839 1.017 C-163.894 0.18 -81.949 0.016 0 0 Z M38.775 45.122 C38.311 49.834 38.305 52.166 40.4 56.435 C43.068 59.455 44.962 60.826 48.775 62.122 C52.504 61.907 54.114 61.783 56.775 59.122 C57.765 59.122 58.755 59.122 59.775 59.122 C59.398 68.915 54.674 78.223 47.775 85.122 C31.133 100.369 -1.316 99.023 -22.225 98.122 C-33.027 97.284 -43.351 94.986 -53.73 91.966 C-100.673 78.323 -148.389 83.496 -190.917 106.685 C-201.394 112.534 -210.84 119.694 -220.225 127.122 C-220.905 127.633 -221.584 128.143 -222.284 128.669 C-243.221 145.109 -258.774 181.127 -262.824 206.756 C-263.558 212.908 -263.619 219.058 -263.6 225.247 C-263.6 225.943 -263.599 226.639 -263.599 227.356 C-263.554 240.038 -262.252 252.235 -259.876 264.706 C-259.292 267.771 -258.737 270.841 -258.192 273.914 C-255.658 298.71 -255.658 298.71 -246.225 320.122 C-238.286 320.59 -230.407 319.891 -222.522 319.028 C-220.301 318.8 -218.08 318.572 -215.858 318.345 C-212.436 317.987 -209.014 317.626 -205.594 317.258 C-181.137 314.646 -157.694 314.85 -133.225 317.122 C-116.038 318.697 -99.545 319.641 -82.298 318.371 C-13.229 313.762 -13.229 313.762 4.538 328.594 C11.985 337.796 14.504 353.239 14.185 364.735 C12.831 375.916 7.925 385.812 1.775 395.122 C1.055 396.22 0.336 397.319 -0.405 398.45 C-20.991 428.969 -47.516 444.068 -83.254 451.287 C-117.742 457.84 -152.588 459.057 -185.31 444.939 C-187.285 444.097 -189.272 443.295 -191.264 442.497 C-210.055 434.832 -223.213 424.144 -231.225 405.122 C-234.042 397.298 -234.812 387.117 -232.35 379.122 C-229.162 374.621 -225.44 372.752 -220.225 371.122 C-214.372 370.209 -209.069 370.295 -203.987 373.704 C-200.935 376.161 -198.015 378.751 -195.143 381.415 C-191.99 384.222 -189.488 384.523 -185.26 384.47 C-181.759 383.872 -180.295 381.862 -178.225 379.122 C-175.293 374.095 -175.583 368.352 -176.69 362.786 C-178.686 355.867 -182.443 350.717 -188.475 346.747 C-199.017 341.442 -213.366 344.447 -224.187 347.801 C-229.23 349.472 -233.934 351.4 -238.6 353.935 C-243.245 356.372 -247.043 357.025 -252.225 356.122 C-254.279 355.436 -256.257 354.635 -258.26 353.817 C-261.708 352.597 -264.659 352.175 -268.225 353.122 C-275.038 357.274 -281.707 364.974 -285.198 372.11 C-285.395 374.324 -285.395 374.324 -283.784 376.72 C-280.083 380.195 -275.949 380.933 -271.157 382.062 C-265.686 383.523 -263.444 385.439 -260.225 390.122 C-258.254 394.533 -257.862 398.31 -258.225 403.122 C-258.885 404.112 -259.545 405.102 -260.225 406.122 C-266.094 405.612 -270.537 403.851 -275.788 401.247 C-276.517 400.895 -277.246 400.543 -277.997 400.181 C-282.091 398.198 -286.16 396.164 -290.225 394.122 C-295.91 400.495 -300.994 406.932 -305.413 414.247 C-305.811 414.898 -306.209 415.549 -306.62 416.22 C-307.558 417.815 -308.401 419.465 -309.225 421.122 C-307.64 424.294 -304.375 424.87 -301.225 426.122 C-294.36 428.852 -294.36 428.852 -293.225 431.122 C-293.927 431.523 -294.628 431.924 -295.35 432.337 C-307.487 439.609 -313.501 447.566 -317.831 461.001 C-319.459 469.754 -319.426 479.255 -314.768 487.005 C-309.941 493.629 -305.437 497.557 -297.225 499.122 C-288.323 500.181 -280.477 497.957 -273.241 492.771 C-269.83 489.981 -267.137 487.128 -265.288 483.06 C-265.157 478.988 -266.867 476.553 -269.413 473.497 C-276.394 467.602 -283.363 467.509 -292.225 467.122 C-290.331 461.962 -286.293 460.736 -281.565 458.521 C-262.593 450.577 -245.911 455.717 -227.738 463.138 C-224.672 464.429 -221.61 465.724 -218.584 467.105 C-203.077 474.003 -186.563 477.616 -169.975 480.81 C-168.983 481.003 -167.991 481.196 -166.969 481.395 C-160.394 482.674 -153.813 483.913 -147.225 485.122 C-145.985 485.351 -144.746 485.58 -143.468 485.816 C-115.703 490.751 -87.662 488.988 -60.225 483.122 C-59.092 482.882 -57.958 482.641 -56.79 482.393 C-9.341 472.106 27.239 449.112 54.091 408.113 C57.931 401.963 60.783 396.12 62.775 389.122 C63.398 387.666 64.044 386.22 64.708 384.782 C79.408 352.543 77.656 312.89 79.775 278.122 C69.12 273.949 58.431 271.298 47.177 269.267 C45.772 269.009 44.367 268.75 42.962 268.492 C28.843 265.906 14.695 263.49 0.536 261.135 C-2.277 260.667 -5.088 260.195 -7.899 259.719 C-36.108 254.943 -64.064 250.916 -92.733 251.047 C-95.627 251.06 -98.522 251.066 -101.416 251.071 C-108.612 251.084 -115.808 251.108 -123.003 251.132 C-166.196 251.275 -166.196 251.275 -182.057 250.747 C-183.092 250.716 -184.127 250.685 -185.193 250.654 C-194.453 250.275 -203.011 249.537 -209.749 242.54 C-221.402 228.491 -222.747 208.563 -221.225 191.122 C-220.255 186.3 -218.565 182.435 -216.225 178.122 C-215.823 177.373 -215.42 176.623 -215.006 175.851 C-206.468 160.107 -206.468 160.107 -200.342 153.528 C-199.018 152.16 -199.018 152.16 -199.225 150.122 C-198.677 149.873 -198.13 149.625 -197.565 149.368 C-194.764 147.877 -192.347 146.064 -189.788 144.185 C-178.159 135.951 -165.163 129.466 -151.975 124.122 C-151.341 123.856 -150.706 123.589 -150.053 123.315 C-135.719 117.813 -119.645 117.236 -104.475 117.06 C-103.493 117.048 -102.512 117.036 -101.5 117.024 C-83.321 116.959 -70.467 120.656 -55.103 130.314 C-52.471 131.968 -49.811 133.485 -47.077 134.962 C-32.346 143.004 -17.682 153.506 -12.225 170.122 C-9.509 180.714 -9.983 193.459 -15.225 203.122 C-19.882 210.967 -27.878 213.995 -36.35 216.435 C-40.673 217.202 -44.845 217.534 -49.225 217.122 C-49.555 216.792 -49.885 216.462 -50.225 216.122 C-49.694 215.819 -49.163 215.516 -48.616 215.204 C-43.319 212.063 -39.501 209.35 -37.163 203.435 C-37.304 195.967 -42.234 189.384 -47.225 184.122 C-51.281 182.095 -56.197 182.5 -60.456 183.806 C-65.22 185.96 -67.762 188.392 -70.225 193.122 C-72.545 200.613 -71.892 208.549 -68.675 215.638 C-63.398 224.683 -56.285 230.584 -46.315 233.724 C-36.394 235.615 -27.56 234.119 -19.077 228.767 C-17.033 227.306 -15.128 225.762 -13.225 224.122 C-12.618 223.621 -12.011 223.119 -11.385 222.603 C-3.625 215.623 -0.04 206.186 1.775 196.122 C2.775 195.122 2.775 195.122 5.275 194.747 C8.84 195.129 10.222 195.813 13.212 197.622 C17.303 199.997 19.986 201.387 24.775 200.122 C31.014 193.836 36.906 181.919 37.775 173.122 C34.94 169.376 31.288 167.059 27.462 164.372 C19.134 158.379 12.031 151.486 9.775 141.122 C10.15 137.685 10.15 137.685 11.775 135.122 C21.202 128.909 33.854 130.411 44.389 132.506 C46.105 132.866 47.819 133.234 49.531 133.611 C59 136.299 59 136.299 68.087 134.81 C71.963 128.637 75.024 121.478 74.775 114.122 C70.997 109.861 66.043 107.246 60.775 105.122 C60.115 105.122 59.455 105.122 58.775 105.122 C59.662 104.07 59.662 104.07 60.568 102.997 C72.414 88.773 77.026 76.889 75.775 58.122 C73.65 50.02 67.288 44.431 60.337 40.122 C52.018 35.891 44.164 37.038 38.775 45.122 Z M-252.225 56.122 C-255.994 60.86 -258.48 65.304 -260.225 71.122 C-261.215 71.617 -261.215 71.617 -262.225 72.122 C-262.255 71.229 -262.255 71.229 -262.285 70.318 C-262.38 67.627 -262.49 64.937 -262.6 62.247 C-262.631 61.31 -262.662 60.373 -262.694 59.407 C-262.752 58.063 -262.752 58.063 -262.811 56.692 C-262.843 55.865 -262.874 55.038 -262.906 54.185 C-263.051 51.902 -263.051 51.902 -265.225 50.122 C-271.046 55.59 -276.553 61.994 -280.225 69.122 C-280.225 69.782 -280.225 70.442 -280.225 71.122 C-284.548 68.377 -288.359 65.376 -292.1 61.872 C-292.624 61.388 -293.148 60.905 -293.688 60.406 C-296.643 57.661 -299.493 54.845 -302.288 51.935 C-306.757 47.4 -311.781 43.429 -317.225 40.122 C-318.215 40.122 -319.205 40.122 -320.225 40.122 C-319.669 44.427 -318.638 47.801 -316.714 51.685 C-315.951 53.242 -315.951 53.242 -315.174 54.83 C-314.634 55.916 -314.094 57.003 -313.538 58.122 C-312.443 60.366 -311.351 62.611 -310.26 64.856 C-309.736 65.935 -309.212 67.013 -308.671 68.124 C-306.876 71.847 -305.132 75.586 -303.475 79.372 C-303.027 80.388 -302.578 81.404 -302.116 82.45 C-301.205 85.183 -301.038 87.264 -301.225 90.122 C-301.878 90.292 -302.53 90.462 -303.202 90.638 C-308.564 92.125 -312.9 93.573 -317.225 97.122 C-317.555 98.112 -317.885 99.102 -318.225 100.122 C-311.583 102.038 -305.115 102.686 -298.225 103.122 C-298.225 106.307 -300.285 107.846 -302.288 110.247 C-303.11 111.241 -303.933 112.235 -304.78 113.259 C-306.771 115.59 -308.816 117.826 -310.913 120.06 C-318.819 129.069 -322.931 140.916 -322.538 152.903 C-321.103 163.09 -317.079 173.141 -309.85 180.56 C-306.421 182.601 -303.005 183.841 -299.225 185.122 C-299.809 181.566 -301.122 179.876 -303.6 177.31 C-311.684 168.398 -311.91 157.714 -311.405 146.196 C-310.572 136.565 -305.262 129.076 -298.561 122.513 C-294.924 119.551 -291.263 118.983 -286.725 118.247 C-275.237 116.005 -264.365 112.183 -256.831 102.689 C-252.435 95.661 -250.36 87.731 -248.163 79.81 C-245.516 70.271 -242.021 61.837 -233.225 56.435 C-225.625 52.533 -216.71 49.732 -208.292 52.259 C-202.459 54.696 -197.938 57.203 -195.225 63.122 C-194.897 66.821 -194.897 66.821 -194.975 70.81 C-194.98 71.486 -194.986 72.162 -194.991 72.858 C-195.07 77.811 -195.07 77.811 -196.225 80.122 C-196.707 79.556 -197.19 78.99 -197.686 78.407 C-198.318 77.674 -198.95 76.94 -199.6 76.185 C-200.227 75.454 -200.853 74.723 -201.499 73.97 C-204.077 71.211 -205.093 71.135 -208.975 70.747 C-212.326 70.772 -214.074 71.366 -216.663 73.497 C-219.833 76.745 -220.389 78.162 -220.475 82.56 C-220.501 83.342 -220.527 84.125 -220.553 84.931 C-220.149 87.631 -219.336 88.452 -217.225 90.122 C-212.817 91.918 -207.531 92.085 -203.139 90.251 C-195.839 85.985 -189.794 79.272 -187.225 71.122 C-186.232 65.341 -186.461 60.607 -189.6 55.56 C-190.761 54.043 -191.975 52.566 -193.225 51.122 C-193.999 50.228 -194.772 49.333 -195.569 48.411 C-201.781 41.72 -205.43 39.568 -214.475 38.872 C-229.839 39.896 -241.607 44.672 -252.225 56.122 Z M-101.225 133.122 C-101.865 135.287 -101.865 135.287 -102.288 137.685 C-103.128 142.025 -103.128 142.025 -104.225 143.122 C-105.65 143.185 -107.077 143.181 -108.503 143.149 C-109.4 143.136 -110.297 143.122 -111.222 143.107 C-112.192 143.092 -113.163 143.076 -114.163 143.06 C-136.705 142.906 -156.409 145.343 -173.573 161.368 C-186.881 174.564 -186.881 174.564 -193.225 191.122 C-192.083 190.832 -192.083 190.832 -190.917 190.536 C-189.368 190.146 -189.368 190.146 -187.788 189.747 C-186.779 189.492 -185.769 189.237 -184.729 188.974 C-180.574 187.964 -176.403 187.036 -172.225 186.122 C-172.457 186.727 -172.689 187.332 -172.928 187.955 C-173.987 190.718 -175.044 193.483 -176.1 196.247 C-176.465 197.198 -176.83 198.15 -177.206 199.13 C-179.368 204.788 -179.368 204.788 -181.272 210.536 C-182.321 213.383 -183.576 215.127 -185.6 217.372 C-186.186 218.037 -186.771 218.702 -187.374 219.388 C-190.223 222.057 -192.419 223.023 -196.288 223.497 C-199.225 223.122 -199.225 223.122 -200.815 221.45 C-202.892 218.021 -203.508 214.462 -204.382 210.583 C-205.059 207.794 -205.059 207.794 -208.225 206.122 C-209.68 209.032 -209.434 211.631 -209.475 214.872 C-209.501 216.084 -209.527 217.296 -209.553 218.544 C-209.129 223.169 -207.647 226.262 -204.846 229.927 C-198.754 234.419 -187.509 233.639 -180.225 234.122 C-180.118 234.87 -180.011 235.617 -179.901 236.388 C-179.183 239.291 -178.36 240.644 -176.413 242.872 C-175.911 243.465 -175.41 244.058 -174.893 244.669 C-173.001 246.318 -171.701 246.811 -169.225 247.122 C-167.921 246.031 -167.921 246.031 -167.975 243.372 C-167.962 240.124 -167.962 240.124 -169.718 237.849 C-174.595 229.028 -170.685 214.179 -168.225 205.122 C-164.567 193.691 -158.466 183.232 -148.202 176.622 C-137.16 171.058 -125.492 168.95 -113.225 169.06 C-112.546 169.064 -111.867 169.069 -111.167 169.073 C-109.52 169.085 -107.872 169.103 -106.225 169.122 C-107.071 169.558 -107.917 169.994 -108.788 170.442 C-119.634 176.137 -127.773 180.69 -133.225 192.122 C-133.886 194.312 -133.886 194.312 -134.225 196.122 C-132.74 196.617 -132.74 196.617 -131.225 197.122 C-128.714 195.703 -128.714 195.703 -126.1 193.622 C-125.119 192.883 -124.138 192.145 -123.128 191.384 C-121.358 190.005 -119.598 188.615 -117.854 187.204 C-109.331 180.322 -100.511 175.025 -89.225 176.122 C-84.376 177.18 -80.425 178.794 -76.475 181.81 C-73.492 184.282 -73.492 184.282 -70.413 184.622 C-67.847 184.299 -67.847 184.299 -66.225 181.122 C-66.459 174.484 -68.568 169.089 -71.225 163.06 C-71.822 161.687 -71.822 161.687 -72.431 160.286 C-79.336 143.609 -79.336 143.609 -91.225 131.122 C-93.139 130.925 -93.139 130.925 -95.225 130.935 C-95.927 130.92 -96.628 130.906 -97.35 130.892 C-99.471 130.957 -99.471 130.957 -101.225 133.122 Z M87.65 147.997 C86.678 149.026 85.721 150.07 84.775 151.122 C83.872 152.11 83.872 152.11 82.95 153.118 C72.416 165.391 64.719 182.77 61.275 198.497 C59.461 206.25 55.975 211.83 49.525 216.56 C44.858 219.429 40.168 220.469 34.775 221.122 C37.712 224.5 40.035 224.915 44.368 225.431 C51.881 225.764 56.692 224.203 63.181 220.435 C65.775 219.122 65.775 219.122 69.775 219.122 C70.282 226.22 69.069 231.157 64.456 236.71 C53.075 249.772 53.075 249.772 48.865 250.413 C32.567 250.756 21.725 248.167 8.837 237.747 C6.95 235.916 6.95 235.916 4.775 236.122 C6.051 242.505 9.84 246.198 14.775 250.122 C27.492 258.093 41.391 261.315 56.072 257.985 C72.256 254.335 72.256 254.335 84.88 244.368 C86.856 240.983 87.94 237.961 88.962 234.185 C89.286 233.021 89.609 231.857 89.943 230.657 C92.859 218.265 92.588 206.973 87.15 195.372 C81.864 183.096 84.669 167.329 88.865 154.892 C89.544 153.216 90.252 151.551 91.005 149.907 C91.907 148.14 91.907 148.14 91.775 146.122 C89.552 145.902 89.552 145.902 87.65 147.997 Z M-298.225 161.122 C-300.52 165.085 -300.685 168.6 -300.225 173.122 C-298.927 176.817 -297.676 180.134 -294.366 182.388 C-290.492 183.717 -286.946 182.586 -283.225 181.122 C-279.45 177.441 -278.32 174.567 -277.975 169.31 C-278.048 164.362 -279.58 160.885 -282.975 157.247 C-289.339 154.065 -293.619 156.302 -298.225 161.122 Z M-319.225 210.122 C-320.196 213.033 -320.39 215.024 -320.413 218.06 C-320.434 219.342 -320.434 219.342 -320.456 220.649 C-320.204 223.347 -319.723 224.873 -318.225 227.122 C-316.528 228.434 -316.528 228.434 -314.6 229.372 C-313.487 229.95 -312.373 230.527 -311.225 231.122 C-312.042 239.151 -312.042 239.151 -312.772 243.017 C-316.297 261.952 -311.45 278.646 -306.163 296.763 C-303.954 304.705 -302.226 313.733 -305.175 321.681 C-307.47 325.627 -309.911 328.434 -314.225 330.122 C-317.873 330.932 -321.53 331.572 -325.225 332.122 C-324.813 331.441 -324.4 330.761 -323.975 330.06 C-323.398 329.09 -322.82 328.121 -322.225 327.122 C-321.483 326.05 -320.74 324.977 -319.975 323.872 C-317.952 320.263 -317.862 317.506 -318.553 313.466 C-320.135 307.947 -322.457 303.528 -326.975 299.935 C-331.551 298.791 -334.951 299.077 -339.225 301.122 C-344.816 306.083 -349.526 314.938 -350.522 322.321 C-350.208 328.026 -347.099 332.207 -343.225 336.122 C-340.7 338.132 -338.107 339.676 -335.225 341.122 C-334.586 341.453 -333.947 341.785 -333.288 342.126 C-326.09 345.362 -319.23 344.013 -311.975 341.497 C-303.031 337.6 -299.428 329.628 -295.975 320.997 C-293 305.626 -296.894 289.597 -300.413 274.622 C-304.131 258.402 -301.403 243.801 -293.424 229.258 C-291.102 224.815 -290.964 221.946 -292.225 217.122 C-293.379 214.778 -293.379 214.778 -294.975 212.872 C-295.71 211.905 -295.71 211.905 -296.46 210.919 C-299.421 207.905 -301.986 206.303 -306.198 205.689 C-307.727 205.687 -307.727 205.687 -309.288 205.685 C-310.31 205.665 -311.332 205.646 -312.385 205.626 C-315.91 206.242 -317.046 207.338 -319.225 210.122 Z M-120.663 215.435 C-125.303 221.507 -126.958 227.553 -126.225 235.122 C-124.442 240.273 -122.095 242.687 -117.225 245.122 C-112.561 245.543 -112.561 245.543 -108.225 244.122 C-108.621 241.272 -108.882 239.521 -110.788 237.31 C-113.069 233.839 -112.617 231.231 -112.225 227.122 C-110.682 224.947 -109.589 224.304 -107.225 223.122 C-103.212 222.587 -101.686 222.792 -98.35 225.185 C-95.674 228.885 -95.596 230.637 -96.225 235.122 C-97.21 237.13 -98.208 239.131 -99.225 241.122 C-99.331 243.372 -99.331 243.372 -98.225 245.122 C-95.3 247.212 -92.758 247.639 -89.225 247.122 C-86.18 245.281 -84.569 243.777 -82.913 240.622 C-81.477 233.311 -80.873 225.634 -84.757 219.005 C-89.662 212.717 -95.361 207.79 -103.413 206.685 C-110.165 207.459 -116.034 210.414 -120.663 215.435 Z M-104.225 229.122 C-106.061 230.456 -106.061 230.456 -107.225 232.122 C-106.235 233.607 -106.235 233.607 -105.225 235.122 C-103.575 234.792 -101.925 234.462 -100.225 234.122 C-99.895 232.802 -99.565 231.482 -99.225 230.122 C-101.571 229.353 -101.571 229.353 -104.225 229.122 Z M-128.225 328.122 C-130.667 335.448 -129.37 342.582 -126.565 349.63 C-124.263 353.912 -121 357.195 -116.331 358.755 C-108.889 360.053 -100.941 359.8 -94.225 356.122 C-88.135 351.408 -83.083 345.53 -81.85 337.759 C-81.658 334.077 -81.809 331.816 -83.725 328.622 C-87.344 326.451 -89.994 326.256 -94.225 326.122 C-95.215 326.782 -96.205 327.442 -97.225 328.122 C-97.323 330.595 -97.323 330.595 -96.975 333.372 C-96.841 338.486 -96.841 338.486 -98.491 341.216 C-101.015 343.626 -102.926 345.045 -106.471 345.255 C-108.663 344.997 -108.663 344.997 -112.225 344.122 C-114.052 339.495 -114.55 335.308 -114.784 330.392 C-115.31 327.686 -116.05 326.77 -118.225 325.122 C-122.412 324.461 -124.882 325.615 -128.225 328.122 Z M-106.225 329.122 C-106.885 329.782 -107.545 330.442 -108.225 331.122 C-107.905 333.725 -107.905 333.725 -107.225 336.122 C-104.809 336.289 -104.809 336.289 -102.225 336.122 C-101.565 335.462 -100.905 334.802 -100.225 334.122 C-100.225 332.802 -100.225 331.482 -100.225 330.122 C-103.126 329.444 -103.126 329.444 -106.225 329.122 Z M-163.225 320.122 C-164.813 321.709 -164.492 323.252 -164.569 325.466 C-164.488 334.409 -161.887 343.001 -159.725 351.622 C-152.765 379.384 -152.765 379.384 -159.389 391.388 C-166.778 402.392 -178.114 405.552 -190.225 409.122 C-195.632 410.443 -195.632 410.443 -200.225 413.122 C-200.188 415.124 -200.071 417.126 -199.913 419.122 C-199.834 420.215 -199.756 421.308 -199.675 422.435 C-199.452 423.765 -199.452 423.765 -199.225 425.122 C-192.388 428.541 -180.725 424.483 -173.819 422.376 C-162.917 418.572 -156.823 411.824 -149.907 402.901 C-149.342 402.172 -148.776 401.443 -148.194 400.692 C-147.693 400.03 -147.192 399.368 -146.677 398.685 C-145.225 397.122 -145.225 397.122 -142.225 396.122 C-140.526 397.099 -140.526 397.099 -138.538 398.747 C-137.746 399.394 -136.955 400.041 -136.139 400.708 C-135.178 401.505 -134.216 402.301 -133.225 403.122 C-131.985 404.116 -130.742 405.108 -129.499 406.099 C-119.033 414.462 -108.921 423.11 -99.628 432.782 C-97.233 435.071 -95.594 436.083 -92.288 436.435 C-88.943 436.093 -87.658 435.367 -85.225 433.122 C-86.581 428.198 -88.842 424.491 -91.85 420.435 C-96.225 414.523 -96.225 414.523 -96.225 411.122 C-90.124 411.072 -84.023 411.036 -77.921 411.012 C-75.848 411.002 -73.776 410.989 -71.703 410.971 C-68.712 410.947 -65.721 410.936 -62.729 410.927 C-61.813 410.916 -60.897 410.906 -59.954 410.896 C-53.141 410.894 -46.816 411.653 -40.475 414.247 C-37.922 415.24 -35.941 415.277 -33.225 415.122 C-31.124 411.707 -30.657 409.1 -31.225 405.122 C-35.125 399.34 -40.787 398.492 -47.225 397.122 C-48.195 396.916 -49.164 396.71 -50.163 396.497 C-52.513 396.016 -54.866 395.557 -57.225 395.122 C-54.635 388.971 -50.506 384.189 -46.225 379.122 C-45.447 378.184 -44.668 377.245 -43.866 376.278 C-37.895 369.357 -31.094 361.719 -21.538 360.747 C-17.57 362.394 -15.16 364.635 -12.218 367.724 C-10.263 369.414 -10.263 369.414 -7.546 368.896 C-5.29 368.336 -5.29 368.336 -4.225 367.122 C-3.831 363.098 -3.993 360.617 -5.725 356.935 C-10.376 351.702 -16.451 349.424 -23.35 348.872 C-36.829 349.742 -47.178 357.56 -55.915 367.475 C-59.042 371.406 -61.65 375.741 -64.208 380.057 C-67.519 385.522 -71.409 390.214 -77.225 393.122 C-77.049 392.542 -76.872 391.963 -76.69 391.366 C-75.887 388.723 -75.087 386.079 -74.288 383.435 C-74.01 382.523 -73.732 381.611 -73.446 380.671 C-73.179 379.785 -72.911 378.898 -72.635 377.985 C-72.266 376.768 -72.266 376.768 -71.89 375.526 C-70.385 370.083 -69.499 364.761 -70.225 359.122 C-71.539 356.391 -71.539 356.391 -74.225 355.122 C-76.984 354.812 -79.432 354.936 -82.225 355.122 C-84.52 359.712 -85.618 363.938 -86.538 368.997 C-87.929 375.663 -89.883 379.937 -94.225 385.122 C-94.871 385.942 -94.871 385.942 -95.529 386.779 C-103.997 397.469 -103.997 397.469 -108.651 398.833 C-111.07 398.601 -112.962 398 -115.225 397.122 C-116.461 396.82 -116.461 396.82 -117.721 396.513 C-128.262 393.882 -137.514 387.428 -143.46 378.208 C-144.288 376.56 -144.288 376.56 -145.225 374.122 C-134.75 375.932 -134.75 375.932 -129.913 377.247 C-126.484 378.061 -123.725 378.455 -120.225 378.122 C-118.068 376.366 -118.068 376.366 -117.96 374.247 C-117.967 373.195 -117.967 373.195 -117.975 372.122 C-117.97 371.421 -117.965 370.72 -117.96 369.997 C-118.068 367.879 -118.068 367.879 -120.225 366.122 C-121.897 365.494 -123.588 364.917 -125.288 364.372 C-132.629 361.78 -140.167 358.037 -144.225 351.122 C-146.196 346.05 -147.73 340.855 -149.225 335.626 C-149.72 333.923 -149.72 333.923 -150.225 332.185 C-150.514 331.144 -150.803 330.104 -151.1 329.032 C-152.363 325.766 -153.793 323.636 -156.225 321.122 C-159.819 320.143 -159.819 320.143 -163.225 320.122 Z M90.775 371.122 C83.776 378.711 80.921 389.617 77.755 399.212 C74.142 409.93 67.698 418.445 60.79 427.298 C57.106 432.46 54.8 436.666 55.775 443.122 C59.685 447.032 65.49 447.114 70.775 447.122 C76.443 446.193 79.046 444.424 82.775 440.122 C83.517 439.416 83.517 439.416 84.275 438.696 C90.339 432.586 92.954 423.828 93.087 415.31 C92.929 412.049 92.458 408.857 92.001 405.626 C91.681 402.085 91.659 398.55 91.65 394.997 C91.645 394.316 91.641 393.634 91.636 392.932 C91.648 388.881 92.08 385.104 92.775 381.122 C92.838 379.331 92.861 377.539 92.837 375.747 C92.828 374.873 92.819 373.999 92.81 373.099 C92.798 372.446 92.787 371.794 92.775 371.122 C92.115 371.122 91.455 371.122 90.775 371.122 Z M38.775 450.372 C38.119 450.723 37.463 451.075 36.788 451.437 C29.446 455.579 23.709 461.214 17.775 467.122 C7.739 476.962 -1.929 482.138 -15.702 484.742 C-17.563 485.112 -19.399 485.607 -21.225 486.122 C-21.555 487.112 -21.885 488.102 -22.225 489.122 C-7.459 493.642 9.492 494.121 23.775 487.685 C34.061 482.149 42.777 474.363 46.439 463.075 C46.93 461.437 47.36 459.781 47.775 458.122 C48.069 458.705 48.362 459.287 48.665 459.888 C54.825 471.146 65.808 483.058 77.892 487.985 C82.516 489.308 87.02 489.45 91.775 489.122 C92.765 488.132 92.765 488.132 93.775 487.122 C93.321 486.627 92.867 486.132 92.4 485.622 C90.775 483.122 90.775 483.122 89.962 479.372 C87.764 469.86 78.91 462.211 71.082 456.994 C55.649 447.158 55.649 447.158 38.775 450.372 Z " fill="#FAFAFA" transform="translate(369.2253376841545,2.8778865933418274)"/>
<path d="M0 0 C1.365 -0.006 1.365 -0.006 2.758 -0.012 C4.061 -0.01 4.061 -0.01 5.391 -0.008 C6.574 -0.006 6.574 -0.006 7.782 -0.004 C9.75 0.125 9.75 0.125 11.75 1.125 C11.42 2.775 11.09 4.425 10.75 6.125 C7.436 7.23 4.738 7.302 1.25 7.438 C-8.126 8.057 -15.672 10.631 -23.25 16.125 C-24.24 16.455 -25.23 16.785 -26.25 17.125 C-27.29 19.258 -27.29 19.258 -28.25 22.125 C-29.268 24.372 -30.305 26.609 -31.348 28.844 C-32.987 32.989 -33.375 36.943 -33.364 41.374 C-33.363 42.395 -33.363 43.416 -33.363 44.467 C-33.358 45.557 -33.353 46.647 -33.348 47.77 C-33.346 49.457 -33.346 49.457 -33.343 51.178 C-33.338 54.765 -33.325 58.351 -33.312 61.938 C-33.307 64.372 -33.303 66.806 -33.299 69.24 C-33.288 75.202 -33.271 81.163 -33.25 87.125 C-29.773 86.483 -27.203 85.747 -24.176 83.902 C-23.431 83.45 -22.685 82.998 -21.917 82.532 C-21.14 82.047 -20.363 81.562 -19.562 81.062 C-18.76 80.567 -17.957 80.071 -17.129 79.56 C-11.143 75.809 -5.632 71.701 -0.25 67.125 C1.217 65.923 2.696 64.734 4.188 63.562 C4.805 63.066 5.422 62.57 6.059 62.059 C6.617 61.751 7.175 61.442 7.75 61.125 C9.235 61.62 9.235 61.62 10.75 62.125 C11.488 64.129 11.488 64.129 12.062 66.688 C13.924 73.402 17.492 77.567 22.047 82.727 C38.634 101.838 47.395 124.428 47.188 149.875 C47.176 151.842 47.176 151.842 47.165 153.848 C46.992 164.075 45.894 173.4 42.75 183.125 C42.437 184.131 42.437 184.131 42.117 185.158 C37.229 200.492 29.505 214.145 18.75 226.125 C18.011 226.972 17.273 227.819 16.512 228.691 C10.629 235.288 4.424 241.576 -1.799 247.85 C-3.208 249.271 -4.613 250.695 -6.018 252.12 C-11.372 257.481 -16.882 262.446 -22.815 267.158 C-25.129 269.027 -27.321 270.976 -29.5 273 C-33.478 276.568 -37.656 279.809 -41.938 283 C-42.883 283.715 -42.883 283.715 -43.847 284.445 C-47.523 287.144 -50.779 288.93 -55.25 290.125 C-55.91 288.805 -56.57 287.485 -57.25 286.125 C-54.793 283.811 -52.334 281.499 -49.875 279.188 C-49.196 278.547 -48.516 277.907 -47.816 277.248 C-44.078 273.737 -40.306 270.275 -36.473 266.867 C-31.031 261.983 -25.805 256.901 -20.626 251.741 C-19.061 250.186 -17.485 248.641 -15.908 247.096 C5.151 226.261 11.835 201.133 12.062 172.062 C12.013 149.535 9.978 121.667 -5.113 103.648 C-6.25 102.125 -6.25 102.125 -6.25 100.125 C-6.786 99.898 -7.322 99.671 -7.875 99.438 C-10.25 98.125 -10.25 98.125 -13.125 95.562 C-16.52 92.914 -17.997 92.21 -22.25 92.125 C-26.021 92.793 -29.618 93.914 -33.25 95.125 C-33.43 137.847 -33.43 137.847 -32.932 180.565 C-32.894 182.39 -32.86 184.214 -32.828 186.039 C-32.784 188.541 -32.726 191.042 -32.664 193.543 C-32.653 194.263 -32.641 194.983 -32.629 195.725 C-32.522 199.294 -32.373 202.172 -30.25 205.125 C-27.315 206.217 -25.353 206.585 -22.406 205.355 C-19.59 203.762 -16.941 201.919 -14.25 200.125 C-12.062 200.5 -12.062 200.5 -10.25 201.125 C-10.682 206.003 -12.681 207.982 -16.168 211.293 C-16.91 212.013 -16.91 212.013 -17.668 212.747 C-19.772 214.786 -21.899 216.802 -24.026 218.819 C-30.538 225.023 -36.135 230.997 -40.25 239.125 C-44.347 238.431 -46.034 237.757 -48.812 234.625 C-57.602 225.425 -68.172 219.139 -79.25 213.125 C-79.25 211.805 -79.25 210.485 -79.25 209.125 C-78.342 208.568 -77.435 208.011 -76.5 207.438 C-72.131 204.329 -70.773 201.204 -69.25 196.125 C-68.708 191.899 -68.713 187.727 -68.748 183.471 C-68.743 182.232 -68.737 180.994 -68.732 179.717 C-68.722 176.34 -68.729 172.964 -68.746 169.587 C-68.76 166.028 -68.753 162.468 -68.749 158.908 C-68.747 152.921 -68.76 146.934 -68.783 140.948 C-68.81 134.076 -68.812 127.205 -68.8 120.334 C-68.789 113.676 -68.796 107.019 -68.81 100.361 C-68.815 97.552 -68.815 94.743 -68.811 91.934 C-68.776 64.622 -70.721 40.418 -86.25 17.125 C-86.25 15.805 -86.25 14.485 -86.25 13.125 C-84.562 12.312 -84.562 12.312 -82.25 12.125 C-77.15 16.017 -74.369 21.622 -71.25 27.125 C-70.831 27.852 -70.412 28.579 -69.98 29.328 C-69.063 30.923 -68.155 32.523 -67.25 34.125 C-66.26 34.125 -65.27 34.125 -64.25 34.125 C-62.569 32.133 -62.569 32.133 -61 29.562 C-50.044 13.312 -32.352 4.634 -13.508 0.527 C-8.997 -0.03 -4.54 -0.02 0 0 Z " fill="#FAFAFA" transform="translate(1020.25,189.875)"/>
<path d="M0 0 C3.217 0.576 4.776 1.429 6.996 3.809 C7.548 4.386 8.1 4.963 8.668 5.558 C9.252 6.178 9.836 6.799 10.438 7.438 C23.44 20.782 37.127 30.469 55.551 34.98 C58 36 58 36 59.059 37.91 C59 40 59 40 57.672 41.641 C56.402 42.704 55.131 43.767 53.859 44.828 C49.321 50.13 48.556 56.429 48.688 63.173 C48.692 64.333 48.692 64.333 48.697 65.516 C48.71 68.046 48.747 70.576 48.785 73.105 C48.803 74.876 48.82 76.646 48.837 78.416 C48.874 82.114 48.924 85.811 48.981 89.509 C49.053 94.243 49.094 98.977 49.125 103.712 C49.153 107.362 49.2 111.012 49.251 114.663 C49.274 116.408 49.29 118.154 49.3 119.9 C49.317 122.339 49.358 124.777 49.406 127.216 C49.406 128.292 49.406 128.292 49.406 129.39 C49.536 134.174 50.622 136.628 54 140 C55.833 141.167 55.833 141.167 58 141 C61.038 139.76 63.362 138.715 65.562 136.25 C66.037 135.837 66.511 135.425 67 135 C69.688 135.312 69.688 135.312 72 136 C71.535 141.266 68.696 144.878 65.812 149.125 C62.021 154.833 58.474 160.547 55.281 166.617 C53.359 170.192 51.191 173.584 49 177 C45.327 176.168 42.374 174.687 39 173 C37.71 172.577 36.419 172.161 35.125 171.75 C26.303 168.433 22.069 162.134 18.129 153.867 C17.089 151.225 16.446 148.797 16 146 C10.572 148.406 6.249 151.745 1.625 155.438 C0.031 156.692 -1.564 157.946 -3.16 159.199 C-3.963 159.831 -4.767 160.463 -5.594 161.115 C-9.309 164.026 -13.051 166.899 -16.812 169.75 C-17.463 170.251 -18.114 170.751 -18.785 171.267 C-22.073 173.751 -25.034 175.701 -29 177 C-29.245 176.466 -29.49 175.933 -29.742 175.383 C-32.15 170.583 -34.808 166.977 -38.688 163.25 C-55.839 146.711 -65.831 126.075 -66.293 101.969 C-66.434 80.752 -60.907 62.763 -46 47 C-40.148 41.251 -33.901 36.072 -27.473 30.988 C-16.283 21.991 -8.049 11.822 0 0 Z M-16 30 C-20.626 32.807 -22.785 36.626 -25.062 41.375 C-25.406 42.078 -25.75 42.781 -26.104 43.506 C-30.319 52.411 -33.58 62.091 -34 72 C-34.052 73.039 -34.103 74.078 -34.156 75.148 C-34.7 96.397 -30.52 120.691 -15.75 136.875 C-11.121 141.088 -5.214 145.671 1.203 146.172 C3.419 145.771 4.991 145.017 7 144 C7.689 143.66 8.378 143.319 9.087 142.969 C11.77 141.198 13.256 139.728 15 137 C16.211 130.594 16.072 124.249 16 117.75 C16.008 115.854 16.019 113.957 16.033 112.061 C16.061 107.068 16.042 102.077 16.013 97.084 C15.991 91.922 16.015 86.76 16.035 81.598 C16.068 71.398 16.05 61.199 16 51 C15.007 50.497 14.014 49.994 12.991 49.476 C5.79 45.772 -0.828 42.174 -6.75 36.562 C-10.911 32.567 -10.911 32.567 -16 30 Z " fill="#FBFBFB" transform="translate(571,253)"/>
<path d="M0 0 C3.989 0.513 5.863 1.387 8.602 4.316 C9.251 4.994 9.9 5.673 10.568 6.371 C11.247 7.094 11.926 7.817 12.625 8.562 C25.558 21.858 40.532 32.244 59 36 C59.495 37.98 59.495 37.98 60 40 C59.092 40.66 58.185 41.32 57.25 42 C52.58 46.005 50.292 50.231 49.648 56.331 C49.52 60.439 49.523 64.528 49.574 68.637 C49.579 70.164 49.582 71.69 49.584 73.217 C49.592 76.411 49.612 79.603 49.643 82.797 C49.683 86.853 49.701 90.909 49.711 94.966 C49.721 98.877 49.74 102.788 49.762 106.699 C49.765 107.428 49.769 108.156 49.772 108.906 C49.798 113.606 49.875 118.302 50 123 C50.032 124.241 50.064 125.483 50.098 126.762 C50.153 127.919 50.208 129.077 50.265 130.269 C50.309 131.282 50.353 132.295 50.399 133.339 C51.147 136.65 52.402 137.878 55 140 C56.942 141.016 56.942 141.016 59 141 C61.032 140.074 61.032 140.074 62.938 138.625 C65.964 136.583 68.288 135.348 72 135 C73 138 73 138 72.231 139.771 C71.608 140.745 71.608 140.745 70.973 141.738 C70.514 142.469 70.055 143.201 69.582 143.954 C69.081 144.732 68.579 145.511 68.062 146.312 C67.04 147.939 66.019 149.567 65 151.195 C64.491 152.005 63.982 152.815 63.457 153.649 C61.411 156.95 59.472 160.306 57.562 163.688 C56.966 164.743 56.369 165.799 55.754 166.887 C55.175 167.914 54.596 168.941 54 170 C52.669 172.335 51.335 174.668 50 177 C39.72 175.674 28.826 169.156 22.352 161.145 C19.578 156.744 17.804 151.86 16 147 C11.204 148.565 7.692 151.274 3.75 154.312 C2.717 155.097 2.717 155.097 1.663 155.898 C-2.12 158.777 -5.884 161.68 -9.652 164.578 C-10.411 165.16 -11.169 165.743 -11.95 166.343 C-13.412 167.466 -14.871 168.592 -16.327 169.722 C-23.685 175.392 -23.685 175.392 -27 177 C-27.99 176.67 -28.98 176.34 -30 176 C-30.676 174.059 -31.351 172.119 -32.018 170.175 C-33.737 166.369 -36.709 163.905 -39.75 161.125 C-55.315 146.182 -65.06 126.785 -66 105 C-66.052 104.139 -66.103 103.278 -66.156 102.391 C-66.848 81.07 -59.748 63.017 -45.469 47.195 C-39.516 41.015 -33.073 35.774 -26.293 30.547 C-15.171 21.97 -7.191 12.062 0 0 Z M-20.16 33.352 C-33.998 57.163 -36.546 82.238 -29.599 108.852 C-25.413 123.869 -18.183 134.953 -5.281 143.766 C-2.784 145.117 -0.819 145.701 2 146 C7.305 144.264 11.009 141.896 15 138 C16.156 134.8 16.153 131.659 16.205 128.28 C16.225 127.126 16.245 125.973 16.266 124.785 C16.291 122.913 16.291 122.913 16.316 121.004 C16.337 119.705 16.358 118.407 16.379 117.069 C16.423 114.309 16.464 111.55 16.503 108.79 C16.561 104.638 16.627 100.486 16.693 96.334 C16.798 89.758 16.876 83.181 16.949 76.605 C16.997 73.218 17.077 69.834 17.167 66.449 C17.204 64.537 17.241 62.626 17.277 60.715 C17.309 59.86 17.341 59.005 17.374 58.124 C17.505 53.629 17.505 53.629 15.115 50.018 C12.944 48.973 10.775 47.955 8.562 47 C0.759 43.22 -5.901 37.099 -12 31 C-15.992 30.337 -17.367 30.311 -20.16 33.352 Z " fill="#FBFBFB" transform="translate(846,253)"/>
<path d="M0 0 C3.801 1.104 6.854 2.83 10.117 5.004 C10.731 5.41 11.346 5.816 11.979 6.235 C21.353 12.587 26.935 19.336 31.242 29.941 C31.242 30.601 31.242 31.261 31.242 31.941 C35.594 31.515 37.714 28.669 40.43 25.566 C40.909 25.031 41.389 24.496 41.884 23.945 C45.038 20.397 48.065 16.755 51.055 13.066 C57.628 4.967 57.628 4.967 61.242 1.941 C63.233 2.016 63.233 2.016 65.242 2.941 C66.719 4.916 66.719 4.916 68.082 7.5 C68.588 8.444 69.094 9.388 69.615 10.361 C70.39 11.855 70.39 11.855 71.18 13.379 C71.948 14.82 71.948 14.82 72.732 16.291 C73.755 18.218 74.766 20.151 75.765 22.089 C76.743 23.978 77.745 25.855 78.77 27.719 C79.236 28.588 79.703 29.457 80.184 30.352 C80.605 31.117 81.026 31.883 81.459 32.672 C82.44 35.514 82.126 37.096 81.242 39.941 C79.527 42.414 79.527 42.414 77.305 45.004 C76.499 45.951 75.693 46.899 74.863 47.875 C74.436 48.371 74.01 48.867 73.57 49.378 C72.196 50.995 70.859 52.637 69.527 54.289 C69.083 54.836 68.639 55.383 68.181 55.947 C66.922 57.499 65.664 59.052 64.406 60.605 C62.242 62.941 62.242 62.941 59.242 63.941 C53.322 55.792 48.853 46.866 44.242 37.941 C40.389 37.547 40.389 37.547 38.352 39.328 C33.267 44.875 32.226 48.865 32.34 56.281 C32.327 57.269 32.315 58.257 32.302 59.275 C32.27 62.477 32.287 65.677 32.305 68.879 C32.293 71.086 32.278 73.293 32.26 75.499 C32.224 80.968 32.226 86.436 32.24 91.905 C32.243 96.371 32.206 100.835 32.168 105.301 C32.13 110.82 32.098 116.34 32.109 121.859 C32.111 123.418 32.111 123.418 32.113 125.009 C32.247 128.055 32.68 130.946 33.242 133.941 C34.511 134.313 34.511 134.313 35.805 134.691 C38.535 135.684 40.407 136.609 42.805 138.129 C45.975 140.094 45.975 140.094 48.805 140.129 C52.017 138.564 53.675 136.355 55.812 133.535 C57.242 131.941 57.242 131.941 60.242 130.941 C60.902 131.271 61.562 131.601 62.242 131.941 C61.759 136.635 59.915 138.852 56.805 142.316 C48.897 151.398 42.36 161.526 36.594 172.086 C35.036 174.224 33.671 174.965 31.242 175.941 C30.603 175.302 29.963 174.663 29.305 174.004 C28.844 173.549 28.384 173.094 27.91 172.625 C26.684 171.387 25.481 170.126 24.293 168.852 C15.056 159.15 5.538 154.291 -7.116 150.337 C-8.381 149.933 -8.381 149.933 -9.672 149.52 C-10.435 149.287 -11.197 149.054 -11.983 148.813 C-12.861 148.382 -12.861 148.382 -13.758 147.941 C-14.088 146.951 -14.418 145.961 -14.758 144.941 C-14.059 144.506 -13.36 144.07 -12.641 143.621 C-11.276 142.728 -11.276 142.728 -9.883 141.816 C-8.978 141.236 -8.073 140.656 -7.141 140.059 C-3.279 136.627 -2.829 133.028 -2.497 127.971 C-2.482 126.448 -2.478 124.924 -2.483 123.401 C-2.478 122.564 -2.473 121.728 -2.468 120.866 C-2.454 118.112 -2.455 115.359 -2.457 112.605 C-2.453 110.683 -2.449 108.76 -2.444 106.837 C-2.437 102.811 -2.437 98.784 -2.442 94.758 C-2.448 89.611 -2.431 84.465 -2.408 79.318 C-2.393 75.347 -2.392 71.377 -2.395 67.407 C-2.395 65.51 -2.39 63.613 -2.379 61.716 C-2.367 59.057 -2.374 56.399 -2.385 53.741 C-2.378 52.965 -2.37 52.19 -2.362 51.391 C-2.414 45.966 -3.508 41.896 -5.758 36.941 C-8.437 34.615 -9.785 33.941 -13.32 33.941 C-16.51 35.25 -17.715 37.218 -19.758 39.941 C-21.243 40.436 -21.243 40.436 -22.758 40.941 C-23.418 40.281 -24.078 39.621 -24.758 38.941 C-24.407 35.192 -23.122 32.437 -21.246 29.211 C-20.735 28.325 -20.224 27.438 -19.697 26.525 C-19.16 25.611 -18.623 24.696 -18.07 23.754 C-17.553 22.859 -17.035 21.963 -16.502 21.041 C-14.932 18.334 -13.347 15.637 -11.758 12.941 C-11.221 12.018 -10.684 11.094 -10.13 10.142 C-9.609 9.255 -9.088 8.367 -8.551 7.453 C-8.086 6.657 -7.621 5.862 -7.141 5.042 C-3.768 -0.08 -3.768 -0.08 0 0 Z " fill="#FAFAFA" transform="translate(682.7578125,252.05859375)"/>
<path d="M0 0 C2.375 2.25 2.375 2.25 4 5 C4.091 8.651 3.071 9.913 0.75 12.75 C-3.435 16.174 -3.435 16.174 -7 16 C-10.375 13.938 -10.375 13.938 -13 11 C-13.262 6.802 -12.311 5.359 -9.562 2.188 C-5.95 -0.897 -4.547 -1.516 0 0 Z M-7 6 C-7 7.65 -7 9.3 -7 11 C-6.01 11.33 -5.02 11.66 -4 12 C-3.34 11.67 -2.68 11.34 -2 11 C-2.33 9.35 -2.66 7.7 -3 6 C-4.32 6 -5.64 6 -7 6 Z " fill="#E9E9E9" transform="translate(101,93)"/>
</svg>