
<!-- Generator: visioncortex VTracer 0.6.4 -->
<svg version="1.1" xmlns="http://www.w3.org/2000/svg" viewBox="0 0 1393 541" preserveAspectRatio="xMidYMid meet">
<path d="M0 0 C3.752 -0.002 7.505 -0.006 11.257 -0.01 C60.159 -0.06 60.159 -0.06 81.448 1.119 C82.409 28.997 82.598 56.851 82.582 84.744 C82.58 89.5 82.582 94.256 82.583 99.012 C82.588 113.003 82.584 126.995 82.577 140.986 C82.573 147.577 82.571 154.168 82.569 160.759 C82.511 372.971 82.511 372.971 77.913 519.283 C77.88 519.992 77.848 520.7 77.815 521.431 C77.718 523.328 77.584 525.224 77.448 527.119 C77.376 528.374 77.305 529.628 77.231 530.921 C76.448 534.119 76.448 534.119 74.238 535.746 C65.558 540.016 54.872 539.444 45.413 539.528 C44.043 539.547 42.674 539.566 41.305 539.586 C37.594 539.637 33.883 539.676 30.171 539.712 C27.801 539.736 25.431 539.763 23.061 539.791 C-13.43 540.228 -49.921 540.268 -86.413 540.254 C-92.946 540.252 -99.479 540.252 -106.012 540.253 C-106.961 540.253 -107.911 540.253 -108.889 540.253 C-110.821 540.253 -112.753 540.254 -114.684 540.254 C-132.532 540.257 -150.38 540.254 -168.228 540.248 C-183.42 540.244 -198.611 540.245 -213.803 540.249 C-231.658 540.255 -249.512 540.257 -267.367 540.254 C-269.281 540.253 -271.194 540.253 -273.107 540.253 C-274.048 540.253 -274.988 540.252 -275.957 540.252 C-282.469 540.251 -288.981 540.253 -295.494 540.255 C-362.512 540.277 -362.512 540.277 -388.311 539.673 C-389.177 539.654 -390.043 539.634 -390.935 539.614 C-393.263 539.56 -395.589 539.497 -397.916 539.431 C-399.168 539.395 -400.42 539.359 -401.71 539.322 C-404.552 539.119 -404.552 539.119 -406.552 538.119 C-406.222 537.129 -405.892 536.139 -405.552 535.119 C-398.345 534.052 -391.173 533.79 -383.895 533.574 C-383.213 533.553 -382.53 533.532 -381.827 533.511 C-362.3 532.928 -342.765 532.911 -323.23 532.848 C-317.818 532.83 -312.405 532.806 -306.992 532.782 C-294.419 532.727 -281.845 532.679 -269.272 532.632 C-200.557 532.494 -200.557 532.494 -131.849 531.65 C-130.825 531.631 -129.8 531.612 -128.744 531.593 C-112.557 532.65 -112.557 532.65 -98.552 528.119 C-101.299 526.745 -103.488 526.993 -106.564 526.992 C-107.851 526.989 -109.139 526.986 -110.465 526.983 C-111.905 526.985 -113.345 526.987 -114.784 526.989 C-116.3 526.988 -117.816 526.986 -119.331 526.984 C-123.493 526.98 -127.655 526.982 -131.818 526.985 C-135.354 526.987 -138.89 526.985 -142.427 526.983 C-151.943 526.979 -161.46 526.982 -170.977 526.989 C-177.915 526.993 -184.853 526.995 -191.792 526.996 C-232.42 527 -273.047 527.05 -313.673 527.381 C-314.414 527.387 -315.155 527.393 -315.918 527.399 C-330.393 527.517 -344.868 527.652 -359.342 527.809 C-364.242 527.862 -369.142 527.912 -374.042 527.961 C-377.354 527.997 -380.665 528.038 -383.977 528.08 C-385.924 528.1 -387.87 528.121 -389.817 528.141 C-390.7 528.154 -391.583 528.166 -392.493 528.18 C-394.513 528.198 -396.533 528.164 -398.552 528.119 C-400.706 525.965 -399.739 520.96 -399.758 517.971 C-399.768 517.005 -399.777 516.04 -399.788 515.045 C-399.82 511.802 -399.844 508.558 -399.869 505.314 C-399.889 503.01 -399.91 500.706 -399.932 498.401 C-399.976 493.51 -400.017 488.618 -400.055 483.727 C-400.102 477.68 -400.156 471.634 -400.213 465.588 C-400.865 395.252 -400.492 324.918 -400.163 254.582 C-400.125 246.412 -400.09 238.242 -400.055 230.072 C-399.839 179.259 -399.561 128.447 -399.11 77.636 C-399.08 74.148 -399.051 70.661 -399.023 67.173 C-398.979 61.745 -398.93 56.317 -398.877 50.889 C-398.859 48.903 -398.842 46.917 -398.826 44.931 C-398.805 42.218 -398.777 39.505 -398.749 36.793 C-398.744 36.01 -398.739 35.227 -398.734 34.421 C-398.584 22.15 -398.584 22.15 -396.552 20.119 C-348.301 14.361 -298.051 17.168 -249.482 16.658 C-248.502 16.648 -247.521 16.637 -246.512 16.627 C-192.524 16.057 -138.536 15.619 -84.548 15.203 C-81.581 15.18 -78.614 15.157 -75.648 15.134 C-74.912 15.128 -74.176 15.123 -73.418 15.117 C-61.242 15.023 -49.066 14.924 -36.89 14.824 C-24.196 14.72 -11.502 14.619 1.193 14.522 C8.246 14.468 15.3 14.413 22.354 14.353 C28.897 14.297 35.44 14.247 41.982 14.2 C44.382 14.182 46.781 14.162 49.18 14.141 C52.435 14.112 55.689 14.089 58.944 14.068 C59.904 14.058 60.863 14.048 61.852 14.037 C64.051 14.026 66.25 14.067 68.448 14.119 C70.315 15.986 69.574 18.673 69.583 21.159 C69.581 22.041 69.579 22.924 69.577 23.833 C69.579 24.769 69.581 25.704 69.582 26.668 C69.587 29.869 69.584 33.07 69.581 36.271 C69.582 38.605 69.583 40.939 69.585 43.273 C69.587 49.116 69.584 54.958 69.579 60.801 C69.574 65.688 69.571 70.575 69.569 75.462 C69.527 174.4 69.017 273.34 67.977 417.146 C67.949 420.33 67.921 423.514 67.894 426.699 C67.704 448.355 67.417 470.01 67.041 491.664 C67 494.063 66.96 496.463 66.922 498.862 C66.868 502.188 66.808 505.513 66.747 508.838 C66.724 510.336 66.724 510.336 66.701 511.864 C66.673 513.237 66.673 513.237 66.645 514.638 C66.631 515.435 66.617 516.232 66.603 517.053 C66.448 519.119 66.448 519.119 65.448 522.119 C59.311 523.603 53.353 524.343 47.053 524.654 C45.862 524.716 45.862 524.716 44.647 524.779 C36.98 525.165 29.31 525.427 21.635 525.619 C20.879 525.639 20.122 525.659 19.342 525.679 C5.906 526.027 -7.531 526.207 -20.97 526.369 C-21.829 526.379 -22.688 526.39 -23.574 526.401 C-32.366 526.508 -41.158 526.611 -49.951 526.7 C-53.302 526.734 -56.653 526.772 -60.005 526.811 C-61.583 526.829 -63.161 526.844 -64.74 526.858 C-66.929 526.878 -69.119 526.903 -71.308 526.929 C-73.16 526.948 -73.16 526.948 -75.05 526.967 C-78.608 527.121 -82.038 527.556 -85.552 528.119 C-85.222 529.109 -84.892 530.099 -84.552 531.119 C-80.863 531.97 -77.455 532.245 -73.672 532.248 C-72.501 532.251 -71.33 532.254 -70.123 532.258 C-68.22 532.255 -68.22 532.255 -66.279 532.252 C-64.934 532.253 -63.59 532.254 -62.245 532.256 C-58.637 532.259 -55.029 532.254 -51.421 532.248 C-49.175 532.244 -46.929 532.242 -44.683 532.24 C-19.403 532.219 5.863 531.921 31.134 531.185 C33.337 531.122 35.539 531.063 37.742 531.006 C41.374 530.908 45.004 530.799 48.635 530.681 C49.596 530.654 50.557 530.627 51.547 530.6 C58.294 530.345 64.814 529.353 71.448 528.119 C72.086 514.014 72.515 499.932 72.465 485.814 C72.462 484.984 72.46 484.155 72.457 483.3 C72.451 481.656 72.445 480.012 72.438 478.369 C72.383 464.482 72.562 450.607 72.843 436.723 C73.381 409.919 73.764 383.115 74.01 356.306 C74.021 355.2 74.031 354.093 74.042 352.953 C74.494 304.101 74.557 255.249 74.57 206.396 C74.571 200.378 74.574 194.36 74.579 188.342 C74.607 146.461 74.522 104.584 74.034 62.705 C74.003 60.011 73.973 57.317 73.944 54.623 C73.897 50.434 73.846 46.245 73.79 42.057 C73.77 40.532 73.752 39.008 73.735 37.484 C73.653 28.14 73.653 28.14 72.87 18.834 C72.447 15.113 72.67 13.361 74.448 10.119 C66.627 8.849 58.807 8.978 50.908 8.989 C49.324 8.988 47.739 8.986 46.155 8.984 C41.834 8.98 37.513 8.982 33.192 8.985 C29.521 8.987 25.849 8.985 22.178 8.983 C11.275 8.978 0.373 8.982 -10.53 8.99 C-15.707 8.993 -20.885 8.996 -26.062 8.997 C-117.567 9.03 -209.055 9.547 -304.608 11.086 C-306.597 11.119 -308.586 11.151 -310.575 11.183 C-344.442 11.692 -344.442 11.692 -378.298 12.619 C-379.849 12.672 -379.849 12.672 -381.432 12.726 C-392.658 12.905 -392.658 12.905 -403.552 15.119 C-404.308 42.774 -404.796 70.424 -405.055 98.088 C-405.084 101.229 -405.115 104.37 -405.146 107.511 C-405.667 160.858 -405.858 214.207 -406.052 267.556 C-406.251 322.194 -406.46 376.83 -406.99 431.465 C-407.02 434.58 -407.049 437.695 -407.078 440.811 C-407.269 461.322 -407.539 481.829 -408.023 502.335 C-408.051 503.593 -408.051 503.593 -408.08 504.876 C-408.272 513.331 -408.543 521.713 -409.552 530.119 C-410.212 530.119 -410.872 530.119 -411.552 530.119 C-412.467 508.236 -412.699 486.392 -412.683 464.493 C-412.681 459.842 -412.684 455.191 -412.687 450.539 C-412.691 441.461 -412.691 432.382 -412.688 423.304 C-412.685 415.891 -412.685 408.478 -412.686 401.065 C-412.686 400.001 -412.686 398.937 -412.687 397.84 C-412.687 395.676 -412.687 393.512 -412.688 391.348 C-412.69 371.12 -412.687 350.892 -412.682 330.664 C-412.677 313.469 -412.678 296.275 -412.683 279.081 C-412.688 258.973 -412.69 238.866 -412.687 218.758 C-412.687 216.591 -412.686 214.424 -412.686 212.258 C-412.686 211.193 -412.686 210.127 -412.686 209.03 C-412.685 201.683 -412.686 194.336 -412.689 186.988 C-412.7 148.085 -412.68 109.185 -412.106 70.285 C-412.097 69.604 -412.087 68.923 -412.077 68.222 C-411.872 54.014 -411.584 39.809 -411.142 25.606 C-411.082 23.663 -411.025 21.72 -410.968 19.776 C-410.929 18.598 -410.889 17.42 -410.849 16.207 C-410.816 15.173 -410.783 14.14 -410.749 13.075 C-410.547 10.037 -410.102 7.112 -409.552 4.119 C-395.04 3.158 -380.546 2.829 -366.005 2.623 C-364.661 2.603 -363.317 2.583 -361.972 2.563 C-312.205 1.828 -262.43 1.544 -212.658 1.172 C-201.781 1.091 -190.905 1.006 -180.028 0.918 C-120.019 0.435 -60.011 0.028 0 0 Z M-3.49 44.244 C-5.028 48.405 -4.687 51.866 -3.552 56.119 C-1.704 59.222 -0.284 60.695 2.823 62.494 C6.049 63.262 8.257 62.97 11.448 62.119 C12.108 61.459 12.768 60.799 13.448 60.119 C15.573 59.494 15.573 59.494 17.448 59.119 C15.703 71.358 10.637 81.717 0.729 89.463 C-14.488 98.937 -36.19 99.354 -53.552 99.369 C-54.243 99.37 -54.933 99.37 -55.644 99.371 C-66.234 99.354 -76.257 98.794 -86.552 96.119 C-87.298 95.926 -88.044 95.733 -88.812 95.534 C-92.029 94.693 -95.243 93.839 -98.452 92.965 C-115.826 88.276 -133.034 86.917 -150.965 86.879 C-153.651 86.869 -156.336 86.838 -159.021 86.806 C-199.853 86.556 -239.178 105.19 -268.552 133.119 C-269.544 133.964 -269.544 133.964 -270.556 134.826 C-278.02 141.506 -282.629 150.523 -287.552 159.119 C-287.929 159.768 -288.306 160.417 -288.694 161.086 C-296.871 175.268 -303.905 190.891 -306.552 207.119 C-306.746 208.262 -306.746 208.262 -306.943 209.427 C-307.69 215.101 -307.681 220.842 -307.74 226.556 C-307.753 227.312 -307.766 228.067 -307.78 228.846 C-307.8 244.311 -305.161 259.674 -302.313 274.825 C-301.804 277.549 -301.314 280.276 -300.826 283.004 C-298.374 296.368 -294.847 309.234 -290.552 322.119 C-285.587 321.753 -280.622 321.382 -275.657 321.007 C-273.877 320.873 -272.096 320.74 -270.316 320.607 C-261.201 319.924 -252.095 319.227 -243.009 318.216 C-219.613 315.624 -197.291 316.723 -173.944 318.889 C-157.749 320.375 -141.076 321.511 -124.88 319.623 C-97.956 316.648 -70.629 318.847 -44.853 327.068 C-41.753 328.171 -41.753 328.171 -39.22 328.388 C-37.552 329.119 -37.552 329.119 -36.462 331.674 C-36.162 332.81 -35.862 333.947 -35.552 335.119 C-35.141 336.436 -34.722 337.751 -34.298 339.064 C-33.862 340.457 -33.425 341.85 -32.99 343.244 C-32.769 343.946 -32.548 344.649 -32.32 345.373 C-31.722 347.285 -31.136 349.202 -30.552 351.119 C-30.345 351.788 -30.137 352.457 -29.923 353.146 C-27.845 364.195 -29.645 374.106 -34.552 384.119 C-35.072 385.199 -35.591 386.279 -36.127 387.392 C-40.148 395.285 -45.016 402.223 -50.552 409.119 C-50.965 409.645 -51.377 410.171 -51.802 410.713 C-76.024 441.516 -109.816 451.431 -147.552 456.119 C-148.273 456.212 -148.993 456.306 -149.735 456.402 C-174.881 459.321 -203.08 459.047 -226.303 448.163 C-229.054 446.886 -231.831 445.673 -234.607 444.451 C-252.786 436.274 -266.798 427.521 -274.74 408.427 C-277.675 400.088 -279.436 389.821 -276.552 381.244 C-273.649 376.707 -269.69 374.08 -264.537 372.502 C-258.142 371.268 -253.231 371.918 -247.552 375.119 C-245.724 376.812 -244.02 378.591 -242.302 380.396 C-238.593 384.047 -235.284 386.089 -229.927 386.181 C-225.914 384.918 -224.181 383.366 -221.552 380.119 C-219.247 373.202 -219.544 365.323 -222.552 358.681 C-226.481 351.837 -232.035 348.198 -239.552 346.119 C-255.301 344.506 -270.389 349.525 -284.302 356.494 C-291.41 359.692 -298.107 357.169 -305.095 354.642 C-308.31 353.957 -310.391 354.206 -313.552 355.119 C-319.505 359.711 -325.646 366.057 -328.552 373.119 C-328.983 375.886 -328.983 375.886 -327.552 378.119 C-323.791 381.575 -320.457 382.442 -315.49 383.494 C-309.01 384.971 -309.01 384.971 -306.427 387.994 C-302.795 394.047 -301.7 399.035 -302.552 406.119 C-303.212 406.779 -303.872 407.439 -304.552 408.119 C-312.458 407.868 -319.272 403.253 -325.886 399.4 C-327.092 398.727 -327.092 398.727 -328.322 398.041 C-329.398 397.416 -329.398 397.416 -330.497 396.778 C-332.575 395.883 -332.575 395.883 -334.7 396.878 C-342.415 402.046 -348.27 412.999 -352.552 421.119 C-352.552 422.109 -352.552 423.099 -352.552 424.119 C-350.263 425.29 -347.971 426.456 -345.677 427.619 C-345.026 427.953 -344.375 428.287 -343.705 428.631 C-340.3 430.487 -340.3 430.487 -336.552 431.119 C-336.552 431.779 -336.552 432.439 -336.552 433.119 C-337.212 433.325 -337.872 433.531 -338.552 433.744 C-348.428 438.27 -355.501 445.822 -359.427 455.869 C-362.828 465.372 -365 475.832 -360.615 485.431 C-357.228 491.293 -352.116 497.931 -345.552 500.119 C-342.789 500.268 -340.067 500.35 -337.302 500.369 C-336.564 500.389 -335.825 500.41 -335.064 500.431 C-325.872 500.496 -319.132 496.266 -312.552 490.119 C-310.443 487.017 -309.552 485.339 -309.552 481.619 C-311.485 476.787 -314.148 473.938 -318.552 471.369 C-323.954 469.336 -329.86 468.846 -335.552 468.119 C-333.668 462.906 -329.446 461.678 -324.697 459.447 C-307.4 452.142 -290.812 457.483 -274.209 463.947 C-273.218 464.333 -273.218 464.333 -272.207 464.726 C-268.895 466.02 -265.59 467.329 -262.295 468.665 C-246.232 475.117 -229.694 478.933 -212.74 482.244 C-211.868 482.416 -210.995 482.589 -210.097 482.766 C-197.303 485.293 -184.519 487.664 -171.552 489.119 C-169.965 489.312 -169.965 489.312 -168.345 489.509 C-119.568 494.581 -63.171 481.244 -24.88 450.166 C-6.155 434.66 13.111 412.692 20.448 389.119 C21.005 387.486 21.567 385.855 22.131 384.224 C22.758 382.398 23.385 380.571 24.01 378.744 C24.304 377.894 24.597 377.045 24.899 376.169 C28.849 364.412 30.924 352.84 31.948 340.494 C32.068 339.12 32.189 337.746 32.31 336.373 C32.565 333.473 32.814 330.573 33.06 327.673 C33.391 323.762 33.737 319.853 34.087 315.943 C34.371 312.771 34.652 309.599 34.932 306.426 C35.066 304.902 35.201 303.378 35.337 301.854 C35.527 299.713 35.713 297.572 35.897 295.431 C36.004 294.211 36.11 292.99 36.22 291.732 C36.465 287.843 36.486 284.015 36.448 280.119 C28.176 276.331 20.181 273.876 11.26 272.158 C10.013 271.909 8.767 271.661 7.482 271.404 C-6.775 268.587 -21.109 266.196 -35.448 263.841 C-38.253 263.378 -41.057 262.908 -43.86 262.439 C-57.984 260.075 -72.119 257.827 -86.302 255.845 C-87.449 255.684 -88.596 255.522 -89.778 255.355 C-103.212 253.524 -116.417 252.982 -129.954 253.044 C-132.853 253.057 -135.751 253.063 -138.65 253.068 C-145.857 253.081 -153.065 253.105 -160.272 253.129 C-242.049 253.398 -242.049 253.398 -251.552 246.119 C-263.27 234.189 -266.15 216.631 -266.108 200.583 C-265.824 192.193 -263.464 185.558 -259.552 178.119 C-259.21 177.448 -258.867 176.778 -258.514 176.087 C-243.867 147.711 -218.479 132.506 -188.677 122.681 C-157.794 114.284 -125.941 115.313 -98.082 131.207 C-94.857 133.103 -91.696 135.091 -88.552 137.119 C-87.684 137.677 -87.684 137.677 -86.798 138.246 C-73.33 146.955 -60.45 155.863 -55.212 171.802 C-53.069 182.57 -52.863 195.438 -58.552 205.119 C-63.155 211.811 -69.872 214.998 -77.552 217.119 C-83.511 218.159 -89.524 218.67 -95.552 219.119 C-95.552 218.459 -95.552 217.799 -95.552 217.119 C-94.815 217.025 -94.078 216.931 -93.318 216.834 C-90.146 216.014 -88.699 214.881 -86.302 212.681 C-85.617 212.064 -84.931 211.446 -84.224 210.81 C-81.766 208.324 -81.56 207.184 -81.115 203.619 C-81.175 197.049 -85.326 191.65 -89.521 186.881 C-92.557 184.247 -95.673 183.95 -99.552 184.119 C-105.762 185.308 -109.046 187.962 -112.552 193.119 C-115.772 200.001 -115.542 207.207 -112.99 214.306 C-109.209 222.739 -102.492 229.424 -94.177 233.369 C-86.213 236.369 -76.562 236.766 -68.615 233.494 C-66.518 232.399 -66.518 232.399 -64.552 231.119 C-63.879 230.695 -63.207 230.271 -62.513 229.834 C-52.41 222.832 -44.948 213.153 -42.302 201.056 C-42.173 200.323 -42.044 199.589 -41.912 198.834 C-41.552 197.119 -41.552 197.119 -40.552 196.119 C-36.191 195.465 -33.764 196.41 -30.115 198.619 C-26.024 200.994 -23.341 202.384 -18.552 201.119 C-12.055 194.573 -6.972 183.136 -5.552 174.119 C-9.875 170.156 -14.258 166.6 -19.115 163.306 C-27.072 157.57 -31.736 150.997 -33.654 141.345 C-33.516 138.318 -32.712 137.224 -30.552 135.119 C-16.359 129.249 -0.592 132.465 13.729 136.224 C17.825 137.21 20.406 137.307 24.448 136.119 C26.769 132.829 28.254 129.387 29.635 125.619 C30.151 124.242 30.151 124.242 30.678 122.838 C31.46 120.076 31.741 117.969 31.448 115.119 C27.571 111.117 22.331 108.715 17.448 106.119 C17.448 102.073 18.916 101.29 21.698 98.431 C31.808 87.417 32.59 75.952 32.811 61.31 C31.96 53.838 27.578 49.875 22.143 45.177 C17.494 41.627 13.061 39.477 7.26 38.681 C2.719 39.388 -0.38 40.833 -3.49 44.244 Z M-364.552 41.119 C-363.976 46.332 -362.264 50.351 -359.99 54.994 C-359.638 55.728 -359.286 56.461 -358.923 57.217 C-356.073 63.129 -353.145 69.004 -350.167 74.853 C-347.194 80.716 -345.324 85.562 -344.552 92.119 C-345.513 92.266 -345.513 92.266 -346.494 92.416 C-352.315 93.422 -356.695 94.709 -361.552 98.119 C-361.882 99.109 -362.212 100.099 -362.552 101.119 C-359.99 101.973 -357.975 102.372 -355.322 102.654 C-354.519 102.741 -353.717 102.828 -352.89 102.918 C-352.057 103.005 -351.223 103.092 -350.365 103.181 C-349.52 103.272 -348.675 103.363 -347.804 103.457 C-345.721 103.68 -343.636 103.9 -341.552 104.119 C-343.056 107.592 -345.086 109.941 -347.677 112.681 C-359.888 126.052 -366.242 137.46 -365.896 155.677 C-365.426 164.788 -361.41 174.893 -354.552 181.119 C-351.331 183.09 -348.043 184.684 -344.552 186.119 C-344.223 183.143 -344.223 183.143 -345.943 181.533 C-346.557 180.943 -347.17 180.352 -347.802 179.744 C-355.423 171.226 -356.4 160.129 -355.931 149.142 C-355.157 138.794 -350.424 130.611 -342.919 123.591 C-337.893 119.884 -332.039 118.981 -326.057 117.701 C-316.208 115.511 -306.623 111.529 -300.552 103.119 C-296.352 96.122 -294.483 88.436 -292.429 80.623 C-290.888 74.918 -288.942 70.004 -285.552 65.119 C-284.975 64.211 -284.397 63.304 -283.802 62.369 C-277.195 55.762 -267.544 52.421 -258.291 52.021 C-251.8 52.544 -245.871 55.265 -241.615 60.181 C-238.319 64.875 -238.427 68.777 -238.49 74.306 C-238.494 75.056 -238.499 75.806 -238.503 76.578 C-238.515 78.425 -238.533 80.272 -238.552 82.119 C-239.322 81.34 -240.091 80.562 -240.884 79.759 C-246.293 74.208 -246.293 74.208 -253.365 71.869 C-257.058 72.158 -258.683 72.793 -261.552 75.119 C-264.15 79.15 -265.281 82.332 -264.552 87.119 C-262.794 89.443 -261.435 90.753 -258.74 91.869 C-252.772 92.551 -248.721 92.377 -243.552 89.119 C-237.046 83.588 -231.155 75.443 -230.177 66.806 C-231.094 57.792 -237.033 51.081 -243.552 45.119 C-248.944 41.349 -252.79 40.488 -259.302 40.681 C-260.095 40.697 -260.888 40.712 -261.705 40.728 C-276.951 41.227 -286.794 47.558 -297.345 58.341 C-300.892 62.805 -302.795 67.737 -304.552 73.119 C-306.906 70.765 -306.831 70.189 -306.966 66.986 C-307.024 65.778 -307.024 65.778 -307.084 64.545 C-307.114 63.703 -307.145 62.861 -307.177 61.994 C-307.235 60.72 -307.235 60.72 -307.294 59.42 C-307.389 57.32 -307.472 55.219 -307.552 53.119 C-311.404 52.697 -311.404 52.697 -313.263 54.517 C-317.652 59.73 -321.227 65.174 -324.552 71.119 C-329.224 69.671 -332.23 66.945 -335.677 63.619 C-336.831 62.533 -337.984 61.447 -339.138 60.361 C-340.276 59.28 -341.414 58.2 -342.552 57.119 C-352.266 46.592 -352.266 46.592 -364.552 41.119 Z M-144.552 134.119 C-145.353 136.766 -145.353 136.766 -145.74 139.744 C-145.978 141.248 -145.978 141.248 -146.22 142.783 C-146.33 143.554 -146.439 144.325 -146.552 145.119 C-147.498 145.098 -148.445 145.077 -149.419 145.055 C-153.013 144.982 -156.606 144.937 -160.2 144.899 C-161.74 144.879 -163.279 144.852 -164.819 144.817 C-183.916 144.393 -201.742 148.015 -216.11 161.525 C-224.448 169.75 -232.387 179.57 -237.552 190.119 C-237.552 190.779 -237.552 191.439 -237.552 192.119 C-230.145 190.726 -222.851 189 -215.552 187.119 C-215.779 187.678 -216.006 188.236 -216.239 188.812 C-217.284 191.392 -218.324 193.974 -219.365 196.556 C-219.721 197.435 -220.078 198.313 -220.445 199.218 C-222.145 203.447 -223.731 207.633 -225.044 211.998 C-226.915 217.731 -230.653 220.782 -235.552 224.119 C-238.802 225.431 -238.802 225.431 -241.552 225.119 C-245.912 222.28 -246.96 219.211 -248.177 214.369 C-248.475 212.923 -248.475 212.923 -248.779 211.447 C-249.162 210.295 -249.162 210.295 -249.552 209.119 C-250.542 208.789 -251.532 208.459 -252.552 208.119 C-252.661 210.828 -252.74 213.533 -252.802 216.244 C-252.836 217.004 -252.869 217.765 -252.904 218.549 C-252.996 223.885 -252.184 226.941 -248.552 231.119 C-245.789 232.775 -243.486 233.42 -240.294 233.716 C-239.504 233.796 -238.714 233.875 -237.9 233.957 C-237.084 234.031 -236.268 234.105 -235.427 234.181 C-233.799 234.335 -232.172 234.493 -230.544 234.654 C-229.826 234.72 -229.108 234.786 -228.368 234.853 C-226.552 235.119 -226.552 235.119 -224.552 236.119 C-224.14 237.191 -223.727 238.264 -223.302 239.369 C-221.589 243.609 -219.302 245.541 -215.552 248.119 C-214.562 248.119 -213.572 248.119 -212.552 248.119 C-211.184 244.424 -211.995 242.643 -213.552 239.119 C-218.252 225.089 -213.876 208.865 -207.865 195.806 C-201.49 183.995 -193.185 177.151 -180.4 173.127 C-169.999 170.372 -160.269 169.983 -149.552 170.119 C-150.614 170.676 -151.677 171.233 -152.771 171.806 C-163.775 177.697 -172.668 183.113 -177.552 195.119 C-177.552 196.109 -177.552 197.099 -177.552 198.119 C-172.599 197.707 -169.886 195.146 -166.365 191.931 C-157.237 183.936 -147.173 176.402 -134.427 177.181 C-128.69 178.002 -123.893 180.191 -119.427 183.869 C-116.713 185.678 -114.73 185.533 -111.552 185.119 C-109.326 182.422 -109.326 182.422 -109.654 179.977 C-110.978 173.793 -112.899 168.229 -115.552 162.494 C-116.137 161.211 -116.137 161.211 -116.734 159.902 C-123.312 145.174 -123.312 145.174 -133.552 133.119 C-135.486 132.475 -135.486 132.475 -137.552 132.306 C-138.233 132.217 -138.914 132.128 -139.615 132.037 C-141.884 131.965 -141.884 131.965 -144.552 134.119 Z M47.448 147.119 C30.006 159.76 22.389 183.878 16.885 203.744 C15.77 207.602 14.171 210.114 11.448 213.119 C11.448 213.779 11.448 214.439 11.448 215.119 C10.865 215.406 10.282 215.694 9.682 215.99 C8.304 216.686 6.937 217.403 5.588 218.154 C0.798 220.757 -3.114 221.73 -8.552 222.119 C-5.56 225.56 -3.131 225.969 1.331 226.392 C8.439 226.615 13.113 225.859 19.28 222.299 C21.95 220.846 24.431 220.357 27.448 220.119 C27.398 231.971 21.319 238.363 13.791 246.955 C8.201 252.117 3.208 252.6 -4.111 252.4 C-17.6 251.298 -27.148 245.314 -37.552 237.119 C-38.047 238.109 -38.047 238.109 -38.552 239.119 C-31.905 250.02 -23.546 255.75 -11.177 258.931 C4.088 261.999 21.856 259.367 35.541 251.537 C44 245.245 46.154 235.372 48.198 225.494 C49.039 214.134 47.521 205.25 43.26 194.681 C38.685 182.187 41.639 165.238 46.698 153.119 C47.053 152.376 47.409 151.634 47.776 150.869 C47.998 150.291 48.219 149.714 48.448 149.119 C47.953 148.129 47.953 148.129 47.448 147.119 Z M-342.365 162.119 C-344.65 167.891 -344.339 173.877 -342.302 179.681 C-340.422 182.3 -339.666 183.34 -336.552 184.119 C-330.46 184.006 -327.709 182.276 -323.552 178.119 C-322.103 173.77 -322.036 169.663 -322.552 165.119 C-324.203 161.818 -325.494 159.87 -328.49 157.744 C-334.392 155.955 -338.285 157.617 -342.365 162.119 Z M-361.552 209.119 C-364.451 213.217 -365.144 217.025 -364.97 221.939 C-364.23 225.8 -362.414 227.448 -359.552 230.119 C-356.9 231.964 -356.9 231.964 -354.552 233.119 C-354.685 233.711 -354.818 234.302 -354.955 234.912 C-355.131 235.702 -355.308 236.492 -355.49 237.306 C-355.664 238.084 -355.838 238.861 -356.017 239.662 C-356.194 240.473 -356.37 241.283 -356.552 242.119 C-356.724 242.895 -356.896 243.672 -357.073 244.472 C-359.724 259.111 -357.219 274.147 -353.052 288.181 C-345.226 314.576 -345.226 314.576 -350.271 325.091 C-352.871 329.206 -355.721 330.684 -360.384 331.791 C-363.102 332.307 -365.812 332.748 -368.552 333.119 C-366.748 328.338 -366.748 328.338 -364.99 326.369 C-362.691 322.77 -362.216 319.355 -362.552 315.119 C-364.278 310.102 -366.923 303.948 -371.552 301.119 C-375.416 300.275 -378.792 300.353 -382.447 301.943 C-388.904 306.564 -392.16 314.795 -394.552 322.119 C-395.024 327.458 -392.868 331.115 -389.74 335.306 C-384.216 341.061 -375.971 345.31 -367.927 345.744 C-359.967 345.085 -352.445 342.241 -347.052 336.252 C-337.028 321.999 -338.792 306.217 -341.619 289.978 C-342.516 285.136 -343.619 280.351 -344.74 275.556 C-346.176 269.308 -347.354 263.555 -346.552 257.119 C-346.371 255.63 -346.371 255.63 -346.185 254.111 C-344.701 245.351 -341.467 238.012 -337.25 230.223 C-334.916 225.75 -334.916 225.75 -335.069 220.877 C-336.827 217.2 -339.117 214.017 -342.052 211.181 C-342.619 210.615 -343.187 210.05 -343.771 209.466 C-348.655 205.771 -356.454 206.003 -361.552 209.119 Z M-163.865 216.431 C-168.902 222.909 -170.513 229.029 -169.552 237.119 C-168.24 241.13 -167.284 242.62 -163.802 244.994 C-160.16 246.255 -157.382 246.413 -153.552 246.119 C-152.562 245.624 -152.562 245.624 -151.552 245.119 C-151.819 243.134 -151.819 243.134 -152.552 241.119 C-153.542 240.789 -154.532 240.459 -155.552 240.119 C-157.151 230.203 -157.151 230.203 -154.552 226.119 C-151.932 223.983 -150.472 224.122 -147.052 224.244 C-143.176 225.213 -141.741 225.792 -139.552 229.119 C-138.857 234.48 -140.152 237.422 -142.552 242.119 C-142.577 244.359 -142.577 244.359 -141.552 246.119 C-138.04 248.461 -136.688 248.615 -132.552 248.119 C-129.582 247.013 -129.582 247.013 -127.552 244.119 C-125.274 236.97 -124.443 229.104 -127.552 222.119 C-131.713 216.332 -136.775 209.911 -144.166 208.685 C-152.481 208.673 -158.146 210.208 -163.865 216.431 Z M-150.552 233.119 C-150.552 233.779 -150.552 234.439 -150.552 235.119 C-146.969 236.121 -146.969 236.121 -143.552 235.119 C-143.882 233.469 -144.212 231.819 -144.552 230.119 C-147.351 230.119 -148.48 231.322 -150.552 233.119 Z M-171.552 329.119 C-174.044 336.595 -172.876 343.894 -169.693 350.955 C-167.401 355.304 -165.182 358.34 -160.552 360.119 C-151.58 360.915 -142.764 361.223 -135.439 355.455 C-130.079 350.536 -125.931 345.098 -125.365 337.654 C-125.563 333.841 -125.872 331.799 -128.615 329.056 C-132.458 327.83 -135.526 327.914 -139.552 328.119 C-140.275 331.1 -140.552 333.656 -140.552 336.744 C-140.552 340.119 -140.552 340.119 -141.552 343.119 C-143.427 344.181 -143.427 344.181 -145.552 345.119 C-146.542 345.779 -147.532 346.439 -148.552 347.119 C-151.984 347.031 -153.226 346.452 -155.642 343.982 C-157.867 340.648 -158.256 338.329 -158.677 334.369 C-158.907 332.278 -159.184 330.19 -159.552 328.119 C-163.778 326.006 -167.748 326.583 -171.552 329.119 Z M-151.552 332.119 C-151.593 333.785 -151.595 335.453 -151.552 337.119 C-148.636 337.286 -148.636 337.286 -145.552 337.119 C-144.892 336.459 -144.232 335.799 -143.552 335.119 C-143.871 333.011 -143.871 333.011 -144.552 331.119 C-148.359 330.68 -148.359 330.68 -151.552 332.119 Z M-207.552 322.119 C-208.858 327.478 -208.143 331.603 -206.99 336.869 C-206.724 338.145 -206.724 338.145 -206.454 339.448 C-205.36 344.627 -204.168 349.781 -202.947 354.931 C-202.675 356.083 -202.403 357.234 -202.123 358.421 C-201.586 360.677 -201.04 362.932 -200.484 365.184 C-198.091 375.166 -197.416 382.88 -202.552 392.119 C-210.705 404.032 -222.498 407.907 -235.904 411.384 C-238.692 412.128 -241.16 412.864 -243.591 414.443 C-245.02 416.935 -244.459 418.499 -243.802 421.244 C-243.501 422.578 -243.501 422.578 -243.193 423.939 C-242.754 426.077 -242.754 426.077 -241.552 427.119 C-228.244 428.021 -214.129 424.49 -203.802 415.806 C-203.06 414.919 -202.317 414.033 -201.552 413.119 C-200.22 411.638 -198.887 410.159 -197.552 408.681 C-194.488 405.211 -191.489 401.698 -188.552 398.119 C-183.713 398.578 -180.749 400.943 -177.115 403.931 C-176.506 404.422 -175.898 404.913 -175.271 405.418 C-173.355 406.973 -171.452 408.544 -169.552 410.119 C-168.658 410.854 -168.658 410.854 -167.747 411.604 C-160.367 417.695 -153.395 424.066 -146.726 430.931 C-142.218 435.741 -142.218 435.741 -136.052 437.369 C-132.439 437.4 -132.439 437.4 -129.552 435.119 C-130.031 430.187 -131.386 427.496 -134.427 423.619 C-137.311 419.915 -139.5 416.338 -141.552 412.119 C-135.791 412.069 -130.029 412.033 -124.267 412.009 C-122.312 411.999 -120.357 411.985 -118.402 411.968 C-93.357 411.75 -93.357 411.75 -84.95 415.181 C-82.04 416.319 -79.649 416.263 -76.552 416.119 C-74.714 413.415 -74.555 411.953 -74.615 408.619 C-75.788 404.241 -76.73 403.5 -80.552 401.119 C-83.945 400.092 -87.375 399.471 -90.865 398.869 C-91.796 398.696 -92.727 398.523 -93.687 398.345 C-95.973 397.923 -98.261 397.515 -100.552 397.119 C-95.653 383.645 -82.099 369.375 -69.517 362.623 C-66.826 361.933 -65.186 362.255 -62.552 363.119 C-60.525 364.748 -60.525 364.748 -58.615 366.681 C-55.397 369.689 -55.397 369.689 -51.052 370.556 C-50.227 370.412 -49.402 370.268 -48.552 370.119 C-46.769 366.552 -47.429 362.854 -48.552 359.119 C-52.556 353.88 -57.701 351.656 -64.103 350.763 C-75.568 349.959 -84.803 355.45 -93.302 362.619 C-99.091 368.194 -103.225 374.678 -107.477 381.438 C-108.901 383.664 -110.419 385.807 -111.99 387.931 C-112.422 388.515 -112.853 389.099 -113.298 389.701 C-114.552 391.119 -114.552 391.119 -117.552 393.119 C-118.542 393.119 -119.532 393.119 -120.552 393.119 C-120.371 392.586 -120.189 392.054 -120.002 391.505 C-114.195 375.637 -114.195 375.637 -114.552 359.119 C-117.168 357.087 -118.901 356.212 -122.177 355.744 C-125.061 356.199 -125.727 356.896 -127.552 359.119 C-128.234 361.963 -128.797 364.745 -129.302 367.619 C-131.675 379.422 -136.857 387.025 -145.634 395.244 C-147.734 397.167 -147.734 397.167 -149.552 400.119 C-163.383 398.284 -174.751 394.996 -184.252 384.185 C-186.448 381.259 -187.803 378.673 -188.552 375.119 C-186.851 375.552 -186.851 375.552 -185.115 375.994 C-183.594 376.369 -182.073 376.744 -180.552 377.119 C-179.437 377.405 -179.437 377.405 -178.298 377.697 C-173.249 378.926 -168.748 379.308 -163.552 379.119 C-161.888 376.574 -161.549 375.206 -161.654 372.123 C-162.237 368.947 -162.237 368.947 -164.923 367.685 C-165.935 367.354 -166.947 367.023 -167.99 366.681 C-176.05 363.694 -183.817 359.528 -188.552 352.119 C-190.313 347.117 -191.568 341.972 -192.908 336.845 C-194.89 329.281 -194.89 329.281 -199.552 323.119 C-202.261 321.764 -204.562 322.054 -207.552 322.119 Z M47.448 372.119 C42.338 381.31 37.405 390.315 34.827 400.595 C32.886 408.19 29.002 413.803 24.448 420.119 C23.102 421.996 21.757 423.874 20.413 425.753 C19.538 426.971 18.658 428.187 17.774 429.399 C12.9 436.088 12.9 436.088 12.448 444.119 C16.188 447.992 20.654 448.294 25.823 448.431 C31.965 448.342 34.832 446.672 39.221 442.388 C47.176 433.98 49.64 425.229 49.549 413.869 C49.444 411.017 49.083 408.243 48.674 405.42 C47.937 397.933 48.198 390.517 49.448 383.119 C49.512 381.161 49.534 379.202 49.51 377.244 C49.501 376.277 49.492 375.31 49.483 374.314 C49.471 373.59 49.46 372.865 49.448 372.119 C48.788 372.119 48.128 372.119 47.448 372.119 Z M-24.002 467.67 C-35.868 479.946 -48.035 484.759 -64.552 488.119 C-64.552 489.109 -64.552 490.099 -64.552 491.119 C-58.101 493.448 -51.988 493.417 -45.177 493.369 C-44.092 493.377 -43.007 493.384 -41.888 493.392 C-26.775 493.356 -15.806 488.996 -4.72 478.474 C1.025 472.232 3.048 466.512 3.448 458.119 C4.108 458.119 4.768 458.119 5.448 458.119 C5.53 458.82 5.613 459.521 5.698 460.244 C8.932 472.643 23.042 482.875 33.448 489.119 C37.008 490.306 39.886 490.216 43.635 490.181 C44.908 490.172 46.18 490.163 47.491 490.154 C48.466 490.142 49.442 490.131 50.448 490.119 C50.448 489.459 50.448 488.799 50.448 488.119 C49.788 488.119 49.128 488.119 48.448 488.119 C48.279 486.993 48.279 486.993 48.108 485.845 C46.407 477.018 42.921 472.211 36.448 466.119 C35.806 465.482 35.164 464.845 34.502 464.189 C26.651 456.798 16.035 450.038 5.112 448.869 C-6.503 449.959 -16.396 459.748 -24.002 467.67 Z " fill="#F8F8F8" transform="translate(412.55229473114014,-0.11883997917175293)"/>
<path d="M0 0 C3.674 1.444 4.901 3.063 6.75 6.5 C12.753 16.952 20.372 24.864 30 32 C29.812 33.813 29.812 33.813 29 36 C28.237 36.371 27.474 36.743 26.688 37.125 C22.525 40.029 21.375 44.228 20 49 C19.18 53.869 18.865 58.555 18.839 63.489 C18.834 64.202 18.829 64.916 18.824 65.65 C18.809 67.99 18.802 70.329 18.797 72.668 C18.794 73.474 18.791 74.28 18.788 75.111 C18.773 79.378 18.764 83.645 18.76 87.912 C18.754 92.289 18.73 96.665 18.702 101.041 C18.683 104.434 18.678 107.827 18.676 111.22 C18.673 112.832 18.665 114.444 18.652 116.056 C18.427 129.832 18.427 129.832 22 143 C25.672 144.224 28.142 144.466 32 144 C34.128 142.179 35.392 140.339 37 138 C38.32 138.66 39.64 139.32 41 140 C40.483 144.779 39.176 147.8 36.562 151.812 C35.839 152.94 35.118 154.069 34.398 155.199 C34.013 155.803 33.627 156.407 33.229 157.029 C30.505 161.397 27.97 165.883 25.414 170.351 C25.013 171.042 24.612 171.733 24.199 172.445 C23.847 173.059 23.495 173.673 23.132 174.305 C21.901 176.148 20.707 177.583 19 179 C13.956 178.886 10.286 176.72 6.188 174 C5.577 173.597 4.966 173.194 4.336 172.779 C-4.956 166.48 -11.326 159.801 -15 149 C-15 148.34 -15 147.68 -15 147 C-26.174 148.707 -41.241 166.384 -48 175 C-48.784 175.969 -49.568 176.939 -50.375 177.938 C-50.911 178.618 -51.447 179.299 -52 180 C-55.872 179.061 -57.729 177.346 -60.188 174.375 C-69.669 163.171 -81.647 157.502 -95.438 153.25 C-96.613 152.837 -97.789 152.425 -99 152 C-99.33 151.01 -99.66 150.02 -100 149 C-99.278 148.443 -98.556 147.886 -97.812 147.312 C-93.32 143.619 -89.733 140.656 -88 135 C-87.808 132.259 -87.716 129.62 -87.725 126.88 C-87.72 126.076 -87.715 125.272 -87.71 124.444 C-87.696 121.792 -87.697 119.14 -87.699 116.488 C-87.695 114.636 -87.691 112.784 -87.686 110.932 C-87.679 107.049 -87.679 103.166 -87.684 99.283 C-87.69 94.328 -87.673 89.374 -87.65 84.419 C-87.635 80.592 -87.634 76.765 -87.637 72.937 C-87.637 71.112 -87.632 69.286 -87.622 67.461 C-87.133 53.827 -87.133 53.827 -91 41 C-94.733 38.512 -96.584 38.458 -101 39 C-103.289 41.361 -103.289 41.361 -105 44 C-106.485 44.495 -106.485 44.495 -108 45 C-108.66 44.34 -109.32 43.68 -110 43 C-109.72 38.266 -108.191 35.235 -105.625 31.312 C-101.412 24.713 -97.483 17.979 -93.594 11.185 C-93.142 10.397 -92.689 9.609 -92.223 8.797 C-91.818 8.089 -91.413 7.381 -90.996 6.651 C-90 5 -90 5 -89 4 C-78.497 4.719 -70.015 12.103 -62.973 19.516 C-55.205 29.298 -52.639 40.197 -52.84 52.416 C-52.849 53.757 -52.849 53.757 -52.858 55.125 C-52.871 57.05 -52.888 58.975 -52.909 60.9 C-52.948 65.004 -52.95 69.108 -52.954 73.212 C-52.962 80.836 -52.983 88.458 -53.072 96.082 C-53.132 101.403 -53.144 106.722 -53.123 112.044 C-53.124 114.063 -53.144 116.082 -53.181 118.1 C-53.705 129.156 -53.705 129.156 -49.874 139.152 C-47.358 141.451 -44.895 143.216 -42 145 C-41.117 145.73 -40.234 146.46 -39.324 147.212 C-37.168 149.235 -37.168 149.235 -34.57 149.059 C-31.148 147.649 -28.608 145.493 -25.875 143.062 C-22.991 140.558 -20.186 138.124 -17 136 C-16.698 133.336 -16.591 130.903 -16.612 128.237 C-16.607 127.435 -16.601 126.633 -16.596 125.807 C-16.583 123.143 -16.591 120.48 -16.602 117.816 C-16.6 115.962 -16.597 114.108 -16.593 112.254 C-16.588 108.358 -16.595 104.461 -16.609 100.565 C-16.626 95.595 -16.616 90.626 -16.598 85.657 C-16.587 81.821 -16.591 77.985 -16.599 74.149 C-16.601 72.319 -16.598 70.489 -16.591 68.658 C-15.837 52.729 -15.837 52.729 -21.998 38.826 C-22.659 38.223 -23.319 37.621 -24 37 C-25 36 -26 35 -27 34 C-25.869 30.606 -25.489 30.482 -22.625 28.688 C-13.805 22.326 -7.3 12.141 -2.023 2.793 C-1 1 -1 1 0 0 Z " fill="#F8F8F8" transform="translate(1238,246)"/>
<path d="M0 0 C5.552 0.249 8.018 3.68 11.562 7.5 C17.615 13.787 23.788 19.047 31 24 C31.67 24.489 32.341 24.977 33.031 25.48 C38.169 29.018 43.823 30.862 49.699 32.863 C53.229 34.079 56.602 35.463 60 37 C59.274 41.477 56.755 43.645 53.691 46.805 C49.927 51.69 49.716 56.988 49.801 62.946 C49.804 63.719 49.807 64.492 49.81 65.288 C49.824 67.829 49.852 70.37 49.883 72.91 C49.899 74.683 49.915 76.456 49.93 78.229 C49.965 81.939 50.008 85.648 50.057 89.358 C50.117 94.108 50.151 98.858 50.177 103.608 C50.201 107.267 50.243 110.926 50.29 114.585 C50.31 116.336 50.324 118.088 50.331 119.839 C50.343 122.288 50.379 124.735 50.422 127.184 C50.42 127.904 50.419 128.625 50.417 129.368 C50.536 134.143 51.538 136.694 55 140 C59.022 140.787 60.589 140.26 64.062 138.062 C65.032 137.382 66.001 136.701 67 136 C69.875 135.25 69.875 135.25 72 135 C72.615 136.781 72.615 136.781 73 139 C71.597 141.667 70.164 144.067 68.5 146.562 C68.04 147.275 67.58 147.987 67.107 148.721 C65.749 150.822 64.377 152.912 63 155 C61.725 156.955 60.453 158.913 59.188 160.875 C58.637 161.726 58.087 162.577 57.52 163.453 C55.482 166.869 53.874 170.436 52.336 174.102 C51 176 51 176 48.602 176.961 C45.319 177.01 44.466 176.077 42 174 C40.454 173.394 38.889 172.833 37.312 172.312 C28.419 168.837 22.863 163.025 18.973 154.395 C17.973 151.933 16.978 149.47 16 147 C10.725 148.602 6.919 151.987 2.688 155.375 C1.083 156.639 -0.523 157.902 -2.129 159.164 C-2.939 159.802 -3.748 160.441 -4.583 161.099 C-8.284 164.01 -12.006 166.894 -15.75 169.75 C-16.714 170.501 -16.714 170.501 -17.697 171.267 C-21.337 174.031 -24.507 175.815 -29 177 C-29.315 176.143 -29.315 176.143 -29.637 175.27 C-32.245 169.17 -35.652 165.024 -40.375 160.5 C-57.997 143.572 -65.541 122.058 -66.043 97.911 C-65.954 76.749 -57.219 59.572 -42.875 44.562 C-39.168 40.932 -35.222 37.733 -31.125 34.562 C-18.137 24.492 -8.315 14.205 0 0 Z M-18.91 33.055 C-21.305 36.43 -23.22 39.864 -25.062 43.562 C-25.413 44.266 -25.764 44.969 -26.125 45.693 C-36.3 66.758 -34.765 92.032 -27.75 113.875 C-23.181 126.653 -16.64 137.813 -4.258 144.109 C-0.354 145.649 1.792 145.735 6 145 C10.211 142.615 13.313 140.031 16 136 C16.328 133.491 16.328 133.491 16.319 130.64 C16.339 129.54 16.359 128.44 16.379 127.306 C16.391 126.109 16.402 124.913 16.414 123.68 C16.433 122.434 16.453 121.188 16.473 119.904 C16.523 116.57 16.564 113.235 16.601 109.901 C16.64 106.608 16.692 103.316 16.742 100.023 C16.837 93.598 16.9 87.173 16.956 80.748 C17 77.031 17.078 73.315 17.163 69.599 C17.2 67.318 17.237 65.038 17.273 62.758 C17.306 61.71 17.338 60.662 17.371 59.582 C17.382 58.623 17.393 57.664 17.404 56.676 C17.422 55.841 17.441 55.006 17.46 54.146 C17.18 51.829 17.18 51.829 15.107 50.27 C12.973 48.984 10.849 47.987 8.562 47 C0.759 43.22 -5.901 37.099 -12 31 C-15.417 30.371 -16.507 30.469 -18.91 33.055 Z " fill="#F9F9F9" transform="translate(799,251)"/>
<path d="M0 0 C0.352 1.16 0.704 2.32 1.066 3.516 C4.997 16.107 10.296 26.341 18.062 37 C29.314 52.477 37.853 73.498 36 93 C32.629 113.819 17.576 133.131 0.738 145.465 C-2.46 147.715 -5.73 149.856 -9 152 C-18.296 158.314 -25.365 164.548 -30.859 174.434 C-32 176 -32 176 -35 177 C-37.989 175.034 -40.055 172.932 -42.305 170.148 C-55.223 154.511 -76.647 146.932 -95 140 C-94.68 138.117 -94.68 138.117 -94 136 C-93.051 135.381 -92.103 134.762 -91.125 134.125 C-86.604 131.051 -85.089 127.217 -84 122 C-83.921 120.631 -83.891 119.259 -83.9 117.888 C-83.903 117.078 -83.906 116.267 -83.909 115.432 C-83.917 114.552 -83.926 113.672 -83.934 112.765 C-83.939 111.831 -83.943 110.898 -83.948 109.936 C-83.959 107.91 -83.971 105.885 -83.986 103.859 C-84.008 100.658 -84.022 97.456 -84.034 94.254 C-84.067 85.152 -84.109 76.049 -84.171 66.947 C-84.209 61.379 -84.232 55.811 -84.246 50.243 C-84.254 48.118 -84.267 45.993 -84.287 43.868 C-84.313 40.904 -84.321 37.94 -84.325 34.976 C-84.337 34.092 -84.349 33.208 -84.362 32.297 C-84.354 29.858 -84.354 29.858 -84 26 C-80.856 23.904 -79.352 23.587 -75.688 23.105 C-74.621 22.957 -73.555 22.809 -72.456 22.657 C-71.316 22.502 -70.175 22.347 -69 22.188 C-45.714 18.796 -25.833 11.763 -5 1 C-3 0 -3 0 0 0 Z M-44.68 25.035 C-45.894 25.584 -45.894 25.584 -47.132 26.145 C-48.057 26.568 -48.057 26.568 -49 27 C-49.013 30.422 -49.024 33.844 -49.035 37.266 C-49.039 38.346 -49.043 39.426 -49.046 40.539 C-49.063 46.567 -49.06 52.595 -49.022 58.623 C-49.008 61.118 -48.994 63.614 -48.98 66.109 C-48.974 67.362 -48.967 68.614 -48.96 69.904 C-48.943 76.888 -49.076 83.839 -49.406 90.815 C-51.273 110.171 -51.273 110.171 -45.955 128.124 C-40.96 132.973 -35.378 135.657 -28.848 137.894 C-25.804 139.076 -23.364 140.605 -20.652 142.414 C-16.973 144.75 -16.973 144.75 -12.629 144.68 C-3.856 139.074 0.993 127.475 3.609 117.73 C6.562 97.091 2.136 77.672 -10.273 60.934 C-12.467 58.242 -14.71 55.61 -17 53 C-22.723 46.441 -26.475 39.477 -30.203 31.672 C-31.651 28.672 -33.119 25.758 -35 23 C-38.684 22.025 -41.355 23.523 -44.68 25.035 Z " fill="#F9F9F9" transform="translate(590,249)"/>
<path d="M0 0 C2.35 0.842 2.35 0.842 3.663 3.154 C5.664 6.341 7.632 6.972 10.968 8.498 C19.704 13.425 27.775 21.826 31.257 31.311 C32.863 37.506 32.448 42.237 29.35 47.842 C20.19 61.272 8.972 71.26 -4.251 80.615 C-4.713 81.02 -5.174 81.425 -5.65 81.842 C-5.65 82.502 -5.65 83.162 -5.65 83.842 C-3.092 85.02 -0.529 86.184 2.038 87.342 C2.759 87.676 3.48 88.01 4.223 88.354 C9.58 90.85 9.58 90.85 15.35 90.842 C17.646 89.563 19.708 88.275 21.85 86.779 C23.086 85.954 24.325 85.133 25.565 84.314 C26.192 83.901 26.818 83.487 27.463 83.061 C30.392 81.169 33.374 79.428 36.413 77.717 C37.435 77.137 38.457 76.557 39.51 75.959 C42.679 74.713 44.153 74.821 47.35 75.842 C47.35 77.162 47.35 78.482 47.35 79.842 C46.71 80.179 46.07 80.516 45.41 80.864 C42.489 82.41 39.576 83.969 36.663 85.529 C35.655 86.06 34.648 86.59 33.61 87.137 C28.475 89.899 24.149 92.381 20.35 96.842 C21.196 97.569 22.042 98.296 22.913 99.045 C40.06 114.097 46.627 130.218 48.132 152.658 C49.324 176.368 43.237 197.881 27.35 215.842 C26.872 216.462 26.394 217.082 25.901 217.721 C19.665 225.708 10.296 232.53 0.35 234.842 C-11.294 236.065 -18.897 233.677 -28.197 226.846 C-38.337 218.562 -44.588 207.767 -46.65 194.842 C-48.979 170.358 -41.941 147.028 -26.65 127.842 C-24.232 125.067 -21.751 122.355 -19.192 119.71 C-16.97 117.402 -15.679 115.931 -14.65 112.842 C-23.927 108.04 -33.593 105.442 -43.65 102.842 C-43.65 101.522 -43.65 100.202 -43.65 98.842 C-42.173 97.49 -42.173 97.49 -40.025 96.217 C-15.765 81.177 -15.765 81.177 -0.65 57.842 C0.183 51.041 -1.196 45.723 -4.65 39.842 C-7.031 36.955 -8.096 36.026 -11.65 34.842 C-19.123 34.21 -25.084 34.454 -31.771 37.951 C-34.135 39.072 -36.069 39.175 -38.65 38.842 C-38.23 33.899 -36.094 31.834 -32.587 28.467 C-31.668 27.572 -30.749 26.678 -29.802 25.756 C-27.52 23.61 -25.168 21.561 -22.79 19.521 C-19.895 17.009 -17.191 14.396 -14.544 11.623 C-13.871 10.919 -13.197 10.215 -12.503 9.49 C-11.121 8.036 -9.749 6.572 -8.386 5.1 C-7.716 4.406 -7.047 3.713 -6.357 2.998 C-5.763 2.367 -5.17 1.736 -4.559 1.086 C-2.65 -0.158 -2.65 -0.158 0 0 Z M-8.65 117.842 C-27.903 139.143 -32.829 166.911 -31.845 194.77 C-31.158 205.569 -28.319 217.73 -20.06 225.299 C-14.796 228.804 -8.401 229.368 -2.255 228.506 C4.949 226.616 8.929 221.98 12.6 215.705 C17.077 206.539 17.72 196.453 17.663 186.404 C17.658 185.367 17.653 184.33 17.648 183.262 C17.303 160.111 12.565 138.18 -2.974 120.268 C-4.855 118.667 -6.236 118.236 -8.65 117.842 Z " fill="#F6F6F6" transform="translate(1343.649658203125,247.158203125)"/>
<path d="M0 0 C0.99 1.98 0.99 1.98 2 4 C0.124 6.488 -0.881 6.978 -4.004 7.555 C-5.178 7.66 -6.353 7.766 -7.562 7.875 C-16.443 8.985 -24.342 11.725 -30 19 C-37.293 30.558 -37.306 43.202 -37.37 56.496 C-37.384 58.015 -37.399 59.534 -37.415 61.053 C-37.461 65.991 -37.487 70.929 -37.512 75.867 C-37.521 77.576 -37.531 79.284 -37.54 80.993 C-37.579 88.096 -37.612 95.2 -37.631 102.303 C-37.657 112.452 -37.715 122.599 -37.816 132.747 C-37.885 139.906 -37.92 147.064 -37.928 154.223 C-37.934 158.492 -37.955 162.759 -38.013 167.027 C-38.066 171.035 -38.077 175.041 -38.055 179.049 C-38.054 180.517 -38.068 181.985 -38.1 183.453 C-38.498 191.415 -38.498 191.415 -35.038 198.181 C-32.742 199.744 -30.552 200.915 -28 202 C-26.422 202.804 -26.422 202.804 -24.812 203.625 C-21.853 204.291 -21.853 204.291 -18.938 202.438 C-15.941 200.056 -15.941 200.056 -13.375 197.188 C-12.591 196.466 -11.808 195.744 -11 195 C-8.688 195.188 -8.688 195.188 -7 196 C-7.507 200.324 -8.765 202.197 -11.812 205.25 C-20.611 214.653 -28.208 225.492 -33.816 237.094 C-35 239 -35 239 -38 240 C-39.902 238.742 -39.902 238.742 -41.938 236.875 C-42.607 236.274 -43.276 235.674 -43.965 235.055 C-46 233 -46 233 -47.945 230.508 C-56.907 219.57 -70.893 215.639 -84 212 C-83.671 209.006 -83.488 207.447 -81.223 205.375 C-80.51 204.921 -79.797 204.467 -79.062 204 C-75.469 201.704 -74.324 200.053 -73 196 C-72.703 193.326 -72.703 193.326 -72.746 190.482 C-72.74 189.384 -72.735 188.287 -72.729 187.157 C-72.733 185.962 -72.737 184.768 -72.741 183.537 C-72.738 182.272 -72.734 181.006 -72.731 179.702 C-72.721 176.234 -72.725 172.767 -72.731 169.299 C-72.736 165.657 -72.732 162.015 -72.729 158.373 C-72.725 152.247 -72.73 146.121 -72.739 139.995 C-72.75 132.946 -72.747 125.896 -72.736 118.846 C-72.726 112.773 -72.725 106.7 -72.73 100.626 C-72.734 97.009 -72.734 93.391 -72.727 89.773 C-72.72 85.725 -72.73 81.676 -72.741 77.627 C-72.737 76.451 -72.733 75.275 -72.729 74.063 C-72.828 54.427 -76.558 35.572 -90 20.562 C-92 18 -92 18 -92 15.688 C-91 14 -91 14 -88 13 C-81.285 19.295 -75.527 26.525 -71.105 34.602 C-70.741 35.063 -70.376 35.525 -70 36 C-69.01 36 -68.02 36 -67 36 C-65.195 33.879 -65.195 33.879 -63.438 31.125 C-52.336 15.401 -35.995 3.637 -16.734 0.27 C-11.168 -0.279 -5.585 -0.145 0 0 Z " fill="#F8F8F8" transform="translate(733,187)"/>
<path d="M0 0 C9.135 1.124 19.894 10.72 25.762 17.34 C28.686 21.786 31.078 26.288 32.762 31.34 C34.777 32.073 34.777 32.073 36.762 32.34 C36.998 31.784 37.234 31.229 37.477 30.656 C39.074 27.776 41.067 25.676 43.324 23.277 C47.672 18.583 51.76 13.753 55.754 8.75 C56.416 7.955 57.079 7.159 57.762 6.34 C58.725 5.162 58.725 5.162 59.707 3.961 C61.762 2.34 61.762 2.34 64.125 2.29 C68.057 3.855 69.213 6.903 71.004 10.516 C71.563 11.598 71.563 11.598 72.133 12.702 C72.916 14.229 73.691 15.76 74.457 17.295 C75.633 19.644 76.839 21.976 78.051 24.307 C78.808 25.792 79.563 27.278 80.316 28.766 C80.678 29.464 81.039 30.162 81.411 30.881 C83.833 35.788 83.833 35.788 83.502 38.361 C82.214 41.803 79.558 44.325 77.137 47.027 C72.938 51.79 68.941 56.582 65.262 61.766 C63.494 63.621 62.263 63.968 59.762 64.34 C56.893 59.66 54.087 54.952 51.43 50.148 C51.03 49.427 50.63 48.706 50.219 47.963 C49.419 46.515 48.624 45.064 47.834 43.611 C45.961 39.846 45.961 39.846 42.762 37.34 C41.072 38.983 39.41 40.655 37.762 42.34 C37.055 43.053 36.349 43.766 35.621 44.501 C33.204 48.192 33.206 51.304 33.26 55.571 C33.255 56.386 33.249 57.201 33.244 58.041 C33.231 60.727 33.248 63.412 33.266 66.098 C33.265 67.967 33.264 69.836 33.261 71.705 C33.26 75.617 33.272 79.529 33.295 83.441 C33.324 88.459 33.321 93.477 33.308 98.496 C33.301 102.353 33.309 106.21 33.321 110.067 C33.326 111.917 33.326 113.768 33.322 115.619 C33.319 118.202 33.336 120.785 33.358 123.368 C33.351 124.518 33.351 124.518 33.344 125.691 C33.368 129.724 33.368 129.724 35.143 133.236 C35.677 133.6 36.211 133.964 36.762 134.34 C37.522 134.881 38.283 135.423 39.066 135.98 C39.915 136.512 40.763 137.043 41.637 137.59 C42.48 138.131 43.323 138.673 44.191 139.23 C47.326 140.583 48.589 140.552 51.762 139.34 C53.976 137.352 55.84 135.197 57.797 132.957 C58.445 132.423 59.094 131.89 59.762 131.34 C62.008 131.598 62.008 131.598 63.762 132.34 C63.328 137.174 60.979 139.777 57.824 143.215 C49.666 152.469 42.955 162.722 37.113 173.582 C35.762 175.34 35.762 175.34 33.885 176.135 C31.762 176.34 31.762 176.34 30.089 175.172 C29.274 174.278 29.274 174.278 28.441 173.367 C27.829 172.717 27.217 172.068 26.587 171.398 C25.943 170.698 25.3 169.998 24.637 169.277 C15.503 159.816 7.349 155.193 -5.171 151.342 C-11.049 149.529 -11.049 149.529 -13.238 147.34 C-13.238 145.402 -13.238 145.402 -12.238 143.34 C-7.203 140.34 -7.203 140.34 -4.238 140.34 C-1.062 130.442 -0.812 120.975 -0.875 110.711 C-0.876 109.028 -0.875 107.345 -0.873 105.662 C-0.874 102.155 -0.884 98.648 -0.902 95.141 C-0.925 90.674 -0.925 86.207 -0.919 81.74 C-0.915 78.272 -0.922 74.803 -0.932 71.334 C-0.936 69.688 -0.937 68.042 -0.935 66.396 C-0.528 51.301 -0.528 51.301 -4.988 37.215 C-7.877 34.807 -9.468 34.186 -13.238 34.34 C-15.988 36.59 -15.988 36.59 -18.238 39.34 C-19.228 40 -20.218 40.66 -21.238 41.34 C-22.228 40.35 -23.218 39.36 -24.238 38.34 C-22.077 32.972 -19.47 28.106 -16.488 23.152 C-15.597 21.658 -14.707 20.163 -13.816 18.668 C-13.38 17.938 -12.944 17.207 -12.494 16.455 C-10.156 12.517 -7.888 8.538 -5.613 4.562 C-3.08 0.468 -3.08 0.468 0 0 Z " fill="#FAFAFA" transform="translate(1029.23828125,249.66015625)"/>
<path d="M0 0 C2.016 2.478 3.498 5.188 5 8 C5.359 8.659 5.718 9.318 6.087 9.997 C7.154 11.999 8.186 14.017 9.207 16.043 C9.577 16.774 9.948 17.506 10.329 18.26 C11.102 19.79 11.872 21.322 12.64 22.855 C13.817 25.197 15.009 27.531 16.201 29.865 C16.954 31.362 17.706 32.858 18.457 34.355 C18.813 35.048 19.169 35.741 19.536 36.455 C21.346 40.108 22.449 42.899 22 47 C21.466 47.17 20.933 47.34 20.383 47.516 C9.929 50.832 9.929 50.832 0.188 55.75 C-2 57 -2 57 -4.5 57.688 C-8.099 56.698 -8.733 54.616 -10.595 51.507 C-13.256 46.758 -15.66 41.884 -18.062 37 C-18.579 35.958 -19.095 34.917 -19.627 33.844 C-20.628 31.824 -21.628 29.803 -22.625 27.781 C-24.405 24.181 -26.201 20.59 -28 17 C-30.763 17.523 -33.326 18.109 -36 19 C-37.115 20.759 -37.115 20.759 -38 23 C-38.402 23.879 -38.804 24.758 -39.219 25.664 C-50.332 51.346 -48.449 84.042 -38.795 110.009 C-32.63 125.45 -25.807 136.05 -10.125 142.812 C-1.032 145.886 7.819 145.07 17 143 C18.999 142.661 20.999 142.325 23 142 C23.33 143.32 23.66 144.64 24 146 C22.043 147.127 20.084 148.251 18.125 149.375 C17.504 149.732 16.882 150.089 16.242 150.458 C12.702 152.484 9.146 154.472 5.555 156.406 C-4.166 161.661 -13.146 167.395 -22 174 C-25 176 -25 176 -28 176 C-28.99 175.67 -29.98 175.34 -31 175 C-31.392 174.134 -31.784 173.268 -32.188 172.375 C-34.602 167.88 -37.723 166.491 -42.023 163.91 C-46.86 160.807 -50.907 157.011 -55 153 C-55.7 152.336 -56.4 151.672 -57.121 150.988 C-74.547 133.154 -77.921 105.737 -78 82 C-77.331 59.838 -69.88 39.694 -54 24 C-53.252 23.23 -52.505 22.461 -51.734 21.668 C-41.578 11.797 -29.578 6.942 -16.375 2.438 C-14.81 1.899 -14.81 1.899 -13.212 1.349 C-12.222 1.027 -11.231 0.704 -10.211 0.371 C-9.327 0.082 -8.443 -0.208 -7.533 -0.506 C-4.406 -1.116 -2.952 -1.289 0 0 Z " fill="#F9F9F9" transform="translate(966,252)"/>
<path d="M0 0 C3.948 0.646 5.121 1.356 7.438 4.562 C8.5 6.438 8.5 6.438 8.438 8.562 C6.016 11.926 3.89 14.261 0.438 16.562 C-3.094 16.412 -5.085 15.893 -8 13.875 C-9.562 11.562 -9.562 11.562 -9.625 8.625 C-7.819 3.419 -5.517 0.871 0 0 Z M-2.562 6.562 C-2.892 8.213 -3.222 9.862 -3.562 11.562 C-1.912 11.562 -0.263 11.562 1.438 11.562 C1.108 9.912 0.778 8.263 0.438 6.562 C-0.552 6.562 -1.543 6.562 -2.562 6.562 Z " fill="#E0E0E0" transform="translate(96.5625,90.4375)"/>
<path d="M0 0 C0.33 0 0.66 0 1 0 C1.03 3.292 1.047 6.583 1.062 9.875 C1.071 10.793 1.079 11.711 1.088 12.656 C1.11 18.834 0.739 24.867 0 31 C-0.66 31 -1.32 31 -2 31 C-2 25.39 -2 19.78 -2 14 C-1.67 14 -1.34 14 -1 14 C-0.67 9.38 -0.34 4.76 0 0 Z " fill="#AFAFAF" transform="translate(3,499)"/>
</svg>